<svg id="financial" xmlns="http://www.w3.org/2000/svg" width="96" height="96" viewBox="0 0 96 96">
  <path id="Path_1226" data-name="Path 1226" d="M0,0H96V96H0Z" fill="none"/>
  <path id="Path_1227" data-name="Path 1227" d="M84.8,23H66.4V13L57.2,3H38.8L29.6,13V23H11.2C6.14,23,2,27.5,2,33V58a10.1,10.1,0,0,0,4.6,8.65V83c0,5.55,4.094,10,9.2,10H80.2c5.106,0,9.2-4.45,9.2-10V66.6A10.248,10.248,0,0,0,94,58V33C94,27.5,89.86,23,84.8,23Zm-46-10H57.2V23H38.8ZM11.2,33H84.8V58h-23V43H34.2V58h-23ZM52.6,63H43.4V53h9.2ZM80.2,83H15.8V68H34.2v5H61.8V68H80.2Z" fill="#082865"/>
</svg>
