<svg xmlns="http://www.w3.org/2000/svg" width="96" height="96" viewBox="0 0 96 96">
  <g id="health" transform="translate(0)">
    <path id="Path_1220" data-name="Path 1220" d="M0,0H96V96H0Z" fill="none"/>
    <path id="Path_1221" data-name="Path 1221" d="M68.7,3A26.847,26.847,0,0,0,48,13.291,26.847,26.847,0,0,0,27.3,3C13.132,3,2,14.915,2,30.08,2,48.692,17.64,63.857,41.33,86.9L48,93.35l6.67-6.5C78.36,63.857,94,48.692,94,30.08,94,14.915,82.868,3,68.7,3ZM48.46,79.564l-.46.492-.46-.492C25.644,58.342,11.2,44.31,11.2,30.08c0-9.847,6.9-17.233,16.1-17.233a18.007,18.007,0,0,1,16.422,11.62h8.6A17.9,17.9,0,0,1,68.7,12.847c9.2,0,16.1,7.386,16.1,17.233C84.8,44.31,70.356,58.342,48.46,79.564Z" transform="translate(0 0)" fill="#082865"/>
  </g>
</svg>
