<svg xmlns="http://www.w3.org/2000/svg" xmlns:xlink="http://www.w3.org/1999/xlink" width="110.4" height="110" viewBox="0 0 110.4 110">
  <defs>
    <clipPath id="clip-path">
      <rect width="110.4" height="110" fill="none"/>
    </clipPath>
  </defs>
  <g id="_24_shopping_cart" data-name="24 / shopping / cart" clip-path="url(#clip-path)">
    <path id="icon" d="M77,110A16.523,16.523,0,0,1,61.44,99H48.56a16.505,16.505,0,0,1-31.121,0l-1.252,0a17,17,0,0,1-11.152-5.04A17.747,17.747,0,0,1,0,82.5l0-5.777A17.177,17.177,0,0,1,16.444,60.5L11.053,22.78,11,22a15.7,15.7,0,0,0-3.886-9.86C6.565,11.589,4.105,11,0,11V0C7.187,0,11.916,1.387,14.89,4.361a23.874,23.874,0,0,1,4.688,6.97,12.491,12.491,0,0,1,2.817-.317l76.83,5.49a12.085,12.085,0,0,1,9.9,5.1,8.226,8.226,0,0,1,.392,8.142c-.626,1.4-3.392,6.975-8.222,16.583-1.9,3.777-3.841,7.643-5.792,11.5-1.1,2.188-1.1,2.188-1.881,3.732l-.376.742-.016.031c-.09.178-.146.288-.188.37a14.375,14.375,0,0,1-9.088,8.529l-.812.257H27.631l-10.86,0A6.01,6.01,0,0,0,11,77l-.01,5.168A6.21,6.21,0,0,0,16.5,88h.941A16.506,16.506,0,0,1,48.56,88H61.44A16.5,16.5,0,1,1,77,110Zm0-22a5.5,5.5,0,1,0,5.5,5.5A5.508,5.508,0,0,0,77,88ZM33,88a5.5,5.5,0,1,0,5.5,5.5A5.506,5.506,0,0,0,33,88ZM22.057,22l5.391,37.729a.928.928,0,0,0,.673.767H81.23a3.4,3.4,0,0,0,1.594-1.856l.267-.624c.129-.257.129-.257.713-1.411l1.881-3.727c1.945-3.851,3.891-7.717,5.707-11.331l.079-.158c3.21-6.389,5.611-11.2,6.945-13.92Z" transform="translate(0 0)" fill="#082865"/>
  </g>
</svg>
