<svg xmlns="http://www.w3.org/2000/svg" width="96" height="96" viewBox="0 0 96 96">
  <g id="retail" transform="translate(0)">
    <g id="Bounding_Box">
      <rect id="Rectangle_607" data-name="Rectangle 607" width="96" height="96" fill="none"/>
    </g>
    <g id="Icon" transform="translate(8.021 12)">
      <g id="Group_883" data-name="Group 883">
        <path id="Path_1225" data-name="Path 1225" d="M81.584,26.56l-4.2-17.48A7.857,7.857,0,0,0,69.744,3H14.184a7.855,7.855,0,0,0-7.6,6.08l-4.2,17.48a13.5,13.5,0,0,0,2.48,11.52,15.335,15.335,0,0,0,1.12,1.16V67a8.024,8.024,0,0,0,8,8h56a8.024,8.024,0,0,0,8-8V39.24a14.794,14.794,0,0,0,1.12-1.12A13.455,13.455,0,0,0,81.584,26.56Zm-11.96-15.6,4.2,17.48a5.424,5.424,0,0,1-1,4.68A4.693,4.693,0,0,1,69.064,35a5,5,0,0,1-4.84-4.56L61.9,11ZM45.984,11h7.84l2.16,18.08a5.377,5.377,0,0,1-1.32,4.28,4.771,4.771,0,0,1-3.8,1.64,5.088,5.088,0,0,1-4.88-5.24ZM27.944,29.08,30.144,11h7.84V29.76A5.14,5.14,0,0,1,32.824,35a4.813,4.813,0,0,1-3.56-1.64A5.682,5.682,0,0,1,27.944,29.08Zm-17.8-.64L14.184,11h7.88l-2.32,19.44A5.03,5.03,0,0,1,14.9,35a4.6,4.6,0,0,1-3.72-1.88A5.289,5.289,0,0,1,10.144,28.44ZM13.984,67V42.88a7.241,7.241,0,0,0,.92.12,12.516,12.516,0,0,0,8.96-3.8A12.864,12.864,0,0,0,33.1,43a12.682,12.682,0,0,0,8.92-3.72A13.111,13.111,0,0,0,51.184,43a12.7,12.7,0,0,0,8.96-3.8A12.516,12.516,0,0,0,69.1,43a7.241,7.241,0,0,0,.92-.12V67Z" transform="translate(-2.005 -3)" fill="#082865"/>
      </g>
    </g>
  </g>
</svg>
