<svg id="share" xmlns="http://www.w3.org/2000/svg" width="96" height="96" viewBox="0 0 96 96">
  <path id="Path_1194" data-name="Path 1194" d="M0,0H96V96H0Z" fill="none"/>
  <path id="Path_1195" data-name="Path 1195" d="M63,58.32a11.648,11.648,0,0,0-7.84,3.08L26.64,44.8A13.094,13.094,0,0,0,27,42a13.094,13.094,0,0,0-.36-2.8l28.2-16.44A11.973,11.973,0,1,0,51,14a13.094,13.094,0,0,0,.36,2.8L23.16,33.24a12,12,0,1,0,0,17.52L51.64,67.4a11.285,11.285,0,0,0-.32,2.6A11.68,11.68,0,1,0,63,58.32ZM63,10a4,4,0,1,1-4,4A4.012,4.012,0,0,1,63,10ZM15,46a4,4,0,1,1,4-4A4.012,4.012,0,0,1,15,46ZM63,74.08a4,4,0,1,1,4-4A4.012,4.012,0,0,1,63,74.08Z" transform="translate(9 6)" fill="#082865"/>
</svg>
