<svg xmlns="http://www.w3.org/2000/svg" width="96" height="96" viewBox="0 0 96 96">
  <g id="telecom" transform="translate(0)">
    <path id="Path_1218" data-name="Path 1218" d="M0,0H96V96H0Z" fill="none"/>
    <path id="Path_1219" data-name="Path 1219" d="M85.342,29.627l-4.6,4.273c8.288,7.691,8.288,19.655,0,27.773l4.6,4.273c11.511-9.827,11.511-26.064,0-36.318ZM75.672,38.6l-4.6,4.273a7.855,7.855,0,0,1,0,9.827l4.6,4.273C81.2,51.845,81.2,44.155,75.672,38.6ZM57.254,1H11.209C6.144,1,2,4.845,2,9.545V86.455C2,91.155,6.144,95,11.209,95H57.254c5.065,0,9.209-3.845,9.209-8.545V9.545C66.463,4.845,62.319,1,57.254,1Zm0,81.182H11.209V13.818H57.254Z" transform="translate(0 0)" fill="#082865"/>
  </g>
</svg>
