<svg id="Layer_1" data-name="Layer 1" xmlns="http://www.w3.org/2000/svg" viewBox="0 0 48 48"><defs><style>.cls-1{fill:#082865;}</style></defs><title>servicesicons</title><path class="cls-1" d="M45.47,12.08V6.32a5.07,5.07,0,0,0-5-5.06H5.05A5.06,5.06,0,0,0,0,6.32V41.68a5.06,5.06,0,0,0,5.05,5.06H40.42a5.07,5.07,0,0,0,5-5.06V35.92A5,5,0,0,0,48,31.58V16.42A5,5,0,0,0,45.47,12.08ZM43,16.42V31.58H25.26V16.42ZM5.05,41.68V6.32H40.42v5H25.26a5.06,5.06,0,0,0-5.05,5.05V31.58a5.06,5.06,0,0,0,5.05,5.05H40.42v5Z"/><circle class="cls-1" cx="32.84" cy="24" r="3.79"/></svg>