<svg id="Layer_1" data-name="Layer 1" xmlns="http://www.w3.org/2000/svg" viewBox="0 0 48 48"><defs><style>.cls-1{fill:#082865;}</style></defs><title>servicesicons</title><path class="cls-1" d="M34.91,8.73H4.36A4.36,4.36,0,0,0,0,13.09V32.73H4.36a6.55,6.55,0,0,0,13.09,0h13.1a6.55,6.55,0,0,0,13.09,0H48V21.82Zm-4.36,4.36h2.18l6.54,6.55H30.55Zm-13.1,0h8.73v6.55H17.45Zm-13.09,0h8.73v6.55H4.36Zm6.55,22.36a2.73,2.73,0,1,1,2.73-2.72A2.72,2.72,0,0,1,10.91,35.45Zm26.18,0a2.73,2.73,0,1,1,2.73-2.72A2.73,2.73,0,0,1,37.09,35.45Zm6.55-7.09H41.93a6.46,6.46,0,0,0-9.68,0H15.75a6.46,6.46,0,0,0-9.68,0H4.36V24H43.64Z"/></svg>