<svg id="Layer_1" data-name="Layer 1" xmlns="http://www.w3.org/2000/svg" viewBox="0 0 48 48"><defs><style>.cls-1{fill:#082865;}</style></defs><title>servicesicons</title><path class="cls-1" d="M44.05,11.28l0,0L34.16,1.33,31.33,4.16,37,9.79a6.66,6.66,0,0,0,2.37,12.88A7,7,0,0,0,42,22.11V41.33a2.67,2.67,0,1,1-5.33,0v-12A5.35,5.35,0,0,0,31.33,24H28.67V5.33A5.35,5.35,0,0,0,23.33,0h-16A5.35,5.35,0,0,0,2,5.33V48H28.67V28h4V41.33a6.67,6.67,0,1,0,13.33,0V16A6.67,6.67,0,0,0,44.05,11.28Zm-20.72,10V42.67h-16V5.33h16Zm16-2.66A2.67,2.67,0,1,1,42,16,2.67,2.67,0,0,1,39.33,18.67ZM18,8,7.33,28h5.34V40L23.33,21.33H18Z"/></svg>