<svg id="Layer_1" data-name="Layer 1" xmlns="http://www.w3.org/2000/svg" viewBox="0 0 48 48"><defs><style>.cls-1{fill:#082865;}</style></defs><title>servicesicons</title><path class="cls-1" d="M20.21,23.37a10.11,10.11,0,1,0-10.1-10.11A10.11,10.11,0,0,0,20.21,23.37Zm0-15.16a5.06,5.06,0,1,1-5.05,5A5.06,5.06,0,0,1,20.21,8.21ZM5.05,38.53c.51-1.6,6.5-4.25,12.53-4.9l5.16-5.06a24,24,0,0,0-2.53-.15C13.47,28.42,0,31.81,0,38.53v5H22.74l-5.06-5Zm39.41-13.9-13,13.06-5.23-5.25L22.74,36l8.76,8.84L48,28.19Z"/></svg>