<svg id="Layer_1" data-name="Layer 1" xmlns="http://www.w3.org/2000/svg" viewBox="0 0 48 48"><defs><style>.cls-1{fill:#082865;}</style></defs><title>servicesicons</title><path class="cls-1" d="M24,0A24,24,0,1,0,48,24,24,24,0,0,0,24,0Zm0,44A20,20,0,1,1,44,24,20,20,0,0,1,24,44Z"/><path class="cls-1" d="M30.46,22.83a4.38,4.38,0,0,0,2.18-4.53c-.37-2.81-3.72-3.87-6.36-4.09V10h-2.6v4.18H21.94V10h-2.6v4.18H14.1v2.7h2c.87,0,1.3.26,1.3,1V29.41c0,1-.48,1.26-1,1.26h-2v2.75h5.05v4.27H22V33.42h1.75v4.27h2.54V33.42h.56c5.35,0,7.13-2.62,7.13-6.19A4.62,4.62,0,0,0,30.46,22.83ZM21.94,17H23.8c1.3,0,3.86.23,3.86,2.34a2.61,2.61,0,0,1-2.29,2.77H21.94Zm2.88,13.38v0H21.94V24.82h3.34c.78,0,3.72.26,3.72,2.34S27.6,30.41,24.82,30.41Z"/></svg>