<svg id="Layer_1" data-name="Layer 1" xmlns="http://www.w3.org/2000/svg" viewBox="0 0 48 48"><defs><style>.cls-1{fill:#082865;}</style></defs><title>servicesicons</title><g id="Flat"><path class="cls-1" d="M42.67,5.33H37.33V0H10.67V5.33H5.33A5.35,5.35,0,0,0,0,10.67v2.66A13.32,13.32,0,0,0,11.71,26.51a13.36,13.36,0,0,0,9.62,7.89v8.27H10.67V48H37.33V42.67H26.67V34.4a13.36,13.36,0,0,0,9.62-7.89A13.32,13.32,0,0,0,48,13.33V10.67A5.35,5.35,0,0,0,42.67,5.33Zm-37.34,8V10.67h5.34V20.85A8,8,0,0,1,5.33,13.33ZM24,29.33a8,8,0,0,1-8-8v-16H32v16A8,8,0,0,1,24,29.33Zm18.67-16a8,8,0,0,1-5.34,7.52V10.67h5.34Z"/></g></svg>