<svg id="Layer_1" data-name="Layer 1" xmlns="http://www.w3.org/2000/svg" viewBox="0 0 48 48"><defs><style>.cls-1{fill:none;}.cls-2{fill:#082865;}</style></defs><title>Services_</title><path class="cls-1" d="M-83.09-35.45H30.36V78H-83.09Z"/><g id="Master"><path class="cls-2" d="M37.33,21.33V0H10.67V10.67H0V48H21.33V37.33h5.34V48H48V21.33ZM10.67,42.67H5.33V37.33h5.34Zm0-10.67H5.33V26.67h5.34Zm0-10.67H5.33V16h5.34ZM21.33,32H16V26.67h5.33Zm0-10.67H16V16h5.33Zm0-10.66H16V5.33h5.33ZM32,32H26.67V26.67H32Zm0-10.67H26.67V16H32Zm0-10.66H26.67V5.33H32Zm10.67,32H37.33V37.33h5.34Zm0-10.67H37.33V26.67h5.34Z"/></g></svg>