<svg id="Layer_1" data-name="Layer 1" xmlns="http://www.w3.org/2000/svg" viewBox="0 0 48 48"><defs><style>.cls-1{fill:#082865;}</style></defs><title>servicesicons</title><path class="cls-1" d="M31.2,33.6h7.2a2.41,2.41,0,0,0,2.4-2.4V16.8a2.41,2.41,0,0,0-2.4-2.4H31.2a2.41,2.41,0,0,0-2.4,2.4V31.2A2.41,2.41,0,0,0,31.2,33.6Zm2.4-14.4H36v9.6H33.6ZM16.8,33.6H24a2.41,2.41,0,0,0,2.4-2.4V16.8A2.41,2.41,0,0,0,24,14.4H16.8a2.41,2.41,0,0,0-2.4,2.4V31.2A2.41,2.41,0,0,0,16.8,33.6Zm2.4-14.4h2.4v9.6H19.2Zm-12-4.8H12V33.6H7.2ZM0,4.8V43.2H48V4.8ZM43.2,38.4H4.8V9.6H43.2Z"/></svg>