<svg id="Layer_1" data-name="Layer 1" xmlns="http://www.w3.org/2000/svg" viewBox="0 0 48 48"><defs><style>.cls-1{fill:none;}.cls-2{fill:#082865;}</style></defs><title>servicesicons</title><path class="cls-1" d="M-15.09-103.45H98.36V10H-15.09Z"/><path class="cls-2" d="M8.84,26.53a2.53,2.53,0,1,0,2.53,2.52A2.52,2.52,0,0,0,8.84,26.53Zm0,10.1a2.53,2.53,0,1,0,2.53,2.53A2.53,2.53,0,0,0,8.84,36.63Zm0-20.21A2.53,2.53,0,1,0,11.37,19,2.53,2.53,0,0,0,8.84,16.42ZM1.26,17.68a1.27,1.27,0,0,0,0,2.53,1.27,1.27,0,1,0,0-2.53ZM8.84,6.32a2.53,2.53,0,1,0,2.53,2.52A2.52,2.52,0,0,0,8.84,6.32Zm37.9,13.89A1.27,1.27,0,1,0,45.47,19,1.25,1.25,0,0,0,46.74,20.21ZM29.05,11.37a2.53,2.53,0,1,0-2.52-2.53A2.54,2.54,0,0,0,29.05,11.37Zm0-8.84a1.26,1.26,0,0,0,1.27-1.27,1.27,1.27,0,0,0-2.53,0A1.26,1.26,0,0,0,29.05,2.53ZM1.26,27.79a1.27,1.27,0,0,0,0,2.53,1.27,1.27,0,1,0,0-2.53ZM19,45.47a1.27,1.27,0,1,0,1.26,1.27A1.26,1.26,0,0,0,19,45.47ZM19,2.53a1.26,1.26,0,0,0,1.26-1.27,1.27,1.27,0,0,0-2.53,0A1.26,1.26,0,0,0,19,2.53Zm0,8.84a2.53,2.53,0,1,0-2.53-2.53A2.53,2.53,0,0,0,19,11.37Zm0,13.89a3.79,3.79,0,1,0,3.79,3.79A3.79,3.79,0,0,0,19,25.26Zm20.21,1.27a2.53,2.53,0,1,0,2.52,2.52A2.53,2.53,0,0,0,39.16,26.53Zm0,10.1a2.53,2.53,0,1,0,2.52,2.53A2.54,2.54,0,0,0,39.16,36.63Zm0-20.21A2.53,2.53,0,1,0,41.68,19,2.54,2.54,0,0,0,39.16,16.42Zm0-10.1a2.53,2.53,0,1,0,2.52,2.52A2.53,2.53,0,0,0,39.16,6.32Zm7.58,21.47A1.27,1.27,0,1,0,48,29.05,1.26,1.26,0,0,0,46.74,27.79ZM29.05,36.63a2.53,2.53,0,1,0,2.53,2.53A2.53,2.53,0,0,0,29.05,36.63Zm0,8.84a1.27,1.27,0,1,0,1.27,1.27A1.26,1.26,0,0,0,29.05,45.47ZM19,15.16A3.79,3.79,0,1,0,22.74,19,3.78,3.78,0,0,0,19,15.16Zm0,21.47a2.53,2.53,0,1,0,2.52,2.53A2.54,2.54,0,0,0,19,36.63Zm10.1-11.37a3.79,3.79,0,1,0,3.79,3.79A3.79,3.79,0,0,0,29.05,25.26Zm0-10.1A3.79,3.79,0,1,0,32.84,19,3.79,3.79,0,0,0,29.05,15.16Z"/></svg>