<svg id="Layer_1" data-name="Layer 1" xmlns="http://www.w3.org/2000/svg" viewBox="0 0 48 48"><defs><style>.cls-1{fill:#082865;}</style></defs><title>Services_</title><path class="cls-1" d="M24,0A24,24,0,1,0,48,24,24,24,0,0,0,24,0ZM12.17,39.07c1-2.16,7.32-4.27,11.83-4.27s10.82,2.11,11.83,4.27a19,19,0,0,1-23.66,0Zm27.09-3.48C35.83,31.42,27.5,30,24,30S12.17,31.42,8.74,35.59A19.18,19.18,0,1,1,43.2,24,19,19,0,0,1,39.26,35.59ZM24,9.6A8.4,8.4,0,1,0,32.4,18,8.37,8.37,0,0,0,24,9.6Zm0,12A3.6,3.6,0,1,1,27.6,18,3.6,3.6,0,0,1,24,21.6Z"/></svg>