<svg id="Layer_1" data-name="Layer 1" xmlns="http://www.w3.org/2000/svg" viewBox="0 0 48 48"><defs><style>.cls-1{fill:#082865;}</style></defs><title>servicesicons</title><path class="cls-1" d="M20.38,23.15c-2.47.05-3.62-1.77-2.76-3.61C18.84,17,20,14.33,21.16,11.7c.88-2,2.25-1,3.48-.58,1.47.45,1.27,1.39.7,2.52-1.39,2.79-2.69,5.63-4.08,8.43A4.81,4.81,0,0,1,20.38,23.15Z"/><path class="cls-1" d="M28.1,42c.07,2.8-1.48,3.79-3.74,2.74-2.58-1.19-5.17-2.35-7.74-3.55-1.09-.52-1.78-1.23-.9-2.51.71-1,.91-2.71,3-1.61,2.79,1.51,5.72,2.79,8.57,4.2A3.75,3.75,0,0,1,28.1,42Z"/><path class="cls-1" d="M39.83,32.39c-2.8,0-3.61-1.53-2.54-3.64a78,78,0,0,0,3.49-7.62c.67-1.75,1.76-1.27,2.86-.92,1.3.42,2,1.27,1.33,2.72-1.35,2.86-2.66,5.73-4.07,8.56C40.67,32,40,32.22,39.83,32.39Z"/><path class="cls-1" d="M37.56,22.39c0,2.38-1.89,3.62-3.67,2.79-2.63-1.22-5.28-2.37-7.9-3.6-1-.5-1.67-1.14-.93-2.5C26.45,16.56,26.33,16.6,29,18c2.42,1.27,4.94,2.33,7.4,3.53A6.55,6.55,0,0,1,37.56,22.39Z"/><path class="cls-1" d="M11.54,17.41c-.8,1.56-1.39,2.65-1.93,3.76-1,2.07-2,4.14-2.93,6.24s-2,.12-3,.16c-.31,0-1.09-1.36-.91-1.79,1.36-3.19,2.85-6.33,4.42-9.43.22-.44,1.2-1,1.56-.8A17.34,17.34,0,0,1,11.54,17.41Z"/><path class="cls-1" d="M30.49,11.48c-1.89-.83-3.31-1.42-4.7-2.1-1.79-.87-3.53-1.86-5.34-2.7-1.17-.54-1-1.26-.47-2.09s.66-2.52,2.27-1.82c3,1.29,5.92,2.79,8.9,4.16,1.34.61,1.32,1.56.75,2.61A16,16,0,0,1,30.49,11.48Z"/><path class="cls-1" d="M27.26,24.39a24.06,24.06,0,0,1,3,1.68,1.58,1.58,0,0,1,.31,1.43,36.07,36.07,0,0,1-1.75,4.1c-.9,1.82-1.83,3.65-2.89,5.4s-2-.07-2.88-.27a1.75,1.75,0,0,1-.79-1.51C23.83,31.64,25.52,28.12,27.26,24.39Z"/><path class="cls-1" d="M22.86,27.64c-.34,3-1.44,3.78-3.63,2.69C16.62,29,14,27.68,11.38,26.42c-1.92-.92-.48-2.19-.28-3.19s1.06-1.23,2.12-.71c2.83,1.39,5.73,2.65,8.56,4A4.07,4.07,0,0,1,22.86,27.64Z"/><path class="cls-1" d="M18.11,13.41c-.46.81-.93,1.62-1.35,2.45-.78,1.54-1.55.27-2.28,0C13,15.28,11.65,14.61,10.22,14c-1.65-.69-1.06-2-.65-3S10.4,8.77,12,9.72s3.53,1.8,5.3,2.68c.38.19.78.35,1.18.52Z"/><path class="cls-1" d="M37.62,38.43c-2.89-.2-5.21-1.7-7.44-3.24-.31-.22.06-1.74.43-2.52.22-.46,1.18-1,1.57-.87A39.86,39.86,0,0,1,38,34.37c.41.22.47,1.34.44,2A7.8,7.8,0,0,1,37.62,38.43Z"/><path class="cls-1" d="M45,18.59c-1.46-.74-3.51-1.65-5.38-2.83-.34-.21-.17-1.65.16-2.33S41.13,12,41.5,12.14a54.73,54.73,0,0,1,6.2,2.92,1.64,1.64,0,0,1,.18,1.56C47.27,17.4,47.3,19,45,18.59Z"/><path class="cls-1" d="M1.39,28.72c2.65,1.38,4.91,2.44,7,3.79.28.19-.26,1.92-.7,2.78A1.84,1.84,0,0,1,6,35.81,31.52,31.52,0,0,1,.88,33.57,2.26,2.26,0,0,1,0,31.63,12,12,0,0,1,1.39,28.72Z"/><path class="cls-1" d="M35,18.36A12.14,12.14,0,0,1,32,17,2.15,2.15,0,0,1,31.78,15c.64-1.67,1.48-3.25,2.26-4.86.62-1.26,1.61-.91,2.57-.52s2,.78,1.43,2.13C37.09,14,36,16.11,35,18.36Z"/><path class="cls-1" d="M12.57,39a11.91,11.91,0,0,1-3-1.67c-.27-.27.39-1.52.73-2.28.63-1.42,1.34-2.8,2-4.21.93-2,2,0,2.95,0,.33,0,1,1.31.85,1.8a41.63,41.63,0,0,1-2.26,5.29C13.66,38.32,13.07,38.56,12.57,39Z"/><path class="cls-1" d="M32.48,47.81c-3.26.07-3.94-1-2.7-3.35a29.46,29.46,0,0,0,1.9-4c.62-1.85,1.86-.93,2.71-.59s2.18.91,1.29,2.49-1.46,3-2.26,4.46A4.3,4.3,0,0,1,32.48,47.81Z"/><path class="cls-1" d="M19.06,1.56c-1.32,2.5-2.33,4.71-3.66,6.7-.23.34-1.88-.11-2.76-.47a1.73,1.73,0,0,1-.49-1.59A38,38,0,0,1,14.58.75c.24-.44,1.36-.66,2-.53A10.47,10.47,0,0,1,19.06,1.56Z"/></svg>