<svg id="Layer_1" data-name="Layer 1" xmlns="http://www.w3.org/2000/svg" viewBox="0 0 48 48"><defs><style>.cls-1{fill:#082865;}</style></defs><title>servicesicons</title><path class="cls-1" d="M21.6,36h4.8V33.6h2.4a2.41,2.41,0,0,0,2.4-2.4V24a2.41,2.41,0,0,0-2.4-2.4H21.6V19.2h9.6V14.4H26.4V12H21.6v2.4H19.2a2.41,2.41,0,0,0-2.4,2.4V24a2.41,2.41,0,0,0,2.4,2.4h7.2v2.4H16.8v4.8h4.8ZM43.2,4.8H4.8A4.77,4.77,0,0,0,0,9.6L0,38.4a4.79,4.79,0,0,0,4.8,4.8H43.2A4.79,4.79,0,0,0,48,38.4V9.6A4.79,4.79,0,0,0,43.2,4.8Zm0,33.6H4.8V9.6H43.2Z"/></svg>