<svg id="Layer_1" data-name="Layer 1" xmlns="http://www.w3.org/2000/svg" viewBox="0 0 48 48"><defs><style>.cls-1{fill:#082865;}</style></defs><title>servicesicons</title><g id="Master"><path class="cls-1" d="M22.15,9.59a15.34,15.34,0,0,0-10.46,4.15A6,6,0,1,0,7.46,21.4a12.4,12.4,0,0,0-.24,1.87,14.4,14.4,0,1,0,28.64-1.34,2.38,2.38,0,0,1,2.37-2.72H48V9.59ZM6,16.79a1.2,1.2,0,1,1,1.2-1.2A1.19,1.19,0,0,1,6,16.79Zm15.6,14.4A7.2,7.2,0,1,1,28.8,24,7.2,7.2,0,0,1,21.6,31.19Z"/><circle class="cls-1" cx="21.6" cy="23.99" r="4.8"/></g></svg>