<svg id="Layer_1" data-name="Layer 1" xmlns="http://www.w3.org/2000/svg" viewBox="0 0 48 48"><defs><style>.cls-1{fill:#082865;}</style></defs><title>servicesicons</title><g id="Master"><path class="cls-1" d="M47.93,34.22,45.21,15.08a10,10,0,0,0-9.89-8.57H12.68a10,10,0,0,0-9.89,8.57L.07,34.22a6.35,6.35,0,0,0,6.29,7.27h0a6.34,6.34,0,0,0,4.5-1.88L16.5,34h15l5.62,5.62a6.37,6.37,0,0,0,4.49,1.88h0A6.36,6.36,0,0,0,47.93,34.22ZM42.69,36a1.4,1.4,0,0,1-2,.07L33.57,29H14.43L7.34,36.09a1.4,1.4,0,0,1-2-.07A1.3,1.3,0,0,1,5,34.92L7.71,15.78a5.08,5.08,0,0,1,5-4.27H35.32a5,5,0,0,1,4.94,4.3L43,34.94A1.41,1.41,0,0,1,42.69,36Z"/><polygon class="cls-1" points="16.5 14.01 14.01 14.01 14.01 19 9.01 19 9.01 21.5 14.01 21.5 14.01 26.5 16.5 26.5 16.5 21.5 21.5 21.5 21.5 19 16.5 19 16.5 14.01"/><circle class="cls-1" cx="36.49" cy="24" r="2.5"/><circle class="cls-1" cx="31.5" cy="16.5" r="2.5"/></g></svg>