<svg id="Layer_1" data-name="Layer 1" xmlns="http://www.w3.org/2000/svg" viewBox="0 0 48 48"><defs><style>.cls-1{fill:#082865;}</style></defs><title>servicesicons</title><path class="cls-1" d="M34.68,4.75a3.26,3.26,0,0,0-5,.36,12.54,12.54,0,0,0-2.26,5.18,59.66,59.66,0,0,0-1.38,13c0,.51.31.69.64.88s.53.47.17.85A3.71,3.71,0,0,0,26,27.65a39.91,39.91,0,0,1-2.16,13.22,12.45,12.45,0,0,1-3.74,5.58,6.39,6.39,0,0,1-6.46,1.12,5.06,5.06,0,0,1-3.12-5.06,2.38,2.38,0,0,1,2.13-2.12A2.36,2.36,0,0,1,15.15,42a2.33,2.33,0,0,1-1,2.82l-.58.33a3.64,3.64,0,0,0,3.19.76,5.25,5.25,0,0,0,3.44-2.37,19.55,19.55,0,0,0,2.9-7.69A56.73,56.73,0,0,0,24,27c0-.62-.06-1.11-.69-1.39-.4-.18-.48-.45-.15-.79A3.83,3.83,0,0,0,24,22c.16-4.86.49-9.7,2-14.37a11.41,11.41,0,0,1,2.36-4.23,5.39,5.39,0,0,1,6.1-1.33,5.3,5.3,0,0,1,3.06,5.07,2.4,2.4,0,0,1-4.68.67A2.35,2.35,0,0,1,34.1,5C34.27,4.93,34.45,4.86,34.68,4.75Z"/><path class="cls-1" d="M3.91,13.26a3.26,3.26,0,0,0,.27,4.9,13.25,13.25,0,0,0,5.23,2.28,50.41,50.41,0,0,0,9.32,1.22c.81,0,1.62.11,2.43.11.18,0,.44.11.53-.12s-.17-.33-.3-.47A58.25,58.25,0,0,1,14.86,13a17.87,17.87,0,0,1-2.81-6.37A5.48,5.48,0,0,1,17.35,0c1.75.08,3.86,1.47,4.31,2.88a2.15,2.15,0,0,1-.77,2.37,2.25,2.25,0,0,1-2.49.38,2,2,0,0,1-1.37-2,2.08,2.08,0,0,1,.11-1c.31-.54,0-.57-.43-.53A3.35,3.35,0,0,0,14.06,5a9.4,9.4,0,0,0,1.59,5.38,46.33,46.33,0,0,0,6.83,8.94c.17.18.38.35.31.63a12.47,12.47,0,0,0-.13,2.73c0,.82-.39,1.21-1.21,1.19a74.76,74.76,0,0,1-7.78-.56,28.44,28.44,0,0,1-8.13-2c-1.95-.86-3.77-2-4.42-4.16-.84-2.81.28-5.8,3.66-6.62a4.24,4.24,0,0,1,2.47,0,2.43,2.43,0,0,1,1.29,3A2.48,2.48,0,0,1,5.77,15C4.77,14.75,4.41,14.42,3.91,13.26Z"/><path class="cls-1" d="M29.1,21.82c.33.35.72.23,1.07.26,4.18.33,8.31.94,12.06,3,2.32,1.28,4.29,3,4.78,5.76.66,3.68-1.52,6.68-5.31,6.51a2.29,2.29,0,0,1-2.15-1.9,2.37,2.37,0,0,1,4.34-1.71l.35.63a3.81,3.81,0,0,0,.67-3.59c-.43-1.89-1.86-2.94-3.46-3.8a24.48,24.48,0,0,0-8.65-2.51c-1.24-.17-2.48-.29-3.72-.45a2,2,0,0,1-1.61-2.07c-.16-1.81,1.18-2.48,2.22-3.37a43.43,43.43,0,0,1,5.88-4.3,16.73,16.73,0,0,1,5.84-2.37,5.44,5.44,0,0,1,6.43,5.32c-.07,1.43-1.35,4-2.93,4.35a2.25,2.25,0,0,1-2.31-.8,2.32,2.32,0,0,1-.36-2.56,2,2,0,0,1,2-1.31,2,2,0,0,1,1,.11c.66.35.58-.13.52-.49a3.32,3.32,0,0,0-3-2.59,9.93,9.93,0,0,0-5.55,1.76,43.47,43.47,0,0,0-7.25,5.42c-.14.13-.32.22-.47.35S29.22,21.69,29.1,21.82Z"/><path class="cls-1" d="M6.65,34.4a13.27,13.27,0,0,0,6.64-2,40.75,40.75,0,0,0,7.93-6c.32-.3,1.35,0,1.35.49s.13,1.05-.33,1.45c-3.61,3.14-7.33,6.12-12,7.57a9.93,9.93,0,0,1-5.59.23,6.1,6.1,0,0,1-4.5-5.63c0-1.69,1.39-3.75,2.71-4.18a2.19,2.19,0,0,1,2.38.78,2.23,2.23,0,0,1,.39,2.48,2,2,0,0,1-2,1.37,2.7,2.7,0,0,1-.81,0c-.76-.26-.59.14-.46.57A4.38,4.38,0,0,0,6.65,34.4Z"/><path class="cls-1" d="M34.51,40.94a9.54,9.54,0,0,0-1-4.26,32.56,32.56,0,0,0-5.11-7.91c-.27-.32-.54-.63-.8-1a1.81,1.81,0,0,1,.56-2.23c.17-.09.27,0,.38.11,2.94,3.36,5.72,6.84,7.24,11.11A9.68,9.68,0,0,1,36,44a6.12,6.12,0,0,1-5.31,3.72c-1.8,0-3.77-1.33-4.2-2.74a2.13,2.13,0,0,1,.78-2.37,2.31,2.31,0,0,1,2.49-.37,2,2,0,0,1,1.37,2c0,.25,0,.5,0,.74-.1.72-.07.74.63.49A4.46,4.46,0,0,0,34.51,40.94Z"/></svg>