<svg id="Layer_1" data-name="Layer 1" xmlns="http://www.w3.org/2000/svg" viewBox="0 0 90 90"><defs><style>.cls-1{fill:#97d6d7;}.cls-2{fill:#ef574c;}</style></defs><title>hyperledger-fabric</title><path class="cls-1" d="M55.51,78.65a14.13,14.13,0,0,0-2.33-1.25,1.3,1.3,0,0,1-.7-2c1.26-2.68,2.53-5.35,3.83-8,.45-.93,1-1.1,2-.67s1.88.88,2.81,1.34a1.19,1.19,0,0,1,.66,1.69c-1.4,3-2.85,5.92-4.28,8.87Z"/><path class="cls-2" d="M64.07,43.37a6.61,6.61,0,0,1-.23.65c-.42.91-.86,1.82-1.31,2.72a1.27,1.27,0,0,1-1.89.72Q53.86,44.25,47.08,41a1.27,1.27,0,0,1-.66-1.91c.42-1,.86-1.89,1.33-2.81a1.23,1.23,0,0,1,1.83-.68c4.55,2.15,9.09,4.33,13.64,6.5A1.43,1.43,0,0,1,64.07,43.37Z"/><path class="cls-2" d="M51,70.8A10.92,10.92,0,0,1,50,72.92c-1.2,2.53-1.2,2.52-3.75,1.3l-11.95-5.7c-1.25-.59-1.45-1.09-.88-2.3.38-.84.78-1.66,1.19-2.49s1-1.16,2-.72c4.52,2.14,9,4.31,13.55,6.46A1.35,1.35,0,0,1,51,70.8Z"/><path class="cls-1" d="M19.4,51.06a6.31,6.31,0,0,1-2-.85c-2.69-1.3-2.68-1.31-1.39-4,1.91-4,3.79-7.92,5.68-11.88.57-1.17,1.09-1.34,2.27-.78.85.41,1.72.78,2.57,1.21a1.26,1.26,0,0,1,.65,1.91q-3.19,6.7-6.41,13.4C20.46,50.64,20.13,51.12,19.4,51.06Z"/><path class="cls-1" d="M50.43,46.31a9.06,9.06,0,0,1,2,.83C55,48.25,55.19,48.5,53.93,51c-2,3.93-3.79,7.91-5.69,11.86-.65,1.37-1.16,1.54-2.52.88-.77-.37-1.54-.74-2.31-1.13a1.32,1.32,0,0,1-.68-2Q45,55.78,47.33,51c.6-1.25,1.21-2.51,1.8-3.77A1.36,1.36,0,0,1,50.43,46.31Z"/><path class="cls-1" d="M74.93,42c-.1.26-.22.63-.38,1q-3.08,6.45-6.17,12.91a1.43,1.43,0,0,1-2.24.78c-.8-.38-1.59-.77-2.39-1.17-1.12-.57-1.29-1.06-.74-2.22,1.23-2.59,2.47-5.19,3.71-7.78.87-1.81,1.74-3.63,2.63-5.44.49-1,1-1.18,2-.71s1.82.86,2.73,1.29A1.41,1.41,0,0,1,74.93,42Z"/><path class="cls-1" d="M39.59,43.92a1.45,1.45,0,0,1-.72-.23L36.4,42.48c-1.11-.56-1.31-1.12-.78-2.23l4.8-10C41,29.12,41.48,28,42,26.88a1.24,1.24,0,0,1,1.78-.64c.92.41,1.84.84,2.73,1.29a1.41,1.41,0,0,1,.74,2.19q-2.3,4.8-4.61,9.61c-.6,1.25-1.2,2.51-1.79,3.77A1.28,1.28,0,0,1,39.59,43.92Z"/><path class="cls-2" d="M28.82,42.65a1.7,1.7,0,0,1,.91.26l13,6.2c1.16.56,1.36,1.1.81,2.28-.38.83-.78,1.66-1.19,2.48a1.29,1.29,0,0,1-1.95.73q-6.75-3.21-13.47-6.44a1.25,1.25,0,0,1-.69-1.89c.42-1,.88-1.88,1.33-2.81A1.21,1.21,0,0,1,28.82,42.65Z"/><path class="cls-2" d="M56.92,23.16c-.07.19-.15.45-.26.68l-1.14,2.41c-.57,1.21-1.15,1.42-2.34.86L42.11,21.82c-.69-.33-1.39-.65-2.08-1a1.28,1.28,0,0,1-.72-1.89c.44-1,.9-1.93,1.39-2.88a1.24,1.24,0,0,1,1.85-.62Q49.3,18.63,56,21.85A1.48,1.48,0,0,1,56.92,23.16Z"/><path class="cls-2" d="M56.15,55.68a1.45,1.45,0,0,1,.84.24l7.7,3.67c1.24.6,1.42,1.12.82,2.39-.38.81-.74,1.62-1.14,2.42a1.3,1.3,0,0,1-2,.71c-2.71-1.28-5.4-2.57-8.09-3.87a1.32,1.32,0,0,1-.73-2c.42-.88.84-1.76,1.27-2.64A1.27,1.27,0,0,1,56.15,55.68Z"/><path class="cls-2" d="M78.85,33.83a1.81,1.81,0,0,1-.14.45c-.43.94-.87,1.88-1.33,2.8a1.26,1.26,0,0,1-1.85.68c-2.78-1.3-5.55-2.64-8.32-4a1.21,1.21,0,0,1-.64-1.71C67,31,67.52,30,68.05,29a1.18,1.18,0,0,1,1.67-.56c2.83,1.34,5.66,2.7,8.48,4.05C78.68,32.68,78.9,33.07,78.85,33.83Z"/><path class="cls-2" d="M33.86,34.58a2,2,0,0,1-.75-.25l-7.85-3.76c-1.11-.53-1.29-1-.79-2.12.42-.92.84-1.83,1.31-2.73a1.24,1.24,0,0,1,1.79-.64q4.17,2,8.33,4a1.24,1.24,0,0,1,.6,1.8c-.44,1-.93,2-1.41,3A1.32,1.32,0,0,1,33.86,34.58Z"/><path class="cls-2" d="M23.62,57.68a3.56,3.56,0,0,1-.19.59c-.45,1-.9,1.93-1.38,2.88a1.24,1.24,0,0,1-1.79.65q-4.19-2-8.34-4a1.2,1.2,0,0,1-.6-1.78c.43-1,.89-1.94,1.38-2.89a1.22,1.22,0,0,1,1.83-.66c2.76,1.29,5.51,2.62,8.26,3.93A1.4,1.4,0,0,1,23.62,57.68Z"/><path class="cls-1" d="M28.24,21a1.85,1.85,0,0,1,.26-1C29.67,17.5,30.84,15,32,12.57c.62-1.29,1.21-1.5,2.47-.9.8.39,1.61.75,2.41,1.14a1.31,1.31,0,0,1,.69,2c-1.23,2.6-2.46,5.19-3.71,7.78-.62,1.29-1.07,1.43-2.39.8L29,22.16A1.15,1.15,0,0,1,28.24,21Z"/><path class="cls-1" d="M30.13,53.51a7.71,7.71,0,0,1,2.37.93c2.35,1.12,2.38,1.27,1.27,3.58s-2.13,4.49-3.21,6.73c-.53,1.11-1.1,1.33-2.21.83-.91-.42-1.82-.86-2.71-1.33a1.23,1.23,0,0,1-.59-1.79c1.27-2.7,2.57-5.39,3.86-8.09A1.23,1.23,0,0,1,30.13,53.51Z"/><path class="cls-1" d="M65.14,27.12a8.59,8.59,0,0,1-1,2.53c-.93,2.05-1.93,4.07-2.92,6.1-.52,1.08-1,1.25-2.15.75-.83-.39-1.65-.8-2.47-1.21-1.09-.54-1.27-1-.74-2.14.75-1.61,1.53-3.2,2.3-4.81.48-1,.94-2,1.45-3.05a1.29,1.29,0,0,1,2-.69c.92.41,1.83.86,2.74,1.29A1.23,1.23,0,0,1,65.14,27.12Z"/></svg>