<svg id="Layer_1" data-name="Layer 1" xmlns="http://www.w3.org/2000/svg" viewBox="0 0 48 48"><defs><style>.cls-1{fill:#082865;}</style></defs><title>servicesicons</title><path class="cls-1" d="M21.51,43.36c0-5.94,0-11.81,0-17.69,0-.52.11-.7.66-.68,1.23,0,2.46,0,3.68,0,.52,0,.69.11.68.66,0,5.63,0,11.25,0,16.88v.68c.3-.12.36-.36.47-.54q5.22-8.58,10.4-17.17A.9.9,0,0,1,38.3,25c1.24,0,2.49,0,3.73,0,.36,0,.51-.07.51-.48q0-4.2,0-8.4c0-.48-.22-.48-.57-.47-3.44,0-6.89,0-10.33,0-.51,0-.65-.11-.65-.63q0-6.72,0-13.43c0-.47.08-.57.54-.4,9,3.32,14.58,9.65,16.12,19.14,1.34,8.21-1.22,15.31-7.18,21.09a22.76,22.76,0,0,1-14.28,6.45,23.39,23.39,0,0,1-19.65-7.4A22.81,22.81,0,0,1,.15,26.73,23.56,23.56,0,0,1,7.42,6.64a23,23,0,0,1,9-5.41c.43-.15.58-.14.58.39q0,6.72,0,13.43c0,.48-.11.62-.61.62-3.44,0-6.89,0-10.33,0-.49,0-.62.13-.61.61,0,2.73,0,5.45,0,8.18,0,.47.13.58.59.57,1.26,0,2.53,0,3.79,0a.76.76,0,0,1,.74.42q5.3,8.76,10.61,17.52A.89.89,0,0,0,21.51,43.36Z"/><path class="cls-1" d="M28.2,37.14v-.56c0-4.25,0-8.49,0-12.73,0-.45-.1-.6-.58-.59q-3.64,0-7.29,0c-.49,0-.57.16-.57.6q0,6.33,0,12.67v.65c-.25,0-.27-.23-.35-.36-2.64-4.36-5.29-8.71-7.91-13.08a.81.81,0,0,0-.82-.47c-1,0-2,0-3,0-.37,0-.51-.08-.5-.47,0-1.64,0-3.27,0-4.91,0-.43.15-.5.53-.5h10c1,0,.92.14.92-.88,0-5.1,0-10.2,0-15.3,0-.5.17-.65.63-.74a24.19,24.19,0,0,1,9.44,0c.46.09.63.24.63.75,0,5.13,0,10.27,0,15.41,0,.76,0,.77.74.77,3.37,0,6.74,0,10.1,0,.49,0,.68.09.66.63,0,1.56,0,3.11,0,4.67,0,.51-.16.62-.63.6-.85,0-1.71,0-2.56,0a1.28,1.28,0,0,0-1.34.74c-2.57,4.3-5.18,8.59-7.78,12.88l-.19.29Z"/></svg>