<svg id="Layer_1" data-name="Layer 1" xmlns="http://www.w3.org/2000/svg" viewBox="0 0 48 48"><defs><style>.cls-1{fill:#082865;}</style></defs><title>servicesicons</title><path class="cls-1" d="M46.87,15.92,44.09,19.2l3.91.92a5.54,5.54,0,0,1-1.28,3.17c-2.34,3.18-5.66,4.86-9.32,6l-1.15.35C38.94,33,41,36.49,41,40.8a24.84,24.84,0,0,1-.52,3.54l-4-1.65.34,4A7.56,7.56,0,0,1,32.05,46a18.14,18.14,0,0,1-7.18-6.42l-.78-1.18c-2.28,3.58-5,6.57-9,8a22.41,22.41,0,0,1-3.71.66l.41-4.3L8,44.23A6.88,6.88,0,0,1,7.2,40a17.35,17.35,0,0,1,3.65-9c.32-.43.66-.85,1.06-1.37C6.75,28,2,26,0,20.16l4.08-.95L1.42,16a8.63,8.63,0,0,1,5.5-2.3,18.9,18.9,0,0,1,8.86,1.32l.57.2a.75.75,0,0,0,.2,0C16.47,9.85,17,4.71,21.86,1l2.19,3.65,2.17-3.52a8.14,8.14,0,0,1,3.65,4,18.93,18.93,0,0,1,1.76,9.08c0,.33,0,.67,0,1.07C36.76,13.51,41.84,12.46,46.87,15.92Z"/></svg>