<svg id="Layer_1" data-name="Layer 1" xmlns="http://www.w3.org/2000/svg" viewBox="0 0 48 48"><defs><style>.cls-1{fill:#082865;}</style></defs><title>servicesicons</title><g id="Flat"><path class="cls-1" d="M47.84,6.92a3.16,3.16,0,0,0-3-2.11H42.23l-.75-2.33A3.19,3.19,0,0,0,38.39,0h0a3.21,3.21,0,0,0-3.1,2.49l-.74,2.31H32a3.17,3.17,0,0,0-3,2.11,3,3,0,0,0,1.34,3.55l2.09,1.25-1,3a3.37,3.37,0,0,0,1.08,3.89,3.15,3.15,0,0,0,3.94-.15l1.94-1.68,1.94,1.68a3.17,3.17,0,0,0,2.07.77,3.2,3.2,0,0,0,1.87-.62,3.33,3.33,0,0,0,1.08-3.89l-.94-3,2.09-1.25A3.06,3.06,0,0,0,47.84,6.92ZM38.39,12a2.4,2.4,0,1,1,2.4-2.39A2.4,2.4,0,0,1,38.39,12Z"/><path class="cls-1" d="M27.57,20.43A9.57,9.57,0,0,0,24,18.19V14.4h-2.4v3.31c-.26,0-.55-.07-.81-.07A9.6,9.6,0,0,0,14,20.45a8.53,8.53,0,0,0-1,1.27L9.6,20.45A7.22,7.22,0,0,0,.41,24.82h0A7.1,7.1,0,0,0,3.1,33.09,9.5,9.5,0,0,0,14.88,44.87a7.05,7.05,0,0,0,2.78,2.4,7.14,7.14,0,0,0,3.1.72,7.5,7.5,0,0,0,2.42-.41h0a7.2,7.2,0,0,0,4.36-9.23L26.3,35.06a13.32,13.32,0,0,0,1.27-1,9.52,9.52,0,0,0,2.73-7.61h3.29V24H29.78A9.57,9.57,0,0,0,27.57,20.43ZM6.41,29.49A2.42,2.42,0,0,1,5,28.27a2.31,2.31,0,0,1-.1-1.82A2.4,2.4,0,0,1,8,25l7.58,2.86C12.79,29.28,9.24,30.5,6.41,29.49ZM21.57,43.05a2.26,2.26,0,0,1-1.82-.1,2.36,2.36,0,0,1-1.23-1.36c-1-2.84.22-6.36,1.68-9.12L23,40A2.4,2.4,0,0,1,21.57,43.05Zm2.9-12.81L23,26.38s0-.05-.05-.08L22.82,26a2,2,0,0,0-.17-.27l-.22-.21-.21-.22a1,1,0,0,0-.27-.17.82.82,0,0,0-.28-.14s-.05,0-.08-.05l-3.83-1.44a4.73,4.73,0,0,1,6.4.31A4.79,4.79,0,0,1,24.47,30.24Z"/></g></svg>