<svg id="Layer_1" data-name="Layer 1" xmlns="http://www.w3.org/2000/svg" viewBox="0 0 48 48"><defs><style>.cls-1{fill:#082865;}</style></defs><title>servicesicons</title><path class="cls-1" d="M19.39,21.26a6.24,6.24,0,0,1,.72-2.08,3.88,3.88,0,0,1,3.6-2,4.27,4.27,0,0,1,1.51.31,3.72,3.72,0,0,1,1.25.86,4.62,4.62,0,0,1,.82,1.27,4.25,4.25,0,0,1,.33,1.54h4.3a8.62,8.62,0,0,0-.67-3.1,7.25,7.25,0,0,0-1.68-2.42A7.87,7.87,0,0,0,27,14a9.19,9.19,0,0,0-3.34-.56,9.4,9.4,0,0,0-4.08.82,8.22,8.22,0,0,0-2.88,2.21A8.9,8.9,0,0,0,15,19.75a14.11,14.11,0,0,0-.58,3.94v.65A14,14,0,0,0,15,28.27a8.68,8.68,0,0,0,1.71,3.24,8.11,8.11,0,0,0,2.88,2.19,9.86,9.86,0,0,0,4.08.81A9.12,9.12,0,0,0,26.78,34a8.18,8.18,0,0,0,2.6-1.51,7.31,7.31,0,0,0,1.77-2.26,6.39,6.39,0,0,0,.72-2.76H27.58a3.57,3.57,0,0,1-.36,1.39,3.52,3.52,0,0,1-.87,1.11,3.86,3.86,0,0,1-1.25.72,4.83,4.83,0,0,1-1.44.24,4.12,4.12,0,0,1-2.13-.55,4.3,4.3,0,0,1-1.42-1.49,6.41,6.41,0,0,1-.72-2.11,16.28,16.28,0,0,1-.19-2.4v-.65A16.15,16.15,0,0,1,19.39,21.26ZM24,0A24,24,0,1,0,48,24,24,24,0,0,0,24,0Zm0,43.2A19.2,19.2,0,1,1,43.2,24,19.23,19.23,0,0,1,24,43.2Z"/></svg>