<svg id="Layer_1" data-name="Layer 1" xmlns="http://www.w3.org/2000/svg" viewBox="0 0 48 48"><defs><style>.cls-1{fill:#082865;}</style></defs><title>servicesicons</title><path class="cls-1" d="M44,6H4a4,4,0,0,0-4,4V38a4,4,0,0,0,4,4H44a4,4,0,0,0,4-4l0-28A4,4,0,0,0,44,6Zm0,32H4V10H44ZM42,12H28V22H42Zm-2,4-5,3.5L30,16V14l5,3.5L40,14ZM18,24a6,6,0,1,0-6-6A6,6,0,0,0,18,24Zm0-8a2,2,0,1,1-2,2A2,2,0,0,1,18,16ZM30,33.18c0-5-7.94-7.16-12-7.16S6,28.18,6,33.18V36H30ZM11,32a14.23,14.23,0,0,1,7-2,14.08,14.08,0,0,1,7,2Z"/></svg>