<svg id="Layer_1" data-name="Layer 1" xmlns="http://www.w3.org/2000/svg" viewBox="0 0 48 48"><defs><style>.cls-1{fill:#082865;}</style></defs><title>servicesicons</title><path class="cls-1" d="M48,15.27a4.38,4.38,0,0,1-4.36,4.37,3.7,3.7,0,0,1-1.12-.16l-7.76,7.75a3.81,3.81,0,0,1,.15,1.13,4.37,4.37,0,1,1-8.73,0,4.17,4.17,0,0,1,.15-1.13l-5.56-5.56a4.37,4.37,0,0,1-2.27,0L8.57,31.61a3.7,3.7,0,0,1,.16,1.12,4.37,4.37,0,1,1-4.37-4.37,3.7,3.7,0,0,1,1.12.16l10-9.93a3.83,3.83,0,0,1-.16-1.14,4.37,4.37,0,0,1,8.73,0,3.83,3.83,0,0,1-.15,1.14l5.56,5.56a4.37,4.37,0,0,1,2.27,0l7.75-7.76a3.7,3.7,0,0,1-.16-1.12,4.37,4.37,0,0,1,8.73,0Z"/></svg>