<svg id="Layer_1" data-name="Layer 1" xmlns="http://www.w3.org/2000/svg" viewBox="0 0 48 48"><defs><style>.cls-1{fill:#082865;}</style></defs><title>servicesicons</title><path class="cls-1" d="M32,16H16V32H32ZM26.67,26.67H21.33V21.33h5.34ZM48,21.33V16H42.67V10.67a5.35,5.35,0,0,0-5.34-5.34H32V0H26.67V5.33H21.33V0H16V5.33H10.67a5.35,5.35,0,0,0-5.34,5.34V16H0v5.33H5.33v5.34H0V32H5.33v5.33a5.35,5.35,0,0,0,5.34,5.34H16V48h5.33V42.67h5.34V48H32V42.67h5.33a5.35,5.35,0,0,0,5.34-5.34V32H48V26.67H42.67V21.33Zm-10.67,16H10.67V10.67H37.33Z"/></svg>