<svg id="Layer_1" data-name="Layer 1" xmlns="http://www.w3.org/2000/svg" viewBox="0 0 48 48"><defs><style>.cls-1{fill:#082865;}</style></defs><title>servicesicons</title><path class="cls-1" d="M38.25,5.75a6,6,0,0,0-8.5,0A5.81,5.81,0,0,0,28,10a6,6,0,0,0,3,5.19,13.49,13.49,0,0,1-.27,2.86,6.26,6.26,0,0,1-.87,2.17,9.72,9.72,0,0,1-1.27,1.59,6.75,6.75,0,0,1-1.84,1.24c-.79.38-1.52.7-2.2,1s-1.59.56-2.74.92A36,36,0,0,0,17,26.72V11.19A5.85,5.85,0,0,0,19.19,9,5.92,5.92,0,0,0,20,6a5.77,5.77,0,0,0-1.75-4.25A5.77,5.77,0,0,0,14,0,5.77,5.77,0,0,0,9.75,1.75,5.77,5.77,0,0,0,8,6a5.92,5.92,0,0,0,.81,3A5.85,5.85,0,0,0,11,11.19V36.81A5.85,5.85,0,0,0,8.81,39,5.92,5.92,0,0,0,8,42a6,6,0,0,0,6,6,6,6,0,0,0,6-6,5.92,5.92,0,0,0-.81-3A5.85,5.85,0,0,0,17,36.81V36a3.64,3.64,0,0,1,1.3-3.13,20.15,20.15,0,0,1,5.29-2.21,36.71,36.71,0,0,0,6.35-2.53q7-4,7.06-12.94A6,6,0,0,0,40,10a5.77,5.77,0,0,0-1.75-4.25ZM16.12,44.13A2.89,2.89,0,0,1,14,45a3,3,0,0,1-3-3,3,3,0,0,1,3-3,3,3,0,0,1,3,3,2.9,2.9,0,0,1-.88,2.13Zm0-36A2.86,2.86,0,0,1,14,9a3,3,0,0,1-3-3,3,3,0,0,1,3-3,2.89,2.89,0,0,1,2.12.87A2.9,2.9,0,0,1,17,6a2.86,2.86,0,0,1-.88,2.12Zm20,4A2.93,2.93,0,0,1,34,13a3,3,0,0,1-3-3,3,3,0,0,1,3-3,3,3,0,0,1,3,3,2.93,2.93,0,0,1-.87,2.13Zm0,0"/></svg>