<svg id="Layer_1" data-name="Layer 1" xmlns="http://www.w3.org/2000/svg" viewBox="0 0 48 48"><defs><style>.cls-1{fill:#082865;}</style></defs><title>servicesicons</title><path class="cls-1" d="M40,11.43H35.43a11.43,11.43,0,0,0-22.86,0H8A4.59,4.59,0,0,0,3.43,16V43.43A4.59,4.59,0,0,0,8,48H40a4.59,4.59,0,0,0,4.57-4.57V16A4.59,4.59,0,0,0,40,11.43ZM24,4.57a6.85,6.85,0,0,1,6.86,6.86H17.14A6.85,6.85,0,0,1,24,4.57ZM40,43.43H8V16H40ZM24,25.14a6.85,6.85,0,0,1-6.86-6.85H12.57a11.43,11.43,0,0,0,22.86,0H30.86A6.85,6.85,0,0,1,24,25.14Z"/></svg>