<svg id="Layer_1" data-name="Layer 1" xmlns="http://www.w3.org/2000/svg" viewBox="0 0 48 48"><defs><style>.cls-1{fill:#082865;}</style></defs><title>servicesicons</title><path class="cls-1" d="M43.2,24A4.81,4.81,0,0,1,48,19.2V9.6a4.81,4.81,0,0,0-4.8-4.8H4.8A4.8,4.8,0,0,0,0,9.6v9.6A4.8,4.8,0,0,1,4.8,24,4.8,4.8,0,0,1,0,28.8v9.6a4.81,4.81,0,0,0,4.8,4.8H43.2A4.81,4.81,0,0,0,48,38.4V28.8A4.81,4.81,0,0,1,43.2,24ZM32.59,35.52,24,30l-8.59,5.52L18,25.63l-7.9-6.45,10.18-.6L24,9.12l3.7,9.48,10.17.6L30,25.66Z"/></svg>