<svg id="Layer_1" data-name="Layer 1" xmlns="http://www.w3.org/2000/svg" viewBox="0 0 48 48"><defs><style>.cls-1{fill:#082865;}</style></defs><title>servicesicons</title><path class="cls-1" d="M13.82,18V32.52L33.81,18V32.52L47.72,22.47c0,2.2.3,3.81,0,5.25-1.68,7-5,12.84-11.4,16.72A23,23,0,0,1,16,46.58,22.68,22.68,0,0,1,.59,29.16a2.31,2.31,0,0,1,.63-1.95C5.19,24.2,9.24,21.3,13.82,18Z"/><path class="cls-1" d="M47.42,19.6,36.76,27.39V12.8L16.54,27.52V12.94L.3,24.77C-.86,15.84,5.24,4.48,16.66,1.05,29-2.65,44.12,3.44,47.42,19.6Z"/></svg>