<svg id="Layer_1" data-name="Layer 1" xmlns="http://www.w3.org/2000/svg" viewBox="0 0 48 48"><defs><style>.cls-1{fill:#082865;}</style></defs><title>servicesicons</title><path class="cls-1" d="M12,33.6H28.8v4.8H12ZM12,24H36v4.8H12Zm0-9.6H36v4.8H12ZM40.8,4.8h-10a7.17,7.17,0,0,0-13.54,0H7.2a3.77,3.77,0,0,0-1,.1A4.91,4.91,0,0,0,2.78,7.75,4.63,4.63,0,0,0,2.4,9.6V43.2a4.88,4.88,0,0,0,.38,1.87,5,5,0,0,0,1,1.54,4.73,4.73,0,0,0,2.42,1.32,5.94,5.94,0,0,0,1,.07H40.8a4.81,4.81,0,0,0,4.8-4.8V9.6A4.81,4.81,0,0,0,40.8,4.8ZM24,4.2A1.8,1.8,0,1,1,22.2,6,1.82,1.82,0,0,1,24,4.2Zm16.8,39H7.2V9.6H40.8Z"/></svg>