<svg id="Layer_1" data-name="Layer 1" xmlns="http://www.w3.org/2000/svg" viewBox="0 0 48 48"><defs><style>.cls-1{fill:#082865;}</style></defs><title>Services_</title><path class="cls-1" d="M30.85,21.59H48A24.09,24.09,0,0,0,26.47.06V17.22A7.31,7.31,0,0,1,30.85,21.59Zm.43-15.44A19.51,19.51,0,0,1,41.91,16.78H33.66a12.2,12.2,0,0,0-2.38-2.38ZM0,24A24,24,0,0,0,21.65,47.94V30.78a7.18,7.18,0,0,1,0-13.56V.06A24,24,0,0,0,0,24ZM16.84,6.15v8.27a12,12,0,0,0,0,19.18v8.28a19.28,19.28,0,0,1,0-35.73Zm9.63,24.63V47.94A24.09,24.09,0,0,0,48,26.41H30.85A7.31,7.31,0,0,1,26.47,30.78Zm4.81,2.82a11.67,11.67,0,0,0,2.38-2.38h8.25A19.51,19.51,0,0,1,31.28,41.85Z"/></svg>