<svg id="Layer_1" data-name="Layer 1" xmlns="http://www.w3.org/2000/svg" viewBox="0 0 48 48"><defs><style>.cls-1{fill:#082865;}</style></defs><title>servicesicons</title><path class="cls-1" d="M38.18,0H16.36A4.37,4.37,0,0,0,12,4.36v6.55h4.36V6.55H38.18v34.9H16.36V37.09H12v6.55A4.37,4.37,0,0,0,16.36,48H38.18a4.38,4.38,0,0,0,4.37-4.36V4.36A4.38,4.38,0,0,0,38.18,0ZM20.29,21.82V18.55c0-3.06-3.05-5.46-6.11-5.46s-6.11,2.4-6.11,5.46v3.27a2.82,2.82,0,0,0-2.62,2.62v7.63a2.86,2.86,0,0,0,2.62,2.84h12a2.86,2.86,0,0,0,2.84-2.62V24.65A2.86,2.86,0,0,0,20.29,21.82Zm-2.84,0H10.91V18.55a3,3,0,0,1,3.27-2.84,3,3,0,0,1,3.27,2.84Z"/></svg>