<svg id="Layer_1" data-name="Layer 1" xmlns="http://www.w3.org/2000/svg" viewBox="0 0 48 48"><defs><style>.cls-1{fill:#082865;}</style></defs><title>servicesicons</title><circle class="cls-1" cx="15.16" cy="31.58" r="3.79"/><circle class="cls-1" cx="32.84" cy="31.58" r="3.79"/><path class="cls-1" d="M24,0C13.89,0,3.79,1.26,3.79,10.11v24A8.86,8.86,0,0,0,12.63,43L8.84,46.74V48h5.05L19,43h10.1l5.06,5h5V46.74L35.37,43a8.86,8.86,0,0,0,8.84-8.84v-24C44.21,1.26,34.11,0,24,0Zm0,5.05c8.87,0,12.53,1.22,14.07,2.53H9.93C11.47,6.27,15.13,5.05,24,5.05ZM8.84,12.63H21.47v7.58H8.84ZM39.16,34.11a3.78,3.78,0,0,1-3.79,3.78H12.63a3.78,3.78,0,0,1-3.79-3.78V25.26H39.16Zm0-13.9H26.53V12.63H39.16Z"/></svg>