<svg width="512" height="512" viewBox="0 0 512 512" fill="none" xmlns="http://www.w3.org/2000/svg">
<g clip-path="url(#clip0)">
<path d="M34.1333 179.2C34.1472 168.356 40.9803 158.693 51.2 155.068V290.133H68.2667V76.8C68.2827 62.6677 79.7344 51.216 93.8667 51.2H324.267V34.1333H93.8667C70.3136 34.16 51.2267 53.2469 51.2 76.8V137.392C31.3483 141.472 17.0923 158.933 17.0667 179.2V281.6H34.1333V179.2Z" fill="#2B435F"/>
<path d="M503.467 443.733H494.933V264.533H477.867V443.733H327.801C317.805 443.706 308.214 447.679 301.166 454.766C297.311 458.642 292.066 460.815 286.599 460.8H225.401C219.934 460.815 214.689 458.642 210.834 454.766C203.786 447.679 194.195 443.706 184.199 443.733H34.1333V409.6H17.0667V443.733H8.53332C3.82078 443.733 -1.52588e-05 447.554 -1.52588e-05 452.267V477.867C0.0213181 496.709 15.2907 511.979 34.1333 512H477.867C496.709 511.979 511.979 496.709 512 477.867V452.267C512 447.554 508.179 443.733 503.467 443.733V443.733ZM494.933 477.867C494.923 487.287 487.287 494.923 477.867 494.933H34.1333C24.7125 494.923 17.0773 487.287 17.0667 477.867V460.8H184.199C189.666 460.785 194.911 462.958 198.766 466.834C205.806 473.913 215.382 477.885 225.365 477.867H286.635C296.618 477.885 306.194 473.914 313.234 466.835C317.089 462.959 322.334 460.786 327.801 460.8H494.933V477.867Z" fill="#2B435F"/>
<path d="M443.733 264.533H460.8V426.667H443.733V264.533Z" fill="#2B435F"/>
<path d="M51.2 409.6H68.2666V426.667H51.2V409.6Z" fill="#2B435F"/>
<path d="M93.8613 68.2667H110.928V85.3333H93.8613V68.2667Z" fill="#2B435F"/>
<path d="M127.995 68.2667H145.061V85.3333H127.995V68.2667Z" fill="#2B435F"/>
<path d="M162.128 68.2667H179.195V85.3333H162.128V68.2667Z" fill="#2B435F"/>
<path d="M93.8667 102.4H307.2V119.467H93.8667V102.4Z" fill="#2B435F"/>
<path d="M225.198 162.377C252.793 149.746 285.017 152.699 309.857 170.133L319.683 156.178C284.363 131.3 237.218 131.3 201.898 156.178L211.723 170.133C215.969 167.143 220.48 164.547 225.198 162.377Z" fill="#2B435F"/>
<path d="M312.25 430.45C331.134 410.872 346.081 387.848 356.279 362.63L340.462 356.222C331.078 379.422 317.327 400.604 299.953 418.617L312.25 430.45Z" fill="#2B435F"/>
<path d="M503.467 102.4H494.933V76.8C494.933 34.384 460.548 0 418.133 0C375.718 0 341.333 34.384 341.333 76.8C341.333 81.5125 345.154 85.3333 349.867 85.3333H384C388.713 85.3333 392.533 81.5125 392.533 76.8C392.533 62.6613 403.995 51.2 418.133 51.2C432.272 51.2 443.733 62.6613 443.733 76.8V102.4H332.8C328.087 102.4 324.267 106.221 324.267 110.933V188.529C302.752 177.389 278.863 171.612 254.635 171.691H253.44C224.969 171.673 197.155 180.247 173.635 196.292L183.229 210.406C203.92 196.287 228.39 188.74 253.44 188.753H254.635C279.19 188.641 303.295 195.345 324.267 208.118V228.693C304.154 213.723 279.718 205.696 254.645 205.823H253.451C217.735 205.969 184.343 223.552 164.015 252.917L159.917 258.805L173.927 268.553L178.018 262.673C195.154 237.886 223.317 223.031 253.451 222.886H254.645C286.473 222.886 315.801 237.488 333.09 261.938C339.133 270.485 343.654 280.012 346.453 290.098C350.99 306.031 350.987 322.914 346.444 338.845L362.87 343.481C368.273 324.518 368.276 304.425 362.88 285.46C359.556 273.51 354.195 262.224 347.034 252.097C345.916 250.516 344.749 248.977 343.549 247.467H503.467C508.179 247.467 512 243.646 512 238.933V110.933C512 106.221 508.179 102.4 503.467 102.4V102.4ZM418.133 34.1333C397.866 34.1589 380.402 48.4139 376.32 68.2667H359.008C363.703 35.6128 393.98 12.9472 426.635 17.6427C456.05 21.872 477.883 47.0827 477.867 76.8V102.4H460.8V76.8C460.773 53.2469 441.686 34.16 418.133 34.1333ZM494.933 230.4H341.333V119.467H494.933V230.4Z" fill="#2B435F"/>
<path d="M442.524 169.813C443.324 167.332 443.732 164.74 443.733 162.133C443.733 147.995 432.272 136.533 418.133 136.533C403.995 136.533 392.533 147.995 392.533 162.133C392.534 164.74 392.943 167.332 393.743 169.813C382.27 177.762 375.437 190.843 375.467 204.8C375.467 209.513 379.287 213.333 384 213.333H452.267C456.979 213.333 460.8 209.513 460.8 204.8C460.83 190.843 453.997 177.762 442.524 169.813ZM393.99 196.267C396.431 189.377 401.707 183.862 408.482 181.12C412.846 179.339 414.939 174.357 413.157 169.995C412.809 169.14 412.323 168.348 411.721 167.648C410.371 166.126 409.618 164.167 409.6 162.133C409.6 157.421 413.421 153.6 418.133 153.6C422.846 153.6 426.667 157.421 426.667 162.133C426.649 164.167 425.895 166.128 424.546 167.65C421.469 171.22 421.869 176.608 425.438 179.685C426.138 180.288 426.93 180.773 427.785 181.122C434.56 183.865 439.835 189.377 442.276 196.267H393.99Z" fill="#2B435F"/>
<path d="M8.53332 392.533H181.468L180.419 393.582L192.487 405.653L205.607 392.533H229.685L205.76 416.451L217.828 428.519L260.734 385.613C277.296 369.113 289.643 348.866 296.73 326.587C300.624 314.408 298.411 301.1 290.784 290.838C283.127 280.265 270.844 274.03 257.789 274.092H253.44C236.218 274.092 220.702 285.412 214.814 302.314C214.238 304.003 213.604 305.62 212.907 307.201H193.387C195.629 303.98 197.418 300.465 198.701 296.756C206.895 272.992 228.893 257.025 253.439 257.025H257.791C276.226 257.053 293.555 265.825 304.492 280.666C315.381 295.311 318.539 314.31 312.969 331.69C305.071 356.585 291.307 379.216 272.834 397.679L241.346 429.167L253.414 441.235L284.902 409.747C305.31 389.347 320.516 364.341 329.241 336.836C336.479 314.272 332.39 289.602 318.26 270.579C304.101 251.359 281.663 239.997 257.791 239.958H253.44C221.616 239.958 193.135 260.545 182.567 291.193C181.252 294.94 179.119 298.347 176.323 301.167L170.289 307.2H8.53332C3.82078 307.2 -1.52588e-05 311.021 -1.52588e-05 315.733V384C-1.52588e-05 388.713 3.82078 392.533 8.53332 392.533V392.533ZM253.44 291.157H257.792C265.399 291.123 272.558 294.758 277.018 300.922C281.404 306.804 282.687 314.439 280.463 321.432C275.361 337.657 267.041 352.685 256 365.62V335.394C259.916 328.157 263.006 320.501 265.212 312.574C265.515 311.436 264.838 310.267 263.699 309.964C263.635 309.947 263.57 309.933 263.505 309.921L247.467 307.2H231.211C234.9 297.435 243.545 291.157 253.44 291.157V291.157ZM17.0667 324.267H238.933V375.467H17.0667V324.267Z" fill="#2B435F"/>
<path d="M34.1333 341.333H51.2V358.4H34.1333V341.333Z" fill="#2B435F"/>
<path d="M68.2667 341.333H85.3333V358.4H68.2667V341.333Z" fill="#2B435F"/>
<path d="M102.4 341.333H119.467V358.4H102.4V341.333Z" fill="#2B435F"/>
<path d="M136.533 341.333H153.6V358.4H136.533V341.333Z" fill="#2B435F"/>
</g>
<defs>
<clipPath id="clip0">
<rect width="512" height="512" fill="white"/>
</clipPath>
</defs>
</svg>
