<svg width="512" height="512" viewBox="0 0 512 512" fill="none" xmlns="http://www.w3.org/2000/svg">
<path d="M168 200V120C168 102.352 153.648 88 136 88C118.352 88 104 102.352 104 120V200H120V168H152V200H168ZM120 152V120C120 111.176 127.176 104 136 104C144.824 104 152 111.176 152 120V152H120Z" fill="#2B435F"/>
<path d="M216 152C233.648 152 248 137.648 248 120C248 102.352 233.648 88 216 88H184V200H200V152H216ZM200 104H216C224.824 104 232 111.176 232 120C232 128.824 224.824 136 216 136H200V104Z" fill="#2B435F"/>
<path d="M256 184V200H304V184H288V104H304V88H256V104H272V184H256Z" fill="#2B435F"/>
<path d="M504 342.336V281.664L482.92 276.704C480.256 267.424 476.56 258.496 471.872 250.048L483.272 231.632L440.368 188.728L421.952 200.128C417.168 197.472 412.168 195.256 407.088 193.232C407.672 190.24 408 187.16 408 184C408 160.248 390.648 140.528 367.96 136.72C367.96 136.472 368 136.24 368 136C368 91.888 332.112 56 288 56C277.92 56 268.144 57.856 258.84 61.528C240.608 28.768 205.768 8 168 8C113.184 8 68.248 50.656 64.384 104.496C32.672 108.28 8 135.296 8 168C8 203.288 36.712 232 72 232H88V323.056L56 339.056V392H72V348.944L104 332.944V216H72C45.528 216 24 194.472 24 168C24 141.528 45.528 120 72 120C76.68 120 81.296 120.664 85.712 121.992L90.28 106.656C87.04 105.696 83.728 105.048 80.368 104.608C84.152 59.536 121.976 24 168 24C202.2 24 233.56 44.144 247.904 75.312L251.4 82.904L258.832 79.088C267.984 74.384 277.8 72 288 72C323.288 72 352 100.712 352 136C352 136.232 351.968 136.464 351.96 136.696C344.568 137.936 337.584 140.872 331.448 145.408L340.968 158.264C346.512 154.168 353.088 152 360 152C377.648 152 392 166.352 392 184C392 201.648 377.648 216 360 216H152V332.944L184 348.944V392H200V339.056L168 323.056V232H242.072L248.616 249.176C243.696 257.872 239.832 267.096 237.08 276.696L216 281.664V342.336L237.08 347.296C239.744 356.576 243.44 365.504 248.128 373.952L236.728 392.368L279.632 435.272L298.048 423.872C306.496 428.56 315.424 432.264 324.704 434.92L329.664 456H390.336L395.296 434.928C404.576 432.264 413.504 428.568 421.952 423.88L440.368 435.28L483.272 392.376L471.872 373.96C476.56 365.512 480.264 356.584 482.92 347.304L504 342.336ZM469.824 333.944L468.656 338.704C465.96 349.712 461.6 360.216 455.704 369.936L453.16 374.128L462.992 390.016L438.008 415L422.12 405.168L417.928 407.712C408.216 413.608 397.704 417.96 386.696 420.664L381.936 421.832L377.664 440H342.336L338.056 421.824L333.296 420.656C322.288 417.96 311.784 413.6 302.064 407.704L297.872 405.16L281.984 414.992L257 390.008L266.832 374.12L264.288 369.928C258.4 360.224 254.04 349.712 251.336 338.696L250.168 333.936L232 329.664V294.336L250.176 290.056L251.344 285.296C254.048 274.28 258.4 263.768 264.296 254.064L266.32 250.728L259.192 232H307.048C281.136 249.208 264 278.632 264 312C264 364.936 307.064 408 360 408C412.936 408 456 364.936 456 312C456 269.728 428.504 233.824 390.488 221.048C394.832 217.464 398.496 213.112 401.368 208.232C407.08 210.512 412.672 213.104 417.936 216.296L422.128 218.84L438.024 209.008L463.008 233.992L453.176 249.88L455.72 254.072C461.608 263.776 465.968 274.288 468.672 285.304L469.84 290.064L488 294.336V329.664L469.824 333.944ZM360 232C404.112 232 440 267.888 440 312C440 356.112 404.112 392 360 392C315.888 392 280 356.112 280 312C280 267.888 315.888 232 360 232Z" fill="#2B435F"/>
<path d="M360 376C395.288 376 424 347.288 424 312C424 276.712 395.288 248 360 248C324.712 248 296 276.712 296 312C296 347.288 324.712 376 360 376ZM360 264C386.472 264 408 285.528 408 312C408 338.472 386.472 360 360 360C333.528 360 312 338.472 312 312C312 285.528 333.528 264 360 264Z" fill="#2B435F"/>
<path d="M56 408H72V424H56V408Z" fill="#2B435F"/>
<path d="M184 408H200V424H184V408Z" fill="#2B435F"/>
<path d="M72 457.472V440H56V457.472C46.712 460.784 40 469.584 40 480C40 493.232 50.768 504 64 504C77.232 504 88 493.232 88 480C88 469.584 81.288 460.784 72 457.472ZM64 488C59.592 488 56 484.408 56 480C56 475.592 59.592 472 64 472C68.408 472 72 475.592 72 480C72 484.408 68.408 488 64 488Z" fill="#2B435F"/>
<path d="M200 457.472V440H184V457.472C174.712 460.784 168 469.584 168 480C168 493.232 178.768 504 192 504C205.232 504 216 493.232 216 480C216 469.584 209.288 460.784 200 457.472ZM192 488C187.592 488 184 484.408 184 480C184 475.592 187.592 472 192 472C196.408 472 200 475.592 200 480C200 484.408 196.408 488 192 488Z" fill="#2B435F"/>
<path d="M136 401.472V312H120V401.472C110.712 404.784 104 413.584 104 424C104 437.232 114.768 448 128 448C141.232 448 152 437.232 152 424C152 413.584 145.288 404.784 136 401.472ZM128 432C123.592 432 120 428.408 120 424C120 419.592 123.592 416 128 416C132.408 416 136 419.592 136 424C136 428.408 132.408 432 128 432Z" fill="#2B435F"/>
<path d="M120 216H136V232H120V216Z" fill="#2B435F"/>
<path d="M120 248H136V264H120V248Z" fill="#2B435F"/>
<path d="M120 280H136V296H120V280Z" fill="#2B435F"/>
</svg>
