<svg width="512" height="512" viewBox="0 0 512 512" fill="none" xmlns="http://www.w3.org/2000/svg">
<path d="M291.071 305.437C287.696 307.839 286.908 312.522 289.31 315.896C291.712 319.271 296.395 320.059 299.769 317.658C319.724 303.456 331.637 280.406 331.637 256.001C331.637 214.295 297.706 180.364 256 180.364C214.294 180.364 180.363 214.294 180.363 256C180.363 297.706 214.294 331.637 256 331.637C260.441 331.637 264.893 331.247 269.231 330.478C273.309 329.755 276.029 325.863 275.306 321.784C274.583 317.706 270.69 314.989 266.612 315.709C263.136 316.325 259.566 316.638 256 316.638C222.564 316.638 195.363 289.437 195.363 256.001C195.363 222.565 222.565 195.364 256 195.364C289.435 195.364 316.637 222.565 316.637 256.001C316.637 275.562 307.08 294.043 291.071 305.437V305.437Z" fill="white"/>
<path d="M256 150.303C248.092 150.303 240.204 151.181 232.557 152.913C228.517 153.827 225.984 157.844 226.899 161.884C227.814 165.923 231.829 168.461 235.871 167.542C242.433 166.057 249.205 165.303 256.001 165.303C306.012 165.303 346.699 205.99 346.699 256C346.699 306.01 306.011 346.697 256 346.697C205.989 346.697 165.303 306.011 165.303 256C165.303 223.791 182.624 193.719 210.508 177.518C214.089 175.438 215.306 170.847 213.225 167.266C211.143 163.683 206.553 162.465 202.972 164.549C170.485 183.424 150.304 218.467 150.304 256C150.304 314.281 197.72 361.697 256.001 361.697C314.282 361.697 361.698 314.281 361.698 256C361.698 197.719 314.282 150.303 256 150.303Z" fill="white"/>
<path d="M238.162 96.853C234.938 94.252 230.216 94.759 227.616 97.985C225.016 101.21 225.523 105.931 228.748 108.531L250.681 126.213C253.439 128.529 257.602 128.516 260.347 126.186L281.381 108.421C284.546 105.749 284.944 101.017 282.272 97.853C279.599 94.687 274.868 94.29 271.703 96.962L263 104.312V57.65C275.76 54.504 285.252 42.968 285.252 29.252C285.251 13.122 272.129 0 256 0C239.871 0 226.749 13.122 226.749 29.252C226.749 42.607 235.749 53.892 247.999 57.381V104.783L238.162 96.853ZM241.749 29.252C241.749 21.394 248.142 15 256 15C263.858 15 270.251 21.394 270.251 29.252C270.251 37.11 263.858 43.503 256 43.503C248.142 43.503 241.749 37.11 241.749 29.252V29.252Z" fill="white"/>
<path d="M344.013 160.474C344.332 164.085 347.279 166.94 350.855 167.28L378.3 169.593C378.514 169.611 378.727 169.619 378.938 169.619C382.795 169.619 386.074 166.662 386.403 162.749C386.751 158.621 383.687 154.993 379.559 154.645L368.208 153.688L401.195 120.702C405.715 123.447 410.911 124.915 416.334 124.915C424.147 124.915 431.493 121.872 437.018 116.348C442.543 110.823 445.586 103.477 445.586 95.664C445.586 87.851 442.543 80.505 437.019 74.98C431.494 69.455 424.148 66.412 416.335 66.412C408.522 66.412 401.176 69.455 395.651 74.979C386.207 84.423 384.591 98.767 390.787 109.896L357.269 143.414L355.92 130.85C355.478 126.732 351.783 123.753 347.663 124.194C343.544 124.635 340.564 128.333 341.006 132.451L344.013 160.474ZM406.258 85.587C408.95 82.896 412.529 81.413 416.336 81.413C420.143 81.413 423.721 82.895 426.413 85.588C429.105 88.279 430.587 91.859 430.587 95.665C430.587 99.471 429.105 103.05 426.413 105.741V105.742C423.722 108.433 420.143 109.916 416.336 109.916C412.529 109.916 408.95 108.434 406.258 105.741C400.701 100.186 400.701 91.144 406.258 85.587V85.587Z" fill="white"/>
<path d="M482.749 226.748C469.394 226.748 458.109 235.748 454.619 247.999H407.218L415.148 238.162C417.748 234.937 417.241 230.216 414.016 227.616C410.791 225.016 406.07 225.524 403.47 228.748L385.784 250.686C383.465 253.452 383.503 257.582 385.807 260.338L403.578 281.38C405.062 283.137 407.18 284.041 409.312 284.041C411.021 284.041 412.74 283.46 414.147 282.27C417.312 279.598 417.71 274.866 415.038 271.702L407.688 262.999H454.349C457.495 275.759 469.031 285.252 482.748 285.252C498.878 285.252 512 272.13 512 256C512 239.87 498.878 226.748 482.749 226.748ZM482.749 270.252C474.891 270.252 468.498 263.858 468.498 256C468.498 248.142 474.891 241.748 482.749 241.748C490.607 241.748 497 248.142 497 256C497 263.858 490.607 270.252 482.749 270.252Z" fill="white"/>
<path d="M416.335 387.084C411.267 387.084 406.399 388.372 402.094 390.779L368.584 357.269L381.147 355.921C385.266 355.48 388.246 351.782 387.804 347.664C387.363 343.545 383.656 340.56 379.547 341.007L351.517 344.014C347.835 344.346 345.165 347.281 344.718 350.855L342.405 378.301C342.057 382.429 345.121 386.057 349.249 386.405C349.463 386.423 349.676 386.431 349.887 386.431C353.744 386.431 357.022 383.474 357.352 379.561L358.309 368.209L391.303 401.204C384.505 412.451 385.95 427.32 395.649 437.019C401.174 442.544 408.52 445.587 416.333 445.587C424.146 445.587 431.492 442.544 437.017 437.02C442.542 431.495 445.585 424.149 445.585 416.335C445.585 408.522 442.542 401.177 437.018 395.652C431.495 390.127 424.149 387.084 416.335 387.084V387.084ZM426.412 426.413C423.721 429.104 420.142 430.587 416.335 430.587C412.528 430.587 408.949 429.105 406.257 426.413V426.412C400.7 420.856 400.7 411.814 406.257 406.258C408.949 403.567 412.528 402.084 416.335 402.084C420.142 402.084 423.72 403.566 426.412 406.259C429.104 408.95 430.586 412.53 430.586 416.335C430.587 420.142 429.104 423.721 426.412 426.413V426.413Z" fill="white"/>
<path d="M273.838 415.147C275.225 416.265 276.888 416.808 278.541 416.808C280.731 416.808 282.903 415.853 284.384 414.015C286.984 410.79 286.477 406.069 283.252 403.469L261.319 385.787C258.561 383.471 254.397 383.486 251.653 385.814L230.619 403.579C227.454 406.251 227.056 410.983 229.728 414.147C232.401 417.312 237.132 417.711 240.297 415.038L249 407.688V454.35C236.24 457.496 226.748 469.032 226.748 482.748C226.748 498.878 239.87 512 255.999 512C272.128 512 285.25 498.878 285.25 482.748C285.25 469.393 276.25 458.108 264 454.619V407.217L273.838 415.147ZM270.251 482.748C270.251 490.606 263.858 497 256 497C248.142 497 241.749 490.606 241.749 482.748C241.749 474.89 248.142 468.497 256 468.497C263.858 468.497 270.251 474.89 270.251 482.748Z" fill="white"/>
<path d="M167.987 351.526C167.707 348.362 165.372 345.668 162.296 344.913C162.145 344.876 161.993 344.84 161.84 344.813C161.777 344.802 161.711 344.795 161.647 344.785C161.485 344.76 161.323 344.736 161.159 344.722C161.154 344.722 161.149 344.721 161.144 344.72L133.699 342.407C129.565 342.075 125.944 345.124 125.595 349.251C125.247 353.379 128.311 357.007 132.439 357.355L143.79 358.312L110.803 391.298C106.283 388.553 101.087 387.085 95.664 387.085C87.851 387.085 80.505 390.128 74.98 395.652C69.455 401.177 66.412 408.523 66.412 416.336C66.412 424.149 69.455 431.495 74.979 437.02C80.504 442.545 87.85 445.588 95.663 445.588C103.476 445.588 110.822 442.545 116.347 437.021C125.791 427.577 127.407 413.233 121.211 402.104L154.729 368.586L156.078 381.15C156.491 384.997 159.743 387.85 163.526 387.85C163.793 387.85 164.064 387.835 164.336 387.806C168.455 387.365 171.435 383.667 170.993 379.549L167.987 351.526ZM105.742 426.413C103.05 429.104 99.471 430.587 95.664 430.587C91.857 430.587 88.279 429.105 85.587 426.412C82.895 423.721 81.413 420.141 81.413 416.335C81.413 412.529 82.895 408.95 85.587 406.259V406.258C88.278 403.567 91.857 402.084 95.664 402.084C99.471 402.084 103.05 403.566 105.742 406.259C111.299 411.814 111.299 420.856 105.742 426.413Z" fill="white"/>
<path d="M104.783 264.001L96.853 273.838C94.253 277.063 94.76 281.784 97.985 284.384C99.372 285.502 101.035 286.045 102.687 286.045C104.877 286.045 107.049 285.09 108.531 283.252L126.217 261.314C128.536 258.548 128.498 254.418 126.194 251.662L108.423 230.62C105.75 227.455 101.018 227.057 97.854 229.729C94.689 232.401 94.291 237.133 96.963 240.297L104.313 249H57.651C54.505 236.24 42.969 226.747 29.252 226.747C13.122 226.748 0 239.87 0 256C0 272.13 13.122 285.252 29.251 285.252C42.606 285.252 53.891 276.252 57.381 264.001H104.783ZM29.251 270.252C21.393 270.252 15 263.858 15 256C15 248.142 21.393 241.748 29.251 241.748C37.109 241.748 43.503 248.142 43.503 256C43.503 263.858 37.11 270.252 29.251 270.252Z" fill="white"/>
<path d="M95.665 124.916C100.733 124.916 105.601 123.628 109.906 121.221L143.416 154.731L130.853 156.079C126.734 156.52 123.754 160.218 124.196 164.336C124.609 168.183 127.861 171.037 131.644 171.037C131.912 171.037 132.182 171.022 132.453 170.993L160.475 167.987C164.163 167.661 166.834 164.72 167.281 161.146L169.594 133.7C169.942 129.572 166.878 125.944 162.75 125.596C158.615 125.254 154.995 128.313 154.646 132.44L153.689 143.792L120.695 110.797C127.493 99.55 126.048 84.681 116.349 74.982C110.824 69.457 103.478 66.414 95.665 66.414C87.852 66.414 80.506 69.457 74.981 74.981C69.456 80.506 66.413 87.852 66.413 95.666C66.413 103.479 69.456 110.824 74.98 116.349C80.505 121.873 87.851 124.916 95.665 124.916V124.916ZM85.588 85.587C88.279 82.896 91.858 81.413 95.665 81.413C99.472 81.413 103.051 82.895 105.743 85.587V85.588C111.3 91.144 111.3 100.186 105.743 105.742C103.051 108.433 99.472 109.916 95.665 109.916C91.858 109.916 88.28 108.434 85.588 105.741C82.896 103.05 81.414 99.47 81.414 95.665C81.413 91.858 82.896 88.279 85.588 85.587Z" fill="white"/>
</svg>
