<svg width="512" height="512" viewBox="0 0 512 512" fill="none" xmlns="http://www.w3.org/2000/svg">
<path d="M496 312V280C495.999 278.213 495.399 276.479 494.297 275.072C493.195 273.666 491.654 272.669 489.92 272.24L479.6 269.68L485.12 260.48C486.016 258.946 486.384 257.161 486.167 255.397C485.951 253.634 485.161 251.991 483.92 250.72L480 246.88V136C479.981 129.641 477.446 123.547 472.95 119.05C468.453 114.554 462.359 112.019 456 112H281.04C280.888 110.161 280.095 108.434 278.8 107.12L244.88 73.2C243.544 71.8535 241.772 71.0257 239.882 70.8645C237.991 70.7033 236.105 71.2192 234.56 72.32L208.4 91.04C204.759 89.2552 201.02 87.6793 197.2 86.32L191.92 54.72C191.615 52.8407 190.651 51.1317 189.199 49.8999C187.747 48.6682 185.904 47.9945 184 48H136C134.096 47.9945 132.253 48.6682 130.801 49.8999C129.349 51.1317 128.385 52.8407 128.08 54.72L122.8 86.32C118.88 87.76 115.04 89.36 111.28 91.12C106.24 87.2 98.16 81.44 85.44 72.32C83.8948 71.2192 82.0087 70.7033 80.1184 70.8645C78.228 71.0257 76.4565 71.8535 75.12 73.2L41.2 107.12C39.8534 108.457 39.0257 110.228 38.8645 112.118C38.7033 114.009 39.2192 115.895 40.32 117.44L40.56 117.76C37.8852 119.989 35.7322 122.777 34.2531 125.929C32.774 129.081 32.0049 132.519 32 136V158.56L22.72 160.08C20.8407 160.385 19.1316 161.349 17.8999 162.801C16.6682 164.253 15.9945 166.096 16 168V216C15.9945 217.904 16.6682 219.747 17.8999 221.199C19.1316 222.651 20.8407 223.615 22.72 223.92L32 225.44V400H24C22.8392 399.997 21.6916 400.246 20.6368 400.731C19.582 401.215 18.6453 401.924 17.8918 402.807C17.1382 403.69 16.5858 404.726 16.273 405.844C15.9601 406.962 15.8943 408.134 16.08 409.28L21.92 443.92C22.8129 449.531 25.682 454.639 30.0095 458.321C34.337 462.003 39.838 464.017 45.52 464H466.48C472.162 464.017 477.663 462.003 481.991 458.321C486.318 454.639 489.187 449.531 490.08 443.92L495.92 409.28C496.106 408.134 496.04 406.962 495.727 405.844C495.414 404.726 494.862 403.69 494.108 402.807C493.355 401.924 492.418 401.215 491.363 400.731C490.308 400.246 489.161 399.997 488 400H480V345.12L483.92 341.28C485.161 340.009 485.951 338.366 486.167 336.603C486.384 334.839 486.016 333.054 485.12 331.52L479.6 322.32L489.92 319.76C491.654 319.331 493.195 318.334 494.297 316.928C495.399 315.521 495.999 313.787 496 312V312ZM456 128C458.122 128 460.157 128.843 461.657 130.343C463.157 131.843 464 133.878 464 136V230.88L461.28 228.08C460.009 226.839 458.366 226.049 456.603 225.833C454.839 225.616 453.054 225.984 451.52 226.88L442.32 232.4L439.76 222.08C439.331 220.346 438.334 218.805 436.928 217.703C435.521 216.601 433.787 216.001 432 216H400C398.213 216.001 396.479 216.601 395.072 217.703C393.666 218.805 392.669 220.346 392.24 222.08L389.68 232.4L380.48 226.88C378.946 225.984 377.161 225.616 375.397 225.833C373.634 226.049 371.991 226.839 370.72 228.08L348.08 250.72C346.839 251.991 346.049 253.634 345.833 255.397C345.616 257.161 345.984 258.946 346.88 260.48L352.4 269.68L342.08 272.24C340.346 272.669 338.805 273.666 337.703 275.072C336.601 276.479 336.001 278.213 336 280V312C336.001 313.787 336.601 315.521 337.703 316.928C338.805 318.334 340.346 319.331 342.08 319.76L352.4 322.32L346.88 331.52C345.984 333.054 345.616 334.839 345.833 336.603C346.049 338.366 346.839 340.009 348.08 341.28L370.72 363.92C371.991 365.161 373.634 365.951 375.397 366.167C377.161 366.384 378.946 366.016 380.48 365.12L389.68 359.6L392.24 369.92C392.669 371.654 393.666 373.195 395.072 374.297C396.479 375.399 398.213 375.999 400 376H432C433.787 375.999 435.521 375.399 436.928 374.297C438.334 373.195 439.331 371.654 439.76 369.92L442.32 359.6L451.52 365.12C453.054 366.016 454.839 366.384 456.603 366.167C458.366 365.951 460.009 365.161 461.28 363.92L464 361.12V400H288C285.878 400 283.843 400.843 282.343 402.343C280.843 403.843 280 405.878 280 408V416H232V408C232 405.878 231.157 403.843 229.657 402.343C228.157 400.843 226.122 400 224 400H48V283.68L75.12 310.8C76.4565 312.147 78.228 312.974 80.1184 313.136C82.0087 313.297 83.8948 312.781 85.44 311.68L111.6 292.96C115.241 294.745 118.98 296.321 122.8 297.68L128.08 329.28C128.385 331.159 129.349 332.868 130.801 334.1C132.253 335.332 134.096 336.006 136 336H184C185.904 336.006 187.747 335.332 189.199 334.1C190.651 332.868 191.615 331.159 191.92 329.28L197.2 297.68C201.02 296.321 204.759 294.745 208.4 292.96L234.56 311.68C236.105 312.781 237.991 313.297 239.882 313.136C241.772 312.974 243.544 312.147 244.88 310.8L278.8 276.88C280.147 275.544 280.974 273.772 281.136 271.882C281.297 269.991 280.781 268.105 279.68 266.56L260.96 240.4C262.745 236.759 264.321 233.02 265.68 229.2L297.28 223.92C299.159 223.615 300.868 222.651 302.1 221.199C303.332 219.747 304.005 217.904 304 216V168C304.005 166.096 303.332 164.253 302.1 162.801C300.868 161.349 299.159 160.385 297.28 160.08L265.68 154.8C264.321 150.98 262.745 147.241 260.96 143.6L272.08 128H456ZM48 136C48.0005 134.117 48.6825 132.299 49.92 130.88L59.04 143.6C57.2552 147.241 55.6793 150.98 54.32 154.8L48 155.92V136ZM32 174.8L61.76 169.84C63.2309 169.589 64.6022 168.931 65.719 167.942C66.8358 166.952 67.6536 165.67 68.08 164.24C69.9441 158.156 72.3817 152.263 75.36 146.64C76.0681 145.333 76.3983 143.856 76.3135 142.372C76.2287 140.888 75.7323 139.457 74.88 138.24L57.28 113.68L81.68 89.28C90.08 95.36 105.28 106.16 106.16 106.8C107.367 107.706 108.811 108.242 110.317 108.341C111.822 108.44 113.325 108.1 114.64 107.36C120.27 104.396 126.161 101.959 132.24 100.08C133.665 99.6439 134.941 98.823 135.929 97.7079C136.917 96.5929 137.578 95.2268 137.84 93.76L142.8 64H177.2L182.16 93.76C182.422 95.2268 183.083 96.5929 184.071 97.7079C185.059 98.823 186.335 99.6439 187.76 100.08C193.839 101.959 199.73 104.396 205.36 107.36C206.667 108.068 208.145 108.398 209.628 108.314C211.112 108.229 212.543 107.732 213.76 106.88L238.32 89.28L262.72 113.68L245.12 138.24C244.268 139.457 243.771 140.888 243.687 142.372C243.602 143.856 243.932 145.333 244.64 146.64C247.618 152.263 250.056 158.156 251.92 164.24C252.346 165.67 253.164 166.952 254.281 167.942C255.398 168.931 256.769 169.589 258.24 169.84L288 174.8V209.2L258.24 214.16C256.769 214.411 255.398 215.069 254.281 216.058C253.164 217.048 252.346 218.33 251.92 219.76C250.027 225.834 247.591 231.724 244.64 237.36C243.932 238.667 243.602 240.145 243.687 241.628C243.771 243.112 244.268 244.543 245.12 245.76L262.72 270.32L238.32 294.72L213.76 277.12C212.543 276.268 211.112 275.771 209.628 275.687C208.145 275.602 206.667 275.932 205.36 276.64C199.73 279.604 193.839 282.042 187.76 283.92C186.335 284.356 185.059 285.177 184.071 286.292C183.083 287.407 182.422 288.773 182.16 290.24L177.2 320H142.8L137.84 290.24C137.578 288.773 136.917 287.407 135.929 286.292C134.941 285.177 133.665 284.356 132.24 283.92C126.161 282.042 120.27 279.604 114.64 276.64C113.333 275.932 111.855 275.602 110.372 275.687C108.888 275.771 107.457 276.268 106.24 277.12L81.68 294.72L57.28 270.32L74.88 245.76C75.7323 244.543 76.2287 243.112 76.3135 241.628C76.3983 240.145 76.0681 238.667 75.36 237.36C72.4094 231.724 69.9729 225.834 68.08 219.76C67.6536 218.33 66.8358 217.048 65.719 216.058C64.6022 215.069 63.2309 214.411 61.76 214.16L32 209.2V174.8ZM48 255.84V228.08L54.32 229.2C55.6793 233.02 57.2552 236.759 59.04 240.4L48 255.84ZM474.32 441.28C474.035 443.153 473.086 444.862 471.647 446.095C470.209 447.329 468.375 448.004 466.48 448H45.52C43.625 448.004 41.7914 447.329 40.3526 446.095C38.9139 444.862 37.9655 443.153 37.68 441.28L33.44 416H216V424C216 426.122 216.843 428.157 218.343 429.657C219.843 431.157 221.878 432 224 432H288C290.122 432 292.157 431.157 293.657 429.657C295.157 428.157 296 426.122 296 424V416H478.56L474.32 441.28ZM480 305.76L465.28 309.44C464.064 309.761 462.936 310.352 461.981 311.169C461.025 311.986 460.266 313.009 459.76 314.16C459.296 315.323 459.106 316.577 459.203 317.825C459.3 319.073 459.682 320.283 460.32 321.36L468.16 334.32L454.32 348.16L441.36 340.32C440.284 339.668 439.07 339.28 437.816 339.185C436.562 339.091 435.303 339.293 434.142 339.777C432.981 340.26 431.95 341.01 431.133 341.966C430.316 342.922 429.736 344.058 429.44 345.28L425.76 360H406.24L402.56 345.28C402.264 344.058 401.684 342.922 400.867 341.966C400.05 341.01 399.019 340.26 397.858 339.777C396.697 339.293 395.438 339.091 394.184 339.185C392.93 339.28 391.716 339.668 390.64 340.32L377.68 348.16L363.84 334.32L371.68 321.36C372.318 320.283 372.7 319.073 372.797 317.825C372.894 316.577 372.704 315.323 372.24 314.16C371.734 313.009 370.975 311.986 370.019 311.169C369.064 310.352 367.936 309.761 366.72 309.44L352 305.76V286.24L366.72 282.56C367.936 282.239 369.064 281.648 370.019 280.831C370.975 280.014 371.734 278.991 372.24 277.84C372.704 276.677 372.894 275.423 372.797 274.175C372.7 272.927 372.318 271.717 371.68 270.64L363.84 257.68L377.68 243.84L390.64 251.68C391.716 252.332 392.93 252.72 394.184 252.815C395.438 252.909 396.697 252.707 397.858 252.223C399.019 251.74 400.05 250.99 400.867 250.034C401.684 249.078 402.264 247.942 402.56 246.72L406.24 232H425.76L429.44 246.72C429.736 247.942 430.316 249.078 431.133 250.034C431.95 250.99 432.981 251.74 434.142 252.223C435.303 252.707 436.562 252.909 437.816 252.815C439.07 252.72 440.284 252.332 441.36 251.68L454.32 243.84L468.16 257.68L460.32 270.64C459.682 271.717 459.3 272.927 459.203 274.175C459.106 275.423 459.296 276.677 459.76 277.84C460.266 278.991 461.025 280.014 461.981 280.831C462.936 281.648 464.064 282.239 465.28 282.56L480 286.24V305.76Z" fill="#2B435F"/>
<path d="M416 256C408.089 256 400.355 258.346 393.777 262.741C387.199 267.136 382.072 273.384 379.045 280.693C376.017 288.002 375.225 296.044 376.769 303.804C378.312 311.563 382.122 318.69 387.716 324.284C393.31 329.878 400.437 333.688 408.196 335.231C415.956 336.775 423.998 335.983 431.307 332.955C438.616 329.928 444.864 324.801 449.259 318.223C453.654 311.645 456 303.911 456 296C455.987 285.395 451.769 275.228 444.27 267.73C436.772 260.231 426.605 256.013 416 256V256ZM416 320C411.253 320 406.613 318.592 402.666 315.955C398.72 313.318 395.643 309.57 393.827 305.184C392.01 300.799 391.535 295.973 392.461 291.318C393.387 286.662 395.673 282.386 399.029 279.029C402.386 275.673 406.662 273.387 411.318 272.461C415.973 271.535 420.799 272.01 425.184 273.827C429.57 275.643 433.318 278.72 435.955 282.666C438.592 286.613 440 291.253 440 296C440 302.365 437.471 308.47 432.971 312.971C428.47 317.471 422.365 320 416 320Z" fill="#2B435F"/>
<path d="M160 264C174.24 264 188.161 259.777 200.001 251.866C211.841 243.954 221.07 232.71 226.519 219.553C231.969 206.397 233.395 191.92 230.617 177.954C227.838 163.987 220.981 151.158 210.912 141.088C200.842 131.019 188.013 124.162 174.047 121.383C160.08 118.605 145.603 120.031 132.447 125.481C119.291 130.93 108.046 140.159 100.134 151.999C92.2227 163.839 88 177.76 88 192C88.0212 211.089 95.6137 229.39 109.112 242.888C122.61 256.386 140.911 263.979 160 264ZM160 136C171.076 136 181.903 139.284 191.112 145.438C200.321 151.591 207.499 160.337 211.737 170.57C215.976 180.802 217.085 192.062 214.924 202.925C212.763 213.788 207.43 223.766 199.598 231.598C191.766 239.43 181.788 244.763 170.925 246.924C160.062 249.085 148.802 247.976 138.57 243.737C128.337 239.499 119.591 232.321 113.438 223.112C107.284 213.903 104 203.076 104 192C104.017 177.153 109.922 162.919 120.421 152.421C130.919 141.922 145.153 136.017 160 136Z" fill="#2B435F"/>
<path d="M168 184H152V200H168V184Z" fill="#2B435F"/>
<path d="M200 184H184V200H200V184Z" fill="#2B435F"/>
<path d="M136 184H120V200H136V184Z" fill="#2B435F"/>
<path d="M368 192V160H408V200H424V152C424 149.878 423.157 147.843 421.657 146.343C420.157 144.843 418.122 144 416 144H360C357.878 144 355.843 144.843 354.343 146.343C352.843 147.843 352 149.878 352 152V184H320V200H360C362.122 200 364.157 199.157 365.657 197.657C367.157 196.157 368 194.122 368 192Z" fill="#2B435F"/>
<path d="M160 352H144V368C144 370.122 144.843 372.157 146.343 373.657C147.843 375.157 149.878 376 152 376H336V360H160V352Z" fill="#2B435F"/>
</svg>
