<svg width="512" height="512" viewBox="0 0 512 512" fill="none" xmlns="http://www.w3.org/2000/svg">
<path d="M391 0H41C36.858 0 33.5 3.357 33.5 7.5V447.833C33.5 451.976 36.858 455.333 41 455.333C45.142 455.333 48.5 451.976 48.5 447.833V65H63.75C67.892 65 71.25 61.643 71.25 57.5C71.25 53.357 67.892 50 63.75 50H48.5V15H383.5V50H95.75C91.608 50 88.25 53.357 88.25 57.5C88.25 61.643 91.608 65 95.75 65H383.5V71.833C383.5 75.976 386.858 79.333 391 79.333C395.142 79.333 398.5 75.976 398.5 71.833V7.5C398.5 3.357 395.142 0 391 0Z" fill="#2B435F"/>
<path d="M154.631 166H94.631C90.489 166 87.131 169.357 87.131 173.5V257.5C87.131 261.643 90.489 265 94.631 265H154.631C158.773 265 162.131 261.643 162.131 257.5V173.5C162.131 169.357 158.773 166 154.631 166ZM147.131 250H102.131V181H147.131V250Z" fill="#2B435F"/>
<path d="M247.894 122.924H187.894C183.752 122.924 180.394 126.281 180.394 130.424V257.5C180.394 261.643 183.752 265 187.894 265H247.894C252.036 265 255.394 261.643 255.394 257.5V130.424C255.394 126.281 252.036 122.924 247.894 122.924ZM240.394 250H195.394V137.924H240.394V250Z" fill="#2B435F"/>
<path d="M466.993 457H463.125V431.459C467.774 429.98 471.152 425.625 471.152 420.493V388.507C471.152 384.713 469.298 381.352 466.458 379.255V348.507C466.458 342.162 461.296 337 454.951 337H417.01C447.944 320.553 469.058 287.987 469.058 250.577C469.058 206.099 439.214 168.463 398.5 156.633V103.583C398.5 99.44 395.142 96.083 391 96.083C386.858 96.083 383.5 99.44 383.5 103.583V153.531C379.485 153.027 375.395 152.765 371.245 152.765C363.019 152.765 355.028 153.791 347.39 155.713V99.09C347.39 94.947 344.032 91.59 339.89 91.59H279.89C275.748 91.59 272.39 94.947 272.39 99.09V257.5C272.39 259.332 273.048 261.008 274.139 262.311C278.031 294.718 297.83 322.299 325.48 337H282.34C275.995 337 270.833 342.162 270.833 348.507V380.493C270.833 384.287 272.687 387.648 275.528 389.745V417.54C270.879 419.019 267.5 423.374 267.5 428.506V460.492C267.5 466.837 272.662 471.999 279.007 471.999H282.875V496.999H48.5V479.916C48.5 475.773 45.142 472.416 41 472.416C36.858 472.416 33.5 475.773 33.5 479.916V504.5C33.5 508.643 36.858 512 41 512H466.993C473.338 512 478.5 506.838 478.5 500.493V468.507C478.5 462.162 473.338 457 466.993 457ZM456.154 392V417H441.552V410.5C441.551 406.357 438.193 403 434.051 403C429.909 403 426.551 406.357 426.551 410.5V417H411.447V410.5C411.447 406.357 408.089 403 403.947 403C399.805 403 396.447 406.357 396.447 410.5V417H381.343V410.5C381.343 406.357 377.985 403 373.843 403C369.701 403 366.343 406.357 366.343 410.5V417H351.239V410.5C351.239 406.357 347.881 403 343.739 403C339.597 403 336.239 406.357 336.239 410.5V417H321.135V410.5C321.135 406.357 317.777 403 313.635 403C309.493 403 306.135 406.357 306.135 410.5V417H290.529V392H456.154ZM287.39 106.59H332.39V160.822C313.608 168.984 297.868 182.872 287.39 200.273V106.59ZM288.433 250.577C288.433 204.914 325.582 167.764 371.246 167.764C416.91 167.764 454.059 204.913 454.059 250.577C454.059 296.241 416.91 333.39 371.246 333.39C325.582 333.39 288.433 296.24 288.433 250.577ZM285.833 352H451.458V377H436.855V370.5C436.855 366.357 433.497 363 429.355 363C425.213 363 421.855 366.357 421.855 370.5V377H406.751V370.5C406.751 366.357 403.393 363 399.251 363C395.109 363 391.751 366.357 391.751 370.5V377H376.647V370.5C376.647 366.357 373.289 363 369.147 363C365.005 363 361.647 366.357 361.647 370.5V377H346.543V370.5C346.543 366.357 343.185 363 339.043 363C334.901 363 331.543 366.357 331.543 370.5V377H316.439V370.5C316.439 366.357 313.081 363 308.939 363C304.797 363 301.439 366.357 301.439 370.5V377H285.833V352V352ZM282.5 457V432H448.125V457H433.522V450.5C433.522 446.357 430.164 443 426.022 443C421.88 443 418.522 446.357 418.522 450.5V457H403.418V450.5C403.418 446.357 400.06 443 395.918 443C391.776 443 388.418 446.357 388.418 450.5V457H373.314V450.5C373.314 446.357 369.956 443 365.814 443C361.672 443 358.314 446.357 358.314 450.5V457H343.21V450.5C343.21 446.357 339.852 443 335.71 443C331.568 443 328.21 446.357 328.21 450.5V457H313.106V450.5C313.106 446.357 309.748 443 305.606 443C301.464 443 298.106 446.357 298.106 450.5V457H294.382H282.5ZM463.5 497H448.897V490.5C448.897 486.357 445.539 483 441.397 483C437.255 483 433.897 486.357 433.897 490.5V497H418.793V490.5C418.793 486.357 415.435 483 411.293 483C407.151 483 403.793 486.357 403.793 490.5V497H391H388.689V490.5C388.689 486.357 385.331 483 381.189 483C377.047 483 373.689 486.357 373.689 490.5V497H358.585V490.5C358.585 486.357 355.227 483 351.085 483C346.943 483 343.585 486.357 343.585 490.5V497H328.48V490.5C328.48 486.357 325.122 483 320.98 483C316.838 483 313.48 486.357 313.48 490.5V497H297.874V472H463.5V497Z" fill="#2B435F"/>
<path d="M439.014 248.854C438.735 237.763 435.798 227.321 430.789 218.158C430.626 217.623 430.406 217.096 430.114 216.591C429.815 216.073 429.459 215.611 429.066 215.195C423.46 206.068 415.756 198.364 406.629 192.758C406.212 192.365 405.75 192.009 405.233 191.71C404.728 191.418 404.202 191.199 403.667 191.036C394.506 186.028 384.066 183.092 372.977 182.811C372.42 182.679 371.842 182.602 371.245 182.602C370.648 182.602 370.07 182.679 369.513 182.811C358.424 183.091 347.984 186.028 338.823 191.036C338.288 191.199 337.762 191.418 337.257 191.71C336.739 192.009 336.276 192.365 335.86 192.759C326.734 198.364 319.031 206.067 313.425 215.193C313.032 215.61 312.675 216.073 312.376 216.591C312.084 217.097 311.864 217.624 311.701 218.16C306.693 227.321 303.757 237.762 303.477 248.852C303.346 249.408 303.269 249.984 303.269 250.58C303.269 251.175 303.346 251.752 303.477 252.307C303.756 263.398 306.693 273.84 311.702 283.003C311.865 283.538 312.085 284.064 312.376 284.568C312.668 285.074 313.019 285.521 313.401 285.93C319.01 295.074 326.724 302.792 335.866 308.405C336.281 308.796 336.742 309.151 337.258 309.448C337.751 309.731 338.266 309.939 338.788 310.102C347.96 315.123 358.415 318.068 369.522 318.347C370.076 318.478 370.651 318.554 371.245 318.554C371.839 318.554 372.414 318.478 372.968 318.347C384.075 318.068 394.53 315.123 403.702 310.102C404.224 309.94 404.739 309.731 405.233 309.447C405.748 309.15 406.209 308.796 406.624 308.405C415.767 302.791 423.482 295.072 429.091 285.927C429.472 285.518 429.823 285.072 430.114 284.567C430.405 284.063 430.624 283.537 430.788 283.003C435.798 273.84 438.735 263.396 439.014 252.304C439.145 251.749 439.221 251.174 439.221 250.579C439.221 249.984 439.145 249.408 439.014 248.854ZM420.136 270.516C417.001 269.784 413.63 271.137 411.938 274.069C410.25 276.993 410.755 280.58 412.942 282.929C410.228 286.419 407.088 289.559 403.598 292.273C401.249 290.086 397.662 289.581 394.738 291.268C391.807 292.96 390.452 296.332 391.185 299.467C387.154 301.117 382.875 302.279 378.421 302.888C377.488 299.807 374.629 297.564 371.244 297.564C367.859 297.564 365 299.807 364.067 302.888C359.613 302.28 355.334 301.117 351.302 299.467C352.034 296.332 350.68 292.96 347.749 291.268C344.823 289.58 341.237 290.085 338.889 292.272C335.399 289.558 332.26 286.418 329.546 282.928C331.734 280.583 332.24 276.995 330.551 274.071C328.858 271.14 325.487 269.786 322.353 270.518C320.703 266.487 319.541 262.208 318.933 257.754C322.013 256.821 324.256 253.963 324.256 250.577C324.256 247.192 322.013 244.334 318.933 243.4C319.542 238.943 320.705 234.662 322.357 230.628C322.917 230.759 323.484 230.834 324.049 230.834C326.641 230.834 329.162 229.489 330.551 227.083C332.239 224.16 331.734 220.573 329.548 218.224C332.264 214.732 335.406 211.59 338.899 208.874C340.298 210.176 342.131 210.889 344.007 210.889C345.279 210.889 346.569 210.565 347.75 209.883C350.681 208.191 352.035 204.82 351.304 201.686C355.336 200.036 359.614 198.873 364.068 198.265C365.001 201.345 367.86 203.588 371.244 203.588C374.628 203.588 377.487 201.345 378.42 198.265C382.874 198.873 387.153 200.035 391.184 201.685C390.452 204.819 391.807 208.191 394.738 209.882C395.92 210.564 397.209 210.888 398.481 210.888C400.357 210.888 402.19 210.174 403.589 208.873C407.082 211.588 410.224 214.73 412.94 218.222C410.753 220.57 410.248 224.158 411.936 227.081C413.325 229.487 415.846 230.832 418.438 230.832C419.003 230.832 419.57 230.757 420.131 230.626C421.783 234.66 422.946 238.941 423.555 243.398C420.475 244.331 418.232 247.19 418.232 250.575C418.232 253.96 420.475 256.819 423.556 257.752C422.948 262.206 421.786 266.484 420.136 270.516Z" fill="#2B435F"/>
<path d="M256.427 311.557C253.808 308.938 250.08 307.829 246.456 308.597L207.067 316.919C203.147 317.747 200.002 320.648 198.861 324.489C197.72 328.33 198.772 332.477 201.606 335.311L212.844 346.549L165.895 393.499H114.33C112.341 393.499 110.433 394.289 109.027 395.695L73.027 431.695C70.098 434.626 70.098 439.374 73.027 442.304C74.491 443.768 76.411 444.5 78.33 444.5C80.249 444.5 82.169 443.768 83.633 442.304L117.436 408.5H169C170.989 408.5 172.897 407.71 174.303 406.304L223.45 357.157L232.673 366.38C234.751 368.457 237.533 369.576 240.385 369.576C241.423 369.576 242.47 369.429 243.495 369.124C247.337 367.983 250.237 364.839 251.065 360.919L259.388 321.529C260.153 317.904 259.046 314.176 256.427 311.557ZM237.947 350.44L228.76 341.253C228.758 341.251 228.756 341.248 228.753 341.246C228.75 341.244 228.748 341.242 228.746 341.239L217.543 330.037L243.413 324.571L237.947 350.44Z" fill="#2B435F"/>
<path d="M252.125 457H78.333C74.191 457 70.833 460.357 70.833 464.5C70.833 468.643 74.191 472 78.333 472H252.125C256.267 472 259.625 468.643 259.625 464.5C259.625 460.357 256.267 457 252.125 457Z" fill="#2B435F"/>
</svg>
