<svg width="512" height="512" viewBox="0 0 512 512" fill="none" xmlns="http://www.w3.org/2000/svg">
<g clip-path="url(#clip0)">
<path d="M486.4 -1.52588e-05H25.6C11.0554 0.464364 -0.382943 12.5891 3.00555e-06 27.136V399.531C-0.382943 414.078 11.0554 426.202 25.6 426.667H173.909L156.843 460.8H128C113.862 460.8 102.4 472.262 102.4 486.4C102.4 500.538 113.862 512 128 512H384C398.139 512 409.6 500.538 409.6 486.4C409.6 472.262 398.139 460.8 384 460.8H355.157L338.091 426.667H486.4C500.945 426.202 512.383 414.078 512 399.531V27.136C512.383 12.5891 500.945 0.464364 486.4 -1.52588e-05V-1.52588e-05ZM392.533 486.4C392.533 491.113 388.713 494.933 384 494.933H128C123.287 494.933 119.467 491.113 119.467 486.4C119.467 481.687 123.287 477.867 128 477.867H384C388.713 477.867 392.533 481.687 392.533 486.4ZM336.043 460.8H175.957L193.024 426.667H318.976L336.043 460.8ZM486.4 409.6H25.6C20.5225 409.062 16.7647 404.628 17.0667 399.531V375.467H51.2C55.9128 375.467 59.7333 371.646 59.7333 366.933C59.7333 362.221 55.9128 358.4 51.2 358.4H17.0667V27.136C16.7647 22.039 20.5225 17.6048 25.6 17.0667H486.4C491.478 17.6048 495.235 22.039 494.933 27.136V358.4H85.3333C80.6205 358.4 76.8 362.221 76.8 366.933C76.8 371.646 80.6205 375.467 85.3333 375.467H494.933V399.531C495.235 404.628 491.478 409.062 486.4 409.6Z" fill="white"/>
<path d="M42.6667 85.3333C44.9349 85.3464 47.1149 84.456 48.7253 82.8587L82.8587 48.7253C86.2048 45.3792 86.2048 39.9541 82.8587 36.608C79.5126 33.2619 74.0875 33.2619 70.7413 36.608L36.608 70.7413C34.9925 72.3436 34.0839 74.5247 34.0839 76.8C34.0839 79.0753 34.9925 81.2564 36.608 82.8587C38.2184 84.456 40.3985 85.3464 42.6667 85.3333V85.3333Z" fill="white"/>
<path d="M134.059 36.608C132.456 34.9925 130.275 34.0838 128 34.0838C125.725 34.0838 123.544 34.9925 121.941 36.608L36.608 121.941C34.9925 123.544 34.0839 125.725 34.0839 128C34.0839 130.275 34.9925 132.456 36.608 134.059C38.2103 135.674 40.3914 136.583 42.6667 136.583C44.942 136.583 47.1231 135.674 48.7253 134.059L134.059 48.7253C135.674 47.123 136.583 44.942 136.583 42.6666C136.583 40.3913 135.674 38.2103 134.059 36.608V36.608Z" fill="white"/>
<g clip-path="url(#clip1)">
<path d="M367.315 97.0575L290.993 55.7293C283.753 51.8076 273.798 54.8243 269.877 62.0643L225.23 145.022H170.93C163.992 145.022 158.562 150.452 158.562 157.391V179.11V291.632C158.562 298.57 163.992 304 170.93 304H344.388C351.326 304 356.756 298.57 356.756 291.632V260.259H361.885C364.6 260.259 366.711 258.147 366.711 255.432V219.534C366.711 216.819 364.6 214.707 361.885 214.707H356.756V179.412C356.756 173.681 352.533 168.552 347.103 167.346L373.65 118.174C377.571 110.632 374.856 101.281 367.315 97.0575ZM313.015 78.6559L265.352 167.044H251.777L302.758 73.2259L313.015 78.6559ZM278.625 66.5893C280.133 63.8743 283.753 62.6676 286.468 64.1759L294.01 68.3992L240.917 167.044H224.325L278.625 66.5893ZM167.914 157.089C167.914 156.184 169.12 154.676 170.629 154.676H219.8L213.164 166.742H170.629C169.724 166.742 168.819 166.742 167.914 167.044V157.089V157.089ZM346.801 291.632C346.801 293.14 345.595 294.347 344.086 294.347H170.629C169.12 294.347 167.914 293.14 167.914 291.632V179.412C167.914 177.904 169.12 176.697 170.629 176.697H216.18H235.487H270.782H338.656H343.785C345.293 176.697 346.5 177.904 346.5 179.412V214.707H328.098C319.953 214.707 313.618 221.344 313.618 229.187V245.779C313.618 253.924 320.255 260.259 328.098 260.259H346.801V291.632ZM356.455 224.36H356.756V250.605H356.455H328.098C325.383 250.605 323.272 248.494 323.272 245.779V229.187C323.272 226.472 325.383 224.36 328.098 224.36H356.455V224.36ZM364.901 113.347L335.942 167.044H276.212L321.462 83.4825L362.488 105.806C365.505 107.012 366.41 110.632 364.901 113.347Z" fill="white"/>
<path d="M346.5 108.822L344.086 107.616C338.053 104.297 329.908 106.711 326.59 112.744L323.573 118.476C322.065 121.492 321.462 125.112 322.668 128.431C323.573 131.749 325.987 134.464 329.003 135.972L331.417 137.179C333.227 138.084 335.338 138.687 337.45 138.687C342.276 138.687 346.5 135.972 348.913 132.051L351.93 126.319C354.946 119.984 352.533 112.141 346.5 108.822ZM343.181 121.794L340.165 127.526C339.26 129.034 337.148 129.637 335.64 128.732L333.227 127.224C332.623 126.922 332.02 126.017 331.718 125.414C331.417 124.509 331.417 123.604 332.02 123.001L335.036 117.269C335.64 116.364 336.846 115.459 338.053 115.459C338.656 115.459 338.958 115.459 339.561 115.761L341.975 116.967C343.181 118.174 343.785 119.984 343.181 121.794Z" fill="white"/>
</g>
</g>
<defs>
<clipPath id="clip0">
<rect width="512" height="512" fill="white"/>
</clipPath>
<clipPath id="clip1">
<rect x="142" y="54" width="250" height="250" fill="white"/>
</clipPath>
</defs>
</svg>
