<svg width="512" height="512" viewBox="0 0 512 512" fill="none" xmlns="http://www.w3.org/2000/svg">
<path d="M236.064 158.752C234.536 164.864 235.888 171.224 239.76 176.192C243.64 181.152 249.48 184 255.784 184C264.016 184 271.376 179.096 274.544 171.496L316 72H276.944L292.944 40H234.456L204.456 120H245.752L236.064 158.752ZM227.544 104L245.544 56H267.056L251.056 88H292L259.776 165.336C259.104 166.952 257.536 168 255.784 168C253.944 168 252.856 166.96 252.376 166.336C251.888 165.72 251.144 164.408 251.592 162.624L266.248 104H227.544Z" fill="#2B435F"/>
<path d="M152 200H204.368L253.04 255.624C257.696 260.944 264.424 264 271.496 264C285 264 296 253.008 296 239.496V200H360C382.056 200 400 182.056 400 160V48C400 25.944 382.056 8 360 8H152C129.944 8 112 25.944 112 48V160C112 182.056 129.944 200 152 200ZM128 48C128 34.768 138.768 24 152 24H360C373.232 24 384 34.768 384 48V160C384 173.232 373.232 184 360 184H280V239.496C280 244.176 276.184 248 271.496 248C269.04 248 266.704 246.936 265.088 245.096L211.632 184H152C138.768 184 128 173.232 128 160V48Z" fill="#2B435F"/>
<path d="M144 40H160V56H144V40Z" fill="#2B435F"/>
<path d="M144 72H160V88H144V72Z" fill="#2B435F"/>
<path d="M144 104H160V120H144V104Z" fill="#2B435F"/>
<path d="M352 120H368V136H352V120Z" fill="#2B435F"/>
<path d="M352 152H368V168H352V152Z" fill="#2B435F"/>
<path d="M352 88H368V104H352V88Z" fill="#2B435F"/>
<path d="M128 440H144V456H128V440Z" fill="#2B435F"/>
<path d="M128 408H144V424H128V408Z" fill="#2B435F"/>
<path d="M411.608 333.144C428.72 321.64 440 302.12 440 280C440 244.712 411.288 216 376 216C340.712 216 312 244.712 312 280C312 302.12 323.28 321.64 340.392 333.144C301.312 344.496 269.984 373.992 256 411.88C242.016 373.984 210.688 344.488 171.608 333.144C188.72 321.64 200 302.12 200 280C200 244.712 171.288 216 136 216C100.712 216 72 244.712 72 280C72 302.12 83.28 321.64 100.392 333.144C47.096 348.616 8 397.792 8 456V504H248H264H504V456C504 397.792 464.904 348.616 411.608 333.144ZM334.584 408.096L329.68 354.152C332.144 353.024 334.672 352.016 337.232 351.064L364.648 383.048L334.584 408.096ZM368 401.08L376 394.416L384 401.08V456H368V401.08ZM387.352 383.048L414.768 351.064C417.328 352.016 419.848 353.024 422.32 354.152L417.416 408.096L387.352 383.048ZM376 232C396.856 232 414.592 245.384 421.2 264H408.536C399.304 264 390.36 261.288 382.672 256.168L366.984 245.696L362.344 250.336C353.88 258.792 342.728 263.56 330.824 263.92C337.456 245.352 355.176 232 376 232V232ZM328 280H329.368C343.864 280 357.608 275.112 368.72 266.104L373.8 269.488C384.128 276.368 396.144 280 408.536 280H424C424 306.472 402.472 328 376 328C349.528 328 328 306.472 328 280V280ZM397.88 346.176L376 371.712L354.12 346.184C361.2 344.768 368.512 344 376 344C383.488 344 390.8 344.768 397.88 346.176V346.176ZM198.408 397.192L176 414V352V351.512C178.112 352.32 180.2 353.176 182.248 354.112L198.408 397.192ZM185.968 488H176V432.944L198.488 444.184L185.968 488ZM73.512 444.184L96 432.944V488H86.032L73.512 444.184ZM89.752 354.112C91.8 353.176 93.888 352.32 96 351.512V352V414L73.592 397.192L89.752 354.112ZM112 383.792C118.704 388.872 126.96 392 136 392C145.04 392 153.296 388.872 160 383.792V488H112V383.792ZM136 232C156.856 232 174.592 245.384 181.2 264H179.376C168.288 264 157.544 260.752 148.312 254.592L136 246.384L123.688 254.592C114.456 260.752 103.712 264 92.624 264H90.8C97.408 245.384 115.144 232 136 232V232ZM88 280H92.624C106.88 280 120.696 275.824 132.568 267.904L136 265.616L139.44 267.904C151.312 275.824 165.12 280 179.376 280H184C184 306.472 162.472 328 136 328C109.528 328 88 306.472 88 280V280ZM160 346.656V352C160 365.232 149.232 376 136 376C122.768 376 112 365.232 112 352V346.656C119.744 344.96 127.76 344 136 344C144.24 344 152.256 344.96 160 346.656ZM24 456C24 419.984 41.16 387.968 67.656 367.472L54.408 402.808L80.848 422.64L54.488 435.816L69.392 488H24V456ZM248 488H202.608L217.52 435.816L191.16 422.64L217.6 402.808L204.352 367.472C230.84 387.968 248 419.984 248 456V488ZM488 488H264V456C264 417 284.064 382.632 314.384 362.568L321.416 439.904L352 414.416V472H400V414.416L430.584 439.904L437.616 362.568C467.936 382.632 488 417 488 456V488Z" fill="#2B435F"/>
</svg>
