<svg width="512" height="512" viewBox="0 0 512 512" fill="none" xmlns="http://www.w3.org/2000/svg">
<path d="M357.019 320.662L338.665 302.307C341.725 296.85 344.225 291.12 346.141 285.178H373.093C377.236 285.178 380.593 281.821 380.593 277.678V234.322C380.593 230.179 377.236 226.822 373.093 226.822H346.14C344.224 220.881 341.724 215.151 338.664 209.694L357.018 191.339C359.947 188.41 359.947 183.662 357.018 180.734L328.832 152.546C327.425 151.14 325.518 150.35 323.528 150.35C321.538 150.35 319.632 151.14 318.224 152.546L299.16 171.611C294.63 169.287 289.926 167.336 285.091 165.775V138.822C285.091 134.679 281.734 131.322 277.591 131.322H237.73C233.587 131.322 230.23 134.679 230.23 138.822V164.774C224.22 166.469 218.403 168.755 212.838 171.611L193.774 152.546C192.367 151.14 190.46 150.35 188.47 150.35C186.48 150.35 184.574 151.14 183.166 152.546L154.98 180.734C152.051 183.663 152.051 188.411 154.98 191.339L173.334 209.694C170.274 215.151 167.774 220.881 165.858 226.822H138.906C134.763 226.822 131.406 230.179 131.406 234.322V277.678C131.406 281.821 134.763 285.178 138.906 285.178H165.858C167.774 291.12 170.274 296.85 173.334 302.307L154.98 320.662C152.051 323.591 152.051 328.339 154.98 331.268L183.166 359.454C186.095 362.381 190.844 362.383 193.772 359.454L212.837 340.39C218.401 343.245 224.219 345.532 230.229 347.227V373.179C230.229 377.322 233.586 380.679 237.729 380.679H277.59C281.733 380.679 285.09 377.322 285.09 373.179V346.226C289.925 344.665 294.629 342.714 299.159 340.39L318.224 359.454C321.152 362.382 325.901 362.382 328.83 359.454L357.016 331.268C359.947 328.339 359.947 323.591 357.019 320.662V320.662ZM323.529 343.544L305.777 325.793C303.352 323.369 299.591 322.895 296.643 324.649C290.106 328.533 283.073 331.45 275.74 333.319C272.417 334.166 270.092 337.158 270.092 340.587V365.679H245.23V341.36C245.23 337.82 242.755 334.762 239.293 334.025C230.85 332.225 222.796 329.071 215.355 324.65C212.407 322.896 208.645 323.369 206.221 325.794L188.469 343.545L170.89 325.966L188.09 308.765C190.592 306.263 191.005 302.352 189.079 299.382C184.366 292.112 180.895 284.187 178.766 275.827C177.919 272.504 174.927 270.179 171.498 270.179H146.406V241.823H171.5C174.929 241.823 177.921 239.498 178.768 236.175C180.899 227.816 184.369 219.891 189.081 212.621C191.007 209.651 190.594 205.74 188.092 203.238L170.892 186.037L188.471 168.457L206.222 186.209C208.647 188.633 212.407 189.105 215.357 187.353C222.797 182.932 230.851 179.778 239.295 177.978C242.757 177.241 245.232 174.183 245.232 170.643V146.324H270.093V171.416C270.093 174.845 272.418 177.837 275.741 178.684C283.074 180.553 290.107 183.47 296.644 187.354C299.59 189.107 303.352 188.634 305.779 186.21L323.53 168.458L341.109 186.038L323.909 203.239C321.407 205.741 320.994 209.652 322.92 212.622C327.633 219.892 331.103 227.816 333.233 236.176C334.08 239.499 337.072 241.824 340.501 241.824H365.593V270.18H340.5C337.071 270.18 334.079 272.505 333.232 275.828C331.102 284.187 327.631 292.113 322.919 299.383C320.993 302.353 321.406 306.264 323.908 308.766L341.108 325.967L323.529 343.544Z" fill="#2B435F"/>
<path d="M256 218.195C254.076 218.195 252.145 218.341 250.261 218.629C246.166 219.254 243.354 223.08 243.979 227.175C244.604 231.271 248.433 234.082 252.525 233.457C253.663 233.283 254.832 233.195 256.001 233.195C268.575 233.195 278.806 243.425 278.806 256C278.806 268.575 268.576 278.805 256.001 278.805C243.426 278.805 233.196 268.575 233.196 256C233.196 254.824 233.285 253.646 233.462 252.501C234.091 248.407 231.282 244.578 227.189 243.948C223.096 243.315 219.266 246.126 218.636 250.221C218.344 252.118 218.197 254.063 218.197 255.999C218.197 276.845 235.156 293.804 256.002 293.804C276.848 293.804 293.807 276.845 293.807 255.999C293.807 235.153 276.846 218.195 256 218.195V218.195Z" fill="#2B435F"/>
<path d="M443.891 45.457C431.401 45.457 421.239 55.619 421.239 68.109C421.239 80.599 431.401 90.761 443.891 90.761C456.381 90.761 466.543 80.599 466.543 68.109C466.543 55.619 456.381 45.457 443.891 45.457V45.457ZM443.891 75.762C439.671 75.762 436.239 72.329 436.239 68.11C436.239 63.891 439.672 60.458 443.891 60.458C448.11 60.458 451.543 63.891 451.543 68.11C451.543 72.329 448.11 75.762 443.891 75.762Z" fill="#2B435F"/>
<path d="M504.5 45.457H491.751C486.509 34.361 477.639 25.491 466.543 20.249V7.5C466.543 3.357 463.186 0 459.043 0H428.738C424.595 0 421.238 3.357 421.238 7.5V20.248C410.141 25.491 401.272 34.36 396.029 45.457H383.28C379.137 45.457 375.78 48.814 375.78 52.957V83.262C375.78 87.405 379.137 90.762 383.28 90.762H396.028C401.271 101.859 410.141 110.729 421.238 115.972V128.72C421.238 132.863 424.595 136.22 428.738 136.22H459.043C463.186 136.22 466.543 132.863 466.543 128.72V115.971C477.64 110.728 486.509 101.859 491.752 90.762H504.5C508.643 90.762 512 87.405 512 83.262V52.957C512 48.814 508.643 45.457 504.5 45.457V45.457ZM497 75.762H486.741C483.565 75.762 480.734 77.762 479.673 80.755C475.88 91.449 467.231 100.1 456.536 103.893C453.543 104.955 451.543 107.786 451.543 110.961V121.22H436.238V110.961C436.238 107.785 434.238 104.954 431.245 103.893C420.551 100.1 411.9 91.45 408.107 80.755C407.045 77.762 404.214 75.762 401.039 75.762H390.78V60.457H401.039C404.215 60.457 407.046 58.457 408.107 55.464C411.9 44.77 420.55 36.12 431.245 32.327C434.238 31.265 436.238 28.434 436.238 25.259V15H451.543V25.259C451.543 28.435 453.543 31.266 456.536 32.327C467.23 36.12 475.88 44.769 479.673 55.464C480.735 58.457 483.566 60.457 486.741 60.457H497V75.762Z" fill="#2B435F"/>
<path d="M466.543 443.891C466.543 431.401 456.381 421.239 443.891 421.239C431.401 421.239 421.239 431.401 421.239 443.891C421.239 456.381 431.401 466.543 443.891 466.543C456.381 466.543 466.543 456.381 466.543 443.891ZM436.238 443.891C436.238 439.671 439.671 436.239 443.89 436.239C448.109 436.239 451.542 439.672 451.542 443.891C451.542 448.11 448.109 451.543 443.89 451.543C439.671 451.543 436.238 448.11 436.238 443.891Z" fill="#2B435F"/>
<path d="M504.5 421.238H491.752C486.509 410.141 477.64 401.272 466.543 396.029V383.28C466.543 379.137 463.186 375.78 459.043 375.78H428.738C424.595 375.78 421.238 379.137 421.238 383.28V396.616C419.209 398.696 418.494 401.863 419.675 404.72C421.256 408.548 425.641 410.368 429.47 408.788C430.054 408.547 430.644 408.32 431.242 408.108C434.236 407.047 436.238 404.215 436.238 401.039V390.78H451.543V401.039C451.543 404.215 453.543 407.046 456.536 408.107C467.23 411.9 475.88 420.55 479.673 431.245C480.735 434.238 483.566 436.238 486.741 436.238H497V451.543H486.741C483.565 451.543 480.734 453.543 479.673 456.536C475.88 467.23 467.231 475.88 456.536 479.673C453.543 480.735 451.543 483.566 451.543 486.741V497H436.238V486.741C436.238 483.565 434.238 480.734 431.245 479.673C420.551 475.88 411.9 467.231 408.107 456.536C407.045 453.543 404.214 451.543 401.039 451.543H390.78V436.238H401.039C404.217 436.238 407.049 434.236 408.109 431.241C408.332 430.611 408.572 429.989 408.827 429.376C410.415 425.55 408.601 421.161 404.775 419.573C401.87 418.365 398.635 419.125 396.552 421.238H383.28C379.137 421.238 375.78 424.595 375.78 428.738V459.043C375.78 463.186 379.137 466.543 383.28 466.543H396.029C401.272 477.64 410.141 486.509 421.238 491.752V504.5C421.238 508.643 424.595 512 428.738 512H459.043C463.186 512 466.543 508.643 466.543 504.5V491.751C477.639 486.509 486.509 477.639 491.751 466.543H504.5C508.643 466.543 512 463.186 512 459.043V428.738C512 424.596 508.643 421.238 504.5 421.238V421.238Z" fill="#2B435F"/>
<path d="M90.762 68.109C90.762 55.619 80.6 45.457 68.11 45.457C55.62 45.457 45.457 55.619 45.457 68.109C45.457 80.599 55.619 90.761 68.109 90.761C80.599 90.761 90.762 80.6 90.762 68.109ZM60.457 68.109C60.457 63.889 63.89 60.457 68.109 60.457C72.328 60.457 75.761 63.89 75.761 68.109C75.761 72.328 72.328 75.761 68.109 75.761C63.89 75.761 60.457 72.329 60.457 68.109V68.109Z" fill="#2B435F"/>
<path d="M7.5 90.762H20.248C25.491 101.859 34.36 110.728 45.457 115.971V128.72C45.457 132.863 48.814 136.22 52.957 136.22H83.262C87.405 136.22 90.762 132.863 90.762 128.72V115.972C101.859 110.729 110.729 101.859 115.972 90.762H128.72C132.863 90.762 136.22 87.405 136.22 83.262V52.957C136.22 48.814 132.863 45.457 128.72 45.457H115.971C110.728 34.36 101.859 25.491 90.762 20.248V7.5C90.762 3.357 87.405 0 83.262 0H52.957C48.814 0 45.457 3.357 45.457 7.5V20.837C43.428 22.918 42.714 26.086 43.895 28.943C45.478 32.77 49.864 34.588 53.693 33.006C54.275 32.765 54.866 32.538 55.464 32.326C58.457 31.264 60.457 28.433 60.457 25.258V15H75.762V25.259C75.762 28.435 77.762 31.266 80.755 32.327C91.449 36.12 100.1 44.77 103.893 55.464C104.955 58.457 107.786 60.457 110.961 60.457H121.22V75.762H110.961C107.785 75.762 104.954 77.762 103.893 80.755C100.1 91.449 91.449 100.1 80.755 103.893C77.762 104.955 75.762 107.786 75.762 110.961V121.22H60.457V110.961C60.457 107.785 58.457 104.954 55.464 103.893C44.77 100.1 36.12 91.449 32.327 80.755C31.265 77.762 28.434 75.762 25.259 75.762H15V60.457H25.259C28.435 60.457 31.267 58.456 32.328 55.463C32.55 54.835 32.789 54.215 33.044 53.604C34.636 49.78 32.827 45.389 29.004 43.796C26.093 42.584 22.858 43.342 20.774 45.457H7.5C3.357 45.457 0 48.814 0 52.957V83.262C0 87.404 3.357 90.762 7.5 90.762V90.762Z" fill="#2B435F"/>
<path d="M128.72 421.238H115.972C110.729 410.141 101.859 401.271 90.762 396.028V383.28C90.762 379.137 87.405 375.78 83.262 375.78H52.957C48.814 375.78 45.457 379.137 45.457 383.28V396.029C34.36 401.272 25.491 410.141 20.248 421.238H7.5C3.357 421.238 0 424.595 0 428.738V459.043C0 463.186 3.357 466.543 7.5 466.543H20.249C25.491 477.639 34.361 486.509 45.457 491.751V504.5C45.457 508.643 48.814 512 52.957 512H83.262C87.405 512 90.762 508.643 90.762 504.5V491.752C101.859 486.509 110.728 477.64 115.971 466.543H128.72C132.863 466.543 136.22 463.186 136.22 459.043V428.738C136.22 424.596 132.862 421.238 128.72 421.238V421.238ZM121.22 451.543H110.961C107.785 451.543 104.954 453.543 103.893 456.536C100.1 467.23 91.45 475.88 80.755 479.673C77.762 480.735 75.762 483.566 75.762 486.741V497H60.457V486.741C60.457 483.565 58.457 480.734 55.464 479.673C44.77 475.88 36.12 467.23 32.327 456.536C31.265 453.543 28.434 451.543 25.259 451.543H15V436.238H25.259C28.435 436.238 31.266 434.238 32.327 431.245C36.12 420.551 44.769 411.9 55.464 408.107C58.457 407.045 60.457 404.214 60.457 401.039V390.78H75.762V401.039C75.762 404.215 77.762 407.046 80.755 408.107C91.449 411.9 100.1 420.55 103.893 431.245C104.955 434.238 107.786 436.238 110.961 436.238H121.22V451.543Z" fill="#2B435F"/>
<path d="M68.109 421.238C55.619 421.238 45.457 431.4 45.457 443.89C45.457 456.38 55.619 466.542 68.109 466.542C80.599 466.542 90.761 456.38 90.761 443.89C90.761 431.4 80.6 421.238 68.109 421.238ZM68.109 451.543C63.889 451.543 60.457 448.11 60.457 443.891C60.457 439.672 63.89 436.239 68.109 436.239C72.328 436.239 75.761 439.672 75.761 443.891C75.761 448.11 72.329 451.543 68.109 451.543Z" fill="#2B435F"/>
<path d="M123.922 113.314C120.992 110.386 116.244 110.386 113.315 113.314C110.386 116.244 110.386 120.992 113.315 123.921L134.857 145.463H128.72C124.577 145.463 121.22 148.82 121.22 152.963C121.22 157.106 124.577 160.463 128.72 160.463H152.964C157.047 160.463 160.468 157.042 160.464 152.958V128.72C160.464 124.577 157.107 121.22 152.964 121.22C148.821 121.22 145.464 124.577 145.464 128.72V134.857L123.922 113.314Z" fill="#2B435F"/>
<path d="M351.574 153.706C351.947 157.488 355.238 160.464 359.037 160.464H383.281C387.424 160.464 390.781 157.107 390.781 152.964C390.781 148.821 387.424 145.464 383.281 145.464H377.144L398.686 123.922C401.615 120.992 401.615 116.244 398.686 113.315C395.756 110.387 391.008 110.387 388.079 113.315L366.537 134.857V128.72C366.537 124.577 363.18 121.22 359.037 121.22C354.894 121.22 351.537 124.577 351.537 128.72V152.959C351.536 153.208 351.549 153.458 351.574 153.706V153.706Z" fill="#2B435F"/>
<path d="M160.427 356.276C160.055 352.488 156.759 349.517 152.964 349.517H128.72C124.577 349.517 121.22 352.874 121.22 357.017C121.22 361.16 124.577 364.517 128.72 364.517H134.857L113.315 386.058C110.385 388.988 110.385 393.736 113.314 396.664C114.779 398.129 116.698 398.861 118.618 398.861C120.537 398.861 122.457 398.129 123.921 396.665L145.464 375.123V381.26C145.464 385.403 148.821 388.76 152.964 388.76C157.107 388.76 160.464 385.403 160.464 381.26V357.02C160.464 356.771 160.451 356.523 160.427 356.276V356.276Z" fill="#2B435F"/>
<path d="M388.079 396.665C389.543 398.129 391.463 398.861 393.382 398.861C395.301 398.861 397.221 398.129 398.686 396.664C401.615 393.735 401.615 388.987 398.685 386.058L377.143 364.517H383.28C387.423 364.517 390.78 361.16 390.78 357.017C390.78 352.874 387.423 349.517 383.28 349.517H359.036C354.96 349.517 351.534 352.932 351.536 357.02V381.26C351.536 385.403 354.893 388.76 359.036 388.76C363.179 388.76 366.536 385.403 366.536 381.26V375.123L388.079 396.665Z" fill="#2B435F"/>
</svg>
