<svg width="512" height="512" viewBox="0 0 512 512" fill="none" xmlns="http://www.w3.org/2000/svg">
<path d="M104 337.472V320H88V336H72V416H88V432H104V414.528C113.288 411.216 120 402.416 120 392C120 385.856 117.68 380.248 113.872 376C117.68 371.752 120 366.144 120 360C120 349.584 113.288 340.784 104 337.472ZM96 400H88V384H96C100.416 384 104 387.584 104 392C104 396.416 100.416 400 96 400ZM96 368H88V352H96C100.416 352 104 355.584 104 360C104 364.416 100.416 368 96 368Z" fill="#2B435F"/>
<path d="M457.472 368C460.784 377.288 469.584 384 480 384C493.232 384 504 373.232 504 360C504 346.768 493.232 336 480 336C469.584 336 460.784 342.712 457.472 352H416V320H440C462.056 320 480 302.056 480 280V262.528C489.288 259.216 496 250.416 496 240C496 226.768 485.232 216 472 216C458.768 216 448 226.768 448 240C448 250.416 454.712 259.216 464 262.528V280C464 293.232 453.232 304 440 304H416V240C416 220.688 402.232 204.528 384 200.808V112C384 54.656 337.344 8 280 8C222.656 8 176 54.656 176 112V200.808C157.768 204.528 144 220.68 144 240V302.192C130.08 293.16 113.56 288 96 288C47.48 288 8 327.48 8 376C8 424.52 47.48 464 96 464C113.56 464 130.08 458.84 144 449.808V464C144 486.056 161.944 504 184 504H376C398.056 504 416 486.056 416 464V416H440C453.232 416 464 426.768 464 440V457.472C454.712 460.784 448 469.584 448 480C448 493.232 458.768 504 472 504C485.232 504 496 493.232 496 480C496 469.584 489.288 460.784 480 457.472V440C480 417.944 462.056 400 440 400H416V368H457.472ZM480 352C484.416 352 488 355.584 488 360C488 364.416 484.416 368 480 368C475.584 368 472 364.416 472 360C472 355.584 475.584 352 480 352ZM472 232C476.416 232 480 235.584 480 240C480 244.416 476.416 248 472 248C467.584 248 464 244.416 464 240C464 235.584 467.584 232 472 232ZM472 488C467.584 488 464 484.416 464 480C464 475.584 467.584 472 472 472C476.416 472 480 475.584 480 480C480 484.416 476.416 488 472 488ZM280 24C328.52 24 368 63.48 368 112V200H336V112C336 81.128 310.872 56 280 56C249.128 56 224 81.128 224 112V200H192V112C192 63.48 231.48 24 280 24ZM320 200H240V112C240 89.944 257.944 72 280 72C302.056 72 320 89.944 320 112V200ZM24 376C24 336.296 56.296 304 96 304C127.616 304 155.224 324.248 164.696 354.4L166.456 360H296V392H166.456L164.696 397.6C155.224 427.752 127.616 448 96 448C56.296 448 24 415.704 24 376ZM260.008 322.6C247.664 315.464 240 302.2 240 288C240 265.944 257.944 248 280 248C302.056 248 320 265.944 320 288C320 302.2 312.336 315.464 299.992 322.6L296 324.912V344H264V324.912L260.008 322.6ZM264 408H296V424H264V408ZM376 488H184C173.584 488 164.784 481.288 161.472 472H192V456H160V436.488C167.632 428.392 173.8 418.792 177.992 408H248V440H312V333.904C326.912 323.488 336 306.312 336 288C336 257.128 310.872 232 280 232C249.128 232 224 257.128 224 288C224 306.312 233.088 323.496 248 333.904V344H177.992C173.8 333.208 167.632 323.6 160 315.512V240C160 226.768 170.768 216 184 216H376C389.232 216 400 226.768 400 240V456H208V472H398.528C395.216 481.288 386.416 488 376 488V488Z" fill="#2B435F"/>
<path d="M424 192C437.232 192 448 181.232 448 168C448 157.584 441.288 148.784 432 145.472V72H416V145.472C406.712 148.784 400 157.584 400 168C400 181.232 410.768 192 424 192ZM424 160C428.416 160 432 163.584 432 168C432 172.416 428.416 176 424 176C419.584 176 416 172.416 416 168C416 163.584 419.584 160 424 160Z" fill="#2B435F"/>
<path d="M416 8H432V24H416V8Z" fill="#2B435F"/>
<path d="M416 40H432V56H416V40Z" fill="#2B435F"/>
<path d="M464 62.528V136H480V62.528C489.288 59.216 496 50.416 496 40C496 26.768 485.232 16 472 16C458.768 16 448 26.768 448 40C448 50.416 454.712 59.216 464 62.528V62.528ZM472 32C476.416 32 480 35.584 480 40C480 44.416 476.416 48 472 48C467.584 48 464 44.416 464 40C464 35.584 467.584 32 472 32Z" fill="#2B435F"/>
<path d="M464 184H480V200H464V184Z" fill="#2B435F"/>
<path d="M464 152H480V168H464V152Z" fill="#2B435F"/>
<path d="M112 168C112 181.232 122.768 192 136 192C149.232 192 160 181.232 160 168C160 157.584 153.288 148.784 144 145.472V72H128V145.472C118.712 148.784 112 157.584 112 168ZM136 160C140.416 160 144 163.584 144 168C144 172.416 140.416 176 136 176C131.584 176 128 172.416 128 168C128 163.584 131.584 160 136 160Z" fill="#2B435F"/>
<path d="M128 8H144V24H128V8Z" fill="#2B435F"/>
<path d="M128 40H144V56H128V40Z" fill="#2B435F"/>
<path d="M80 62.528V136H96V62.528C105.288 59.216 112 50.416 112 40C112 26.768 101.232 16 88 16C74.768 16 64 26.768 64 40C64 50.416 70.712 59.216 80 62.528V62.528ZM88 32C92.416 32 96 35.584 96 40C96 44.416 92.416 48 88 48C83.584 48 80 44.416 80 40C80 35.584 83.584 32 88 32Z" fill="#2B435F"/>
<path d="M80 184H96V200H80V184Z" fill="#2B435F"/>
<path d="M80 152H96V168H80V152Z" fill="#2B435F"/>
</svg>
