<svg width="512" height="512" viewBox="0 0 512 512" fill="none" xmlns="http://www.w3.org/2000/svg">
<path d="M424 392C428.408 392 432 395.584 432 400H448C448 386.768 437.232 376 424 376V360H408V376H384V400C384 413.232 394.768 424 408 424H424C428.408 424 432 427.584 432 432V440H408C403.592 440 400 436.416 400 432H384C384 445.232 394.768 456 408 456V472H424V456H448V432C448 418.768 437.232 408 424 408H408C403.592 408 400 404.416 400 400V392H424Z" fill="#2B435F"/>
<path d="M256 200C238.352 200 224 214.352 224 232H208V248H224V264H208V280H224C224 297.648 238.352 312 256 312C273.648 312 288 297.648 288 280V272H272V280C272 288.824 264.824 296 256 296C247.176 296 240 288.824 240 280H256V264H240V248H256V232H240C240 223.176 247.176 216 256 216C264.824 216 272 223.176 272 232V240H288V232C288 214.352 273.648 200 256 200Z" fill="#2B435F"/>
<path d="M104 152V136H120V120H104V104H120V88H104V84L132.8 62.4L123.2 49.6L96 70L68.8 49.6L59.2 62.4L88 84V88H72V104H88V120H72V136H88V152H104Z" fill="#2B435F"/>
<path d="M272 448C261.648 448 252.88 454.632 249.528 463.832C137.824 460.392 48 368.52 48 256H32C32 377.312 128.944 476.336 249.424 479.832C252.688 489.208 261.52 496 272 496C285.232 496 296 485.232 296 472C296 458.768 285.232 448 272 448ZM272 480C267.592 480 264 476.416 264 472C264 467.584 267.592 464 272 464C276.408 464 280 467.584 280 472C280 476.416 276.408 480 272 480Z" fill="#2B435F"/>
<path d="M240 64C250.352 64 259.12 57.368 262.472 48.168C374.176 51.608 464 143.48 464 256H480C480 134.688 383.056 35.664 262.576 32.168C259.312 22.792 250.48 16 240 16C226.768 16 216 26.768 216 40C216 53.232 226.768 64 240 64V64ZM240 32C244.408 32 248 35.592 248 40C248 44.408 244.408 48 240 48C235.592 48 232 44.408 232 40C232 35.592 235.592 32 240 32Z" fill="#2B435F"/>
<path d="M416.488 328.024C426.624 305.448 432 280.84 432 256C432 158.952 353.048 80 256 80C231.168 80 206.552 85.376 183.976 95.512C183.712 47.216 144.36 8 96 8C47.48 8 8 47.48 8 96C8 144.36 47.216 183.712 95.512 183.976C85.376 206.552 80 231.168 80 256C80 353.048 158.952 432 256 432C280.84 432 305.448 426.624 328.024 416.488C328.288 464.784 367.64 504 416 504C464.52 504 504 464.52 504 416C504 367.64 464.784 328.288 416.488 328.024ZM329.92 397.792C316.144 404.984 301.392 410.184 286.152 413.12C296.912 398.184 305.712 374.672 311.832 344H365.56C347.64 356.592 334.6 375.648 329.92 397.792V397.792ZM216.472 344H295.536C285.144 393.376 268.096 416 256.008 416C243.92 416 226.864 393.376 216.472 344ZM96.408 264H168.408C170.808 290.448 184.944 313.512 205.568 328H113.312C103.472 308.584 97.544 286.936 96.408 264ZM182.08 114.208C195.856 107.016 210.608 101.816 225.848 98.888C215.088 113.824 206.288 137.336 200.168 168.008H146.44C164.36 155.408 177.4 136.352 182.08 114.208V114.208ZM295.528 168H216.464C226.856 118.624 243.904 96 255.992 96C268.08 96 285.136 118.624 295.528 168ZM415.592 248H343.592C341.192 221.552 327.056 198.488 306.432 184H398.68C408.528 203.416 414.456 225.064 415.592 248ZM398.784 328H306.44C327.056 313.512 341.2 290.448 343.6 264H415.752C414.624 286.256 408.816 308.12 398.784 328ZM256 328C216.304 328 184 295.704 184 256C184 216.304 216.304 184 256 184C295.696 184 328 216.304 328 256C328 295.704 295.696 328 256 328ZM113.224 184H205.56C184.944 198.488 170.8 221.552 168.4 248H96.248C97.376 225.736 103.184 203.88 113.224 184V184ZM389.488 168H311.84C305.728 137.384 296.944 113.896 286.216 98.952C329.224 107.208 366.144 132.712 389.488 168ZM24 96C24 56.304 56.304 24 96 24C135.696 24 168 56.304 168 96C168 135.696 135.696 168 96 168C56.304 168 24 135.696 24 96ZM122.512 344H200.16C206.272 374.616 215.056 398.104 225.784 413.048C182.776 404.792 145.856 379.288 122.512 344V344ZM416 488C376.304 488 344 455.704 344 416C344 376.296 376.304 344 416 344C455.696 344 488 376.296 488 416C488 455.704 455.696 488 416 488Z" fill="#2B435F"/>
</svg>
