<svg width="512" height="512" viewBox="0 0 512 512" fill="none" xmlns="http://www.w3.org/2000/svg">
<path d="M480 8H32C18.768 8 8 18.768 8 32V336C8 349.232 18.768 360 32 360H40V424H205.504C234.104 473.424 286.728 504 344 504C432.224 504 504 432.224 504 344V32C504 18.768 493.232 8 480 8ZM32 24H480C484.416 24 488 27.592 488 32V72H24V32C24 27.592 27.584 24 32 24ZM396.848 264H291.152C303.152 224.808 323.352 200 344 200C364.648 200 384.84 224.808 396.848 264V264ZM274.504 264H224.336C243.208 235.784 271.168 215.416 303.144 205.96C291.336 219.744 281.424 239.552 274.504 264ZM416 280C429.232 280 440 290.768 440 304V384C440 397.232 429.232 408 416 408H136V280H416ZM344 488C323.352 488 303.16 463.192 291.152 424H396.856C384.84 463.192 364.64 488 344 488ZM120 408H56V280H120V408ZM224.336 424H274.504C281.432 448.44 291.336 468.248 303.128 482.024C271.168 472.568 243.2 452.2 224.336 424V424ZM384.896 482C396.68 468.224 406.584 448.424 413.504 424H416C438.056 424 456 406.056 456 384V304C456 281.944 438.056 264 416 264H413.504C406.584 239.576 396.688 219.784 384.904 206C444.424 223.68 488 278.808 488 344C488 409.192 444.424 464.32 384.896 482ZM344 184C286.688 184 234.112 214.56 205.52 264H40V344H32C27.584 344 24 340.408 24 336V88H488V274.72C462.112 221.144 407.384 184 344 184V184Z" fill="#2B435F"/>
<path d="M40 40H56V56H40V40Z" fill="#2B435F"/>
<path d="M104 40H120V56H104V40Z" fill="#2B435F"/>
<path d="M72 40H88V56H72V40Z" fill="#2B435F"/>
<path d="M40 248H184V104H40V248ZM56 120H168V232H56V120Z" fill="#2B435F"/>
<path d="M344 104V168H472V104H344ZM456 152H360V120H456V152Z" fill="#2B435F"/>
<path d="M200 104H216V120H200V104Z" fill="#2B435F"/>
<path d="M232 104H328V120H232V104Z" fill="#2B435F"/>
<path d="M200 136H328V152H200V136Z" fill="#2B435F"/>
<path d="M200 168H296V184H200V168Z" fill="#2B435F"/>
<path d="M208 368C221.232 368 232 357.232 232 344C232 330.768 221.232 320 208 320C194.768 320 184 330.768 184 344C184 357.232 194.768 368 208 368ZM208 336C212.416 336 216 339.592 216 344C216 348.408 212.416 352 208 352C203.584 352 200 348.408 200 344C200 339.592 203.584 336 208 336Z" fill="#2B435F"/>
<path d="M288 368C301.232 368 312 357.232 312 344C312 330.768 301.232 320 288 320C274.768 320 264 330.768 264 344C264 357.232 274.768 368 288 368ZM288 336C292.416 336 296 339.592 296 344C296 348.408 292.416 352 288 352C283.584 352 280 348.408 280 344C280 339.592 283.584 336 288 336Z" fill="#2B435F"/>
<path d="M368 368C381.232 368 392 357.232 392 344C392 330.768 381.232 320 368 320C354.768 320 344 330.768 344 344C344 357.232 354.768 368 368 368ZM368 336C372.416 336 376 339.592 376 344C376 348.408 372.416 352 368 352C363.584 352 360 348.408 360 344C360 339.592 363.584 336 368 336Z" fill="#2B435F"/>
</svg>
