<svg width="512" height="512" viewBox="0 0 512 512" fill="none" xmlns="http://www.w3.org/2000/svg">
<path d="M248 200H240V312H227.264C224.032 306.536 219.256 301.848 213.136 298.784L97.16 240.8C110.84 232.336 120 217.24 120 200C120 173.528 98.472 152 72 152C45.528 152 24 173.528 24 200C24 214.8 30.736 228.04 41.296 236.856C21.712 245.584 8 265.208 8 288V352C8 367.664 14.48 381.824 24.888 392H8V504H128C145.648 504 160 489.648 160 472V384C160 374.96 156.872 366.704 151.792 360H248C270.056 360 288 342.056 288 320V240C288 217.944 270.056 200 248 200ZM72 168C89.648 168 104 182.352 104 200C104 217.648 89.648 232 72 232C54.352 232 40 217.648 40 200C40 182.352 54.352 168 72 168ZM24 408H64H80H96V472C96 477.856 97.696 483.272 100.448 488H24V408ZM144 384V472C144 480.824 136.824 488 128 488C119.176 488 112 480.824 112 472V408C112 399.176 104.824 392 96 392H80H64C41.944 392 24 374.056 24 352V288C24 265.944 41.944 248 64 248H72C74.464 248 76.928 248.576 79.12 249.672L205.976 313.096C213.976 317.096 217.944 326.512 214.808 334.064C212.272 340.192 206.592 344 199.992 344C197.536 344 195.072 343.424 192.88 342.328L64.84 278.312L57.68 292.624L96 311.784V360H104H120C133.232 360 144 370.768 144 384ZM160.44 344H120H112V319.784L160.44 344ZM272 320C272 333.232 261.232 344 248 344H227.672C228.376 342.776 229.04 341.528 229.592 340.192C231.232 336.232 231.944 332.096 231.872 328H240C248.824 328 256 320.824 256 312V217.368C265.312 220.672 272 229.568 272 240V320Z" fill="#2B435F"/>
<path d="M384 248C450.168 248 504 194.168 504 128C504 61.832 450.168 8 384 8C317.832 8 264 61.832 264 128C264 194.168 317.832 248 384 248ZM384 27.144C389.152 32.544 397.392 42.272 405.096 56H362.896C370.608 42.272 378.848 32.544 384 27.144ZM412.848 72C418.44 85.496 422.672 101.576 423.672 120H344.328C345.32 101.576 349.56 85.496 355.152 72H412.848ZM487.592 120H439.672C438.808 101.856 435.168 85.824 430.128 72H471.496C480.528 86.064 486.248 102.416 487.592 120ZM384 228.856C378.848 223.456 370.616 213.728 362.904 200H405.104C397.384 213.736 389.152 223.456 384 228.856ZM355.152 184C349.56 170.504 345.328 154.424 344.328 136H423.672C422.68 154.424 418.44 170.504 412.848 184H355.152ZM439.68 136H487.6C486.248 153.584 480.536 169.936 471.504 184H430.136C435.176 170.176 438.816 154.144 439.68 136ZM328.32 120H280.4C281.752 102.416 287.464 86.064 296.496 72H337.864C332.824 85.824 329.184 101.856 328.32 120ZM328.32 136C329.184 154.144 332.824 170.176 337.864 184H296.496C287.464 169.936 281.744 153.584 280.4 136H328.32ZM309.128 200H344.656C350.792 212.48 357.656 222.488 363.664 229.976C342.448 225.752 323.576 215.024 309.128 200ZM404.336 229.976C410.344 222.488 417.208 212.48 423.344 200H458.872C444.424 215.024 425.552 225.752 404.336 229.976ZM458.872 56H423.344C417.208 43.52 410.344 33.512 404.336 26.024C425.552 30.248 444.424 40.976 458.872 56ZM363.664 26.024C357.656 33.512 350.8 43.52 344.656 56H309.128C323.576 40.976 342.448 30.248 363.664 26.024Z" fill="#2B435F"/>
<path d="M360 88H376V104H360V88Z" fill="#2B435F"/>
<path d="M392 88H408V104H392V88Z" fill="#2B435F"/>
<path d="M360 152H376V168H360V152Z" fill="#2B435F"/>
<path d="M392 152H408V168H392V152Z" fill="#2B435F"/>
<path d="M214.4 188.8L201.6 179.2L192 192V104C192 90.7681 202.768 80.0001 216 80.0001H224L211.2 89.6001L220.8 102.4L261.336 72.0001L220.8 41.6001L211.2 54.4001L224 64.0001H216C193.944 64.0001 176 81.9441 176 104V192L166.4 179.2L153.6 188.8L184 229.336L214.4 188.8Z" fill="#2B435F"/>
<path d="M235.2 430.4L248 440H216C211.592 440 208 436.416 208 432V408L217.6 420.8L230.4 411.208L200 370.664L169.6 411.2L182.4 420.792L192 408V432C192 445.232 202.768 456 216 456H248L235.2 465.6L244.8 478.4L285.328 448L244.8 417.6L235.2 430.4Z" fill="#2B435F"/>
<path d="M488 384C488 361.944 470.056 344 448 344H352C329.944 344 312 361.944 312 384V456H296V464C296 486.056 313.944 504 336 504H464C486.056 504 504 486.056 504 464V456H488V384ZM328 384C328 370.768 338.768 360 352 360H448C461.232 360 472 370.768 472 384V456H328V384ZM464 488H336C325.568 488 316.672 481.312 313.368 472H486.624C483.328 481.312 474.432 488 464 488Z" fill="#2B435F"/>
<path d="M400 376C386.768 376 376 386.768 376 400C376 413.232 386.768 424 400 424C413.232 424 424 413.232 424 400C424 386.768 413.232 376 400 376ZM400 408C395.592 408 392 404.416 392 400C392 395.584 395.592 392 400 392C404.408 392 408 395.584 408 400C408 404.416 404.408 408 400 408Z" fill="#2B435F"/>
</svg>
