<svg width="480" height="480" viewBox="0 0 480 480" fill="none" xmlns="http://www.w3.org/2000/svg">
<g clip-path="url(#clip0)">
<path d="M8.03069 448.001H32.029V471.999C32.029 476.417 35.6108 479.999 40.0285 479.999H376.005C380.423 479.999 384.005 476.417 384.005 471.999V440.002H368.006V464H48.0279V448.001H232.015V432.002H16.0301V88.0261H80.0257C84.4433 88.0261 88.0251 84.4443 88.0251 80.0267V16.0311H336.008V168.021H352.007V48.0289H368.006V184.019H384.005V40.0294C384.005 35.6118 380.423 32.03 376.005 32.03H352.007V8.03167C352.007 3.61401 348.425 0.0322266 344.007 0.0322266H80.0257C79.8655 0.0322266 79.721 0.114252 79.5609 0.129876C78.8344 0.16503 78.1157 0.309551 77.4282 0.551721C77.1899 0.62203 76.9595 0.707961 76.729 0.801704C75.8541 1.18449 75.0534 1.72742 74.3698 2.39925L2.37483 74.3942C1.70691 75.0739 1.16398 75.8707 0.77729 76.7417C0.664016 76.9878 0.60152 77.2378 0.511683 77.4917C0.28123 78.1557 0.144521 78.8471 0.105462 79.5462C0.105462 79.722 0 79.8743 0 80.0501V440.002C0 442.13 0.847597 444.169 2.35531 445.669C3.86301 447.173 5.90584 448.009 8.03069 448.001ZM72.0262 27.3428V72.0272H27.3418L72.0262 27.3428Z" fill="#2B435F"/>
<path d="M248.014 176.02V168.021H312.01V128.023C311.994 115.606 302.503 105.252 290.132 104.154C289.429 104.064 288.722 104.021 288.011 104.025H64.0269C50.7739 104.025 40.0286 114.77 40.0286 128.023V384.006C40.0286 397.263 50.7739 408.004 64.0269 408.004H184.019V392.005H104.024V368.007H168.02V352.008H104.024V328.01H160.02V312.011H104.024V288.012H161.622V272.013H104.024V248.015H176.019V232.016H104.024V208.018H208.017V192.019H104.024V168.021H232.015V176.02H248.014ZM288.668 120.083C292.816 120.399 296.019 123.864 296.011 128.023V152.022H248.014V119.969H287.675C288.004 120.028 288.336 120.063 288.668 120.083ZM64.0269 120.024H88.0252V152.022H56.0275V128.023C56.0275 123.606 59.6092 120.024 64.0269 120.024ZM88.0252 392.005H64.0269C59.6092 392.005 56.0275 388.423 56.0275 384.006V368.007H88.0252V392.005ZM88.0252 352.008H56.0275V328.01H88.0252V352.008ZM88.0252 312.011H56.0275V288.012H88.0252V312.011ZM88.0252 272.013H56.0275V248.015H88.0252V272.013ZM88.0252 232.016H56.0275V208.018H88.0252V232.016ZM88.0252 192.019H56.0275V168.021H88.0252V192.019ZM104.024 152.022V120.024L232.015 119.985V152.022H104.024Z" fill="#2B435F"/>
<path d="M120.023 72.0273H184.019V88.0262H120.023V72.0273Z" fill="#2B435F"/>
<path d="M200.017 72.0273H232.015V88.0262H200.017V72.0273Z" fill="#2B435F"/>
<path d="M120.023 40.0295H232.015V56.0284H120.023V40.0295Z" fill="#2B435F"/>
<path d="M413.659 378.35L412.635 379.373C447.637 323.115 434.13 249.468 381.442 209.291C328.755 169.11 254.158 175.575 209.165 224.216C164.172 272.857 163.532 347.731 207.689 397.13C251.846 446.532 326.321 454.27 379.685 414.996L437.376 472.687C447.129 482.44 462.937 482.44 472.686 472.687C482.439 462.938 482.439 447.13 472.686 437.381L413.659 378.35ZM192.018 312.011C192.018 250.159 242.159 200.018 304.01 200.018C365.861 200.018 416.002 250.159 416.002 312.011C416.002 373.862 365.861 424.003 304.01 424.003C242.186 423.936 192.084 373.834 192.018 312.011ZM455.031 464C452.652 464.008 450.371 463.063 448.688 461.379L392.004 404.699C396.359 400.583 400.417 396.165 404.156 391.478L461.366 448.689C463.933 451.255 464.702 455.11 463.315 458.461C461.929 461.813 458.66 464 455.031 464V464Z" fill="#2B435F"/>
<path d="M304.01 216.017C250.994 216.017 208.017 258.995 208.017 312.011C208.017 365.027 250.994 408.004 304.01 408.004C357.026 408.004 400.004 365.027 400.004 312.011C399.949 259.018 357.003 216.076 304.01 216.017ZM272.012 312.011C272.012 294.34 286.34 280.013 304.01 280.013C321.685 280.013 336.008 294.34 336.008 312.011C336.008 329.685 321.685 344.008 304.01 344.008C286.34 344.008 272.012 329.685 272.012 312.011ZM262.708 336.337C248.971 331.072 236.605 322.756 226.551 312.011C236.605 301.269 248.971 292.949 262.708 287.684C253.783 302.675 253.783 321.35 262.708 336.337ZM345.312 287.684C359.053 292.949 371.416 301.269 381.47 312.011C371.416 322.756 359.053 331.072 345.312 336.337C354.237 321.35 354.237 302.675 345.312 287.684V287.684ZM304.01 232.016C339.586 232.059 370.865 255.569 380.806 289.727C360.198 273.795 335.028 264.873 308.986 264.272C305.694 263.928 302.377 263.928 299.085 264.272C273.024 264.866 247.838 273.783 227.215 289.727C237.155 255.569 268.438 232.059 304.01 232.016V232.016ZM304.01 392.005C268.438 391.962 237.155 368.456 227.215 334.298C247.827 350.231 272.993 359.148 299.034 359.753C302.327 360.093 305.647 360.093 308.94 359.753C334.996 359.16 360.182 350.238 380.806 334.298C370.865 368.456 339.586 391.962 304.01 392.005V392.005Z" fill="#2B435F"/>
<path d="M320.009 312.011C320.009 320.846 312.845 328.009 304.01 328.009C295.175 328.009 288.011 320.846 288.011 312.011C288.011 303.175 295.175 296.012 304.01 296.012C312.845 296.012 320.009 303.175 320.009 312.011Z" fill="#2B435F"/>
</g>
<defs>
<clipPath id="clip0">
<rect width="480" height="480" fill="white"/>
</clipPath>
</defs>
</svg>
