<svg width="512" height="512" viewBox="0 0 512 512" fill="none" xmlns="http://www.w3.org/2000/svg">
<path d="M204.8 94.408C194.288 80.376 177.536 72 160 72H128C110.464 72 93.712 80.376 83.2 94.4C75.984 104.024 72 115.952 72 128V134.016C72 141.504 73.2 148.888 75.568 156C79.144 166.736 85.376 176.536 93.576 184.36L101.6 192H108.44C105.688 187.28 104 181.856 104 176V149.768C104 146.328 106.2 143.264 109.472 142.176C121.656 138.112 132.728 131.272 141.816 122.192L144 120L146.192 122.192C155.272 131.272 166.344 138.12 178.536 142.176C181.8 143.264 184 146.32 184 149.768V176C184 181.856 182.312 187.28 179.56 192H186.4L194.432 184.352C202.632 176.536 208.856 166.736 212.432 156C214.8 148.888 216 141.504 216 134.016V128C216 115.952 212.016 104.024 204.8 94.408V94.408Z" fill="#2B435F"/>
<path d="M472 120H296V72H472V120Z" fill="#2B435F"/>
<path d="M188.744 220.944L174.592 217.408L172.744 210.032C184.24 202.992 192 190.432 192 176V149.768C192 142.872 187.6 136.768 181.064 134.6C170.176 130.968 160.136 124.768 152 116.68V72H136V116.672C127.864 124.76 117.832 130.96 106.944 134.584C100.4 136.768 96 142.864 96 149.768V176C96 190.432 103.76 202.992 115.248 210.024L113.4 217.4L99.256 220.936C89.224 223.44 80.048 228.632 72.728 235.952C61.944 246.752 56 261.088 56 276.344V328H88H104H232V276.344C232 261.088 226.056 246.752 215.272 235.96C207.952 228.64 198.776 223.448 188.744 220.944ZM112 149.768C123.784 145.848 134.76 139.44 144 131.136C153.24 139.44 164.208 145.84 176 149.768V176C176 189.232 165.232 200 152 200H136C122.768 200 112 189.232 112 176V149.768ZM136 216H152C153.92 216 155.76 215.696 157.608 215.432L159.472 222.88C156.296 228.488 150.504 232 144 232C137.496 232 131.704 228.488 128.528 222.88L130.392 215.432C132.24 215.696 134.08 216 136 216ZM216 312H200V280H184V312H104V280H88V312H72V276.344C72 265.36 76.28 255.04 84.04 247.272C89.312 242.008 95.912 238.264 103.136 236.456L116.032 233.232C122.288 242.44 132.64 248 144 248C155.36 248 165.712 242.44 171.968 233.24L184.864 236.464C192.08 238.272 198.688 242.008 203.96 247.28C211.72 255.04 216 265.36 216 276.344V312Z" fill="#2B435F"/>
<path d="M360 408H472V360H360V408ZM408 392V376H424V392H408ZM456 392H440V376H456V392ZM376 376H392V392H376V376Z" fill="#2B435F"/>
<path d="M480 40H280V24C280 15.176 272.824 8 264 8H24C15.176 8 8 15.176 8 24V376C8 384.824 15.176 392 24 392H40V416C40 429.232 50.768 440 64 440H189.752L177.752 488H152V504H392V488H366.248L354.248 440H480C493.232 440 504 429.232 504 416V64C504 50.768 493.232 40 480 40ZM480 56C484.408 56 488 59.584 488 64V328H280V56H480ZM24 24H264L264.008 376H24V24ZM349.752 488H194.248L206.248 440H337.752L349.752 488ZM480 424H64C59.592 424 56 420.416 56 416V392H264C272.824 392 280 384.824 280 376V344H488V416C488 420.416 484.408 424 480 424Z" fill="#2B435F"/>
<path d="M296 248H376V264H296V248Z" fill="#2B435F"/>
<path d="M296 280H312V296H296V280Z" fill="#2B435F"/>
<path d="M328 280H344V296H328V280Z" fill="#2B435F"/>
<path d="M360 280H376V296H360V280Z" fill="#2B435F"/>
<path d="M316.602 194.469L311.117 200.375V215H300.57V163.812H311.117V187.016L315.758 180.652L328.801 163.812H341.773L323.598 186.559L342.301 215H329.75L316.602 194.469ZM363.922 186.875L374.574 163.812H386.105L369.301 196.438V215H358.578V196.438L341.773 163.812H353.34L363.922 186.875ZM429.91 197.949C429.512 203.457 427.473 207.793 423.793 210.957C420.137 214.121 415.309 215.703 409.309 215.703C402.746 215.703 397.578 213.5 393.805 209.094C390.055 204.664 388.18 198.594 388.18 190.883V187.754C388.18 182.832 389.047 178.496 390.781 174.746C392.516 170.996 394.988 168.125 398.199 166.133C401.434 164.117 405.184 163.109 409.449 163.109C415.355 163.109 420.113 164.691 423.723 167.855C427.332 171.02 429.418 175.461 429.98 181.18H419.434C419.176 177.875 418.25 175.484 416.656 174.008C415.086 172.508 412.684 171.758 409.449 171.758C405.934 171.758 403.297 173.023 401.539 175.555C399.805 178.062 398.914 181.965 398.867 187.262V191.129C398.867 196.66 399.699 200.703 401.363 203.258C403.051 205.812 405.699 207.09 409.309 207.09C412.566 207.09 414.992 206.352 416.586 204.875C418.203 203.375 419.129 201.066 419.363 197.949H429.91Z" fill="#2B435F"/>
</svg>
