<svg width="512" height="512" viewBox="0 0 512 512" fill="none" xmlns="http://www.w3.org/2000/svg">
<path d="M152 384H184V400H152V384Z" fill="white"/>
<path d="M168 120H200V136H168V120Z" fill="white"/>
<path d="M152 152H200V168H152V152Z" fill="white"/>
<path d="M128 184H200V200H128V184Z" fill="white"/>
<path d="M256 144H456V160H256V144Z" fill="white"/>
<path d="M288 40C288 26.4 277.6 16 264 16H72C58.4 16 48 26.4 48 40V140L38.4 147.2C24 157.6 16 174.4 16 192V496H32V192C32 179.2 37.6 167.2 48 160V249.6C48 263.2 58.4 273.6 72 273.6C78.4 273.6 84.8 271.2 88.8 266.4L119.2 236C124.8 230.4 134.4 230.4 140 236C142.4 238.4 144 242.4 144 246.4C144 250.4 142.4 254.4 140 256.8L119.2 277.6C114.4 282.4 112 288 112 294.4V336C112 348.8 106.4 360.8 96 368L89.6 372.8C83.2 377.6 80 384.8 80 392V496H96V432H264C277.6 432 288 421.6 288 408V336H309.6C304 355.2 308.8 376 322.4 389.6L370.4 437.6C391.2 458.4 424.8 458.4 445.6 437.6C466.4 416.8 466.4 383.2 445.6 362.4L419.2 336H496V112H288V40ZM68.8 256.8C65.6 255.2 64 252.8 64 249.6V40C64 35.2 67.2 32 72 32H264C268.8 32 272 35.2 272 40V112H256V48H80V252.8L77.6 255.2C75.2 257.6 72 258.4 68.8 256.8V256.8ZM128 294.4C128 292 128.8 290.4 130.4 288.8L151.2 268C163.2 256 163.2 236.8 151.2 224.8C139.2 212.8 120 212.8 108 224.8L96 236.8V64H240V115.2C225.6 121.6 216 136 216 152V304C216 318.4 225.6 331.2 240 335.2V352H125.6C127.2 347.2 128 341.6 128 336V294.4ZM272 408C272 412.8 268.8 416 264 416H96V392C96 389.6 96.8 387.2 99.2 385.6L105.6 380.8C110.4 377.6 114.4 372.8 117.6 368H256V336H272V408ZM333.6 325.6C348 311.2 372 311.2 386.4 325.6C400.8 340 400.8 364 386.4 378.4C372 392.8 348 392.8 333.6 378.4C319.2 364 319.2 340 333.6 325.6ZM360.8 404.8C389.6 404 412 381.6 412.8 352.8C425.6 368.8 423.2 392 406.4 404.8C393.6 416 374.4 416 360.8 404.8ZM434.4 426.4C420.8 440 400 440.8 384.8 429.6C413.6 428.8 436 406.4 436.8 377.6C448.8 392 447.2 412.8 434.4 426.4ZM403.2 320L397.6 314.4C376.8 293.6 344 293.6 323.2 313.6C321.6 315.2 319.2 317.6 317.6 320H248C239.2 320 232 312.8 232 304V184C239.2 189.6 247.2 192 256 192H480V224H424C406.4 224 392 238.4 392 256C392 273.6 406.4 288 424 288H480V320H403.2ZM480 240V272H424C415.2 272 408 264.8 408 256C408 247.2 415.2 240 424 240H480ZM480 176H256C242.4 176 232 165.6 232 152C232 138.4 242.4 128 256 128H480V176Z" fill="white"/>
</svg>
