<svg width="512" height="512" viewBox="0 0 512 512" fill="none" xmlns="http://www.w3.org/2000/svg">
<path d="M248 120C243.592 120 240 116.416 240 112H224C224 125.232 234.768 136 248 136V152H264V136H288V112C288 98.768 277.232 88 264 88H248C243.592 88 240 84.416 240 80V72H264C268.408 72 272 75.584 272 80H288C288 66.768 277.232 56 264 56V40H248V56H224V80C224 93.232 234.768 104 248 104H264C268.408 104 272 107.584 272 112V120H248Z" fill="#2B435F"/>
<path d="M96 200C78.352 200 64 214.352 64 232H48V248H64V264H48V280H64C64 297.648 78.352 312 96 312C113.648 312 128 297.648 128 280V272H112V280C112 288.824 104.824 296 96 296C87.176 296 80 288.824 80 280H96V264H80V248H96V232H80C80 223.176 87.176 216 96 216C104.824 216 112 223.176 112 232V240H128V232C128 214.352 113.648 200 96 200Z" fill="#2B435F"/>
<path d="M292.8 382.4L283.2 369.6L256 390L228.8 369.6L219.2 382.4L248 404V408H232V424H248V440H232V456H248V472H264V456H280V440H264V424H280V408H264V404L292.8 382.4Z" fill="#2B435F"/>
<path d="M448 400C448 404.416 444.408 408 440 408H384L398.4 388.8L385.6 379.2L358 416L385.6 452.8L398.4 443.208L384 424H440C453.232 424 464 413.232 464 400V360H448V400Z" fill="#2B435F"/>
<path d="M408 72V128L388.8 113.6L379.2 126.4L416 154L452.8 126.4L443.2 113.6L424 128V72C424 58.768 413.232 48 400 48H360V64H400C404.408 64 408 67.584 408 72Z" fill="#2B435F"/>
<path d="M64 112C64 107.584 67.592 104 72 104H128L113.6 123.2L126.4 132.792L154 95.9919L126.4 59.2L113.6 68.8L128 88H72C58.768 88 48 98.768 48 112V152H64V112Z" fill="#2B435F"/>
<path d="M104 440V384L123.2 398.4L132.8 385.6L96 358L59.2 385.6L68.8 398.4L88 384V440C88 453.232 98.768 464 112 464H152V448H112C107.592 448 104 444.416 104 440Z" fill="#2B435F"/>
<path d="M416 168C393.192 168 372.456 176.792 356.808 191.072C347.52 176.648 335.352 164.472 320.928 155.192C335.208 139.544 344 118.808 344 96C344 47.48 304.52 8 256 8C207.48 8 168 47.48 168 96C168 118.808 176.792 139.544 191.072 155.192C176.648 164.472 164.472 176.648 155.192 191.072C139.544 176.792 118.808 168 96 168C47.48 168 8 207.48 8 256C8 304.52 47.48 344 96 344C118.808 344 139.544 335.208 155.192 320.928C164.472 335.344 176.648 347.52 191.072 356.808C176.792 372.456 168 393.192 168 416C168 464.52 207.48 504 256 504C304.52 504 344 464.52 344 416C344 393.192 335.208 372.456 320.928 356.808C335.352 347.52 347.528 335.352 356.808 320.928C372.456 335.208 393.192 344 416 344C464.52 344 504 304.52 504 256C504 207.48 464.52 168 416 168ZM256 328C245.512 328 235.488 329.936 226.152 333.32C224.152 326.656 222.424 319.52 220.992 312H290.992C289.56 319.52 287.832 326.656 285.832 333.32C276.512 329.936 266.488 328 256 328V328ZM218.52 296C217.208 285.736 216.408 275.008 216.144 264H295.856C295.592 275.008 294.784 285.736 293.48 296H218.52ZM256 184C266.488 184 276.512 182.064 285.848 178.68C287.848 185.344 289.576 192.48 291.008 200H221.008C222.44 192.48 224.168 185.344 226.168 178.68C235.488 182.064 245.512 184 256 184V184ZM293.48 216C294.792 226.264 295.592 236.992 295.856 248H216.144C216.408 236.992 217.216 226.264 218.52 216H293.48ZM200.144 248H183.592C182.552 236.56 179.296 225.768 174.28 216H202.392C201.152 226.32 200.392 237.048 200.144 248ZM183.592 264H200.144C200.392 274.952 201.152 285.68 202.392 296H174.28C179.296 286.232 182.56 275.44 183.592 264ZM311.856 264H328.408C329.448 275.44 332.704 286.232 337.72 296H309.608C310.848 285.68 311.608 274.952 311.856 264ZM328.408 248H311.856C311.608 237.048 310.848 226.32 309.608 216H337.72C332.704 225.768 329.44 236.56 328.408 248ZM343.536 200H307.216C305.432 189.976 303.168 180.52 300.44 171.824C303.256 170.168 305.968 168.352 308.576 166.4C322.776 174.736 334.696 186.168 343.536 200ZM256 24C295.696 24 328 56.296 328 96C328 135.704 295.696 168 256 168C216.304 168 184 135.704 184 96C184 56.296 216.304 24 256 24ZM203.424 166.4C206.032 168.352 208.736 170.168 211.56 171.824C208.84 180.52 206.568 189.976 204.784 200H168.464C177.304 186.168 189.224 174.736 203.424 166.4ZM96 328C56.304 328 24 295.704 24 256C24 216.296 56.304 184 96 184C135.696 184 168 216.296 168 256C168 295.704 135.696 328 96 328ZM168.464 312H204.784C206.568 322.024 208.832 331.48 211.56 340.176C208.744 341.832 206.032 343.648 203.432 345.6C189.224 337.256 177.304 325.824 168.464 312V312ZM256 488C216.304 488 184 455.704 184 416C184 376.296 216.304 344 256 344C295.696 344 328 376.296 328 416C328 455.704 295.696 488 256 488ZM308.576 345.6C305.968 343.648 303.264 341.832 300.448 340.176C303.168 331.48 305.44 322.024 307.224 312H343.544C334.696 325.824 322.776 337.256 308.576 345.6V345.6ZM416 328C376.304 328 344 295.704 344 256C344 216.296 376.304 184 416 184C455.696 184 488 216.296 488 256C488 295.704 455.696 328 416 328Z" fill="#2B435F"/>
<path d="M424 217.472V200H408V216H392V296H408V312H424V294.528C433.288 291.216 440 282.416 440 272C440 265.856 437.68 260.248 433.872 256C437.68 251.752 440 246.144 440 240C440 229.584 433.288 220.784 424 217.472ZM416 280H408V264H416C420.408 264 424 267.584 424 272C424 276.416 420.408 280 416 280ZM416 248H408V232H416C420.408 232 424 235.584 424 240C424 244.416 420.408 248 416 248Z" fill="#2B435F"/>
</svg>
