<svg width="512" height="512" viewBox="0 0 512 512" fill="none" xmlns="http://www.w3.org/2000/svg">
<path d="M480 312H400C386.768 312 376 322.768 376 336V480C376 493.232 386.768 504 400 504H480C493.232 504 504 493.232 504 480V336C504 322.768 493.232 312 480 312ZM400 328H480C484.408 328 488 331.584 488 336V344H392V336C392 331.584 395.592 328 400 328ZM488 360V456H392V360H488ZM480 488H400C395.592 488 392 484.416 392 480V472H488V480C488 484.416 484.408 488 480 488Z" fill="#2B435F"/>
<path d="M424 443.312L477.656 389.656L466.344 378.344L424 420.688L413.656 410.344L402.344 421.656L424 443.312Z" fill="#2B435F"/>
<path d="M88 344C43.888 344 8 379.888 8 424C8 468.112 43.888 504 88 504C132.112 504 168 468.112 168 424C168 379.888 132.112 344 88 344ZM151.448 432C149.984 443.664 145.376 454.336 138.496 463.184L127.6 452.28L116.288 463.592L127.184 474.488C118.336 481.368 107.664 485.976 96 487.44V472H80V487.448C68.336 485.984 57.664 481.376 48.816 474.496L59.712 463.6L48.4 452.28L37.504 463.184C30.624 454.336 26.016 443.664 24.552 432H40V416H24.552C26.016 404.336 30.624 393.664 37.504 384.816L48.4 395.72L59.712 384.408L48.816 373.512C57.664 366.632 68.336 362.024 80 360.56V376H96V360.552C107.664 362.016 118.336 366.624 127.184 373.504L116.288 384.4L127.6 395.712L138.496 384.808C145.376 393.656 149.984 404.328 151.448 415.992H136V431.992H151.448V432Z" fill="#2B435F"/>
<path d="M96 392H80V427.312L98.344 445.656L109.656 434.344L96 420.688V392Z" fill="#2B435F"/>
<path d="M480 8H304C290.768 8 280 18.768 280 32V128C280 141.232 290.768 152 304 152H480C493.232 152 504 141.232 504 128V32C504 18.768 493.232 8 480 8ZM304 24H480C484.408 24 488 27.584 488 32V40H296V32C296 27.584 299.592 24 304 24ZM480 136H304C299.592 136 296 132.416 296 128V56H488V128C488 132.416 484.408 136 480 136Z" fill="#2B435F"/>
<path d="M424 120H472V72H424V120ZM440 88H456V104H440V88Z" fill="#2B435F"/>
<path d="M344 104H360V120H344V104Z" fill="#2B435F"/>
<path d="M376 104H392V120H376V104Z" fill="#2B435F"/>
<path d="M312 104H328V120H312V104Z" fill="#2B435F"/>
<path d="M312 72H392V88H312V72Z" fill="#2B435F"/>
<path d="M264 217.16V200H248V217.16C238.76 220.088 232 228.64 232 238.832C232 247.528 236.832 255.352 244.624 259.256L260.224 267.056C262.552 268.216 264 270.56 264 273.168C264 276.928 260.936 280 257.168 280H254.832C251.064 280 248 276.928 248 273.168V264H232V273.168C232 283.368 238.76 291.92 248 294.84V312H264V294.84C273.24 291.912 280 283.36 280 273.168C280 264.472 275.168 256.648 267.376 252.744L251.776 244.944C249.448 243.784 248 241.44 248 238.832C248 235.072 251.064 232 254.832 232H257.168C260.936 232 264 235.072 264 238.832V240H280V238.832C280 228.64 273.24 220.088 264 217.16V217.16Z" fill="#2B435F"/>
<path d="M288 337.888C318.352 325.984 340.536 297.744 343.592 264H400V168H384V248H343.592C339.536 203.216 301.824 168 256 168C240.152 168 225.312 172.272 212.456 179.624C209.608 174.936 205.24 171.336 200 169.472V104H216V84.2079L131.256 14.8639C120.424 6.00792 103.592 6.00792 92.744 14.8639L8 84.2079V104H24V169.472C14.712 172.784 8 181.584 8 192V216H177.712C172.704 225.768 169.44 236.56 168.4 248H112V232H96V264H168.408C171.464 297.744 193.648 325.984 224 337.888V416H184V432H240V342.472C245.2 343.432 250.528 344 256 344C261.472 344 266.8 343.432 272 342.472V416H360V400H288V337.888ZM184 168H168V104H184V168ZM88 104V168H72V104H88ZM104 104H120V168H104V104ZM136 104H152V168H136V104ZM102.872 27.2559C108.016 23.0559 115.992 23.0559 121.128 27.2559L195.368 87.9999H28.632L102.872 27.2559ZM56 104V168H40V104H56ZM24 200V192C24 187.584 27.592 184 32 184H192C195.272 184 198.072 185.984 199.312 188.8C195.28 192.208 191.536 195.936 188.176 200H24ZM184 256C184 216.296 216.304 184 256 184C295.696 184 328 216.296 328 256C328 295.704 295.696 328 256 328C216.304 328 184 295.704 184 256V256Z" fill="#2B435F"/>
</svg>
