<svg width="480" height="480" viewBox="0 0 480 480" fill="none" xmlns="http://www.w3.org/2000/svg">
<path d="M416 432C429.602 432 440 421.602 440 408V384H424V408C424 412.801 420.801 416 416 416H24C19.1992 416 16 412.801 16 408V72C16 67.1992 19.1992 64 24 64H416C420.801 64 424 67.1992 424 72V88H128V104H424V160H440V72C440 58.3984 429.602 48 416 48H24C10.3984 48 0 58.3984 0 72V408C0 421.602 10.3984 432 24 432H416Z" fill="#2B435F"/>
<path d="M32 88H48V104H32V88Z" fill="#2B435F"/>
<path d="M64 88H80V104H64V88Z" fill="#2B435F"/>
<path d="M96 88H112V104H96V88Z" fill="#2B435F"/>
<path d="M248 328H48V392H248V328ZM232 376H64V344H232V376Z" fill="#2B435F"/>
<path d="M328 136H48V216H256V200H64V152H328V136Z" fill="#2B435F"/>
<path d="M368 160C306.398 160 256 210.398 256 272C256 333.602 306.398 384 368 384C429.602 384 480 333.602 480 272C480 210.398 429.602 160 368 160ZM368 368C315.199 368 272 324.801 272 272C272 219.199 315.199 176 368 176C420.801 176 464 219.199 464 272C464 324.801 420.801 368 368 368Z" fill="#2B435F"/>
<path d="M392 200H344C330.398 200 320 210.398 320 224V320C320 333.602 330.398 344 344 344H392C405.602 344 416 333.602 416 320V224C416 210.398 405.602 200 392 200ZM344 216H392C396.801 216 400 219.199 400 224V232H336V224C336 219.199 339.199 216 344 216ZM400 248V296H336V248H400ZM392 328H344C339.199 328 336 324.801 336 320V312H400V320C400 324.801 396.801 328 392 328Z" fill="#2B435F"/>
<path d="M240 232H48V312H240V296H64V248H240V232Z" fill="#2B435F"/>
<path d="M80 168H96V184H80V168Z" fill="#2B435F"/>
<path d="M112 168H128V184H112V168Z" fill="#2B435F"/>
<path d="M144 168H160V184H144V168Z" fill="#2B435F"/>
<path d="M176 168H192V184H176V168Z" fill="#2B435F"/>
<path d="M208 168H224V184H208V168Z" fill="#2B435F"/>
<path d="M80 264H96V280H80V264Z" fill="#2B435F"/>
<path d="M112 264H128V280H112V264Z" fill="#2B435F"/>
<path d="M144 264H160V280H144V264Z" fill="#2B435F"/>
<path d="M176 264H192V280H176V264Z" fill="#2B435F"/>
<path d="M208 264H224V280H208V264Z" fill="#2B435F"/>
<path d="M240 168H256V184H240V168Z" fill="#2B435F"/>
</svg>
