<svg width="512" height="512" viewBox="0 0 512 512" fill="none" xmlns="http://www.w3.org/2000/svg">
<path d="M456 16H56C33.944 16 16 33.944 16 56V344C16 366.056 33.944 384 56 384H197.248L178.048 448H144C139.576 448 136 451.584 136 456C136 478.056 153.944 496 176 496H336C358.056 496 376 478.056 376 456C376 451.584 372.424 448 368 448H333.952L314.752 384H456C478.056 384 496 366.056 496 344V56C496 33.944 478.056 16 456 16ZM56 32H456C469.232 32 480 42.768 480 56V304H32V208H152V216C152 229.232 162.768 240 176 240H328.64C332.544 267.096 355.848 288 384 288C414.872 288 440 262.88 440 232C440 203.848 419.088 180.544 392 176.64V104C392 90.768 381.232 80 368 80H225.888L163.576 48.84C161.784 47.952 159.728 47.744 157.8 48.304L102.88 64H32V56C32 42.768 42.768 32 56 32V32ZM328.64 224H176C171.584 224 168 220.408 168 216V208H196C211.44 208 224 195.44 224 180C224 175.688 222.936 171.648 221.192 168H376V176.64C351.528 180.168 332.168 199.528 328.64 224ZM168 136H376V152H168V136ZM384 192C406.056 192 424 209.944 424 232C424 254.056 406.056 272 384 272C361.944 272 344 254.056 344 232C344 209.944 361.944 192 384 192ZM376 120H168V104C168 99.592 171.584 96 176 96H368C372.416 96 376 99.592 376 104V120ZM176 80C162.768 80 152 90.768 152 104V152H136V168H160H196C202.616 168 208 173.384 208 180C208 186.616 202.616 192 196 192H32V80H104C104.744 80 105.488 79.896 106.192 79.688L159.2 64.544L190.112 80H176ZM336 480H176C165.568 480 156.672 473.312 153.368 464H358.632C355.328 473.312 346.432 480 336 480ZM317.248 448H194.752L213.952 384H298.048L317.248 448ZM456 368H56C42.768 368 32 357.232 32 344V320H480V344C480 357.232 469.232 368 456 368Z" fill="#2B435F"/>
<path d="M376 256C378.048 256 380.096 255.216 381.656 253.656L413.656 221.656L402.344 210.344L376 236.688L365.656 226.344L354.344 237.656L370.344 253.656C371.904 255.216 373.952 256 376 256Z" fill="#2B435F"/>
<path d="M232 184H248V200H232V184Z" fill="#2B435F"/>
<path d="M264 184H280V200H264V184Z" fill="#2B435F"/>
<path d="M296 184H312V200H296V184Z" fill="#2B435F"/>
</svg>
