<svg width="937" height="937" viewBox="0 0 937 937" fill="none" xmlns="http://www.w3.org/2000/svg">
<g clip-path="url(#clip0)">
<path d="M62.4667 781.083H93.7V749.85H62.4667C45.2142 749.85 31.2333 735.869 31.2333 718.617V93.9501C31.2333 76.6976 45.2142 62.7167 62.4667 62.7167H749.6C766.853 62.7167 780.833 76.6976 780.833 93.9501V125.183H812.067V93.9501C812.067 59.4528 784.097 31.4834 749.6 31.4834H62.4667C27.9694 31.4834 0 59.4528 0 93.9501V718.617C0 753.114 27.9694 781.083 62.4667 781.083Z" fill="#2B435F"/>
<path d="M62.4667 93.95H93.7V125.183H62.4667V93.95Z" fill="#2B435F"/>
<path d="M124.933 93.95H156.167V125.183H124.933V93.95Z" fill="#2B435F"/>
<path d="M187.4 93.95H218.633V125.183H187.4V93.95Z" fill="#2B435F"/>
<path d="M124.933 843.55C124.933 878.047 152.903 906.017 187.4 906.017H874.533C909.031 906.017 937 878.047 937 843.55V218.883C937 184.386 909.031 156.417 874.533 156.417H187.4C152.903 156.417 124.933 184.386 124.933 218.883V843.55ZM156.167 218.883C156.167 201.631 170.148 187.65 187.4 187.65H874.533C891.786 187.65 905.767 201.631 905.767 218.883V843.55C905.767 860.802 891.786 874.783 874.533 874.783H187.4C170.148 874.783 156.167 860.802 156.167 843.55V218.883Z" fill="#2B435F"/>
<path d="M187.4 218.883H218.633V250.117H187.4V218.883Z" fill="#2B435F"/>
<path d="M249.867 218.883H281.1V250.117H249.867V218.883Z" fill="#2B435F"/>
<path d="M312.333 218.883H343.567V250.117H312.333V218.883Z" fill="#2B435F"/>
<path d="M187.4 281.35H874.533V312.583H187.4V281.35Z" fill="#2B435F"/>
<path d="M187.4 359.433H312.333V390.667H187.4V359.433Z" fill="#2B435F"/>
<path d="M187.4 421.9H281.1V453.133H187.4V421.9Z" fill="#2B435F"/>
<path d="M530.967 484.367C470.589 484.367 421.65 533.305 421.65 593.683C421.65 654.061 470.589 703 530.967 703C591.345 703 640.283 654.061 640.283 593.683C640.213 533.34 591.309 484.437 530.967 484.367ZM530.967 671.767C487.845 671.767 452.883 636.805 452.883 593.683C452.883 550.562 487.845 515.6 530.967 515.6C574.088 515.6 609.05 550.562 609.05 593.683C608.995 636.785 574.069 671.712 530.967 671.767Z" fill="#2B435F"/>
<path d="M780.833 546.833C780.833 538.205 773.845 531.217 765.217 531.217H723.942C720.635 520.956 716.512 510.974 711.589 501.389L740.777 472.221C746.867 466.119 746.867 456.237 740.777 450.135L674.515 383.873C668.413 377.783 658.531 377.783 652.429 383.873L623.261 413.045C613.661 408.142 603.686 404.019 593.433 400.708V359.433C593.433 350.805 586.445 343.817 577.817 343.817H484.117C475.488 343.817 468.5 350.805 468.5 359.433V400.708C458.248 404.019 448.272 408.142 438.672 413.045L409.504 383.873C403.402 377.783 393.52 377.783 387.418 383.873L321.157 450.135C315.066 456.237 315.066 466.119 321.157 472.221L350.329 501.389C349.025 503.946 347.768 506.511 346.581 509.103C343.286 516.303 340.42 523.682 337.991 531.217H296.717C288.088 531.217 281.1 538.205 281.1 546.833V640.533C281.1 649.162 288.088 656.15 296.717 656.15H337.991C341.298 666.41 345.421 676.393 350.344 685.978L321.157 715.146C315.066 721.248 315.066 731.13 321.157 737.232L387.418 803.493C393.52 809.584 403.402 809.584 409.504 803.493L438.672 774.321C448.272 779.225 458.248 783.348 468.5 786.658V827.933C468.5 836.562 475.488 843.55 484.117 843.55H577.817C586.445 843.55 593.433 836.562 593.433 827.933V786.658C603.686 783.348 613.661 779.225 623.261 774.321L652.429 803.493C658.531 809.584 668.413 809.584 674.515 803.493L740.777 737.232C746.867 731.13 746.867 721.248 740.777 715.146L711.589 685.978C716.512 676.393 720.635 666.41 723.942 656.15H765.217C773.845 656.15 780.833 649.162 780.833 640.533V546.833ZM749.6 624.917H712.214C705.092 624.917 698.877 629.738 697.097 636.629C693.107 652.129 686.958 667.004 678.825 680.793C675.206 686.923 676.202 694.731 681.23 699.767L707.634 726.187L663.47 770.37L637.051 743.947C632.01 738.911 624.202 737.919 618.069 741.542C604.279 749.674 589.412 755.827 573.912 759.813C567.022 761.594 562.2 767.809 562.2 774.93V812.317H499.733V774.93C499.733 767.809 494.912 761.594 488.021 759.813C472.521 755.827 457.654 749.674 443.865 741.542C437.731 737.919 429.923 738.911 424.883 743.947L398.463 770.37L354.299 726.187L380.703 699.767C385.732 694.731 386.727 686.923 383.108 680.793C374.976 667.004 368.827 652.129 364.837 636.629C363.056 629.738 356.841 624.917 349.72 624.917H312.333V562.45H349.72C356.841 562.45 363.056 557.628 364.837 550.737C367.359 540.907 370.759 531.334 374.991 522.116C377.431 516.771 380.141 511.559 383.108 506.499C386.715 500.366 385.728 492.569 380.703 487.537L354.299 461.117L398.463 416.934L424.883 443.365C429.923 448.401 437.731 449.385 443.865 445.758C457.654 437.634 472.521 431.473 488.021 427.487C494.912 425.71 499.733 419.487 499.733 412.378V375.05H562.2V412.436C562.2 419.557 567.022 425.773 573.912 427.553C589.412 431.539 604.279 437.692 618.069 445.825C624.202 449.448 632.01 448.456 637.051 443.42L663.47 416.996L707.634 461.18L681.23 487.599C676.202 492.636 675.206 500.444 678.825 506.574C686.958 520.363 693.107 535.238 697.097 550.737C698.877 557.628 705.092 562.45 712.214 562.45H749.6V624.917Z" fill="#2B435F"/>
<path d="M780.833 812.317H874.533V843.55H780.833V812.317Z" fill="#2B435F"/>
</g>
<defs>
<clipPath id="clip0">
<rect width="937" height="937" fill="white"/>
</clipPath>
</defs>
</svg>
