<svg width="512" height="512" viewBox="0 0 512 512" fill="none" xmlns="http://www.w3.org/2000/svg">
<path d="M341.333 0C247.229 0 170.666 76.563 170.666 170.667C170.666 181.875 171.885 193.375 174.291 204.927L155.228 214.458C152.165 215.989 150.02 218.906 149.468 222.291C148.916 225.676 150.031 229.114 152.458 231.541L166.25 245.333L155.583 256H138.666C132.77 256 127.999 260.771 127.999 266.667V283.584L112.916 298.667H96C90.104 298.667 85.333 303.438 85.333 309.334V326.251L70.25 341.333H53.333C47.437 341.333 42.666 346.104 42.666 352V368.917L3.125 408.458C1.125 410.458 0 413.166 0 416V501.333C0 507.229 4.771 512 10.667 512H96C98.833 512 101.542 510.875 103.542 508.875L266.667 345.75L280.459 359.542C282.876 361.969 286.324 363.105 289.709 362.532C293.094 361.98 296.011 359.834 297.542 356.772L307.073 337.709C415.604 360.333 512 275.979 512 170.667C512 76.563 435.438 0 341.333 0ZM303.948 315.083C299.115 313.854 294 316.146 291.75 320.646L285.073 333.99L274.208 323.125C270.041 318.958 263.291 318.958 259.125 323.125L91.583 490.667H21.333V420.417L60.875 380.875C62.875 378.875 64 376.167 64 373.333V362.666H74.667C77.5 362.666 80.209 361.541 82.209 359.541L103.542 338.208C105.542 336.208 106.667 333.5 106.667 330.666V320H117.334C120.167 320 122.876 318.875 124.876 316.875L146.209 295.542C148.209 293.542 149.334 290.834 149.334 288V277.333H160C162.833 277.333 165.542 276.208 167.542 274.208L188.875 252.875C193.042 248.708 193.042 241.958 188.875 237.792L178.01 226.927L191.354 220.25C195.854 218 198.167 212.917 196.917 208.052C193.657 195.385 192 182.812 192 170.667C192 88.323 258.99 21.334 341.333 21.334C423.676 21.334 490.666 88.324 490.666 170.667C490.667 265.156 402.49 340.458 303.948 315.083Z" fill="#2B435F"/>
<path d="M394.667 64C365.261 64 341.334 87.927 341.334 117.333C341.334 146.739 365.261 170.666 394.667 170.666C424.073 170.666 448 146.74 448 117.333C448 87.926 424.073 64 394.667 64ZM394.667 149.333C377.021 149.333 362.667 134.979 362.667 117.333C362.667 99.687 377.021 85.333 394.667 85.333C412.313 85.333 426.667 99.687 426.667 117.333C426.667 134.979 412.313 149.333 394.667 149.333Z" fill="#2B435F"/>
<path d="M216.458 280.458L67.125 429.792C62.958 433.959 62.958 440.709 67.125 444.875C69.208 446.958 71.938 448 74.667 448C77.396 448 80.125 446.958 82.209 444.875L231.542 295.542C235.709 291.375 235.709 284.625 231.542 280.459C227.375 276.292 220.625 276.292 216.458 280.458Z" fill="#2B435F"/>
</svg>
