<svg width="512" height="512" viewBox="0 0 512 512" fill="none" xmlns="http://www.w3.org/2000/svg">
<path d="M296 286C301.52 286 306 281.52 306 276C306 270.48 301.52 266 296 266C290.48 266 286 270.48 286 276C286 281.52 290.48 286 296 286Z" fill="#2B435F"/>
<path d="M76 286C81.5195 286 86 281.52 86 276C86 270.48 81.5195 266 76 266C70.4805 266 66 270.48 66 276C66 281.52 70.4805 286 76 286Z" fill="#2B435F"/>
<path d="M10 126C15.5234 126 20 121.523 20 116V20H116C121.523 20 126 15.5234 126 10C126 4.47656 121.523 0 116 0H10C4.47656 0 0 4.47656 0 10V116C0 121.523 4.47656 126 10 126Z" fill="#2B435F"/>
<path d="M126 502C126 496.477 121.523 492 116 492H20V396C20 390.477 15.5234 386 10 386C4.47656 386 0 390.477 0 396V502C0 507.523 4.47656 512 10 512H116C121.523 512 126 507.523 126 502Z" fill="#2B435F"/>
<path d="M502 386C496.477 386 492 390.477 492 396V492H396C390.477 492 386 496.477 386 502C386 507.523 390.477 512 396 512H502C507.523 512 512 507.523 512 502V396C512 390.477 507.523 386 502 386Z" fill="#2B435F"/>
<path d="M502 0H396C390.477 0 386 4.47656 386 10C386 15.5234 390.477 20 396 20H492V116C492 121.523 496.477 126 502 126C507.523 126 512 121.523 512 116V10C512 4.47656 507.523 0 502 0Z" fill="#2B435F"/>
<path d="M66 436C66 441.523 70.4766 446 76 446H176C181.523 446 186 441.523 186 436V336C186 330.477 181.523 326 176 326H76C70.4766 326 66 330.477 66 336V436ZM86 346H166V426H86V346Z" fill="#2B435F"/>
<path d="M176 66H76C70.4766 66 66 70.4766 66 76V176C66 181.523 70.4766 186 76 186H176C181.523 186 186 181.523 186 176V76C186 70.4766 181.523 66 176 66ZM166 166H86V86H166V166Z" fill="#2B435F"/>
<path d="M446 76C446 70.4766 441.523 66 436 66H336C330.477 66 326 70.4766 326 76V176C326 181.523 330.477 186 336 186H436C441.523 186 446 181.523 446 176V76ZM426 166H346V86H426V166Z" fill="#2B435F"/>
<path d="M446 436V336C446 330.477 441.523 326 436 326H336C330.477 326 326 330.477 326 336V436C326 441.523 330.477 446 336 446H436C441.523 446 446 441.523 446 436ZM426 426H346V346H426V426Z" fill="#2B435F"/>
<path d="M136 366H116C110.477 366 106 370.477 106 376V396C106 401.523 110.477 406 116 406H136C141.523 406 146 401.523 146 396V376C146 370.477 141.523 366 136 366Z" fill="#2B435F"/>
<path d="M116 146H136C141.523 146 146 141.523 146 136V116C146 110.477 141.523 106 136 106H116C110.477 106 106 110.477 106 116V136C106 141.523 110.477 146 116 146Z" fill="#2B435F"/>
<path d="M376 146H396C401.523 146 406 141.523 406 136V116C406 110.477 401.523 106 396 106H376C370.477 106 366 110.477 366 116V136C366 141.523 370.477 146 376 146Z" fill="#2B435F"/>
<path d="M376 406H396C401.523 406 406 401.523 406 396V376C406 370.477 401.523 366 396 366H376C370.477 366 366 370.477 366 376V396C366 401.523 370.477 406 376 406Z" fill="#2B435F"/>
<path d="M106 276C106 281.523 110.477 286 116 286H246V336C246 341.523 250.477 346 256 346C261.523 346 266 341.523 266 336V276C266 270.477 261.523 266 256 266H116C110.477 266 106 270.477 106 276Z" fill="#2B435F"/>
<path d="M176 246C181.523 246 186 241.523 186 236C186 230.477 181.523 226 176 226H76C70.4766 226 66 230.477 66 236C66 241.523 70.4766 246 76 246H176Z" fill="#2B435F"/>
<path d="M216 246H256C261.523 246 266 241.523 266 236C266 230.477 261.523 226 256 226H216C210.477 226 206 230.477 206 236C206 241.523 210.477 246 216 246Z" fill="#2B435F"/>
<path d="M216 66C210.477 66 206 70.4766 206 76V176C206 181.523 210.477 186 216 186H286V236C286 241.523 290.477 246 296 246H336C341.523 246 346 241.523 346 236C346 230.477 341.523 226 336 226H306V176C306 170.477 301.523 166 296 166H226V76C226 70.4766 221.523 66 216 66Z" fill="#2B435F"/>
<path d="M436 226H376C370.477 226 366 230.477 366 236C366 241.523 370.477 246 376 246H436C441.523 246 446 241.523 446 236C446 230.477 441.523 226 436 226Z" fill="#2B435F"/>
<path d="M436 266H336C330.477 266 326 270.477 326 276C326 281.523 330.477 286 336 286H436C441.523 286 446 281.523 446 276C446 270.477 441.523 266 436 266Z" fill="#2B435F"/>
<path d="M256 366H216C210.477 366 206 370.477 206 376V436C206 441.523 210.477 446 216 446C221.523 446 226 441.523 226 436V386H256C261.523 386 266 381.523 266 376C266 370.477 261.523 366 256 366Z" fill="#2B435F"/>
<path d="M286 426H256C250.477 426 246 430.477 246 436C246 441.523 250.477 446 256 446H296C301.523 446 306 441.523 306 436V316C306 310.477 301.523 306 296 306C290.477 306 286 310.477 286 316V426Z" fill="#2B435F"/>
<path d="M296 146C301.523 146 306 141.523 306 136V76C306 70.4766 301.523 66 296 66C290.477 66 286 70.4766 286 76V126H256C250.477 126 246 130.477 246 136C246 141.523 250.477 146 256 146H296Z" fill="#2B435F"/>
</svg>
