<svg width="512" height="512" viewBox="0 0 512 512" fill="none" xmlns="http://www.w3.org/2000/svg">
<path d="M420.832 376.248C431.24 367.936 439.256 356.792 443.8 344H448C465.648 344 480 329.648 480 312C480 300.208 473.52 290 464 284.448V248C464 212.712 435.288 184 400 184H352C316.712 184 288 212.712 288 248V284.448C278.48 290 272 300.208 272 312C272 329.648 286.352 344 304 344H308.2C312.744 356.792 320.76 367.928 331.168 376.248C284.896 378.776 248 417.104 248 464V496C248 500.424 251.584 504 256 504H496C500.416 504 504 500.424 504 496V464C504 417.104 467.104 378.776 420.832 376.248ZM340.152 392L365.28 423.408L340.912 447.776L329.816 392.312C331.864 392.136 333.912 392 336 392H340.152ZM391.352 392L376 411.192L360.648 392H391.352ZM411.848 392H416C418.088 392 420.136 392.136 422.176 392.312L411.08 447.776L386.712 423.408L411.848 392ZM448 328H447.528C447.824 325.368 448 322.704 448 320V296C456.824 296 464 303.176 464 312C464 320.824 456.824 328 448 328ZM304 248C304 221.528 325.528 200 352 200H400C426.472 200 448 221.528 448 248V280H440H416C407.176 280 400 272.824 400 264V240V232H384V240C384 262.056 366.056 280 344 280H312H304V248ZM304 328C295.176 328 288 320.824 288 312C288 303.176 295.176 296 304 296V320C304 322.704 304.176 325.368 304.472 328H304ZM320 320V296H344C360.992 296 376.216 288.36 386.496 276.368C391.344 287.888 402.736 296 416 296H432V320C432 350.872 406.88 376 376 376C345.12 376 320 350.872 320 320ZM488 488H264V464C264 431.928 285.096 404.704 314.128 395.424L328.16 465.576C328.736 468.464 330.864 470.808 333.688 471.664C334.448 471.888 335.224 472 336 472C338.088 472 340.136 471.176 341.656 469.656L376 435.312L410.344 469.656C411.864 471.176 413.912 472 416 472C416.776 472 417.552 471.888 418.32 471.656C421.144 470.808 423.272 468.464 423.848 465.568L437.88 395.416C466.904 404.704 488 431.928 488 464V488Z" fill="#2B435F"/>
<path d="M264 320V288C264 241.104 227.104 202.776 180.832 200.248C191.24 191.936 199.256 180.792 203.8 168H208C225.648 168 240 153.648 240 136C240 124.208 233.52 114 224 108.448V72C224 36.712 195.288 8 160 8H112C76.712 8 48 36.712 48 72V108.448C38.48 114 32 124.208 32 136C32 153.648 46.352 168 64 168H68.2C72.744 180.792 80.76 191.928 91.168 200.248C44.896 202.776 8 241.104 8 288V320C8 324.424 11.584 328 16 328H256C260.416 328 264 324.424 264 320ZM100.152 216L125.28 247.408L100.912 271.776L89.816 216.312C91.864 216.136 93.912 216 96 216H100.152ZM151.352 216L136 235.192L120.648 216H151.352ZM171.848 216H176C178.088 216 180.136 216.136 182.176 216.312L171.08 271.776L146.712 247.408L171.848 216ZM208 152H207.528C207.824 149.368 208 146.704 208 144V120C216.824 120 224 127.176 224 136C224 144.824 216.824 152 208 152ZM64 72C64 45.528 85.528 24 112 24H160C186.472 24 208 45.528 208 72V104H200H176C167.176 104 160 96.824 160 88V64V56H144V64C144 86.056 126.056 104 104 104H72H64V72ZM64 152C55.176 152 48 144.824 48 136C48 127.176 55.176 120 64 120V144C64 146.704 64.176 149.368 64.472 152H64ZM80 144V120H104C120.992 120 136.216 112.36 146.496 100.368C151.344 111.888 162.736 120 176 120H192V144C192 174.872 166.88 200 136 200C105.12 200 80 174.872 80 144ZM248 312H24V288C24 255.928 45.096 228.704 74.128 219.424L88.16 289.576C88.736 292.464 90.864 294.808 93.688 295.664C94.448 295.888 95.224 296 96 296C98.088 296 100.136 295.176 101.656 293.656L136 259.312L170.344 293.656C171.864 295.176 173.912 296 176 296C176.776 296 177.552 295.888 178.32 295.656C181.144 294.808 183.272 292.464 183.848 289.568L197.88 219.416C226.904 228.704 248 255.928 248 288V312Z" fill="#2B435F"/>
<path d="M232 488C190.592 488 156.424 456.368 152.4 416H176C179.232 416 182.152 414.056 183.392 411.064C184.632 408.072 183.944 404.632 181.656 402.344L125.656 346.344C122.528 343.216 117.472 343.216 114.344 346.344L58.344 402.344C56.056 404.632 55.368 408.072 56.608 411.064C57.848 414.056 60.768 416 64 416H88.336C92.408 465.2 133.76 504 184 504H232C236.416 504 240 500.424 240 496C240 491.576 236.416 488 232 488ZM104 408C104 403.576 100.416 400 96 400H83.312L120 363.312L156.688 400H144C139.584 400 136 403.576 136 408C136 441.24 152.984 470.592 178.728 487.832C137.064 485.104 104 450.344 104 408V408Z" fill="#2B435F"/>
</svg>
