<svg width="512" height="512" viewBox="0 0 512 512" fill="none" xmlns="http://www.w3.org/2000/svg">
<path d="M486.881 252.26H486.347V80.7019C486.347 38.5619 452.062 4.27588 409.921 4.27588H187.591C183.164 4.27588 179.574 7.86388 179.574 12.2929C179.574 16.7209 183.163 20.3099 187.591 20.3099H409.921C443.221 20.3099 470.314 47.4019 470.314 80.7029V162.217C461.338 150.649 449.126 141.724 435.041 136.806V63.5999C435.041 49.7489 423.773 38.4809 409.922 38.4809H77.152C80.546 27.9499 90.435 20.3099 102.079 20.3099H153.386C157.813 20.3099 161.403 16.7219 161.403 12.2929C161.403 7.86488 157.814 4.27588 153.386 4.27588H102.079C78.798 4.27588 59.858 23.2169 59.858 46.4969V268.952C44.358 269.746 22.07 264.639 10.301 261.143C5.243 259.646 0 263.553 0 268.827V414.197C0 415.55 0.342 416.881 0.995 418.065C12.413 438.789 27.456 456.839 45.707 471.717C66.423 488.605 91.158 500.974 117.239 507.485C118.507 507.803 119.855 507.803 121.123 507.485C136.326 503.689 151.064 497.891 164.823 490.38C165.441 490.533 166.082 490.623 166.747 490.623H409.92C452.061 490.623 486.346 456.338 486.346 414.197V370.907H486.88C500.731 370.907 511.999 359.639 511.999 345.788V277.379C512 263.528 500.732 252.26 486.881 252.26ZM75.891 54.5139H409.92C414.93 54.5139 419.006 58.5909 419.006 63.5999V133.103C416.024 132.748 412.997 132.544 409.92 132.544H400.834V114.907C400.834 110.479 397.245 106.89 392.817 106.89C378.377 106.89 366.629 95.1429 366.629 80.7019C366.629 76.2739 363.04 72.6849 358.612 72.6849H75.891V54.5139ZM75.891 88.7189H351.36C354.614 105.585 367.935 118.906 384.801 122.16V132.543H75.891V88.7189ZM470.313 414.197C470.313 447.497 443.221 474.59 409.92 474.59H189.03C190.251 473.647 191.462 472.692 192.656 471.718C201.513 464.498 209.608 456.525 216.906 447.868H247.449C251.876 447.868 255.466 444.28 255.466 439.851C255.466 435.423 251.877 431.834 247.449 431.834H228.973C231.954 427.385 234.76 422.799 237.368 418.066C238.021 416.882 238.363 415.55 238.363 414.198V337.238C238.363 332.81 234.774 329.221 230.346 329.221C225.918 329.221 222.329 332.809 222.329 337.238V412.111C212.035 430.281 198.652 446.146 182.524 459.292C164.137 474.281 142.274 485.37 119.18 491.435C96.087 485.37 74.223 474.281 55.836 459.292C39.708 446.146 26.326 430.281 16.031 412.111V279.288C29.398 282.576 51.746 286.936 67.789 284.215C88.761 280.653 105.652 273.51 119.179 262.45C132.706 273.511 149.598 280.653 170.569 284.215C186.612 286.937 208.96 282.577 222.327 279.288V303.032C222.327 307.46 225.916 311.049 230.344 311.049C234.772 311.049 238.361 307.461 238.361 303.032V268.827C238.361 263.554 233.118 259.643 228.06 261.143C214.881 265.06 188.507 270.995 173.254 268.406C145.732 263.733 132.394 253.361 124.756 245.966C121.648 242.958 116.713 242.958 113.603 245.966C107.039 252.322 96.256 260.872 75.889 266.118V191.307C76.066 191.319 76.243 191.334 76.423 191.334H110.628C115.055 191.334 118.645 187.746 118.645 183.317C118.645 178.889 115.056 175.3 110.628 175.3H76.426C76.245 175.3 76.069 175.315 75.892 175.327V148.577H409.921C443.221 148.577 470.314 175.669 470.314 208.969V252.259H400.809C400.821 252.082 400.836 251.905 400.836 251.725V217.52C400.836 213.092 397.247 209.503 392.819 209.503C388.392 209.503 384.802 213.091 384.802 217.52V251.725C384.802 251.906 384.817 252.082 384.829 252.259H384.268C370.417 252.259 359.149 263.527 359.149 277.378V345.787C359.149 359.638 370.417 370.906 384.268 370.906H384.829C384.817 371.083 384.802 371.26 384.802 371.44V405.645C384.802 410.073 388.391 413.662 392.819 413.662C397.246 413.662 400.836 410.074 400.836 405.645V371.44C400.836 371.259 400.821 371.083 400.809 370.906H470.314V414.197H470.313ZM495.967 345.788C495.967 350.798 491.891 354.874 486.881 354.874H384.267C379.257 354.874 375.181 350.798 375.181 345.788V277.379C375.181 272.369 379.257 268.293 384.267 268.293H486.881C491.891 268.293 495.967 272.369 495.967 277.379V345.788Z" fill="#2B435F"/>
<path d="M427.023 277.913C408.457 277.913 393.353 293.017 393.353 311.583C393.353 330.149 408.458 345.253 427.023 345.253C445.589 345.253 460.693 330.15 460.693 311.583C460.693 293.016 445.589 277.913 427.023 277.913ZM427.023 329.22C417.298 329.22 409.386 321.308 409.386 311.583C409.386 301.858 417.298 293.946 427.023 293.946C436.748 293.946 444.66 301.858 444.66 311.583C444.66 321.308 436.748 329.22 427.023 329.22Z" fill="#2B435F"/>
<path d="M179.04 175.299H144.835C140.408 175.299 136.818 178.887 136.818 183.316C136.818 187.745 140.407 191.333 144.835 191.333H179.04C183.467 191.333 187.057 187.745 187.057 183.316C187.057 178.887 183.467 175.299 179.04 175.299Z" fill="#2B435F"/>
<path d="M247.449 175.299H213.244C208.817 175.299 205.227 178.887 205.227 183.316C205.227 187.745 208.816 191.333 213.244 191.333H247.449C251.876 191.333 255.466 187.745 255.466 183.316C255.466 178.887 251.876 175.299 247.449 175.299Z" fill="#2B435F"/>
<path d="M315.858 175.299H281.653C277.226 175.299 273.636 178.887 273.636 183.316C273.636 187.745 277.225 191.333 281.653 191.333H315.858C320.285 191.333 323.875 187.745 323.875 183.316C323.875 178.887 320.285 175.299 315.858 175.299Z" fill="#2B435F"/>
<path d="M384.267 175.299H350.062C345.635 175.299 342.045 178.887 342.045 183.316C342.045 187.745 345.634 191.333 350.062 191.333H384.267C388.694 191.333 392.284 187.745 392.284 183.316C392.284 178.887 388.695 175.299 384.267 175.299Z" fill="#2B435F"/>
<path d="M315.858 431.834H281.653C277.226 431.834 273.636 435.422 273.636 439.851C273.636 444.279 277.225 447.868 281.653 447.868H315.858C320.285 447.868 323.875 444.28 323.875 439.851C323.875 435.422 320.285 431.834 315.858 431.834Z" fill="#2B435F"/>
<path d="M384.267 431.834H350.062C345.635 431.834 342.045 435.422 342.045 439.851C342.045 444.279 345.634 447.868 350.062 447.868H384.267C388.694 447.868 392.284 444.28 392.284 439.851C392.284 435.422 388.695 431.834 384.267 431.834Z" fill="#2B435F"/>
<path d="M209.917 294.696C208.145 293.174 205.797 292.502 203.484 292.852C195.488 294.073 188.219 294.692 181.882 294.692C177.187 294.692 172.841 294.357 168.962 293.698C151.138 290.672 136.244 285.311 123.427 277.312C120.829 275.689 117.535 275.689 114.938 277.312C102.121 285.312 87.227 290.672 69.403 293.698C65.52 294.358 61.173 294.692 56.482 294.692C56.478 294.692 56.473 294.692 56.469 294.692C50.141 294.692 42.877 294.073 34.879 292.852C30.097 292.117 25.652 295.948 25.652 300.777V407.325C25.652 408.79 26.054 410.229 26.814 411.483C36.159 426.89 47.97 440.466 61.914 451.835C77.903 464.869 96.917 474.889 116.902 480.811C118.379 481.249 119.979 481.249 121.458 480.811C141.443 474.889 160.458 464.87 176.446 451.835C190.393 440.465 202.202 426.889 211.546 411.483C212.306 410.229 212.708 408.79 212.708 407.325V300.777C212.71 298.44 211.69 296.218 209.917 294.696ZM196.676 405.05C188.474 418.113 178.27 429.662 166.316 439.406C152.566 450.616 136.313 459.345 119.181 464.741C102.049 459.345 85.796 450.616 72.046 439.406C60.094 429.663 49.889 418.113 41.686 405.05V309.894C51.769 310.95 62.057 311.207 72.085 309.505C90.108 306.445 105.569 301.175 119.18 293.442C132.79 301.175 148.253 306.444 166.274 309.504C176.302 311.21 186.592 310.948 196.674 309.894V405.05H196.676Z" fill="#2B435F"/>
<path d="M172.401 335.323C164.275 327.199 151.052 327.198 142.923 335.323L106.355 371.893L95.439 360.976C87.312 352.85 74.09 352.851 65.961 360.977C57.835 369.105 57.836 382.329 65.962 390.454L91.615 416.106C99.65 424.142 113.057 424.142 121.093 416.107L172.4 364.8C180.526 356.675 180.528 343.452 172.401 335.323ZM161.063 353.463L109.756 404.771C107.902 406.625 104.806 406.624 102.954 404.77L77.3 379.117C75.611 377.429 75.435 374.655 76.9 372.768C78.648 370.517 82.086 370.301 84.102 372.315L100.686 388.9C103.772 391.987 108.937 391.988 112.024 388.901L154.26 346.663C156.092 344.83 159.229 344.829 161.062 346.662C162.895 348.494 162.897 351.63 161.063 353.463Z" fill="#2B435F"/>
</svg>
