<svg width="512" height="512" viewBox="0 0 512 512" fill="none" xmlns="http://www.w3.org/2000/svg">
<g clip-path="url(#clip0)">
<path d="M128.97 257.341C60.062 257.341 4.00098 313.383 4.00098 382.268C4.00098 451.154 60.062 507.196 128.97 507.196C197.878 507.196 253.938 451.154 253.938 382.268C253.938 313.383 197.877 257.341 128.97 257.341V257.341ZM128.97 492.195C68.333 492.195 19.001 442.882 19.001 382.267C19.001 321.652 68.333 272.341 128.97 272.341C189.607 272.341 238.938 321.654 238.938 382.268C238.938 442.882 189.606 492.195 128.97 492.195V492.195Z" fill="#2B435F"/>
<path d="M128.97 287.341C76.604 287.341 34.001 329.925 34.001 382.268C34.001 387.699 34.466 393.148 35.384 398.462C36.089 402.544 39.972 405.28 44.051 404.576C48.133 403.871 50.87 399.991 50.165 395.909C49.392 391.434 49 386.846 49 382.267C49 338.196 84.874 302.34 128.969 302.34C173.064 302.34 208.937 338.195 208.937 382.267C208.937 426.339 173.063 462.195 128.969 462.195C100.977 462.195 75.483 447.905 60.772 423.97C58.604 420.44 53.984 419.337 50.455 421.507C46.926 423.676 45.824 428.295 47.993 431.823C65.454 460.233 95.725 477.194 128.969 477.194C181.335 477.194 223.937 434.61 223.937 382.266C223.938 329.925 181.335 287.341 128.97 287.341V287.341Z" fill="#2B435F"/>
<path d="M109.869 431.572V437.148C109.869 441.291 113.227 444.648 117.369 444.648C121.511 444.648 124.869 441.291 124.869 437.148V431.572H133.51V437.148C133.51 441.291 136.868 444.648 141.01 444.648C145.152 444.648 148.51 441.291 148.51 437.148V431.572H148.918C164.751 431.572 177.632 418.691 177.632 402.835C177.632 392.306 171.932 383.088 163.459 378.09C167.287 373.208 169.578 367.063 169.578 360.385C169.578 347.199 160.642 336.069 148.51 332.713V326.095C148.51 321.952 145.152 318.595 141.01 318.595C136.868 318.595 133.51 321.952 133.51 326.095V331.671H124.869V326.095C124.869 321.952 121.511 318.595 117.369 318.595C113.227 318.595 109.869 321.952 109.869 326.095V331.671H93.2065C89.0645 331.671 85.7065 335.028 85.7065 339.171C85.7065 343.314 89.0645 346.671 93.2065 346.671H98.2115V416.572H93.2065C89.0645 416.572 85.7065 419.929 85.7065 424.072C85.7065 428.215 89.0645 431.572 93.2065 431.572H109.869ZM148.918 389.121C156.48 389.121 162.632 395.273 162.632 402.858C162.632 410.42 156.48 416.572 148.918 416.572H113.212V389.121H148.918ZM154.578 360.407C154.578 367.969 148.426 374.121 140.864 374.121H113.212V346.671H140.864C148.427 346.671 154.578 352.823 154.578 360.407Z" fill="#2B435F"/>
<path d="M383.031 262.551C451.939 262.551 508 206.509 508 137.623C508 68.738 451.939 12.696 383.031 12.696C314.123 12.696 258.063 68.738 258.063 137.623C258.063 206.509 314.123 262.551 383.031 262.551ZM383.031 27.696C443.668 27.696 493 77.008 493 137.623C493 198.238 443.668 247.551 383.031 247.551C322.394 247.551 273.063 198.238 273.063 137.623C273.063 77.008 322.394 27.696 383.031 27.696V27.696Z" fill="#2B435F"/>
<path d="M383.031 232.551C435.397 232.551 478 189.967 478 137.623C478 127.963 476.545 118.427 473.676 109.278C472.437 105.326 468.227 103.124 464.276 104.366C460.323 105.605 458.124 109.814 459.364 113.766C461.777 121.46 463 129.487 463 137.622C463 181.694 427.126 217.55 383.031 217.55C338.936 217.55 303.063 181.695 303.063 137.622C303.063 93.5508 338.937 57.6948 383.031 57.6948C406.947 57.6948 429.43 68.3098 444.719 86.8188C447.356 90.0118 452.083 90.4638 455.278 87.8248C458.471 85.1868 458.922 80.4598 456.284 77.2658C438.137 55.2948 411.437 42.6948 383.032 42.6948C330.666 42.6948 288.064 85.2788 288.064 137.622C288.063 189.967 330.665 232.551 383.031 232.551Z" fill="#2B435F"/>
<path d="M352.152 186.509C353.572 188.349 355.765 189.426 358.089 189.426H404.91C409.052 189.426 412.41 186.069 412.41 181.926C412.41 177.783 409.052 174.426 404.91 174.426H367.804L376.559 140.964L392.911 136.154C396.885 134.985 399.159 130.816 397.99 126.842C396.822 122.868 392.651 120.593 388.678 121.763L380.99 124.024L392.099 81.5658C393.147 77.5588 390.749 73.4608 386.742 72.4118C382.736 71.3678 378.636 73.7627 377.588 77.7687L364.193 128.965L346.634 134.129C342.66 135.298 340.386 139.467 341.555 143.441C342.516 146.709 345.506 148.827 348.747 148.827C349.448 148.827 350.161 148.728 350.867 148.52L359.761 145.904L350.833 180.027C350.244 182.275 350.731 184.67 352.152 186.509Z" fill="#2B435F"/>
<path d="M23.5439 260.263C23.8479 260.263 24.1549 260.245 24.4619 260.207C28.0669 259.765 30.8369 256.803 31.0379 253.177C32.9419 218.721 46.8169 185.667 70.1058 160.104C92.7497 135.251 123.339 118.52 156.511 112.786L160.027 141.292C160.425 144.517 162.058 147.392 164.624 149.386C169.901 153.49 177.55 152.553 181.676 147.297L237.925 75.6277C239.932 73.0687 240.819 69.8848 240.423 66.6598C240.027 63.4338 238.394 60.5568 235.825 58.5588L163.83 2.56403C161.275 0.577037 158.096 -0.298959 154.873 0.0900393C151.654 0.485038 148.779 2.10603 146.779 4.65402C144.77 7.21401 143.883 10.4 144.281 13.628L147.851 42.5759C140.738 43.7779 133.664 45.4499 126.782 47.5548C84.1067 60.6068 49.1308 89.4467 28.2959 128.76C7.56701 167.874 3.33602 212.697 16.383 254.975C17.362 258.149 20.292 260.263 23.5439 260.263V260.263ZM41.5499 135.785C60.5058 100.017 92.3327 73.7777 131.17 61.8998C138.236 59.7378 145.526 58.0788 152.826 56.9698C159.388 55.9828 163.891 50.0588 163.078 43.4879L160.007 18.593L224.345 68.6328L174.078 132.681L171.036 108.015C170.214 101.37 164.124 96.6307 157.555 97.4316C157.486 97.4396 157.322 97.4606 157.246 97.4706C157.203 97.4766 157.16 97.4836 157.117 97.4896C119.457 103.253 84.6167 121.902 59.0158 150.002C43.1539 167.414 31.2629 187.987 24.0129 210.131C23.3109 184.53 29.2219 159.045 41.5499 135.785V135.785Z" fill="#2B435F"/>
<path d="M485.036 251.792C481.431 252.234 478.661 255.196 478.46 258.822C476.555 293.278 462.681 326.332 439.391 351.895C416.748 376.749 386.159 393.48 352.986 399.214L349.47 370.71C349.073 367.484 347.44 364.608 344.873 362.613C339.596 358.508 331.948 359.447 327.821 364.702L271.572 436.371C269.565 438.93 268.678 442.114 269.074 445.339C269.47 448.565 271.103 451.442 273.672 453.44L345.666 509.435C347.823 511.113 350.424 511.999 353.122 511.999C353.62 511.999 354.121 511.969 354.623 511.908C357.843 511.513 360.717 509.892 362.718 507.343C364.726 504.784 365.614 501.597 365.215 498.37L361.645 469.422C368.758 468.22 375.833 466.548 382.716 464.443C425.39 451.392 460.367 422.552 481.202 383.24C501.931 344.125 506.162 299.302 493.115 257.024C492.044 253.554 488.635 251.346 485.036 251.792V251.792ZM467.949 376.216C448.993 411.984 417.166 438.222 378.33 450.1C371.263 452.262 363.973 453.921 356.673 455.03C350.112 456.017 345.609 461.94 346.421 468.512L349.491 493.407L285.153 443.367L335.42 379.32L338.462 403.986C339.284 410.631 345.37 415.37 351.943 414.569C352.012 414.561 352.176 414.54 352.252 414.53C352.295 414.524 352.338 414.517 352.381 414.511C390.041 408.748 424.881 390.099 450.481 361.998C466.343 344.586 478.234 324.012 485.484 301.868C486.188 327.471 480.277 352.952 467.949 376.216V376.216Z" fill="#2B435F"/>
</g>
<defs>
<clipPath id="clip0">
<rect width="512" height="512" fill="white"/>
</clipPath>
</defs>
</svg>
