<svg width="512" height="512" viewBox="0 0 512 512" fill="none" xmlns="http://www.w3.org/2000/svg">
<g clip-path="url(#clip0)">
<path d="M467.132 80.7494C431.562 79.3792 403.349 50.4074 402.904 14.7925L402.718 0H109.281L109.096 14.7925C108.649 50.4074 80.4377 79.3792 44.8677 80.7494L30.4647 81.3046V201.95C30.4647 310.935 86.9731 412.053 177.938 465.842L256 512L334.062 465.842C425.028 412.054 481.536 310.936 481.536 201.95V81.3046L467.132 80.7494ZM451.576 201.95C451.576 300.394 400.704 391.63 318.813 440.053L256 477.194L193.187 440.053C111.296 391.63 60.4242 300.394 60.4242 201.95V109.059C100.161 101.534 131.116 69.8488 137.743 29.9604H374.256C380.884 69.8478 411.839 101.534 451.576 109.059V201.95Z" fill="#2B435F"/>
<path d="M270.98 171.592H241.02V219.921H192.69V249.881H241.02V298.211H270.98V249.881H319.309V219.921H270.98V171.592Z" fill="#2B435F"/>
<path d="M256 103.863C183.745 103.863 124.962 162.646 124.962 234.901C124.962 307.155 183.745 365.939 256 365.939C328.255 365.939 387.038 307.155 387.038 234.901C387.038 162.646 328.255 103.863 256 103.863ZM256 335.979C200.266 335.979 154.922 290.636 154.922 234.902C154.922 179.167 200.266 133.823 256 133.823C311.734 133.823 357.077 179.166 357.077 234.901C357.077 290.635 311.734 335.979 256 335.979Z" fill="#2B435F"/>
</g>
<defs>
<clipPath id="clip0">
<rect width="512" height="512" fill="white"/>
</clipPath>
</defs>
</svg>
