<svg width="512" height="512" viewBox="0 0 512 512" fill="none" xmlns="http://www.w3.org/2000/svg">
<path d="M505.664 243.739L450.881 205.117C440.955 198.12 427.236 205.245 427.236 217.377V240.999H164.196C155.912 240.999 149.195 247.715 149.195 256C149.195 264.285 155.912 271 164.196 271H427.234V294.621C427.234 306.833 441.026 313.825 450.878 306.881L505.661 268.259C514.027 262.365 514.196 249.767 505.664 243.739Z" fill="#2B435F"/>
<path d="M430.471 352.317C423.302 348.171 414.124 350.619 409.975 357.791C374.739 418.707 308.872 459.602 233.603 459.602C121.337 459.602 30.001 368.266 30.001 256C30.001 143.734 121.337 52.398 233.603 52.398C308.922 52.398 374.759 93.331 409.974 154.207C414.122 161.379 423.302 163.826 430.47 159.681C437.641 155.533 440.091 146.356 435.944 139.185C395.418 69.127 319.729 22.397 233.603 22.397C104.49 22.397 0 126.876 0 256C0 385.113 104.479 489.603 233.603 489.603C319.766 489.603 395.436 442.84 435.945 372.813C440.092 365.642 437.642 356.466 430.471 352.317Z" fill="#2B435F"/>
</svg>
