<svg width="480" height="480" viewBox="0 0 480 480" fill="none" xmlns="http://www.w3.org/2000/svg">
<g clip-path="url(#clip0)">
<path d="M364 0H44C21.92 0.026 4.026 17.92 4 40V296C3.998 314.245 16.342 330.178 34.008 334.736L38.008 319.248C27.405 316.514 19.996 306.95 20 296V40C20 26.745 30.745 16 44 16H364C377.255 16 388 26.745 388 40V48H404V40C403.974 17.92 386.08 0.026 364 0Z" fill="#2B435F"/>
<path d="M52 32H36V48H52V32Z" fill="#2B435F"/>
<path d="M84 32H68V48H84V32Z" fill="#2B435F"/>
<path d="M116 32H100V48H116V32Z" fill="#2B435F"/>
<path d="M473.656 442.344L397.776 366.464C401.762 359.349 404.95 351.815 407.28 344H420V328H410.72C413.733 308.635 411.41 288.815 404 270.672V192H388V242.944C383.249 236.875 377.888 231.31 372 226.336V160H356V215.152C350.879 212.184 345.528 209.629 340 207.512V128H324V202.656C318.728 201.518 313.381 200.767 308 200.408V144H292V200.408C286.619 200.767 281.272 201.518 276 202.656V176H260V207.512C254.472 209.629 249.122 212.184 244 215.152V168H228V226.336C222.112 231.31 216.751 236.875 212 242.944V184H196V270.672C188.59 288.815 186.267 308.635 189.28 328H84V344H192.72C210.266 403.182 272.466 436.934 331.647 419.388C343.309 415.93 354.329 410.592 364.272 403.584L438.344 477.656C441.468 480.779 446.532 480.779 449.656 477.656L473.656 453.656C476.779 450.532 476.779 445.468 473.656 442.344ZM300 408C247.004 407.943 204.057 364.996 204 312C204 258.981 246.981 216 300 216C353.019 216 396 258.981 396 312C396 365.019 353.019 408 300 408ZM444 460.688L376.704 393.392C381.064 389.272 385.09 384.813 388.744 380.056L456.688 448L444 460.688Z" fill="#2B435F"/>
<path d="M300 232C255.817 232 220 267.817 220 312C220 356.183 255.817 392 300 392C344.183 392 380 356.183 380 312C379.952 267.837 344.163 232.048 300 232ZM300 376C277.164 375.971 256.074 363.776 244.656 344H355.344C343.926 363.776 322.836 375.971 300 376ZM238.104 328C231.667 303.64 240.262 277.78 260 262.12V312H276V252.712C281.13 250.636 286.509 249.238 292 248.552V312H308V248.552C313.491 249.238 318.87 250.636 324 252.712V312H340V262.12C359.738 277.78 368.333 303.64 361.896 328H238.104Z" fill="#2B435F"/>
<path d="M412 64H92C69.92 64.026 52.026 81.92 52 104V360C52.026 382.08 69.92 399.974 92 400H196V384H92C78.745 384 68 373.255 68 360V104C68 90.745 78.745 80 92 80H412C425.255 80 436 90.745 436 104V360C435.999 365.845 433.866 371.488 430 375.872L442 386.456C448.448 379.152 452.004 369.743 452 360V104C451.974 81.92 434.08 64.026 412 64Z" fill="#2B435F"/>
<path d="M100 96H84V112H100V96Z" fill="#2B435F"/>
<path d="M132 96H116V112H132V96Z" fill="#2B435F"/>
<path d="M164 96H148V112H164V96Z" fill="#2B435F"/>
<path d="M116 264H100V312H116V264Z" fill="#2B435F"/>
<path d="M148 216H132V312H148V216Z" fill="#2B435F"/>
<path d="M180 240H164V312H180V240Z" fill="#2B435F"/>
</g>
<defs>
<clipPath id="clip0">
<rect width="479.998" height="479.998" fill="white"/>
</clipPath>
</defs>
</svg>
