<svg width="512" height="512" viewBox="0 0 512 512" fill="none" xmlns="http://www.w3.org/2000/svg">
<g clip-path="url(#clip0)">
<path d="M458 381.113V163.668C458 160.469 456.469 157.461 453.883 155.578L429.195 137.629L448.633 125.48C451.422 123.738 453.176 120.734 453.324 117.449C453.469 114.164 451.992 111.016 449.371 109.031L431.332 95.3633V89H448C453.523 89 458 84.5234 458 79V59C458 26.4688 431.531 0 399 0H58C57.8984 0 57.8047 0.0117188 57.707 0.015625C57.4766 0.0117188 57.2539 0 57.0234 0C41.2773 0 26.6484 7.77734 15.832 21.9023C5.62109 35.2344 0 52.8125 0 71.3984C0 104.812 21.8711 132 48.7539 132H104.078V290.5C104.078 293.891 105.793 297.047 108.637 298.891L128.242 311.602L107.414 330.211C105.293 332.105 104.078 334.82 104.078 337.668V424.332C104.078 424.871 104.133 425.398 104.215 425.914C104.133 426.434 104.078 426.961 104.078 427.5C104.078 452.941 110.648 474.355 123.074 489.426C135.078 503.98 152.148 512 171.137 512H446C482.395 512 512 482.395 512 446C512 413.707 488.68 386.773 458 381.113V381.113ZM82.0742 112C85.0195 106.449 86.6875 100.043 86.6875 93.1602C86.6875 70.1055 71.7539 54 50.3672 54C44.8437 54 40.3672 58.4766 40.3672 64C40.3672 69.5234 44.8437 74 50.3672 74C60.5859 74 66.6875 81.1641 66.6875 93.1602C66.6875 105.398 57.4453 112 48.7539 112C33.168 112 20 93.4062 20 71.3984C20 43.0586 36.6094 20 57.0234 20C71.1641 20 82.2187 24.3945 89.8711 33.0586C99.3008 43.7266 104.078 61.0352 104.078 84.5V112H82.0742ZM138.504 476.699C129.066 465.254 124.078 448.242 124.078 427.5C124.078 426.961 124.023 426.434 123.941 425.914C124.023 425.398 124.078 424.871 124.078 424.332V342.141L151.328 317.789C153.652 315.715 154.879 312.672 154.637 309.562C154.398 306.457 152.723 303.637 150.109 301.941L124.078 285.066V84.5C124.078 56.1289 117.66 34.4336 105.016 20H399C420.504 20 438 37.4961 438 59V69H421.332C415.813 69 411.332 73.4766 411.332 79V100.332C411.332 103.465 412.801 106.414 415.297 108.305L425.73 116.211L406.035 128.52C403.215 130.281 401.457 133.328 401.34 136.648C401.223 139.969 402.766 143.133 405.453 145.086L438 168.758V380H183.766C183.273 380 182.789 380.047 182.312 380.117C181.352 380.047 180.383 380 179.402 380C158.133 380 141.469 397.062 141.469 418.84C141.469 441.898 156.402 458 177.789 458C183.313 458 187.789 453.523 187.789 448C187.789 442.477 183.313 438 177.789 438C167.57 438 161.469 430.836 161.469 418.84C161.469 406.602 170.711 400 179.402 400C194.988 400 208.156 418.594 208.156 440.602C208.156 468.941 191.551 492 171.137 492C158.043 492 146.758 486.711 138.504 476.699V476.699ZM446 492H210.793C211.309 491.375 211.824 490.75 212.324 490.098C221.91 477.582 227.449 461.32 228.094 444H384C389.523 444 394 439.523 394 434C394 428.477 389.523 424 384 424H226.281C224.211 414.969 220.5 406.785 215.562 400H446C471.363 400 492 420.637 492 446C492 471.363 471.363 492 446 492Z" fill="#2B435F"/>
<path d="M189.359 98C191.988 98 194.559 96.9297 196.43 95.0703C198.289 93.2109 199.359 90.6289 199.359 88C199.359 85.3711 198.289 82.7891 196.43 80.9297C194.559 79.0703 191.988 78 189.359 78C186.719 78 184.148 79.0703 182.289 80.9297C180.43 82.7891 179.359 85.3711 179.359 88C179.359 90.6289 180.43 93.2109 182.289 95.0703C184.148 96.9297 186.719 98 189.359 98Z" fill="#2B435F"/>
<path d="M232 98H376.355C381.879 98 386.355 93.5234 386.355 88C386.355 82.4766 381.879 78 376.355 78H232C226.477 78 222 82.4766 222 88C222 93.5234 226.477 98 232 98V98Z" fill="#2B435F"/>
<path d="M189.355 154H376.355C381.879 154 386.355 149.523 386.355 144C386.355 138.477 381.879 134 376.355 134H189.355C183.836 134 179.355 138.477 179.355 144C179.355 149.523 183.836 154 189.355 154V154Z" fill="#2B435F"/>
<path d="M189.355 210H376.355C381.879 210 386.355 205.523 386.355 200C386.355 194.477 381.879 190 376.355 190H189.355C183.836 190 179.355 194.477 179.355 200C179.355 205.523 183.836 210 189.355 210V210Z" fill="#2B435F"/>
<path d="M189.355 266H376.355C381.879 266 386.355 261.523 386.355 256C386.355 250.477 381.879 246 376.355 246H189.355C183.836 246 179.355 250.477 179.355 256C179.355 261.523 183.836 266 189.355 266V266Z" fill="#2B435F"/>
<path d="M189.355 322H376.355C381.879 322 386.355 317.523 386.355 312C386.355 306.477 381.879 302 376.355 302H189.355C183.836 302 179.355 306.477 179.355 312C179.355 317.523 183.836 322 189.355 322V322Z" fill="#2B435F"/>
<path d="M422.871 424C420.238 424 417.66 425.07 415.801 426.93C413.941 428.789 412.871 431.371 412.871 434C412.871 436.629 413.938 439.211 415.801 441.07C417.66 442.93 420.238 444 422.871 444C425.5 444 428.078 442.93 429.938 441.07C431.801 439.211 432.871 436.629 432.871 434C432.871 431.371 431.801 428.789 429.938 426.93C428.078 425.07 425.5 424 422.871 424Z" fill="#2B435F"/>
</g>
<defs>
<clipPath id="clip0">
<rect width="512" height="512" fill="white"/>
</clipPath>
</defs>
</svg>
