<svg width="512" height="512" viewBox="0 0 512 512" fill="none" xmlns="http://www.w3.org/2000/svg">
<path d="M480 104H32C25.637 104.007 19.5367 106.538 15.0373 111.037C10.538 115.537 8.00715 121.637 8 128V384C8.00715 390.363 10.538 396.463 15.0373 400.963C19.5367 405.462 25.637 407.993 32 408H480C486.363 407.993 492.463 405.462 496.963 400.963C501.462 396.463 503.993 390.363 504 384V128C503.993 121.637 501.462 115.537 496.963 111.037C492.463 106.538 486.363 104.007 480 104V104ZM24 128C24.0024 125.879 24.846 123.846 26.3458 122.346C27.8456 120.846 29.879 120.002 32 120H480C482.121 120.002 484.154 120.846 485.654 122.346C487.154 123.846 487.998 125.879 488 128V152H24V128ZM488 384C487.998 386.121 487.154 388.154 485.654 389.654C484.154 391.154 482.121 391.998 480 392H32C29.879 391.998 27.8456 391.154 26.3458 389.654C24.846 388.154 24.0024 386.121 24 384V168H488V384Z" fill="white"/>
<path d="M40 144C44.4183 144 48 140.418 48 136C48 131.582 44.4183 128 40 128C35.5817 128 32 131.582 32 136C32 140.418 35.5817 144 40 144Z" fill="white"/>
<path d="M64 144C68.4183 144 72 140.418 72 136C72 131.582 68.4183 128 64 128C59.5817 128 56 131.582 56 136C56 140.418 59.5817 144 64 144Z" fill="white"/>
<path d="M88 144C92.4183 144 96 140.418 96 136C96 131.582 92.4183 128 88 128C83.5817 128 80 131.582 80 136C80 140.418 83.5817 144 88 144Z" fill="white"/>
<path d="M176 368H336C342.363 367.993 348.463 365.462 352.962 360.962C357.462 356.463 359.993 350.363 360 344V320H368C370.122 320 372.157 319.157 373.657 317.657C375.157 316.157 376 314.122 376 312V272C376 269.878 375.157 267.843 373.657 266.343C372.157 264.843 370.122 264 368 264H360V216C359.993 209.637 357.462 203.537 352.962 199.038C348.463 194.538 342.363 192.007 336 192H176C169.637 192.007 163.537 194.538 159.038 199.038C154.538 203.537 152.007 209.637 152 216V344C152.007 350.363 154.538 356.463 159.038 360.962C163.537 365.462 169.637 367.993 176 368V368ZM360 304H320V280H360V304ZM312 264C309.878 264 307.843 264.843 306.343 266.343C304.843 267.843 304 269.878 304 272V312C304 314.122 304.843 316.157 306.343 317.657C307.843 319.157 309.878 320 312 320H344V344C343.998 346.121 343.154 348.154 341.654 349.654C340.154 351.154 338.121 351.998 336 352H176C173.879 351.998 171.846 351.154 170.346 349.654C168.846 348.154 168.002 346.121 168 344V238.624C170.569 239.536 173.274 240.001 176 240H336C338.726 240.001 341.431 239.536 344 238.624V264H312ZM176 208H336C338.122 208 340.157 208.843 341.657 210.343C343.157 211.843 344 213.878 344 216C344 218.122 343.157 220.157 341.657 221.657C340.157 223.157 338.122 224 336 224H176C173.878 224 171.843 223.157 170.343 221.657C168.843 220.157 168 218.122 168 216C168 213.878 168.843 211.843 170.343 210.343C171.843 208.843 173.878 208 176 208Z" fill="white"/>
<path d="M216 328H184C181.878 328 179.843 328.843 178.343 330.343C176.843 331.843 176 333.878 176 336C176 338.122 176.843 340.157 178.343 341.657C179.843 343.157 181.878 344 184 344H216C218.122 344 220.157 343.157 221.657 341.657C223.157 340.157 224 338.122 224 336C224 333.878 223.157 331.843 221.657 330.343C220.157 328.843 218.122 328 216 328Z" fill="white"/>
<path d="M248 328H240C237.878 328 235.843 328.843 234.343 330.343C232.843 331.843 232 333.878 232 336C232 338.122 232.843 340.157 234.343 341.657C235.843 343.157 237.878 344 240 344H248C250.122 344 252.157 343.157 253.657 341.657C255.157 340.157 256 338.122 256 336C256 333.878 255.157 331.843 253.657 330.343C252.157 328.843 250.122 328 248 328Z" fill="white"/>
</svg>
