<svg width="569" height="569" viewBox="0 0 569 569" fill="none" xmlns="http://www.w3.org/2000/svg">
<g clip-path="url(#clip0)">
<path d="M1.80017 52.1957L39.7479 118.6C41.0279 120.844 43.1704 122.468 45.6758 123.096L81.0791 131.947L202.505 253.373L215.922 239.96L92.5954 116.637C91.3817 115.42 89.8597 114.557 88.1934 114.14L54.1754 105.605L21.8667 49.0347L49.5666 21.3349L106.16 53.6748L114.699 87.6927C115.113 89.363 115.979 90.8889 117.193 92.1025L240.519 215.429L253.932 202.012L132.506 80.5863L123.655 45.2025C123.027 42.6932 121.404 40.5468 119.16 39.2629L52.751 1.31905C49.0475 -0.78829 44.388 -0.163892 41.3675 2.84492L3.4236 40.7927C0.371857 43.7937 -0.291565 48.4611 1.80017 52.1957V52.1957Z" fill="white"/>
<path d="M396.205 186.964L187.504 395.669L174.087 382.252L382.792 173.551L396.205 186.964Z" fill="white"/>
<path d="M150.977 403.052C149.259 400.196 146.176 398.451 142.844 398.451H85.926C82.5972 398.451 79.5104 400.196 77.7972 403.052L49.3363 450.483C47.5295 453.488 47.5295 457.246 49.3363 460.255L77.7972 507.686C79.5104 510.539 82.5972 512.287 85.926 512.287H142.844C146.176 512.287 149.259 510.539 150.977 507.686L179.433 460.255C181.24 457.246 181.24 453.488 179.433 450.483L150.977 403.052ZM137.478 493.313H91.2959L68.5288 455.369L91.2959 417.421H137.478L160.245 455.369L137.478 493.313Z" fill="white"/>
<path d="M455.897 227.694C518.552 227.905 569.518 177.282 569.729 114.628C569.76 105.09 568.589 95.5914 566.244 86.3464C564.979 81.2615 559.832 78.1668 554.747 79.4312C553.077 79.8488 551.555 80.7112 550.337 81.9249L491.285 140.938L444.432 125.324L428.806 78.4829L487.859 19.4188C491.562 15.7114 491.558 9.7055 487.851 6.00205C486.629 4.78057 485.092 3.91422 483.41 3.50055C422.648 -11.8869 360.922 24.894 345.535 85.6517C343.197 94.8694 342.03 104.345 342.062 113.855C342.085 121.324 342.854 128.77 344.368 136.084L136.612 343.836C129.298 342.326 121.852 341.557 114.387 341.53C51.5139 341.53 0.547485 392.496 0.547485 455.369C0.547485 518.238 51.5139 569.205 114.387 569.205C177.256 569.205 228.222 518.238 228.222 455.369C228.199 447.9 227.426 440.454 225.916 433.141L275.653 383.403L297.406 405.156C301.113 408.859 307.115 408.859 310.822 405.156L315.564 400.411C319.724 396.278 326.448 396.278 330.608 400.411C334.764 404.555 334.772 411.283 330.627 415.439C330.624 415.443 330.616 415.451 330.608 415.458L325.866 420.2C322.163 423.903 322.163 429.909 325.866 433.613L439.031 546.777C468.795 576.814 517.272 577.033 547.309 547.269C577.342 517.505 577.561 469.024 547.797 438.99C547.637 438.827 547.473 438.663 547.309 438.499L434.145 325.338C430.441 321.635 424.435 321.635 420.732 325.338L415.99 330.08C411.826 334.217 405.106 334.217 400.942 330.08C396.79 325.936 396.778 319.208 400.923 315.055C400.931 315.048 400.938 315.044 400.942 315.036L405.688 310.29C409.391 306.587 409.391 300.581 405.688 296.878L383.935 275.125L433.673 225.388C440.986 226.898 448.432 227.671 455.897 227.694V227.694ZM493.17 550.235C486.278 550.223 479.445 548.978 472.994 546.555L547.083 472.462C558.263 502.203 543.219 535.374 513.478 546.555C506.988 548.994 500.108 550.242 493.17 550.235ZM385.699 303.68C375.194 316.211 376.841 334.888 389.372 345.389C400.384 354.619 416.435 354.611 427.436 345.362L533.896 451.916C535.051 453.075 536.132 454.296 537.178 455.537L456.069 536.646C454.824 535.604 453.603 534.523 452.443 533.364L345.902 426.815C356.407 414.284 354.76 395.607 342.23 385.105C331.217 375.872 315.162 375.883 304.161 385.128L288.984 369.952L370.519 288.538L385.699 303.68ZM424.006 208.268L208.804 423.427C206.443 425.784 205.494 429.207 206.298 432.442C219.313 483.553 188.429 535.538 137.314 548.549C86.2031 561.564 34.2181 530.679 21.2033 479.565C8.19245 428.454 39.0767 376.469 90.1915 363.454C105.653 359.52 121.852 359.52 137.314 363.454C140.549 364.246 143.964 363.298 146.329 360.953L361.48 145.789C363.838 143.432 364.786 140.009 363.974 136.778C351.049 86.2644 381.52 34.8375 432.033 21.9086C441.579 19.4695 451.452 18.5329 461.287 19.1456L411.245 69.2067C408.704 71.7433 407.815 75.5014 408.95 78.9083L427.92 135.83C428.869 138.659 431.093 140.884 433.926 141.824L490.848 160.798C494.251 161.934 498.009 161.048 500.549 158.511L550.591 108.47C550.704 110.28 550.763 112.072 550.763 113.855C551.028 165.98 508.99 208.451 456.865 208.72C448.806 208.76 440.775 207.768 432.97 205.77C429.735 204.962 426.312 205.907 423.955 208.264H424.006V208.268Z" fill="white"/>
<path d="M491.074 477.118L477.657 490.534L382.796 395.673L396.209 382.256L491.074 477.118Z" fill="white"/>
</g>
<defs>
<clipPath id="clip0">
<rect width="569" height="569" fill="white"/>
</clipPath>
</defs>
</svg>
