<svg xmlns="http://www.w3.org/2000/svg" width="223.054" height="246" viewBox="0 0 223.054 246">
  <g id="banking-finance" transform="translate(-12581.834 -7733)">
    <path id="Path_3470" data-name="Path 3470" d="M51.882,66.655h.283V87.684h-5.5v5.005h5.5v2.953H57.17V92.689h.3a15.52,15.52,0,0,0,0-31.039h-.3V40.628H62.68V35.623H57.172V32.67H52.167v2.953h-.283a15.516,15.516,0,1,0,0,31.032Zm5.588,0a10.515,10.515,0,0,1,0,21.029h-.3V66.655ZM51.882,40.628h.283V61.65h-.283a10.511,10.511,0,1,1,0-21.022Z" transform="translate(12622.883 7779.961)" fill="#010920" stroke="#010920" stroke-width="2"/>
    <path id="Path_3471" data-name="Path 3471" d="M72.845,123.007A48.586,48.586,0,1,0,24.27,74.42,48.643,48.643,0,0,0,72.845,123.007Zm0-92.164A43.58,43.58,0,1,1,29.275,74.42,43.63,43.63,0,0,1,72.845,30.843Z" transform="translate(12604.708 7769.687)" fill="#010920" stroke="#010920" stroke-width="2"/>
    <path id="Path_3472" data-name="Path 3472" d="M219.383,1.25H13.342A7.517,7.517,0,0,0,5.834,8.758v205.21a7.517,7.517,0,0,0,7.508,7.508h15.6v3.754A20.044,20.044,0,0,0,48.961,245.25h17.18A20.044,20.044,0,0,0,86.161,225.23v-3.754h60.4v3.754a20.044,20.044,0,0,0,20.02,20.021h17.18a20.044,20.044,0,0,0,20.02-20.021v-3.754h15.6a7.517,7.517,0,0,0,7.508-7.508V8.758A7.513,7.513,0,0,0,219.383,1.25Zm-20.436,169.3H186.434a2.5,2.5,0,0,1-2.5-2.5V131.426a2.5,2.5,0,0,1,2.5-2.5h12.513Zm0-76.744H186.434a2.505,2.505,0,0,1-2.5-2.5V54.682a2.505,2.505,0,0,1,2.5-2.5h12.513Zm0-46.628H186.434a7.517,7.517,0,0,0-7.508,7.508V91.3a7.517,7.517,0,0,0,7.508,7.508h12.513v25.108H186.434a7.517,7.517,0,0,0-7.508,7.508v36.62a7.517,7.517,0,0,0,7.508,7.508h12.513V196.87H10.839V25.858H198.947ZM81.159,225.23a15.03,15.03,0,0,1-15.015,15.015H48.963A15.031,15.031,0,0,1,33.948,225.23v-3.754H81.159Zm117.621,0a15.03,15.03,0,0,1-15.015,15.015h-17.18a15.03,15.03,0,0,1-15.015-15.015v-3.754h47.211Zm23.106-11.262a2.5,2.5,0,0,1-2.5,2.5H13.342a2.505,2.505,0,0,1-2.5-2.5V201.873H203.952V20.853H10.839V8.758a2.507,2.507,0,0,1,2.5-2.5H219.383a2.505,2.505,0,0,1,2.5,2.5Z" transform="translate(12577 7732.75)" fill="#010920" stroke="#010920" stroke-width="2"/>
  </g>
</svg>
