<svg xmlns="http://www.w3.org/2000/svg" width="247" height="204" viewBox="0 0 247 204">
  <g id="command-line-tools" transform="translate(5637.5 -4530.5)">
    <path id="icon" d="M215.456,194H21.544A21.573,21.573,0,0,1,0,172.447V21.553A21.573,21.573,0,0,1,21.544,0H215.456A21.573,21.573,0,0,1,237,21.553V172.447A21.573,21.573,0,0,1,215.456,194ZM21.544,21.553V172.447H215.456V21.553Z" transform="translate(-5632.5 4535.5)" fill="none" stroke="#082865" stroke-width="10"/>
    <g id="Group_1226" data-name="Group 1226" transform="translate(4.232 -4.073)">
      <path id="Path_32" data-name="Path 32" d="M24.023,31.179,0,13.128,9.828,0,51.322,31.179,9.828,62.359,0,49.23Z" transform="translate(-5566.232 4604.073)" fill="#082865"/>
      <path id="Path_33" data-name="Path 33" d="M0,16.41V0H40.948V16.41Z" transform="translate(-5512.181 4651.663)" fill="#082865"/>
    </g>
  </g>
</svg>
