<svg xmlns="http://www.w3.org/2000/svg" xmlns:xlink="http://www.w3.org/1999/xlink" width="266.001" height="264" xmlns:v="https://vecta.io/nano"><style><![CDATA[.B{stroke:#082865}]]></style><path d="M68.3 159.02l38.77 31.3m54.23-116.3l38.77 31.3m-85.328-19.865L76.27 133.1m131.117 39.08l-38.217 47.338" fill="none" stroke-linecap="round" stroke-width="4" stroke-dasharray="6" class="B"/><g fill="#082865" stroke-width="2" class="B"><path d="M95.978 88.084h50.74a2 2 0 0 0 1.435-.574l23.324-23.325a2 2 0 0 0 .574-1.435V12c.001-.533-.21-1.045-.588-1.422s-.89-.588-1.422-.587h-50.738a2.13 2.13 0 0 0-1.435.574L94.543 33.9a2 2 0 0 0-.574 1.435v50.74a1.96 1.96 0 0 0 2.009 2.009zm2-4.09v-46.65H118.8v1.507h1v-1.507h24.83v24.832h-1.507v1h1.507V83.99zm69.682-21.818h-.143v.144l-18.8 18.8V63.18h1.077v-1h-1.077V36.2l19.305-19.306v45zM119.658 14.52h.144v-.143l.36-.36h45l-19.305 19.306h-25.98v-1.077h-1.006v1.077h-17.94z"/><use xlink:href="#B"/><use xlink:href="#B" y="13.924"/><use xlink:href="#C"/><use xlink:href="#D"/><use xlink:href="#B" y="9.798"/><use xlink:href="#B" y="3.038"/><use xlink:href="#C" x="8.538" y="-8.572"/><use xlink:href="#B" y="30.284"/><use xlink:href="#B" y="38.464"/><use xlink:href="#B" y="34.338"/><use xlink:href="#B" y="26.158"/><use xlink:href="#C" x="-2.122" y="2.126"/><path d="M113.034 68.473l1.315-1.315.526.526L113.56 69z"/><use xlink:href="#B" y="42.518"/><use xlink:href="#C" x="-4.246" y="4.252"/><path d="M103.675 77.19L105 75.874l.526.526-1.315 1.315z"/><use xlink:href="#C" x="14.375" y="-14.313"/><path d="M139.5 62.352h1.86v.744h-1.86zm-4.126 0h1.86v.744h-1.86zm16.36 0h1.86v.744h-1.86zm-20.413 0h1.86v.744h-1.86zm-4.126 0h1.86v.744h-1.86zm35.456 0h1.86v.744h-1.86zm-39.5 0H125v.744h-1.86zm32.72 0h1.86v.744h-1.86zm9.817 0h1.86v.744h-1.86zm-69.7 195.7h50.74a2 2 0 0 0 1.435-.574l23.324-23.325a2 2 0 0 0 .574-1.435v-50.74c.001-.533-.2-1.045-.588-1.422a2.01 2.01 0 0 0-1.422-.587h-50.738a2.13 2.13 0 0 0-1.435.574l-23.325 23.325a2 2 0 0 0-.574 1.435v50.74a1.96 1.96 0 0 0 2.009 2.009zm2-4.1v-46.65H118.8v1.507h1v-1.507h24.83v24.832h-1.507v1h1.507v20.813zm69.682-21.818h-.143v.144l-18.8 18.8v-17.94h1.077v-1h-1.077v-25.98l19.305-19.306v45zM119.658 184.5h.144v-.143l.36-.36h45l-19.305 19.306h-25.98v-1.077h-1.006v1.077h-17.94z"/><use xlink:href="#B" y="169.978"/><use xlink:href="#B" y="183.902"/><use xlink:href="#C" y="169.98"/><use xlink:href="#D" y="169.978"/><use xlink:href="#B" y="179.776"/><use xlink:href="#B" y="173.006"/><use xlink:href="#C" x="8.538" y="161.406"/><use xlink:href="#B" y="200.262"/><use xlink:href="#B" y="208.442"/><use xlink:href="#B" y="204.316"/><use xlink:href="#B" y="196.136"/><use xlink:href="#C" x="-2.122" y="172.104"/><use xlink:href="#C" x="11.482" y="158.56"/><use xlink:href="#B" y="212.496"/><use xlink:href="#C" x="-4.246" y="174.23"/><use xlink:href="#C" x="2.123" y="167.277"/><use xlink:href="#C" x="14.375" y="155.665"/><path d="M139.5 232.33h1.86v.744h-1.86zm-4.126 0h1.86v.744h-1.86zm16.36 0h1.86v.744h-1.86zm-20.413 0h1.86v.744h-1.86zm-4.126 0h1.86v.744h-1.86zm35.456 0h1.86v.744h-1.86zm-39.5 0H125v.744h-1.86zm32.72 0h1.86v.744h-1.86zm9.817 0h1.86v.744h-1.86zM3.015 173.07h50.74a2 2 0 0 0 1.435-.574l23.324-23.325a2 2 0 0 0 .574-1.435v-50.74c.001-.533-.2-1.045-.588-1.422a2.01 2.01 0 0 0-1.422-.587H26.34a2.13 2.13 0 0 0-1.435.574L1.58 118.886a2 2 0 0 0-.574 1.435v50.74a1.96 1.96 0 0 0 2.009 2.009zm2-4.1v-46.65h20.812v1.507h1v-1.507h24.83v24.832H50.16v1h1.507v20.813zm69.682-21.818h-.143v.144l-18.8 18.8v-17.94h1.077v-1h-1.077v-25.98L75.07 101.88v45zM26.695 99.507h.144v-.143l.36-.36h45L52.893 118.3h-25.98v-1.077h-1.006v1.077H7.967z"/><use xlink:href="#B" x="-92.964" y="84.986"/><use xlink:href="#B" x="-92.964" y="98.91"/><use xlink:href="#C" x="-92.962" y="84.987"/><path d="M26.754 146.13H26v1.328l-.16.16.53.53.16-.16h1.33v-.744h-1.116z"/><use xlink:href="#B" x="-92.964" y="94.784"/><use xlink:href="#B" x="-92.964" y="88.014"/><use xlink:href="#C" x="-84.426" y="76.414"/><use xlink:href="#B" x="-92.964" y="115.27"/><use xlink:href="#B" x="-92.964" y="123.45"/><use xlink:href="#B" x="-92.964" y="119.324"/><use xlink:href="#B" x="-92.964" y="111.144"/><use xlink:href="#C" x="-95.086" y="87.112"/><use xlink:href="#C" x="-81.482" y="73.57"/><use xlink:href="#B" x="-92.964" y="127.504"/><use xlink:href="#C" x="-97.209" y="89.238"/><use xlink:href="#C" x="-90.84" y="82.285"/><use xlink:href="#C" x="-78.588" y="70.673"/><path d="M46.537 147.338h1.86v.744h-1.86zm-4.127 0h1.86v.744H42.4zm16.36 0h1.86v.744h-1.86zm-20.413 0h1.86v.744h-1.86zm-4.127 0h1.86v.744h-1.86zm35.457 0h1.86v.744h-1.86zm-39.5 0h1.86v.744h-1.86zm32.72 0h1.86v.744h-1.86zm9.818 0h1.86v.744h-1.86zm116.214 25.732h50.74a2 2 0 0 0 1.435-.574l23.324-23.325a2 2 0 0 0 .574-1.435v-50.74c.001-.533-.2-1.045-.588-1.422a2.01 2.01 0 0 0-1.422-.587h-50.738a2.13 2.13 0 0 0-1.435.574l-23.325 23.325a2 2 0 0 0-.574 1.435v50.74a1.96 1.96 0 0 0 2.009 2.009zm2-4.1v-46.65h20.812v1.507h1v-1.507h24.83v24.832h-1.507v1h1.507v20.813zm69.682-21.818h-.143v.144l-18.8 18.8v-17.94h1.077v-1h-1.077v-25.98l19.305-19.306v45zm-48.012-47.654h.144v-.143l.36-.36h45l-19.305 19.306h-25.98v-1.077h-1.006v1.077h-17.94z"/><use xlink:href="#B" x="92.95" y="84.986"/><use xlink:href="#B" x="92.95" y="98.91"/><use xlink:href="#C" x="92.95" y="84.987"/><use xlink:href="#D" x="92.95" y="84.985"/><use xlink:href="#B" x="92.95" y="94.784"/><use xlink:href="#B" x="92.95" y="88.014"/><use xlink:href="#C" x="101.488" y="76.414"/><use xlink:href="#B" x="92.95" y="115.27"/><use xlink:href="#B" x="92.95" y="123.45"/><use xlink:href="#B" x="92.95" y="119.324"/><use xlink:href="#B" x="92.95" y="111.144"/><use xlink:href="#C" x="90.828" y="87.112"/><use xlink:href="#C" x="104.432" y="73.57"/><use xlink:href="#B" x="92.95" y="127.504"/><use xlink:href="#C" x="88.704" y="89.238"/><use xlink:href="#C" x="95.073" y="82.285"/><use xlink:href="#C" x="107.325" y="70.673"/><path d="M232.45 147.338h1.86v.744h-1.86zm-4.126 0h1.86v.744h-1.86zm16.36 0h1.86v.744h-1.86zm-20.413 0h1.86v.744h-1.86zm-4.126 0h1.86v.744h-1.86zm35.456 0h1.86v.744h-1.86zm-39.5 0h1.86v.744h-1.86zm32.7 0h1.86v.744h-1.86zm9.817 0h1.86v.744h-1.86z"/></g><defs ><path id="B" d="M118.884 14.462h.744v1.86h-.744z"/><path id="C" d="M101.552 79.89l1.315-1.315.526.526-1.315 1.315z"/><path id="D" d="M119.717 61.145h-.744v1.328l-.16.16.53.53.16-.16h1.33v-.744h-1.116z"/></defs></svg>