<svg xmlns="http://www.w3.org/2000/svg" width="264" height="264" viewBox="0 0 264 264">
  <g id="event-system" transform="translate(-12556 -8029)">
    <g id="Group_1489" data-name="Group 1489" transform="translate(12566 8049)">
      <path id="Path_3500" data-name="Path 3500" d="M184.947,19.684h35.475A23.633,23.633,0,0,1,244,43.262V200.738a23.633,23.633,0,0,1-23.578,23.578H23.578a23.831,23.831,0,0,1-16.656-6.922h0A23.831,23.831,0,0,1,0,200.738V43.262A23.831,23.831,0,0,1,6.922,26.606l.216-.216a23.789,23.789,0,0,1,16.44-6.706H59.053V13.736a13.736,13.736,0,1,1,27.472,0v5.949h70.842V13.736A13.843,13.843,0,0,1,180.945,4a13.733,13.733,0,0,1,4,9.734v5.949ZM122,122.973a18.2,18.2,0,0,1,13.2,5.516,18.635,18.635,0,0,1,5.516,13.2,18.83,18.83,0,0,1-5.516,13.2h0A18.83,18.83,0,0,1,122,160.4a18.636,18.636,0,0,1-13.2-5.516A18.711,18.711,0,0,1,122,122.973Zm7.679,11.032a10.816,10.816,0,1,0,0,15.358h0a10.969,10.969,0,0,0,0-15.358Zm4-25.741c.649.216,1.19.433,1.839.649.541.216,1.19.541,1.73.757l4.218-4.218a3.917,3.917,0,0,1,5.516,0l11.14,11.14a3.857,3.857,0,0,1,0,5.624l-4.218,4.218c.324.541.541,1.082.865,1.73.216.541.433,1.082.649,1.73h5.948a3.878,3.878,0,0,1,3.894,3.894V149.58a3.877,3.877,0,0,1-3.894,3.894H155.42c-.216.541-.433,1.19-.649,1.731h0c-.324.649-.541,1.19-.865,1.73l4.218,4.218a3.822,3.822,0,0,1,0,5.516l-11.14,11.14a3.917,3.917,0,0,1-5.516,0l-4.218-4.218c-.541.324-1.19.541-1.73.865-.649.216-1.19.433-1.839.649v5.949a3.878,3.878,0,0,1-3.894,3.894H114a3.877,3.877,0,0,1-3.894-3.894V175c-.541-.216-1.19-.433-1.731-.649a10.931,10.931,0,0,1-1.622-.757l-4.218,4.218a4.049,4.049,0,0,1-5.624,0l-11.032-11.14a3.734,3.734,0,0,1,0-5.516l4.11-4.218c-.216-.541-.433-1.082-.757-1.73l-.649-1.731H82.631a3.878,3.878,0,0,1-3.894-3.894V133.789a3.878,3.878,0,0,1,3.894-3.894H88.58c.216-.649.433-1.19.649-1.73h0c.324-.649.541-1.19.757-1.73l-4.11-4.218a3.858,3.858,0,0,1,0-5.624l11.032-11.14a4.049,4.049,0,0,1,5.624,0l4.218,4.218a10.907,10.907,0,0,0,1.622-.757c.541-.216,1.19-.433,1.731-.649v-5.949A3.877,3.877,0,0,1,114,98.422h15.791a3.878,3.878,0,0,1,3.894,3.894Zm-1.19,7.9a27.591,27.591,0,0,0-3.569-1.19,3.936,3.936,0,0,1-3.137-3.785v-4.975H118v4.975a4.029,4.029,0,0,1-3.028,3.785,23.683,23.683,0,0,0-3.569,1.3c-1.082.433-2.163.973-3.245,1.514a3.939,3.939,0,0,1-4.975-.433l-3.461-3.461L94.2,119.4l3.353,3.353a3.913,3.913,0,0,1,.649,4.867c-.649,1.19-1.19,2.271-1.731,3.461-.433,1.081-.757,2.271-1.082,3.353a3.953,3.953,0,0,1-3.894,3.245H86.525v7.9H91.5a3.907,3.907,0,0,1,3.785,3.028,26.355,26.355,0,0,0,1.19,3.461v.108a34.425,34.425,0,0,0,1.731,3.461,3.78,3.78,0,0,1-.541,4.759L94.2,163.964l5.516,5.516,3.461-3.461a4.253,4.253,0,0,1,4.867-.649,19.663,19.663,0,0,0,3.353,1.73c1.082.433,2.163.865,3.245,1.19A3.948,3.948,0,0,1,118,172.184v4.867h7.787v-4.867a3.907,3.907,0,0,1,3.028-3.785,36.517,36.517,0,0,0,3.677-1.19,21.214,21.214,0,0,0,3.461-1.839,3.946,3.946,0,0,1,4.759.649l3.569,3.461,5.516-5.516-3.353-3.353a4.088,4.088,0,0,1-.649-4.975,20.19,20.19,0,0,0,1.622-3.461,19.627,19.627,0,0,0,1.19-3.245,4.049,4.049,0,0,1,3.894-3.353h4.867v-7.9H152.5a3.928,3.928,0,0,1-3.785-2.92,30.166,30.166,0,0,0-1.3-3.677,24.9,24.9,0,0,0-1.622-3.461,3.794,3.794,0,0,1,.541-4.759L149.8,119.4l-5.516-5.624-3.353,3.353a3.966,3.966,0,0,1-4.975.757,34.426,34.426,0,0,0-3.461-1.73ZM236.1,66.949H7.9V200.738a15.525,15.525,0,0,0,4.543,11.032l.108.108a15.525,15.525,0,0,0,11.032,4.543H220.422A15.883,15.883,0,0,0,236.1,200.738V66.949ZM7.9,59.053H236.1V43.262A15.693,15.693,0,0,0,220.422,27.58H184.947v5.84a13.733,13.733,0,0,1-4,9.734h0a13.844,13.844,0,0,1-23.578-9.734V27.58H86.525v5.84a13.733,13.733,0,0,1-4,9.734h0a13.736,13.736,0,0,1-23.47-9.734V27.58H23.578a15.366,15.366,0,0,0-10.924,4.434l-.108.108A15.614,15.614,0,0,0,7.9,43.262V59.053ZM175.321,9.626a5.539,5.539,0,0,0-4.11-1.73,5.971,5.971,0,0,0-4.218,1.73,5.719,5.719,0,0,0-1.73,4.11V33.42a5.909,5.909,0,0,0,5.948,5.949,5.539,5.539,0,0,0,4.11-1.73h0a5.971,5.971,0,0,0,1.731-4.218V13.736A5.719,5.719,0,0,0,175.321,9.626Zm-98.314,0A5.971,5.971,0,0,0,72.789,7.9a5.539,5.539,0,0,0-4.11,1.73,5.719,5.719,0,0,0-1.731,4.11V33.42a5.971,5.971,0,0,0,1.731,4.218,5.538,5.538,0,0,0,4.11,1.73,5.971,5.971,0,0,0,4.218-1.73h0a5.971,5.971,0,0,0,1.731-4.218V13.736A5.719,5.719,0,0,0,77.007,9.626Z" transform="translate(0 0)" fill="#091127"/>
    </g>
    <rect id="Rectangle_1392" data-name="Rectangle 1392" width="264" height="264" transform="translate(12556 8029)" fill="none"/>
  </g>
</svg>
