<svg xmlns="http://www.w3.org/2000/svg" width="266.015" height="264" viewBox="0 0 266.015 264">
  <g id="game-currency" transform="translate(-10.4 -10.7)">
    <path id="Compound_Path" data-name="Compound Path" d="M10.4,57.57v80.275a26.87,26.87,0,0,0,26.87,26.87H178.339v40.641c0,15.115,25.527,22.168,49.038,22.168s49.038-7.053,49.038-22.168v-72.55c0-12.763-18.137-19.481-37.954-21.5V57.57a26.87,26.87,0,0,0-26.87-26.87H36.934A26.87,26.87,0,0,0,10.4,57.57Zm181.374,91.023a92.03,92.03,0,0,0,35.6,6.382,92.03,92.03,0,0,0,35.6-6.382V168.41c-1.008,2.687-13.1,8.733-35.6,8.733s-34.6-6.382-35.6-8.733Zm35.6,65.5c-22.5,0-34.6-6.382-35.6-8.733V184.2a92.03,92.03,0,0,0,35.6,6.382,92.03,92.03,0,0,0,35.6-6.382v21.16C261.973,207.708,249.881,214.089,227.377,214.089Zm35.6-81.283c-1.679,2.687-13.771,8.733-35.267,8.733s-33.588-6.046-35.267-8.733,13.771-8.733,35.267-8.733S261.3,130.12,262.98,132.807ZM23.835,57.57A13.435,13.435,0,0,1,37.27,44.135H211.927A13.435,13.435,0,0,1,225.362,57.57v53.4c-22.84.336-46.687,7.389-46.687,21.832V151.28H37.27a13.435,13.435,0,0,1-13.435-13.435Z" transform="translate(0 47.176)" fill="#082865"/>
    <path id="Compound_Path-2" data-name="Compound Path" d="M70.747,113.493A36.947,36.947,0,1,0,33.8,76.547,36.947,36.947,0,0,0,70.747,113.493Zm0-60.122A23.511,23.511,0,1,1,47.235,76.882,23.511,23.511,0,0,1,70.747,53.371Z" transform="translate(55.195 68.169)" fill="#082865"/>
    <path id="Path" d="M16.4,27.418a6.718,6.718,0,0,0,6.718,6.718H197.774a6.718,6.718,0,0,0,0-13.435H23.118A6.718,6.718,0,0,0,16.4,27.418Z" transform="translate(14.153 23.588)" fill="#082865"/>
    <path id="Path-2" data-name="Path" d="M163.369,24.135a6.718,6.718,0,0,0,0-13.435H29.018a6.718,6.718,0,1,0,0,13.435Z" transform="translate(28.07 0)" fill="#082865"/>
  </g>
</svg>
