<svg xmlns="http://www.w3.org/2000/svg" width="264" height="264" viewBox="0 0 264 264">
  <g id="media" transform="translate(-11428 -7627)">
    <g id="Group_1475" data-name="Group 1475" transform="translate(0.546 21.342)">
      <g id="Group_1465" data-name="Group 1465" transform="translate(11450.008 7756.648)">
        <g id="Group_1464" data-name="Group 1464" transform="translate(0 0)">
          <path id="Path_3455" data-name="Path 3455" d="M26.8,84.559A14.117,14.117,0,1,1,40.92,70.441,14.134,14.134,0,0,1,26.8,84.559Zm0-21.428a7.311,7.311,0,1,0,7.313,7.31A7.321,7.321,0,0,0,26.8,63.131Z" transform="translate(-12.684 -56.326)" fill="#010920"/>
        </g>
      </g>
      <g id="Group_1468" data-name="Group 1468" transform="translate(11427.454 7637)">
        <g id="Group_1466" data-name="Group 1466" transform="translate(0 0)">
          <path id="Path_3456" data-name="Path 3456" d="M265.6,149.919H251.323a3.411,3.411,0,0,0-2.4.986l-20.346,20.348v-26.64a3.4,3.4,0,0,0-3.4-3.4H207.294v-2.57a29.632,29.632,0,0,0,0-57.517V18.941a3.39,3.39,0,0,0-3.4-3.4H49.557a3.4,3.4,0,0,0-3.4,3.4v96.987H8.4a3.413,3.413,0,0,0-3.4,3.4v94.981a3.413,3.413,0,0,0,3.4,3.4H225.176a3.4,3.4,0,0,0,3.4-3.4v-26.64l20.346,20.346a3.394,3.394,0,0,0,2.4.986H265.6a3.39,3.39,0,0,0,3.4-3.4V153.322A3.39,3.39,0,0,0,265.6,149.919ZM203.639,87.313a.024.024,0,0,0,.035,0,22.83,22.83,0,0,1-.117,45.132,22.363,22.363,0,0,1-3.385.255,22.821,22.821,0,1,1,0-45.642,22.211,22.211,0,0,1,3.045.205ZM175.72,131.665H160.17a29.5,29.5,0,0,0,9.577-21.792,29.124,29.124,0,0,0-1.191-8.3h3.165a29.127,29.127,0,0,0-1.191,8.3,29.659,29.659,0,0,0,29.635,29.635h.323v1.7H125.261v-2.74h7.078a29.69,29.69,0,0,0,7.791,1.038,29.155,29.155,0,0,0,7.759-1.038H175.72a3.4,3.4,0,0,0,0-6.805ZM52.96,22.343H200.492v57.91h-.323a29.669,29.669,0,0,0-25.485,14.511H165.6a29.624,29.624,0,0,0-55.1,15.107,28.707,28.707,0,0,0,.631,6.057H52.96Zm65.5,188.566H11.805v-6.483l23.376-23.376L47.31,193.18a3.41,3.41,0,0,0,4.814,0l37.224-37.224,29.107,29.107Zm0-35.47L91.744,148.746a3.378,3.378,0,0,0-4.814,0L49.707,185.952,37.6,173.841a3.41,3.41,0,0,0-4.814,0L11.805,194.814v-72.08H118.458v52.706Zm3.4-59.511h-3.743a22.823,22.823,0,1,1,28.6,15.8,3.211,3.211,0,0,0-.34.085,22.269,22.269,0,0,1-6.245.886,22.524,22.524,0,0,1-6.26-.886,1.928,1.928,0,0,0-.34-.085,22.532,22.532,0,0,1-8.269-4.544v-7.858A3.413,3.413,0,0,0,121.858,115.928Zm99.915,94.981H125.261v-62.9h96.512Zm40.421-8.709h-9.46l-22.745-22.745,22.745-22.727h9.46Z" transform="translate(-5 -15.538)" fill="#010920"/>
        </g>
        <g id="Group_1467" data-name="Group 1467" transform="translate(130.366 146.566)">
          <path id="Path_3457" data-name="Path 3457" d="M114.164,90.159H52.846a3.4,3.4,0,0,1-3.4-3.4V68.907a3.4,3.4,0,0,1,3.4-3.4h61.318a3.4,3.4,0,0,1,3.4,3.4V86.756A3.4,3.4,0,0,1,114.164,90.159ZM56.248,83.353h54.513V72.309H56.248Z" transform="translate(-49.443 -65.504)" fill="#010920"/>
        </g>
      </g>
      <g id="Group_1474" data-name="Group 1474" transform="translate(11496.794 7670.827)">
        <g id="Group_1471" data-name="Group 1471" transform="translate(0 0)">
          <g id="Group_1469" data-name="Group 1469">
            <path id="Path_3458" data-name="Path 3458" d="M40.554,50.9h0a3.392,3.392,0,0,1-2.405-1l-8.512-8.513a3.4,3.4,0,0,1,4.811-4.811l6.1,6.1L55.17,28.065a3.4,3.4,0,1,1,4.811,4.811L42.956,49.9A3.382,3.382,0,0,1,40.554,50.9Z" transform="translate(-28.639 -27.068)" fill="#010920"/>
          </g>
          <g id="Group_1470" data-name="Group 1470" transform="translate(46.657 8.512)">
            <path id="Path_3459" data-name="Path 3459" d="M99.263,36.775H47.948a3.4,3.4,0,1,1,0-6.805H99.263a3.4,3.4,0,0,1,0,6.805Z" transform="translate(-44.545 -29.97)" fill="#010920"/>
          </g>
        </g>
        <g id="Group_1473" data-name="Group 1473" transform="translate(0 36.898)">
          <g id="Group_1472" data-name="Group 1472">
            <path id="Path_3460" data-name="Path 3460" d="M40.554,63.477h0a3.392,3.392,0,0,1-2.405-1l-8.512-8.512a3.4,3.4,0,0,1,4.811-4.811l6.1,6.1L55.17,40.644a3.4,3.4,0,0,1,4.811,4.811L42.956,62.48A3.38,3.38,0,0,1,40.554,63.477Z" transform="translate(-28.639 -39.647)" fill="#010920"/>
          </g>
        </g>
      </g>
    </g>
    <rect id="Rectangle_1380" data-name="Rectangle 1380" width="264" height="264" transform="translate(11428 7627)" fill="none"/>
  </g>
</svg>
