<svg xmlns="http://www.w3.org/2000/svg" width="295.289" height="286" xmlns:v="https://vecta.io/nano"><style><![CDATA[.B{stroke:#010920}.C{stroke-width:6}.D{font-weight:700}.E{stroke-linejoin:round}.F{stroke-linecap:round}.G{font-family:Ebrima-Bold, Ebrima}.H{font-family:YuGothicUI-Bold, Yu Gothic UI}]]></style><defs><filter id="A" x="38.289" y="0" width="257" height="286" filterUnits="userSpaceOnUse"><feOffset dx="7" dy="12"/><feGaussianBlur stdDeviation="14" result="A"/><feFlood flood-opacity=".05"/><feComposite operator="in" in2="A"/><feComposite in="SourceGraphic"/></filter></defs><g transform="translate(-10927 -7151)"><g class="B"><g fill="#fff"><path stroke="none" d="M10945 7211h173v208h-173z"/><path fill="none" d="M10948 7214h167v202h-167z" class="C"/></g><g fill="none"><path d="M10976 7265.528h25v19h-25zm0 48h25v19h-25zm0 46h25v21h-25z" stroke-width="4" class="E"/><g class="F"><path d="M11024.957 7265.57h38.68m-38.68 13.73h38.68m-38.68 32.334h38.68m-38.68 15.19h38.68m-38.68 30.873h38.68m-38.68 13.722h38.68" class="C"/><path d="M10980.15 7272.464l6.893 7.66 13.4-22.2m-20.293 61.106l6.893 7.66 13.4-22.2m-20.293 63.064l6.893 7.66 13.4-22.2" stroke-width="5"/></g></g></g><g transform="translate(10927 7151)" filter="url(#A)" class="B"><g transform="translate(73.29 30)" fill="#fff"><path stroke="none" d="M0 0h173v202H0z"/><path fill="none" d="M3 3h167v196H3z" class="C"/></g></g><text fill="#333" font-size="22" class="D G"><tspan x="10970.284" y="7257.542">A - </tspan></text><text fill="#333" font-size="20" class="D G"><tspan class="H" x="11041.247" y="7195"><tspan x="-10" y="28">氮</tspan></tspan></text><text fill="#333" font-size="21" class="D H"><tspan x="11061.896" y="7224">雜</tspan></text><path fill="#333" d="M11053.84 7214h6v3h-6z"/><g fill="none"><g stroke-width="4"><path d="M11168.98 7385.386v28.14h-49.786m-169.476-199.203v-28.088h49.786" stroke="#00081f" stroke-dasharray="8"/><path d="M11054.2 7243.542h22.803v17.258h-22.803zm0 44.366h22.803v17.258h-22.803zm0 43.44h22.803v18.182h-22.803z" class="B E"/></g><g class="F B"><path d="M11099.38 7243.647h35.748m-35.748 12.677h35.748m-35.748 29.893h35.748m-35.748 14.047h35.748m-35.748 28.53h35.748m-35.748 12.687h35.748" class="C"/><path d="M11057.964 7250.015l6.37 7.08 12.4-20.53m-18.76 56.48l6.37 7.08 12.4-20.53m-18.76 58.292l6.37 7.08 12.4-20.53" stroke-width="5"/></g></g></g></svg>