<svg xmlns="http://www.w3.org/2000/svg" width="241.591" height="265.133" viewBox="0 0 241.591 265.133">
  <g id="ownership" transform="translate(-12.5 -8.767)">
    <path id="Compound_Path" data-name="Compound Path" d="M253.591,102.71,133.3,9.4,13,102.71V273.4H253.591Zm-13,157.685H26V108.888L133.3,25.981l107.291,82.906Z" fill="#082865" stroke="#082865" stroke-linecap="round" stroke-linejoin="round" stroke-width="1"/>
    <path id="Compound_Path-2" data-name="Compound Path" d="M79.292,55.8A45.192,45.192,0,0,0,34.1,100.668v35.437H137.489V100.667A45.192,45.192,0,0,0,92.3,55.8Zm45.192,44.867V123.1H47.1V100.667A32.187,32.187,0,0,1,79.292,68.8h13a32.188,32.188,0,0,1,32.187,31.864Z" transform="translate(47.501 104.457)" fill="#082865" stroke="#082865" stroke-linecap="round" stroke-linejoin="round" stroke-width="1"/>
    <path id="Compound_Path-3" data-name="Compound Path" d="M40,67.412A32.512,32.512,0,1,0,72.512,34.9,32.512,32.512,0,0,0,40,67.412Zm52.02,0A19.507,19.507,0,1,1,72.512,47.9,19.507,19.507,0,0,1,92.02,67.412Z" transform="translate(60.783 57.406)" fill="#082865" stroke="#082865" stroke-linecap="round" stroke-linejoin="round" stroke-width="1"/>
  </g>
</svg>
