<svg xmlns="http://www.w3.org/2000/svg" width="264" height="264" viewBox="0 0 264 264">
  <g id="private-transactions" transform="translate(-10630 -7221)">
    <g id="Group_1390" data-name="Group 1390" transform="translate(11.986 11.322)">
      <path id="Path_3259" data-name="Path 3259" d="M1288.634,366.576H1050.4v-35.64a13.274,13.274,0,0,1,13.235-13.235h211.858a13.274,13.274,0,0,1,13.235,13.235v35.64Z" transform="translate(9582.838 7075.478)" fill="#fff"/>
      <path id="Path_3260" data-name="Path 3260" d="M1288.47,369.248H1050.236a2.785,2.785,0,0,1-2.836-2.836v-35.64a16.058,16.058,0,0,1,16.071-16.071h211.858a16.058,16.058,0,0,1,16.071,16.071v35.64A2.99,2.99,0,0,1,1288.47,369.248Zm-235.4-5.672h232.561v-32.8a10.429,10.429,0,0,0-10.4-10.4H1063.377a10.43,10.43,0,0,0-10.4,10.4v32.8Z" transform="translate(9583 7075.642)" fill="#010920"/>
      <g id="Group_1289" data-name="Group 1289" transform="translate(10647.986 7404.335)">
        <path id="Path_3261" data-name="Path 3261" d="M1069,341.481a12.023,12.023,0,0,0,12.006,12.006h149.653a12.023,12.023,0,0,0,12.006-12.006V332.5H1069Z" transform="translate(-1066.164 -329.664)" fill="#fff"/>
        <path id="Path_3262" data-name="Path 3262" d="M1230.495,356.16H1080.843A14.868,14.868,0,0,1,1066,341.317v-8.981a2.785,2.785,0,0,1,2.836-2.836H1242.5a2.786,2.786,0,0,1,2.836,2.836v8.981A14.929,14.929,0,0,1,1230.495,356.16Zm-158.823-20.987v6.145a9.179,9.179,0,0,0,9.17,9.17h149.652a9.178,9.178,0,0,0,9.17-9.17v-6.145Z" transform="translate(-1066 -329.5)"/>
      </g>
      <g id="Group_1290" data-name="Group 1290" transform="translate(10647.986 7306.486)">
        <path id="Path_3263" data-name="Path 3263" d="M1069,241.006v61.355h173.665V241.006A12.023,12.023,0,0,0,1230.659,229H1081.006A12.023,12.023,0,0,0,1069,241.006Z" transform="translate(-1066.164 -226.164)" fill="#fff"/>
        <path id="Path_3264" data-name="Path 3264" d="M1242.5,305.033H1068.836A2.785,2.785,0,0,1,1066,302.2V240.842A14.868,14.868,0,0,1,1080.843,226h149.652a14.868,14.868,0,0,1,14.842,14.842V302.2A2.908,2.908,0,0,1,1242.5,305.033Zm-170.829-5.672h167.992V240.842a9.179,9.179,0,0,0-9.17-9.17H1080.843a9.179,9.179,0,0,0-9.17,9.17Z" transform="translate(-1066 -226)" fill="#010920"/>
      </g>
      <g id="Group_1291" data-name="Group 1291" transform="translate(10647.986 7379.752)">
        <rect id="Rectangle_1297" data-name="Rectangle 1297" width="173.665" height="24.58" transform="translate(2.836 2.931)" fill="#010920"/>
        <path id="Path_3265" data-name="Path 3265" d="M1242.5,333.752H1068.836a2.785,2.785,0,0,1-2.836-2.836v-24.58a2.786,2.786,0,0,1,2.836-2.836H1242.5a2.786,2.786,0,0,1,2.836,2.836v24.58A2.844,2.844,0,0,1,1242.5,333.752Zm-170.829-5.672h167.992V309.172H1071.672Z" transform="translate(-1066 -303.5)" fill="#010920"/>
      </g>
      <path id="Path_3266" data-name="Path 3266" d="M1161.116,153.018,1108.459,181.1a27.351,27.351,0,0,0-14.559,24.2v19.191h35.924l-12.479,12.479a20.028,20.028,0,0,0,0,28.361h0a20.028,20.028,0,0,0,28.361,0l27.888-27.888h27.227a31.8,31.8,0,0,0,31.292-26.187H1291.1V146.4H1187.87A56.625,56.625,0,0,0,1161.116,153.018Z" transform="translate(9580.457 7084.837)" fill="#fff"/>
      <path id="Path_3267" data-name="Path 3267" d="M1131.362,273.861a22.428,22.428,0,0,1-16.166-6.712,23.052,23.052,0,0,1,0-32.426l7.563-7.563h-29.023a2.785,2.785,0,0,1-2.836-2.836v-19.1a30.219,30.219,0,0,1,16.071-26.754l52.657-28.078a60.079,60.079,0,0,1,27.889-7h103.329a2.785,2.785,0,0,1,2.836,2.836v64.852a2.785,2.785,0,0,1-2.836,2.836h-56.628a34.525,34.525,0,0,1-33.561,26.187h-26l-27.038,27.038A23.133,23.133,0,0,1,1131.362,273.861Zm-34.884-52.374h33.088a2.848,2.848,0,0,1,2.647,1.8,2.791,2.791,0,0,1-.662,3.12l-12.479,12.479a17.247,17.247,0,0,0,24.391,24.391l27.888-27.888a2.721,2.721,0,0,1,1.985-.851h27.227a28.822,28.822,0,0,0,28.456-23.823,2.933,2.933,0,0,1,2.836-2.363h56.155v-59.18H1187.517a53.454,53.454,0,0,0-25.241,6.334l-52.657,28.078a24.519,24.519,0,0,0-13.046,21.744v16.166Z" transform="translate(9580.624 7085)" fill="#010920"/>
      <g id="Group_1294" data-name="Group 1294" transform="translate(10696.387 7319.157)">
        <path id="Path_3268" data-name="Path 3268" d="M1129.563,242.4l17.584,17.584-5.672,5.672a12.5,12.5,0,0,1-17.584,0h0a12.5,12.5,0,0,1,0-17.584Z" transform="translate(-1117.367 -239.564)" fill="#fff"/>
        <path id="Path_3269" data-name="Path 3269" d="M1132.421,271.921a15.242,15.242,0,0,1-10.778-26l5.673-5.672a2.741,2.741,0,0,1,3.97,0l17.584,17.584a2.721,2.721,0,0,1,.851,1.985,2.575,2.575,0,0,1-.851,1.985l-5.672,5.672A14.7,14.7,0,0,1,1132.421,271.921Zm-3.026-25.714-3.687,3.687a9.626,9.626,0,1,0,13.613,13.613l3.687-3.687Z" transform="translate(-1117.2 -239.4)" fill="#010920"/>
      </g>
      <path id="Path_3270" data-name="Path 3270" d="M1128.2,294.424v2.363a1.352,1.352,0,0,0,1.324,1.323h104.369a1.352,1.352,0,0,0,1.324-1.323v-2.363a1.352,1.352,0,0,0-1.324-1.324H1129.524A1.293,1.293,0,0,0,1128.2,294.424Z" transform="translate(9578.587 7076.823)" fill="#010920"/>
      <path id="Path_3271" data-name="Path 3271" d="M1152.7,283.024v2.363a1.352,1.352,0,0,0,1.323,1.323h81.208a1.352,1.352,0,0,0,1.323-1.323v-2.363a1.352,1.352,0,0,0-1.323-1.324h-81.208A1.293,1.293,0,0,0,1152.7,283.024Z" transform="translate(9577.249 7077.443)" fill="#010920"/>
      <path id="Path_3272" data-name="Path 3272" d="M1179.3,272.124v2.363a1.352,1.352,0,0,0,1.324,1.324h56.061a1.352,1.352,0,0,0,1.323-1.324v-2.363a1.352,1.352,0,0,0-1.323-1.324h-56.061A1.292,1.292,0,0,0,1179.3,272.124Z" transform="translate(9575.793 7078.041)" fill="#010920"/>
      <path id="Path_3273" data-name="Path 3273" d="M1131.636,230.061a2.836,2.836,0,0,1-1.985-4.821l27.888-27.888a2.808,2.808,0,0,1,3.971,3.971l-27.889,27.889A2.721,2.721,0,0,1,1131.636,230.061Z" transform="translate(9578.554 7082.098)" fill="#010920"/>
      <path id="Path_3274" data-name="Path 3274" d="M1288.634,381.376H1050.4v-35.64a13.274,13.274,0,0,1,13.235-13.235h211.858a13.274,13.274,0,0,1,13.235,13.235v35.64Z" transform="translate(9582.838 7074.669)" fill="#fff"/>
      <path id="Path_3275" data-name="Path 3275" d="M1288.47,384.048H1050.236a2.785,2.785,0,0,1-2.836-2.836v-35.64a16.058,16.058,0,0,1,16.071-16.071h211.858a16.058,16.058,0,0,1,16.071,16.071v35.64A3.063,3.063,0,0,1,1288.47,384.048Zm-235.4-5.672h232.561v-32.8a10.429,10.429,0,0,0-10.4-10.4H1063.377a10.43,10.43,0,0,0-10.4,10.4v32.8Z" transform="translate(9583 7074.835)" fill="#010920"/>
    </g>
    <rect id="Rectangle_1306" data-name="Rectangle 1306" width="264" height="264" transform="translate(10630 7221)" fill="none"/>
  </g>
</svg>
