<svg xmlns="http://www.w3.org/2000/svg" width="264" height="264" viewBox="0 0 264 264">
  <g id="private-network" transform="translate(-11825 -8029)">
    <g id="Group_1486" data-name="Group 1486" transform="translate(1 32)">
      <path id="Path_3496" data-name="Path 3496" d="M47.763,78.762a8.928,8.928,0,0,0,8.918-8.918V54.166A17.927,17.927,0,0,0,65.86,38.481a18.1,18.1,0,1,0-36.2,0,17.927,17.927,0,0,0,9.182,15.685V69.844A8.928,8.928,0,0,0,47.763,78.762ZM33.418,38.481A14.344,14.344,0,1,1,53.983,51.344a1.878,1.878,0,0,0-1.056,1.689V69.844a5.163,5.163,0,0,1-10.326,0V53.033a1.878,1.878,0,0,0-1.056-1.689A14.232,14.232,0,0,1,33.418,38.481Z" transform="translate(11905.836 8055.727)" fill="#091127" stroke="#091127" stroke-width="4"/>
      <path id="Path_3497" data-name="Path 3497" d="M13.765,208.172a11.258,11.258,0,0,0,11.075-9.387H69.646a1.876,1.876,0,0,0,1.878-1.877V150.238A93.607,93.607,0,0,0,90.5,166.167c.859.557,1.715,1.088,2.571,1.613v58.855H57.132a11.265,11.265,0,1,0,0,3.755h37.82a1.876,1.876,0,0,0,1.877-1.878v-58.5a145.816,145.816,0,0,0,25.83,11.543V224.17a11.265,11.265,0,1,0,3.755,0V181.551a145.862,145.862,0,0,0,25.826-11.541v58.5a1.876,1.876,0,0,0,1.878,1.877h37.82a11.265,11.265,0,1,0,0-3.755H156V167.782c.856-.526,1.714-1.058,2.574-1.615a93.615,93.615,0,0,0,18.977-15.927v46.667a1.876,1.876,0,0,0,1.877,1.877h44.809a11.265,11.265,0,1,0,0-3.755H181.3V145.709c7.339-9.738,11.137-20.375,11.137-31.559V23.717a1.876,1.876,0,0,0-.928-1.619C147.067-4.022,102-4.018,57.56,22.1a1.877,1.877,0,0,0,1.9,3.238C102.337.14,145.805-.039,188.683,24.8V114.15c0,42.351-57.934,62.069-64.146,64.06-6.215-1.987-64.15-21.675-64.15-64.06V38.737a1.877,1.877,0,0,0-3.755,0V114.15c0,11.184,3.8,21.821,11.137,31.559V195.03H24.84a11.25,11.25,0,1,0-11.075,13.143Zm32.291,27.85a7.51,7.51,0,1,1,7.51-7.51A7.52,7.52,0,0,1,46.056,236.022ZM203.014,221a7.51,7.51,0,1,1-7.51,7.51A7.52,7.52,0,0,1,203.014,221Zm32.3-31.605a7.51,7.51,0,1,1-7.51,7.51A7.52,7.52,0,0,1,235.309,189.4ZM132.047,235.245a7.51,7.51,0,1,1-7.51-7.51A7.52,7.52,0,0,1,132.047,235.245ZM13.765,189.4a7.51,7.51,0,1,1-7.51,7.51A7.52,7.52,0,0,1,13.765,189.4Z" transform="translate(11831 8006.49)" fill="#091127" stroke="#091127" stroke-width="4"/>
    </g>
    <rect id="Rectangle_1390" data-name="Rectangle 1390" width="264" height="264" transform="translate(11825 8029)" fill="none"/>
  </g>
</svg>
