<svg xmlns="http://www.w3.org/2000/svg" width="264" height="264" viewBox="0 0 264 264">
  <g id="sc-ethereum" transform="translate(-12512 -8009)">
    <g id="Group_1482" data-name="Group 1482" transform="translate(1688 -107.822)">
      <g id="Path_3475" data-name="Path 3475" transform="translate(10850.637 8175.973)" fill="none">
        <path d="M0,0H159.894V192.242H0Z" stroke="none"/>
        <path d="M 5.999984741210938 6.000015258789063 L 5.999984741210938 186.2423095703125 L 153.8939971923828 186.2423095703125 L 153.8939971923828 6.000015258789063 L 5.999984741210938 6.000015258789063 M -1.52587890625e-05 1.52587890625e-05 L 159.8939971923828 1.52587890625e-05 L 159.8939971923828 192.2422943115234 L -1.52587890625e-05 192.2422943115234 L -1.52587890625e-05 1.52587890625e-05 Z" stroke="none" fill="#010920"/>
      </g>
      <g id="Group_1391" data-name="Group 1391" transform="translate(10878.368 8229.493)">
        <g id="Rectangle_1313" data-name="Rectangle 1313" transform="translate(0 5.191)" fill="none" stroke="#010920" stroke-linejoin="round" stroke-width="4">
          <rect width="26.803" height="21.258" stroke="none"/>
          <rect x="2" y="2" width="22.803" height="17.258" fill="none"/>
        </g>
        <g id="Rectangle_1314" data-name="Rectangle 1314" transform="translate(0 49.555)" fill="none" stroke="#010920" stroke-linejoin="round" stroke-width="4">
          <rect width="26.803" height="21.258" stroke="none"/>
          <rect x="2" y="2" width="22.803" height="17.258" fill="none"/>
        </g>
        <g id="Rectangle_1315" data-name="Rectangle 1315" transform="translate(0 92.07)" fill="none" stroke="#010920" stroke-linejoin="round" stroke-width="4">
          <rect width="26.803" height="23.106" stroke="none"/>
          <rect x="2" y="2" width="22.803" height="19.106" fill="none"/>
        </g>
        <path id="Path_3376" data-name="Path 3376" d="M7088.7,3078.2h35.75" transform="translate(-7041.601 -3071.123)" fill="none" stroke="#010920" stroke-linecap="round" stroke-width="6"/>
        <path id="Path_3377" data-name="Path 3377" d="M7088.7,3078.2h35.75" transform="translate(-7041.601 -3058.44)" fill="none" stroke="#010920" stroke-linecap="round" stroke-width="6"/>
        <path id="Path_3378" data-name="Path 3378" d="M7088.7,3078.2h35.75" transform="translate(-7041.601 -3028.547)" fill="none" stroke="#010920" stroke-linecap="round" stroke-width="6"/>
        <path id="Path_3379" data-name="Path 3379" d="M7088.7,3078.2h35.75" transform="translate(-7041.601 -3014.505)" fill="none" stroke="#010920" stroke-linecap="round" stroke-width="6"/>
        <path id="Path_3380" data-name="Path 3380" d="M7088.7,3078.2h35.75" transform="translate(-7041.601 -2985.974)" fill="none" stroke="#010920" stroke-linecap="round" stroke-width="6"/>
        <path id="Path_3381" data-name="Path 3381" d="M7088.7,3078.2h35.75" transform="translate(-7041.601 -2973.291)" fill="none" stroke="#010920" stroke-linecap="round" stroke-width="6"/>
        <path id="Path_3382" data-name="Path 3382" d="M6997.264,3076.022l6.372,7.078,12.389-20.528" transform="translate(-6991.575 -3062.572)" fill="none" stroke="#010920" stroke-linecap="round" stroke-width="5"/>
        <path id="Path_3383" data-name="Path 3383" d="M6997.264,3076.022l6.372,7.078,12.389-20.528" transform="translate(-6991.575 -3019.546)" fill="none" stroke="#010920" stroke-linecap="round" stroke-width="5"/>
        <path id="Path_3384" data-name="Path 3384" d="M6997.264,3076.022l6.372,7.078,12.389-20.528" transform="translate(-6991.575 -2974.706)" fill="none" stroke="#010920" stroke-linecap="round" stroke-width="5"/>
      </g>
      <text id="_1_0_1_0_1_0" data-name="1 0 1  0 1 0" transform="translate(10875.592 8191.263)" fill="#333" font-size="22" font-family="Ebrima-Bold, Ebrima" font-weight="700"><tspan x="8.645" y="22" xml:space="preserve">1 0 1  0 1 </tspan></text>
      <path id="Path_3365" data-name="Path 3365" d="M11183.056,7422.075v187.181h-46.015" transform="translate(-121.409 753.898)" fill="none" stroke="#00081f" stroke-width="4" stroke-dasharray="8"/>
      <path id="Path_3366" data-name="Path 3366" d="M11137.041,7448.033v-25.96H11277.4" transform="translate(-282.044 723.616)" fill="none" stroke="#00081f" stroke-width="4" stroke-dasharray="8"/>
      <rect id="Rectangle_1316" data-name="Rectangle 1316" width="244" height="244" transform="translate(10834 8133.46)" fill="none"/>
      <g id="noun_ethereum_1362105" transform="translate(11022.729 8119.822)">
        <g id="Group_1481" data-name="Group 1481" transform="translate(0)">
          <g id="Group_1480" data-name="Group 1480">
            <path id="Path_3473" data-name="Path 3473" d="M18.829,26.382a.794.794,0,0,0,.067.3.6.6,0,0,0,.043.093.789.789,0,0,0,.265.28l.006,0s0,0,0,0l15.539,9.1c.012.007.026,0,.039.011a.809.809,0,0,0,.371.1.793.793,0,0,0,.372-.1.42.42,0,0,0,.044-.011l15.263-9.106a.8.8,0,0,0,.271-.284.614.614,0,0,0,.043-.092.808.808,0,0,0,.069-.3c0-.022.015-.041.013-.062s-.008-.017-.01-.027a.784.784,0,0,0-.1-.346L35.861.4c-.006-.01-.016-.015-.022-.025a.646.646,0,0,0-.063-.078A.927.927,0,0,0,35.686.2a.786.786,0,0,0-.074-.06C35.6.135,35.6.124,35.586.118A.579.579,0,0,0,35.531.1a.764.764,0,0,0-.11-.046.689.689,0,0,0-.1-.03.568.568,0,0,0-.1-.011A.5.5,0,0,0,35.164,0c-.019,0-.033.009-.052.01a.85.85,0,0,0-.1.01.811.811,0,0,0-.108.031A.743.743,0,0,0,34.8.1c-.016.009-.034.009-.051.018s-.015.016-.024.021a.774.774,0,0,0-.08.065.847.847,0,0,0-.09.089.786.786,0,0,0-.06.074c-.008.01-.018.016-.025.026L18.931,25.943a.786.786,0,0,0-.108.351c0,.01-.008.017-.009.028S18.828,26.36,18.829,26.382ZM35.977,3.755,48.388,24.534,35.977,18.841ZM34.352,18.837,21.683,24.545,34.352,3.711Zm0,1.783v13.43L21.394,26.458Zm1.625,13.417V20.628l12.706,5.83Z" transform="translate(-18.814)" fill="#010920"/>
            <path id="Path_3474" data-name="Path 3474" d="M51.293,55.6a.82.82,0,0,0-1.01-.149L35.288,64.3,20.3,55.448a.813.813,0,0,0-1.077,1.17l15.4,21.7c.012.017.032.022.044.037a.832.832,0,0,0,.1.1c.018.015.028.037.048.05s.034.006.051.017.049.037.077.051a.777.777,0,0,0,.34.082h.005a.786.786,0,0,0,.34-.082.9.9,0,0,0,.077-.051c.016-.011.035-.006.051-.017s.03-.035.048-.05a.791.791,0,0,0,.1-.1c.012-.015.032-.02.044-.037l15.408-21.7A.812.812,0,0,0,51.293,55.6ZM34.476,65.711V75.3L22.754,58.786ZM36.1,75.3V65.711l11.726-6.924Z" transform="translate(-18.937 -26.44)" fill="#010920"/>
          </g>
        </g>
      </g>
    </g>
    <rect id="Rectangle_1387" data-name="Rectangle 1387" width="264" height="264" transform="translate(12512 8009)" fill="none"/>
  </g>
</svg>
