<svg xmlns="http://www.w3.org/2000/svg" width="264" height="264" viewBox="0 0 264 264">
  <g id="shell-scripts" transform="translate(6337 -4500)">
    <g id="Group_1224" data-name="Group 1224" transform="translate(-944 -229)">
      <g id="_24_security_shield" data-name="24 / security / shield" transform="translate(-5356.214 4740.428)">
        <path id="icon" d="M94.887,241.474l0,0c-31.479-14.6-55.422-29.381-71.162-43.947S0,168.206,0,153.673V43.9C0,35.478,3.185,33.47,11.7,28.1c2.544-1.6,5.71-3.6,9.387-6.153C21.4,21.731,57.862,0,94.887,0c26.4,0,53.994,8.206,73.8,21.95,3.677,2.553,6.843,4.549,9.387,6.153,8.512,5.367,11.7,7.375,11.7,15.8.205,2.386.106,52.41.04,85.512v.073c-.022,11.061-.04,20-.04,24.187,0,14.566-7.981,29.337-23.721,43.9s-39.68,29.332-71.162,43.9Zm0-219.524c-23.5,0-52.924,11.891-62.1,18.266-2.668,1.852-7.494,4.963-11.017,7.236l-.682.44V153.673c0,17.616,26.9,40.825,73.813,63.678,24.294-11.814,43.057-23.516,55.759-34.78,11.967-10.613,18.035-20.335,18.035-28.9,0-2.529,0-6.767.019-13.672,0-1.8.006-4.509.014-8.451v-.4c.007-3.3.015-7.434.023-12.586.018-6.571.027-12.25.036-17.654l0-.918c.037-24.058.029-45.348,0-52.031l-2.343-1.517c-3.2-2.073-7.175-4.642-9.452-6.227C140.507,28.779,117.291,21.95,94.887,21.95Z" transform="translate(0)" fill="none" stroke="#082865" stroke-width="10"/>
      </g>
      <g id="Group_1225" data-name="Group 1225">
        <path id="Path" d="M32.148,42.015l-7.427,7.427L0,24.721,24.721,0l7.427,7.427L14.854,24.721Z" transform="translate(-5305.061 4836.136)" fill="#082865"/>
        <path id="Path-2" data-name="Path" d="M0,7.427,7.427,0,32.148,24.721,7.427,49.442,0,42.015,17.294,24.721Z" transform="translate(-5248.829 4836.136)" fill="#082865"/>
        <path id="Path-3" data-name="Path" d="M10.361,64.749,0,63.022,10.5,0,20.864,1.727Z" transform="translate(-5271.303 4828.482)" fill="#082865"/>
      </g>
    </g>
    <rect id="Rectangle_1291" data-name="Rectangle 1291" width="264" height="264" transform="translate(-6337 4500)" fill="none"/>
  </g>
</svg>
