<svg id="Layer_1" data-name="Layer 1" xmlns="http://www.w3.org/2000/svg" viewBox="0 0 96 96"><defs><style>.cls-1{fill:#082865;}</style></defs><title>techstackicons</title><g id="Link"><path class="cls-1" d="M92.52,23.52H81.59A19.2,19.2,0,0,0,62.84,8.68H33.16A19.23,19.23,0,0,0,14.4,23.52H3.48A1.48,1.48,0,0,0,2,25v5.94a1.48,1.48,0,0,0,1.48,1.48H14.41A19.21,19.21,0,0,0,33.16,47.26H62.84A19.23,19.23,0,0,0,81.6,32.42H92.52A1.48,1.48,0,0,0,94,30.94V25A1.48,1.48,0,0,0,92.52,23.52Zm-70.91-7.1a16.21,16.21,0,0,1,11.55-4.77H62.84A16.22,16.22,0,0,1,78.53,23.52h-3.1a13.37,13.37,0,0,0-12.59-8.91H33.16a13.37,13.37,0,0,0-12.59,8.91h-3.1A16.07,16.07,0,0,1,21.61,16.42Zm48.65,16h1.95a10.38,10.38,0,0,1-9.37,5.93H33.16a10.41,10.41,0,0,1-9.39-5.93h2a4.45,4.45,0,1,0,0-8.9h-2a10.4,10.4,0,0,1,9.39-5.94H62.84a10.41,10.41,0,0,1,9.37,5.94H70.26a4.45,4.45,0,0,0,0,8.9ZM5,26.48H25.74A1.49,1.49,0,0,1,27.23,28,1.44,1.44,0,0,1,26.77,29a1.38,1.38,0,0,1-1,.43H5Zm69.42,13a16.25,16.25,0,0,1-11.55,4.77H33.16A16.24,16.24,0,0,1,17.47,32.42h3.1a13.36,13.36,0,0,0,12.59,8.9H62.84a13.36,13.36,0,0,0,12.59-8.9h3.1A16.12,16.12,0,0,1,74.39,39.52ZM91,29.45H70.26a1.47,1.47,0,0,1-1-2.54,1.42,1.42,0,0,1,1-.43H91Z"/><path class="cls-1" d="M92.52,48.74H71.74A19.23,19.23,0,0,0,53,63.58H43A19.21,19.21,0,0,0,24.26,48.74H3.48A1.49,1.49,0,0,0,2,50.23v5.93a1.49,1.49,0,0,0,1.48,1.49H24.26a10.38,10.38,0,0,1,9.37,5.93h-2a4.45,4.45,0,1,0,0,8.9h2a10.41,10.41,0,0,1-9.37,5.94H3.48A1.48,1.48,0,0,0,2,79.9v5.94a1.48,1.48,0,0,0,1.48,1.48H24.26A19.23,19.23,0,0,0,43,72.48H53A19.2,19.2,0,0,0,71.74,87.32H92.52A1.48,1.48,0,0,0,94,85.84V79.9a1.48,1.48,0,0,0-1.48-1.48H71.74a10.41,10.41,0,0,1-9.37-5.94h1.95a4.45,4.45,0,0,0,0-8.9H62.37a10.38,10.38,0,0,1,9.37-5.93H92.52A1.49,1.49,0,0,0,94,56.16V50.23A1.49,1.49,0,0,0,92.52,48.74ZM24.26,54.68H5v-3H24.26A16.24,16.24,0,0,1,40,63.58h-3.1A13.36,13.36,0,0,0,24.26,54.68Zm11.55,24.9a16.21,16.21,0,0,1-11.55,4.77H5v-3H24.26a13.37,13.37,0,0,0,12.59-8.91H40A16.07,16.07,0,0,1,35.81,79.58Zm35.93,1.81H91v3H71.74A16.22,16.22,0,0,1,56.05,72.48h3.1A13.37,13.37,0,0,0,71.74,81.39ZM65.81,68a1.49,1.49,0,0,1-1.49,1.49H31.68a1.49,1.49,0,1,1,0-3H64.32A1.49,1.49,0,0,1,65.81,68ZM91,54.68H71.74a13.36,13.36,0,0,0-12.59,8.9h-3.1A16.26,16.26,0,0,1,71.74,51.71H91Z"/></g></svg>