<svg id="Layer_1" data-name="Layer 1" xmlns="http://www.w3.org/2000/svg" viewBox="0 0 96 96"><defs><style>.cls-1{fill:#082865;}</style></defs><title>techstackicons</title><path class="cls-1" d="M24.26,16.84H18.32a1.48,1.48,0,0,0-1.48,1.48v5.94a1.48,1.48,0,0,0,1.48,1.48h5.94a1.48,1.48,0,0,0,1.48-1.48V18.32A1.48,1.48,0,0,0,24.26,16.84Zm-1.49,5.93h-3v-3h3Z"/><path class="cls-1" d="M24.26,70.26H18.32a1.48,1.48,0,0,0-1.48,1.48v5.94a1.48,1.48,0,0,0,1.48,1.48h5.94a1.48,1.48,0,0,0,1.48-1.48V71.74A1.48,1.48,0,0,0,24.26,70.26Zm-1.49,5.93h-3v-3h3Z"/><path class="cls-1" d="M70.26,18.32v5.94a1.48,1.48,0,0,0,1.48,1.48h5.94a1.48,1.48,0,0,0,1.48-1.48V18.32a1.48,1.48,0,0,0-1.48-1.48H71.74A1.48,1.48,0,0,0,70.26,18.32Zm3,1.49h3v3h-3Z"/><path class="cls-1" d="M77.68,70.26H71.74a1.48,1.48,0,0,0-1.48,1.48v5.94a1.48,1.48,0,0,0,1.48,1.48h5.94a1.48,1.48,0,0,0,1.48-1.48V71.74A1.48,1.48,0,0,0,77.68,70.26Zm-1.49,5.93h-3v-3h3Z"/><path class="cls-1" d="M92.52,49.48a1.48,1.48,0,1,0,0-3H85.1V34.65h7.42a1.49,1.49,0,0,0,0-3H85.1V18.32a1.49,1.49,0,0,0-.44-1.05l-5.93-5.93a1.49,1.49,0,0,0-1-.44H64.32V3.48a1.49,1.49,0,0,0-3,0V10.9H49.48V3.48a1.48,1.48,0,1,0-3,0V10.9H34.65V3.48a1.49,1.49,0,0,0-3,0V10.9H18.32a1.49,1.49,0,0,0-1.05.44l-5.93,5.93a1.49,1.49,0,0,0-.44,1.05V31.68H3.48a1.49,1.49,0,0,0,0,3H10.9V46.52H3.48a1.48,1.48,0,0,0,0,3H10.9V61.35H3.48a1.49,1.49,0,0,0,0,3H10.9V77.68a1.49,1.49,0,0,0,.44,1l5.93,5.93a1.49,1.49,0,0,0,1.05.44H31.68v7.42a1.49,1.49,0,0,0,3,0V85.1H46.52v7.42a1.48,1.48,0,0,0,3,0V85.1H61.35v7.42a1.49,1.49,0,0,0,3,0V85.1H77.68a1.49,1.49,0,0,0,1-.44l5.93-5.93a1.49,1.49,0,0,0,.44-1V64.32h7.42a1.49,1.49,0,0,0,0-3H85.1V49.48ZM82.13,77.06l-5.07,5.07H18.94l-5.07-5.07V18.94l5.07-5.07H77.06l5.07,5.07Z"/><path class="cls-1" d="M30.19,22.77H65.81a1.48,1.48,0,1,0,0-3H30.19a1.48,1.48,0,0,0,0,3Z"/><path class="cls-1" d="M65.81,73.23H30.19a1.48,1.48,0,1,0,0,3H65.81a1.48,1.48,0,1,0,0-3Z"/><path class="cls-1" d="M74.71,66.92a1.48,1.48,0,0,0,1.48-1.48V30.19a1.48,1.48,0,0,0-3,0V65.44A1.48,1.48,0,0,0,74.71,66.92Z"/><path class="cls-1" d="M22.77,65.81V30.19a1.48,1.48,0,0,0-3,0V65.81a1.48,1.48,0,1,0,3,0Z"/><path class="cls-1" d="M73.23,65.81a1.48,1.48,0,0,0,3,0V64.32a1.48,1.48,0,0,0-3,0Z"/><path class="cls-1" d="M48,57.61a3,3,0,1,1,3-3A3,3,0,0,1,48,57.61Zm0-5.87a2.84,2.84,0,1,0,2.84,2.84A2.84,2.84,0,0,0,48,51.74Z"/><path class="cls-1" d="M48,49.69a4.89,4.89,0,1,0,4.89,4.89A4.89,4.89,0,0,0,48,49.69Zm0,7.82A2.93,2.93,0,1,1,51,54.58,2.93,2.93,0,0,1,48,57.51Z"/><path class="cls-1" d="M48,59.56a5,5,0,1,1,0-10h0a5,5,0,1,1,0,10Zm0-9.77a4.8,4.8,0,1,0,4.8,4.79A4.81,4.81,0,0,0,48,49.79Zm0,7.82a3,3,0,1,1,3-3A3,3,0,0,1,48,57.61Zm0-5.87a2.84,2.84,0,1,0,2.84,2.84A2.84,2.84,0,0,0,48,51.74Z"/><path class="cls-1" d="M55.93,42H53.79V33.07A4.8,4.8,0,0,0,49,28.28H47a4.8,4.8,0,0,0-4.79,4.79V42H40.11V33.07A6.94,6.94,0,0,1,47,26.14h2a6.94,6.94,0,0,1,6.93,6.93Zm-2-.18h1.77V33.07A6.77,6.77,0,0,0,49,26.32H47a6.77,6.77,0,0,0-6.75,6.75v8.71h1.77V33.07a5,5,0,0,1,5-5h2a5,5,0,0,1,5,5Z"/><polygon class="cls-1" points="35.4 58.58 35.2 58.58 35.2 55.47 35.39 55.47 35.4 55.56 35.4 58.58"/><polygon class="cls-1" points="35.4 53.7 35.2 53.7 35.2 50.58 35.39 50.58 35.4 50.67 35.4 53.7"/><path class="cls-1" d="M52,42H44V33.07a3,3,0,0,1,3-3h2a3,3,0,0,1,3,3Zm-7.82-.18h7.64V33.07A2.85,2.85,0,0,0,49,30.23H47a2.85,2.85,0,0,0-2.84,2.84Z"/><path class="cls-1" d="M58.87,65.43H37.17V43.73h21.7Zm-21.51-.19H58.68V43.92H37.36Z"/><path class="cls-1" d="M59.75,41.87h-2v-8.8a8.81,8.81,0,0,0-8.8-8.8H47a8.82,8.82,0,0,0-8.8,8.8v8.8h-2a1,1,0,0,0-1,1v5.86h0v2h0V53.6h0v2h0v2.93h0v2h0v5.86a1,1,0,0,0,1,1H59.75a1,1,0,0,0,1-.76V42.63A1,1,0,0,0,59.75,41.87ZM40.2,33.07A6.84,6.84,0,0,1,47,26.23h2a6.84,6.84,0,0,1,6.84,6.84v8.8h-2v-8.8A4.9,4.9,0,0,0,49,28.18H47a4.9,4.9,0,0,0-4.89,4.89v8.8H40.2Zm11.73,0v8.8H44.11v-8.8A2.93,2.93,0,0,1,47,30.14h2A2.93,2.93,0,0,1,51.93,33.07Zm6.84,32.26H37.27V43.83h21.5Z"/><path class="cls-1" d="M59.75,67.38H36.29a1.07,1.07,0,0,1-1.07-1.07V60.54l0-.09V58.4h0V55.65l0-.09V53.51h0V50.76l0-.09V48.62h0V42.85a1.07,1.07,0,0,1,1.07-1.07h1.86V33.07A8.92,8.92,0,0,1,47,24.18h2a8.92,8.92,0,0,1,8.89,8.89v8.71h1.86a1.07,1.07,0,0,1,1,.83V66.54h0A1.07,1.07,0,0,1,59.75,67.38Zm-24.36-7v6a.89.89,0,0,0,.89.89H59.75a.88.88,0,0,0,.86-.68V42.64a.88.88,0,0,0-.86-.68h-2V33.07a8.72,8.72,0,0,0-8.7-8.7H47a8.72,8.72,0,0,0-8.7,8.7V42H36.29a.89.89,0,0,0-.89.89v6h0V53.7h0v4.88h0Zm23.48,5.08H37.17V43.73h21.7Zm-21.51-.19H58.68V43.92H37.36ZM55.93,42H53.79V33.07A4.8,4.8,0,0,0,49,28.28H47a4.8,4.8,0,0,0-4.79,4.79V42H40.11V33.07A6.94,6.94,0,0,1,47,26.14h2a6.94,6.94,0,0,1,6.93,6.93Zm-2-.18h1.77V33.07A6.77,6.77,0,0,0,49,26.32H47a6.77,6.77,0,0,0-6.75,6.75v8.71h1.77V33.07a5,5,0,0,1,5-5h2a5,5,0,0,1,5,5ZM52,42H44V33.07a3,3,0,0,1,3-3h2a3,3,0,0,1,3,3Zm-7.82-.18h7.64V33.07A2.85,2.85,0,0,0,49,30.23H47a2.85,2.85,0,0,0-2.84,2.84Z"/></svg>