<svg id="Layer_1" data-name="Layer 1" xmlns="http://www.w3.org/2000/svg" viewBox="0 0 96 96"><defs><style>.cls-1{fill:#082865;}</style></defs><title>techstackicons</title><g id="Blockchain"><path class="cls-1" d="M92.52,52.45A1.48,1.48,0,0,0,94,51V27.23a1.49,1.49,0,0,0-1.48-1.49H91V9.42A7.42,7.42,0,0,0,83.61,2H77.68a7.42,7.42,0,0,0-7.42,7.42V25.74H68.77a1.49,1.49,0,0,0-1.48,1.49V51a1.48,1.48,0,0,0,1.48,1.48H79.16V76.19H74.71a7.44,7.44,0,0,0-7.42,7.42H61.35a7.43,7.43,0,0,0-7.41-7.42H49.48V52.45H59.87A1.48,1.48,0,0,0,61.35,51V27.23a1.49,1.49,0,0,0-1.48-1.49H58.39V9.42A7.43,7.43,0,0,0,51,2H45a7.43,7.43,0,0,0-7.42,7.42V25.74H36.13a1.49,1.49,0,0,0-1.48,1.49V51a1.48,1.48,0,0,0,1.48,1.48H46.52V76.19H42.06a7.43,7.43,0,0,0-7.41,7.42H28.71a7.44,7.44,0,0,0-7.42-7.42H16.84V52.45H27.23A1.48,1.48,0,0,0,28.71,51V27.23a1.49,1.49,0,0,0-1.48-1.49H25.74V9.42A7.42,7.42,0,0,0,18.32,2H12.39A7.42,7.42,0,0,0,5,9.42V25.74H3.48A1.49,1.49,0,0,0,2,27.23V51a1.48,1.48,0,0,0,1.48,1.48H13.87V76.19H9.42A7.43,7.43,0,0,0,2,83.61v3A7.42,7.42,0,0,0,9.42,94H21.29a7.42,7.42,0,0,0,7.42-7.42h5.94A7.42,7.42,0,0,0,42.06,94H53.94a7.42,7.42,0,0,0,7.41-7.42h5.94A7.42,7.42,0,0,0,74.71,94H86.58A7.42,7.42,0,0,0,94,86.58v-3a7.43,7.43,0,0,0-7.42-7.42H82.13V52.45Zm-51.94-43A4.45,4.45,0,0,1,45,5H51a4.45,4.45,0,0,1,4.45,4.45V25.74H40.58Zm-3,40.06V28.71H58.39V49.48H49.48V43.55a.8.8,0,0,0,0-.26,4.46,4.46,0,1,0-2.86,0,.8.8,0,0,0,0,.26v5.93ZM48,40.58a1.49,1.49,0,1,1,1.48-1.48A1.48,1.48,0,0,1,48,40.58ZM7.94,9.42A4.45,4.45,0,0,1,12.39,5h5.93a4.45,4.45,0,0,1,4.45,4.45V25.74H7.94ZM5,49.48V28.71H25.74V49.48h-8.9V43.55a2.38,2.38,0,0,0-.05-.26,4.45,4.45,0,1,0-2.87,0,2.38,2.38,0,0,0-.05.26v5.93Zm10.38-8.9a1.49,1.49,0,1,1,1.49-1.48A1.48,1.48,0,0,1,15.35,40.58ZM21.29,91H9.42A4.45,4.45,0,0,1,5,86.58H5v-3a4.45,4.45,0,0,1,4.45-4.45H21.29a4.45,4.45,0,0,1,4.45,4.45H21.29a1.49,1.49,0,0,0,0,3h4.45A4.45,4.45,0,0,1,21.29,91Zm32.65,0H42.06a4.45,4.45,0,0,1-4.45-4.45h4.45a1.49,1.49,0,1,0,0-3H37.61a4.45,4.45,0,0,1,4.45-4.45H53.94a4.45,4.45,0,0,1,4.45,4.45H53.94a1.49,1.49,0,1,0,0,3h4.45A4.45,4.45,0,0,1,53.94,91ZM86.58,79.16A4.45,4.45,0,0,1,91,83.61v3A4.45,4.45,0,0,1,86.58,91H74.71a4.45,4.45,0,0,1-4.45-4.45h4.45a1.49,1.49,0,0,0,0-3H70.26a4.45,4.45,0,0,1,4.45-4.45ZM73.23,9.42A4.45,4.45,0,0,1,77.68,5h5.93a4.45,4.45,0,0,1,4.45,4.45V25.74H73.23Zm-3,40.06V28.71H91V49.48h-8.9V43.55a2.38,2.38,0,0,0,0-.26,4.45,4.45,0,1,0-2.87,0,2.38,2.38,0,0,0,0,.26v5.93Zm10.39-8.9a1.49,1.49,0,1,1,1.48-1.48A1.49,1.49,0,0,1,80.65,40.58Z"/></g></svg>