<svg id="Layer_1" data-name="Layer 1" xmlns="http://www.w3.org/2000/svg" viewBox="0 0 96 96"><defs><style>.cls-1{fill:#082865;}</style></defs><title>techstackicons</title><path class="cls-1" d="M40.76,58.24H35.37V52.85a1.8,1.8,0,1,0-3.6,0v5.39H26.38a1.8,1.8,0,0,0,0,3.59h5.39v5.39a1.8,1.8,0,1,0,3.6,0V61.83h5.39a1.8,1.8,0,0,0,0-3.59Z"/><path class="cls-1" d="M89.25,59.86A14.35,14.35,0,0,0,69.62,54.6l-7.3,4.21V43.21a9,9,0,0,0-1.8-5.39l-9-12v-5.1a5.41,5.41,0,0,0,3.59-5.08V7.39A5.4,5.4,0,0,0,49.74,2H17.4A5.4,5.4,0,0,0,12,7.39v8.27a5.4,5.4,0,0,0,3.59,5.08v5.1l-9,12a9,9,0,0,0-1.8,5.39V78a9,9,0,0,0,9,9H42.68a14.37,14.37,0,0,0,19.53,5.08L84,79.49A14.38,14.38,0,0,0,89.25,59.86ZM15.6,7.39a1.81,1.81,0,0,1,1.8-1.8H49.74a1.81,1.81,0,0,1,1.8,1.8v8.27a1.8,1.8,0,0,1-1.8,1.79H17.4a1.8,1.8,0,0,1-1.8-1.79V7.39ZM9.49,40l9.35-12.46a1.79,1.79,0,0,0,.36-1.07V21.05H47.94v3.59H17.4a1.8,1.8,0,1,0,0,3.59H48.84L57.65,40a5.53,5.53,0,0,1,1,2.64H8.45A5.53,5.53,0,0,1,9.49,40Zm4.32,43.42A5.39,5.39,0,0,1,8.42,78V76.19H41.06a14.29,14.29,0,0,0,.09,7.2ZM42.47,72.61H8.41V46.2H58.72V60.88L47.83,67.17A14.28,14.28,0,0,0,42.47,72.61ZM60.41,89A10.78,10.78,0,0,1,49.63,70.28l9.75-5.63L70.16,83.33ZM82.19,76.38l-8.91,5.15L62.49,62.86l8.92-5.15A10.78,10.78,0,1,1,82.19,76.38Z"/></svg>