<svg id="Layer_1" data-name="Layer 1" xmlns="http://www.w3.org/2000/svg" viewBox="0 0 96 96"><defs><style>.cls-1{fill:#082865;}</style></defs><title>techstackicons</title><path class="cls-1" d="M92.46,18.47H3.54A1.54,1.54,0,0,0,2,20V76a1.54,1.54,0,0,0,1.54,1.54H92.46A1.54,1.54,0,0,0,94,76V20A1.54,1.54,0,0,0,92.46,18.47Zm-1.55,3.08V31.64H5.09V21.55ZM5.09,74.45V34.72H90.91V74.45Z"/><path class="cls-1" d="M16.16,42A1.54,1.54,0,0,0,14,44.15L24.41,54.59,14,65a1.54,1.54,0,1,0,2.18,2.18L27.69,55.68a1.56,1.56,0,0,0,0-2.19Z"/><path class="cls-1" d="M46.35,64.57H29.89a1.55,1.55,0,1,0,0,3.09H46.35a1.55,1.55,0,1,0,0-3.09Z"/></svg>