<svg id="Layer_1" data-name="Layer 1" xmlns="http://www.w3.org/2000/svg" viewBox="0 0 96 96"><defs><style>.cls-1{fill:#082865;}</style></defs><title>techstackicons</title><path class="cls-1" d="M54,57A32.46,32.46,0,0,0,67.9,22.08L63.34,3.37A1.79,1.79,0,0,0,61.6,2H34.4a1.79,1.79,0,0,0-1.74,1.37L28.1,22.08A32.46,32.46,0,0,0,42,57l4.24,2.76V83.6l-14,7A1.8,1.8,0,0,0,33,94H63a1.8,1.8,0,0,0,.8-3.4l-14-7V59.75ZM35.81,5.59H60.19l3.68,15.12H32.13ZM31.1,34.13a28.91,28.91,0,0,1,.19-9.82H64.71A28.87,28.87,0,0,1,52.09,54L48,56.63,43.91,54A29,29,0,0,1,31.1,34.13Zm9.54,56.28L48,86.72l7.36,3.69Z"/></svg>