<svg id="Layer_1" data-name="Layer 1" xmlns="http://www.w3.org/2000/svg" viewBox="0 0 96 96"><defs><style>.cls-1{fill:#082865;}</style></defs><title>techstackicons</title><path class="cls-1" d="M79.16,2H16.84a1.49,1.49,0,0,0-1.49,1.48v89A1.49,1.49,0,0,0,16.84,94H67.29a1.53,1.53,0,0,0,1-.43L80.21,81.69a1.45,1.45,0,0,0,.44-1V3.48A1.49,1.49,0,0,0,79.16,2ZM18.32,5H77.68V79.16H67.29a1.49,1.49,0,0,0-1.48,1.49V91H18.32Zm50.45,84v-6.8h6.81Z"/><path class="cls-1" d="M31.68,51a1.48,1.48,0,0,0,1.48,1.48H68.77a1.49,1.49,0,1,0,0-3H33.16A1.49,1.49,0,0,0,31.68,51Z"/><path class="cls-1" d="M27.23,58.39H68.77a1.49,1.49,0,1,0,0-3H27.23a1.49,1.49,0,1,0,0,3Z"/><path class="cls-1" d="M27.23,64.32H68.77a1.49,1.49,0,1,0,0-3H27.23a1.49,1.49,0,1,0,0,3Z"/><path class="cls-1" d="M53.94,67.29H27.23a1.49,1.49,0,1,0,0,3H53.94a1.49,1.49,0,0,0,0-3Z"/><path class="cls-1" d="M27.23,52.45h8.9a1.49,1.49,0,0,0,0-3h-8.9a1.49,1.49,0,1,0,0,3Z"/><path class="cls-1" d="M59.87,67.29h-7a1.49,1.49,0,0,0,0,3h7a1.49,1.49,0,0,0,0-3Z"/><path class="cls-1" d="M36.53,38.12A2.44,2.44,0,1,1,39,35.68,2.44,2.44,0,0,1,36.53,38.12Zm0-4.73a2.29,2.29,0,1,0,2.29,2.29A2.3,2.3,0,0,0,36.53,33.39Z"/><path class="cls-1" d="M36.53,31.74a3.94,3.94,0,1,0,3.94,3.94A3.95,3.95,0,0,0,36.53,31.74Zm0,6.31a2.37,2.37,0,1,1,2.37-2.37A2.37,2.37,0,0,1,36.53,38.05Z"/><path class="cls-1" d="M36.53,39.7a4,4,0,0,1,0-8h0a4,4,0,1,1,0,8Zm0-7.88a3.87,3.87,0,1,0,3.87,3.86,3.86,3.86,0,0,0-3.87-3.86Zm0,6.3A2.44,2.44,0,1,1,39,35.68,2.44,2.44,0,0,1,36.53,38.12Zm0-4.73a2.29,2.29,0,1,0,2.29,2.29A2.3,2.3,0,0,0,36.53,33.39Z"/><path class="cls-1" d="M42.91,25.51H41.19V18.35a3.89,3.89,0,0,0-3.87-3.87H35.75a3.88,3.88,0,0,0-3.87,3.87v7.16H30.15V18.35a5.61,5.61,0,0,1,5.6-5.59h1.57a5.6,5.6,0,0,1,5.59,5.59Zm-1.57-.15h1.42v-7a5.45,5.45,0,0,0-5.44-5.44H35.75a5.46,5.46,0,0,0-5.45,5.44v7h1.43v-7a4,4,0,0,1,4-4h1.57a4,4,0,0,1,4,4Z"/><polygon class="cls-1" points="26.36 38.91 26.2 38.91 26.2 36.4 26.35 36.4 26.36 36.47 26.36 38.91"/><polygon class="cls-1" points="26.36 34.97 26.2 34.97 26.2 32.45 26.35 32.45 26.36 32.53 26.36 34.97"/><path class="cls-1" d="M39.76,25.51H33.31V18.35a2.44,2.44,0,0,1,2.44-2.44h1.57a2.44,2.44,0,0,1,2.44,2.44Zm-6.3-.15h6.15v-7a2.29,2.29,0,0,0-2.29-2.29H35.75a2.28,2.28,0,0,0-2.29,2.29Z"/><path class="cls-1" d="M45.28,44.42H27.79V26.94H45.28Zm-17.34-.15H45.13V27.09H27.94Z"/><path class="cls-1" d="M46,25.44H44.41V18.35a7.08,7.08,0,0,0-7.09-7.09H35.75a7.1,7.1,0,0,0-7.1,7.09v7.09H27.08a.79.79,0,0,0-.79.79V31h0v1.58h0v2.36h0v1.58h0v2.36h0v1.58h0v4.73a.79.79,0,0,0,.79.79H46a.8.8,0,0,0,.77-.62V26.05A.79.79,0,0,0,46,25.44ZM30.23,18.35a5.52,5.52,0,0,1,5.52-5.52h1.57a5.52,5.52,0,0,1,5.52,5.52v7.09H41.26V18.35a3.93,3.93,0,0,0-3.94-3.94H35.75a3.93,3.93,0,0,0-3.94,3.94v7.09H30.23Zm9.45,0v7.09h-6.3V18.35A2.37,2.37,0,0,1,35.75,16h1.57A2.36,2.36,0,0,1,39.68,18.35Zm5.52,26H27.87V27H45.2Z"/><path class="cls-1" d="M46,46H27.08a.87.87,0,0,1-.87-.86V38.76h0V34.82h0V30.88h0V26.23a.87.87,0,0,1,.87-.87h1.5v-7a7.18,7.18,0,0,1,7.17-7.17h1.57a7.19,7.19,0,0,1,7.17,7.17v7H46a.87.87,0,0,1,.84.67V45.32h0A.87.87,0,0,1,46,46ZM26.35,40.33v4.81a.71.71,0,0,0,.72.71H46a.7.7,0,0,0,.69-.55V26.06a.72.72,0,0,0-.69-.55H44.34V18.35a7,7,0,0,0-7-7H35.75a7,7,0,0,0-7,7v7.16H27.08a.72.72,0,0,0-.72.72V31h0V35h0v3.94h0Zm18.93,4.09H27.79V26.94H45.28Zm-17.34-.15H45.13V27.09H27.94Zm15-18.76H41.19V18.35a3.89,3.89,0,0,0-3.87-3.87H35.75a3.88,3.88,0,0,0-3.87,3.87v7.16H30.15V18.35a5.61,5.61,0,0,1,5.6-5.59h1.57a5.6,5.6,0,0,1,5.59,5.59Zm-1.57-.15h1.42v-7a5.45,5.45,0,0,0-5.44-5.44H35.75a5.46,5.46,0,0,0-5.45,5.44v7h1.43v-7a4,4,0,0,1,4-4h1.57a4,4,0,0,1,4,4Zm-1.58.15H33.31V18.35a2.44,2.44,0,0,1,2.44-2.44h1.57a2.44,2.44,0,0,1,2.44,2.44Zm-6.3-.15h6.15v-7a2.29,2.29,0,0,0-2.29-2.29H35.75a2.28,2.28,0,0,0-2.29,2.29Z"/></svg>