<svg id="Layer_1" data-name="Layer 1" xmlns="http://www.w3.org/2000/svg" viewBox="0 0 96 96"><defs><style>.cls-1{fill:#082865;}</style></defs><title>techstackicons</title><g id="Storage"><path class="cls-1" d="M48.55,36.23a1.49,1.49,0,0,0-1.1,0L32.61,42.17h0a1.51,1.51,0,0,0-.28.15,1.49,1.49,0,0,0-.65,1.23v17.8a1.48,1.48,0,0,0,.93,1.38l14.84,5.94h0a1.33,1.33,0,0,0,1,0h0l14.84-5.94a1.48,1.48,0,0,0,.93-1.38V43.55a1.49,1.49,0,0,0-.65-1.23,1.51,1.51,0,0,0-.28-.15h0Zm-.55,3,10.84,4.34L48,47.89,37.16,43.55ZM34.65,45.74l11.87,4.75V65.1L34.65,60.35Zm26.7,14.61L49.48,65.1V50.49l11.87-4.75Z"/><path class="cls-1" d="M68.77,19.81H61.35V3.48A1.48,1.48,0,0,0,59.87,2H36.13a1.48,1.48,0,0,0-1.48,1.48V19.81H27.23a1.49,1.49,0,0,0-1.49,1.48V87a7,7,0,0,0,7,7H63.22a7,7,0,0,0,7-7V21.29A1.49,1.49,0,0,0,68.77,19.81ZM37.61,5H58.39V19.81H37.61ZM67.29,87A4.07,4.07,0,0,1,63.22,91H32.78A4.07,4.07,0,0,1,28.71,87V22.77H67.29Z"/><path class="cls-1" d="M48,6.45a1.49,1.49,0,0,0-1.48,1.49v8.9a1.48,1.48,0,0,0,3,0V7.94A1.49,1.49,0,0,0,48,6.45Z"/><path class="cls-1" d="M42.06,7.94a1.48,1.48,0,0,0-1.48,1.48v5.93a1.49,1.49,0,1,0,3,0V9.42A1.49,1.49,0,0,0,42.06,7.94Z"/><path class="cls-1" d="M53.94,7.94a1.49,1.49,0,0,0-1.49,1.48v5.93a1.49,1.49,0,1,0,3,0V9.42A1.48,1.48,0,0,0,53.94,7.94Z"/></g></svg>