<svg id="Layer_1" data-name="Layer 1" xmlns="http://www.w3.org/2000/svg" viewBox="0 0 96 96"><defs><style>.cls-1{fill:#082865;}</style></defs><title>techstackicons</title><path class="cls-1" d="M79.16,2H16.84a1.49,1.49,0,0,0-1.49,1.48v89A1.49,1.49,0,0,0,16.84,94H67.29a1.53,1.53,0,0,0,1-.43L80.21,81.69a1.45,1.45,0,0,0,.44-1V3.48A1.49,1.49,0,0,0,79.16,2ZM18.32,5H77.68V79.16H67.29a1.49,1.49,0,0,0-1.48,1.49V91H18.32Zm50.45,84v-6.8h6.81Z"/><path class="cls-1" d="M27.23,46.52H45A1.49,1.49,0,0,0,46.52,45V37.61h5.93V39.1a1.49,1.49,0,0,0,1.49,1.48h5.93a1.48,1.48,0,0,0,1.48-1.48V33.16a1.48,1.48,0,0,0-1.48-1.48H53.94a1.49,1.49,0,0,0-1.49,1.48v1.49H46.52V27.23A1.49,1.49,0,0,0,45,25.74H37.61V19.81H39.1a1.49,1.49,0,0,0,1.48-1.49V12.39A1.49,1.49,0,0,0,39.1,10.9H33.16a1.49,1.49,0,0,0-1.48,1.49v5.93a1.49,1.49,0,0,0,1.48,1.49h1.49v5.93H27.23a1.49,1.49,0,0,0-1.49,1.49V45A1.49,1.49,0,0,0,27.23,46.52ZM55.42,34.65h3v3h-3ZM34.65,13.87h3v3h-3ZM28.71,28.71H43.55V43.55H28.71Z"/><path class="cls-1" d="M36.13,31.68a4.45,4.45,0,1,0,4.45,4.45A4.45,4.45,0,0,0,36.13,31.68Zm0,5.93a1.48,1.48,0,1,1,1.48-1.48A1.48,1.48,0,0,1,36.13,37.61Z"/><path class="cls-1" d="M31.68,51a1.48,1.48,0,0,0,1.48,1.48H68.77a1.49,1.49,0,1,0,0-3H33.16A1.49,1.49,0,0,0,31.68,51Z"/><path class="cls-1" d="M27.23,58.39H68.77a1.49,1.49,0,1,0,0-3H27.23a1.49,1.49,0,1,0,0,3Z"/><path class="cls-1" d="M27.23,64.32H68.77a1.49,1.49,0,1,0,0-3H27.23a1.49,1.49,0,1,0,0,3Z"/><path class="cls-1" d="M53.94,67.29H27.23a1.49,1.49,0,1,0,0,3H53.94a1.49,1.49,0,0,0,0-3Z"/><path class="cls-1" d="M27.23,52.45h8.9a1.49,1.49,0,0,0,0-3h-8.9a1.49,1.49,0,1,0,0,3Z"/><path class="cls-1" d="M59.87,67.29h-7a1.49,1.49,0,0,0,0,3h7a1.49,1.49,0,0,0,0-3Z"/></svg>