<svg id="Layer_1" data-name="Layer 1" xmlns="http://www.w3.org/2000/svg" viewBox="0 0 96 96"><defs><style>.cls-1{fill:#082865;}</style></defs><title>techstackicons</title><path class="cls-1" d="M59.61,61.06H36.39a1.45,1.45,0,0,1-1.45-1.45V36.39a1.45,1.45,0,0,1,1.45-1.45H59.61a1.45,1.45,0,0,1,1.45,1.45V59.61A1.45,1.45,0,0,1,59.61,61.06Zm-21.77-2.9H58.16V37.84H37.84Z"/><path class="cls-1" d="M27.68,29.13H4.45A1.45,1.45,0,0,1,3,27.68V4.45A1.45,1.45,0,0,1,4.45,3H27.68a1.45,1.45,0,0,1,1.45,1.45V27.68A1.45,1.45,0,0,1,27.68,29.13ZM5.9,26.23H26.23V5.9H5.9Z"/><path class="cls-1" d="M91.55,93H68.32a1.45,1.45,0,0,1-1.45-1.45V68.32a1.45,1.45,0,0,1,1.45-1.45H91.55A1.45,1.45,0,0,1,93,68.32V91.55A1.45,1.45,0,0,1,91.55,93ZM69.77,90.1H90.1V69.77H69.77Z"/><path class="cls-1" d="M91.55,29.13H68.32a1.45,1.45,0,0,1-1.45-1.45V4.45A1.45,1.45,0,0,1,68.32,3H91.55A1.45,1.45,0,0,1,93,4.45V27.68A1.45,1.45,0,0,1,91.55,29.13Zm-21.78-2.9H90.1V5.9H69.77Z"/><path class="cls-1" d="M27.68,93H4.45A1.45,1.45,0,0,1,3,91.55V68.32a1.45,1.45,0,0,1,1.45-1.45H27.68a1.45,1.45,0,0,1,1.45,1.45V91.55A1.45,1.45,0,0,1,27.68,93ZM5.9,90.1H26.23V69.77H5.9Z"/><path class="cls-1" d="M50.9,20.42H45.1A1.45,1.45,0,0,1,43.65,19V13.16a1.45,1.45,0,0,1,1.45-1.45h5.8a1.45,1.45,0,0,1,1.45,1.45V19A1.45,1.45,0,0,1,50.9,20.42Zm-4.35-2.9h2.9V14.61h-2.9Z"/><path class="cls-1" d="M48,36.39a1.45,1.45,0,0,1-1.45-1.45V20.42a1.45,1.45,0,0,1,2.9,0V34.94A1.45,1.45,0,0,1,48,36.39Z"/><path class="cls-1" d="M66.87,17.52H52.35a1.46,1.46,0,0,1,0-2.91H66.87a1.46,1.46,0,0,1,0,2.91Z"/><path class="cls-1" d="M50.9,84.29H45.1a1.45,1.45,0,0,1-1.45-1.45V77a1.45,1.45,0,0,1,1.45-1.45h5.8A1.45,1.45,0,0,1,52.35,77v5.81A1.45,1.45,0,0,1,50.9,84.29Zm-4.35-2.9h2.9V78.48h-2.9Z"/><path class="cls-1" d="M48,77a1.45,1.45,0,0,1-1.45-1.45V61.06a1.45,1.45,0,0,1,2.9,0V75.58A1.45,1.45,0,0,1,48,77Z"/><path class="cls-1" d="M43.65,81.39H29.13a1.46,1.46,0,0,1,0-2.91H43.65a1.46,1.46,0,0,1,0,2.91Z"/><path class="cls-1" d="M19,52.35H13.16a1.45,1.45,0,0,1-1.45-1.45V45.1a1.45,1.45,0,0,1,1.45-1.45H19a1.45,1.45,0,0,1,1.45,1.45v5.8A1.45,1.45,0,0,1,19,52.35Zm-4.36-2.9h2.91v-2.9H14.61Z"/><path class="cls-1" d="M34.94,49.45H20.42a1.45,1.45,0,0,1,0-2.9H34.94a1.45,1.45,0,0,1,0,2.9Z"/><path class="cls-1" d="M16.06,45.1a1.45,1.45,0,0,1-1.45-1.45V29.13a1.46,1.46,0,0,1,2.91,0V43.65A1.45,1.45,0,0,1,16.06,45.1Z"/><path class="cls-1" d="M82.84,52.35H77a1.45,1.45,0,0,1-1.45-1.45V45.1A1.45,1.45,0,0,1,77,43.65h5.81a1.45,1.45,0,0,1,1.45,1.45v5.8A1.45,1.45,0,0,1,82.84,52.35Zm-4.36-2.9h2.91v-2.9H78.48Z"/><path class="cls-1" d="M75.58,49.45H61.06a1.45,1.45,0,0,1,0-2.9H75.58a1.45,1.45,0,1,1,0,2.9Z"/><path class="cls-1" d="M79.94,68.32a1.45,1.45,0,0,1-1.46-1.45V52.35a1.46,1.46,0,0,1,2.91,0V66.87A1.45,1.45,0,0,1,79.94,68.32Z"/><path class="cls-1" d="M48,52.35A4.35,4.35,0,1,1,52.35,48,4.34,4.34,0,0,1,48,52.35Zm0-5.8A1.45,1.45,0,1,0,49.45,48,1.45,1.45,0,0,0,48,46.55Z"/><path class="cls-1" d="M16.06,20.42a4.36,4.36,0,1,1,4.36-4.36A4.36,4.36,0,0,1,16.06,20.42Zm0-5.81a1.46,1.46,0,1,0,1.46,1.45A1.45,1.45,0,0,0,16.06,14.61Z"/><path class="cls-1" d="M16.06,84.29a4.36,4.36,0,1,1,4.36-4.35A4.35,4.35,0,0,1,16.06,84.29Zm0-5.81a1.46,1.46,0,1,0,1.46,1.46A1.45,1.45,0,0,0,16.06,78.48Z"/><path class="cls-1" d="M79.94,20.42a4.36,4.36,0,1,1,4.35-4.36A4.36,4.36,0,0,1,79.94,20.42Zm0-5.81a1.46,1.46,0,1,0,1.45,1.45A1.45,1.45,0,0,0,79.94,14.61Z"/><path class="cls-1" d="M79.94,84.29a4.36,4.36,0,1,1,4.35-4.35A4.36,4.36,0,0,1,79.94,84.29Zm0-5.81a1.46,1.46,0,1,0,1.45,1.46A1.46,1.46,0,0,0,79.94,78.48Z"/></svg>