<svg id="Layer_1" data-name="Layer 1" xmlns="http://www.w3.org/2000/svg" viewBox="0 0 96 96"><defs><style>.cls-1{fill:#082865;}</style></defs><title>techstackicons</title><path class="cls-1" d="M92.19,46.61H84.44c3.22-7.31,2.87-13.22,1.66-17.22C84,22.25,77,14.51,66.53,14.51a24.32,24.32,0,0,0-8.44,1.57A44,44,0,0,0,48.35,21a42.18,42.18,0,0,0-9.74-4.87,24.7,24.7,0,0,0-8.44-1.57c-10.44,0-17.48,7.74-19.57,14.88C9.38,33.65,9,40.08,13,48.17H3.64a1.4,1.4,0,0,0,0,2.79h11a18.37,18.37,0,0,0,1.56,2.35C25.3,66.35,45,80.53,48.52,81.4v.09a.28.28,0,0,0,.18-.09H49v-.09c3-1.48,21.92-13.65,31.83-28.09a32.22,32.22,0,0,0,2.44-3.92h9.13a1.37,1.37,0,0,0,1.39-1.39A1.46,1.46,0,0,0,92.19,46.61ZM78.27,51.74c-9.22,13.48-26.18,24.35-29.84,26.7-3.74-2.35-20.61-13.3-29.92-26.7L18,51H30.78a1.42,1.42,0,0,0,1.3-.79l5.83-11.48L47,62.09a1.44,1.44,0,0,0,1.31.87h.08a1.38,1.38,0,0,0,1.31-1l8-27.4L62,48.35a1.41,1.41,0,0,0,1.13.95,1.51,1.51,0,0,0,1.4-.6l3.39-5,2.87,4.87A1.39,1.39,0,0,0,72,49.3h7.82C79.31,50.17,78.79,51,78.27,51.74Zm3.13-5.13H72.88l-3.57-6.09a1.39,1.39,0,0,0-1.22-.7,1.34,1.34,0,0,0-1.22.61l-3,4.35L59.13,29.21a1.6,1.6,0,0,0-1.39-1,1.48,1.48,0,0,0-1.39,1L48.26,57.13,39.48,34.69a1.32,1.32,0,0,0-1.22-.87,1.35,1.35,0,0,0-1.31.79L30.08,48.09H16.25c-3.48-6.35-4.43-12.44-2.87-17.92A17.77,17.77,0,0,1,30.26,17.38a23.46,23.46,0,0,1,7.48,1.39,42.33,42.33,0,0,1,9.83,5.05,1.32,1.32,0,0,0,1.73,0,38.05,38.05,0,0,1,9.83-5.05,21.23,21.23,0,0,1,7.48-1.39c9,0,15,6.61,16.88,12.79C85,35.21,84.18,40.78,81.4,46.61Z"/><path class="cls-1" d="M48.52,81.74h-.25v-.15C44.15,80.29,25,66.39,16.05,53.45a20,20,0,0,1-1.51-2.24H3.64a1.64,1.64,0,0,1,0-3.28h9c-3.18-6.48-4-12.74-2.27-18.61,2.12-7.25,9.23-15.06,19.81-15.06a25.14,25.14,0,0,1,8.52,1.58,42.09,42.09,0,0,1,9.66,4.81A43.15,43.15,0,0,1,58,15.85a24.54,24.54,0,0,1,8.53-1.59c10.58,0,17.68,7.81,19.81,15.06,1.1,3.61,1.71,9.49-1.52,17h7.37A1.7,1.7,0,0,1,94,47.91a1.62,1.62,0,0,1-1.64,1.64h-9A33.42,33.42,0,0,1,81,53.37C70.89,68.08,52,80,49.21,81.47v.18h-.43A.51.51,0,0,1,48.52,81.74ZM3.64,48.42a1.15,1.15,0,0,0,0,2.29H14.83l.07.13a17.6,17.6,0,0,0,1.55,2.31c8.88,12.81,28.6,27.15,32.13,28h.14l.13-.06c2.23-1.08,21.5-13.1,31.74-28A33.74,33.74,0,0,0,83,49.19l.07-.13h9.28a1.14,1.14,0,0,0,1.14-1.15c0-.65-.68-1-1.31-1H84.06l.16-.35c3.34-7.58,2.73-13.46,1.64-17-2.07-7.08-9-14.7-19.33-14.7a24.25,24.25,0,0,0-8.36,1.55,43.71,43.71,0,0,0-9.68,4.84l-.14.1-.15-.1a41.56,41.56,0,0,0-9.68-4.84,24.43,24.43,0,0,0-8.35-1.55c-10.33,0-17.26,7.62-19.33,14.7-1.68,5.85-.86,12.11,2.42,18.6l.18.36ZM48.48,78.71l-.18-.06c-4.74-3-20.91-13.7-30-26.77l-.78-1.17H30.78a1.19,1.19,0,0,0,1.08-.65l6.08-12,.2.51L47.27,62a1.2,1.2,0,0,0,1.08.71h.09a1.14,1.14,0,0,0,1.06-.86l8.24-28.2,4.5,14.62a1.18,1.18,0,0,0,.94.79,1.25,1.25,0,0,0,1.15-.52l3.6-5.27L71,48.48a1.14,1.14,0,0,0,1,.58h8.26l-.22.37c-.53.87-1,1.67-1.57,2.43v0c-6,8.81-16.35,18.06-29.86,26.74Zm-30-27.5.26.39c8.94,12.87,24.83,23.47,29.71,26.55C61.87,69.5,72.09,60.33,78.06,51.6h0c.43-.65.88-1.32,1.32-2H72a1.62,1.62,0,0,1-1.43-.81L67.9,44.2l-3.17,4.64a1.75,1.75,0,0,1-1.64.71,1.67,1.67,0,0,1-1.32-1.12l-4-13L50,62a1.62,1.62,0,0,1-1.54,1.22h-.09a1.67,1.67,0,0,1-1.54-1L37.88,39.3l-5.58,11a1.68,1.68,0,0,1-1.52.92Zm29.84,6.7L39.24,34.78a1.07,1.07,0,0,0-1-.71,1.1,1.1,0,0,0-1.08.65L30.23,48.34H16.1L16,48.21c-3.51-6.42-4.49-12.51-2.89-18.11,1.85-6.25,8-13,17.12-13a23.53,23.53,0,0,1,7.56,1.41,43.56,43.56,0,0,1,9.64,4.91.91.91,0,0,0,.17.12h0l.06.06a1.08,1.08,0,0,0,1.43,0,38.5,38.5,0,0,1,9.9-5.09,21.31,21.31,0,0,1,7.56-1.41c9.13,0,15.27,6.72,17.12,13,1.47,5,.76,10.61-2.11,16.62l-.06.14H72.73L69.1,40.65a1.15,1.15,0,0,0-1-.58,1,1,0,0,0-1,.49l-3.26,4.79L58.9,29.29a1.38,1.38,0,0,0-1.19-.87,1.23,1.23,0,0,0-1.12.86Zm-10-24.34a1.57,1.57,0,0,1,1.45,1l8.52,21.75,7.88-27.22a1.75,1.75,0,0,1,1.63-1.22,1.88,1.88,0,0,1,1.63,1.22L64,44.21l2.67-3.92a1.56,1.56,0,0,1,1.42-.71,1.62,1.62,0,0,1,1.43.81l3.5,6h8.22c2.76-5.84,3.43-11.26,2-16.12-1.8-6.07-7.77-12.61-16.64-12.61A20.63,20.63,0,0,0,59.22,19a38.18,38.18,0,0,0-9.76,5,1.56,1.56,0,0,1-2,0l-.25-.17A42.78,42.78,0,0,0,37.65,19a23,23,0,0,0-7.39-1.38c-8.87,0-14.84,6.54-16.64,12.61-1.55,5.43-.61,11.35,2.78,17.6H29.93l6.8-13.35A1.59,1.59,0,0,1,38.26,33.57Z"/></svg>