<svg id="Layer_1" data-name="Layer 1" xmlns="http://www.w3.org/2000/svg" viewBox="0 0 96 96"><defs><style>.cls-1{fill:#082865;}</style></defs><title>techstackicons</title><path class="cls-1" d="M19.89,11.85a4,4,0,1,0,4,4A4,4,0,0,0,19.89,11.85Zm0,5.36a1.34,1.34,0,1,1,1.34-1.34A1.34,1.34,0,0,1,19.89,17.21Z"/><path class="cls-1" d="M19.89,22.56a4,4,0,1,0,4,4A4,4,0,0,0,19.89,22.56Zm0,5.36a1.34,1.34,0,1,1,1.34-1.34A1.34,1.34,0,0,1,19.89,27.92Z"/><path class="cls-1" d="M48,11.85a4,4,0,1,0,4,4A4,4,0,0,0,48,11.85Zm0,5.36a1.34,1.34,0,1,1,1.34-1.34A1.34,1.34,0,0,1,48,17.21Z"/><path class="cls-1" d="M48,22.56a4,4,0,1,0,4,4A4,4,0,0,0,48,22.56Zm0,5.36a1.34,1.34,0,1,1,1.34-1.34A1.34,1.34,0,0,1,48,27.92Z"/><path class="cls-1" d="M84.15,6.5H68.08a1.34,1.34,0,0,0-1.34,1.34V34.61A1.34,1.34,0,0,0,68.08,36h6.69V46.66H60.05A1.34,1.34,0,0,0,58.71,48v9.38l-9.45-3.64a1.23,1.23,0,0,0,.08-.38V36H56a1.34,1.34,0,0,0,1.34-1.34V7.84A1.34,1.34,0,0,0,56,6.5H40a1.34,1.34,0,0,0-1.34,1.34V34.61A1.34,1.34,0,0,0,40,36h6.69V53.36a1.23,1.23,0,0,0,.08.38l-9.45,3.64V48A1.34,1.34,0,0,0,36,46.66H21.23V36h6.69a1.34,1.34,0,0,0,1.34-1.34V7.84A1.34,1.34,0,0,0,27.92,6.5H11.85a1.34,1.34,0,0,0-1.33,1.34V34.61A1.34,1.34,0,0,0,11.85,36h6.7V48a1.34,1.34,0,0,0,1.34,1.34H34.61v9.07l-4.49,1.73-.32.17a1.34,1.34,0,0,0-.54,1.08V82.81a1.34,1.34,0,0,0,.94,1.28l17.38,5.34h0a1.33,1.33,0,0,0,.79,0h0l17.38-5.34a1.33,1.33,0,0,0,.95-1.28V61.39a1.33,1.33,0,0,0-.54-1.07,2,2,0,0,0-.32-.18l-4.49-1.73V49.34H76.11A1.34,1.34,0,0,0,77.45,48V36h6.7a1.34,1.34,0,0,0,1.33-1.34V7.84A1.34,1.34,0,0,0,84.15,6.5ZM41.31,33.27V9.18H54.69V33.27Zm-28.12,0V9.18H26.58V33.27ZM46.66,86.35,31.94,81.82V63.2l14.72,4.53Zm1.34-21L34.69,61.25,48,56.13l13.31,5.12ZM64.06,81.82,49.34,86.35V67.73L64.06,63.2ZM82.81,33.27H69.42V9.18H82.81Z"/><path class="cls-1" d="M76.11,19.89a4,4,0,1,0-4-4A4,4,0,0,0,76.11,19.89Zm0-5.36a1.34,1.34,0,1,1-1.34,1.34A1.34,1.34,0,0,1,76.11,14.53Z"/><path class="cls-1" d="M76.11,30.6a4,4,0,1,0-4-4A4,4,0,0,0,76.11,30.6Zm0-5.36a1.34,1.34,0,1,1-1.34,1.34A1.34,1.34,0,0,1,76.11,25.24Z"/></svg>