<svg id="Layer_1" data-name="Layer 1" xmlns="http://www.w3.org/2000/svg" viewBox="0 0 96 96"><defs><style>.cls-1{fill:#082865;}</style></defs><title>techstackicons</title><path class="cls-1" d="M20.24,32.14a1.48,1.48,0,1,0,2.06,2.13l0,0,1.18-1.18,4.14,4.14a1.48,1.48,0,0,0,2.1,0l4.14-4.14,1.18,1.18a1.49,1.49,0,0,0,2.1-2.1L36,31l4.15-4.14a1.48,1.48,0,0,0,0-2.1L36,20.57l1.18-1.17a1.49,1.49,0,0,0-2.1-2.1L33.9,18.48l-4.14-4.15a1.48,1.48,0,0,0-2.1,0l-4.14,4.15L22.34,17.3a1.49,1.49,0,0,0-2.1,2.1l1.18,1.17-4.15,4.15a1.48,1.48,0,0,0,0,2.1L21.42,31Zm8.47-14.66L37,25.77l-8.29,8.29-8.29-8.29Z"/><path class="cls-1" d="M92.52,49.51H86.58V31.7a1.48,1.48,0,0,0-1.48-1.48H44.4a16.32,16.32,0,1,0-31.38,0H9.42A7.42,7.42,0,0,0,2,37.64V79.19a7.43,7.43,0,0,0,7.42,7.42H85.1a1.49,1.49,0,0,0,1.48-1.49V67.32h5.94A1.49,1.49,0,0,0,94,65.83V51A1.48,1.48,0,0,0,92.52,49.51ZM28.71,12.41A13.36,13.36,0,1,1,15.35,25.77,13.35,13.35,0,0,1,28.71,12.41ZM5,37.64a4.45,4.45,0,0,1,4.45-4.45h4.77a16.29,16.29,0,0,0,29,0H83.61V43.57H5Zm78.64,46H9.42A4.45,4.45,0,0,1,5,79.19V74.74H83.61Zm0-11.87H5V46.54H83.61v3H73.23A4.46,4.46,0,0,0,68.77,54v8.9a4.46,4.46,0,0,0,4.46,4.46H83.61ZM91,64.35H73.23a1.49,1.49,0,0,1-1.49-1.49V54a1.49,1.49,0,0,1,1.49-1.48H91Z"/><path class="cls-1" d="M77.68,54a4.45,4.45,0,1,0,4.45,4.45A4.45,4.45,0,0,0,77.68,54Zm0,5.94a1.49,1.49,0,1,1,0-3,1.49,1.49,0,0,1,0,3Z"/></svg>