<svg id="Layer_1" data-name="Layer 1" xmlns="http://www.w3.org/2000/svg" viewBox="0 0 96 96"><defs><style>.cls-1{fill:#082865;}</style></defs><title>techstackicons</title><path class="cls-1" d="M89.55,16.1H6.45A4.45,4.45,0,0,0,2,20.55V65.06a4.46,4.46,0,0,0,4.45,4.46H37.2l-.74,3H31.68A1.49,1.49,0,0,0,30.19,74v4.45a1.49,1.49,0,0,0,1.49,1.48H64.32a1.49,1.49,0,0,0,1.49-1.48V74a1.49,1.49,0,0,0-1.49-1.49H59.54l-.74-3H89.55A4.46,4.46,0,0,0,94,65.06V20.55A4.45,4.45,0,0,0,89.55,16.1ZM5,20.55a1.49,1.49,0,0,1,1.48-1.49h83.1A1.49,1.49,0,0,1,91,20.55v37.1H5ZM62.84,76.94H33.16V75.45H62.84Zm-6.35-4.46h-17l.75-3H55.74ZM91,65.06a1.49,1.49,0,0,1-1.48,1.49H6.45A1.49,1.49,0,0,1,5,65.06V60.61H91Z"/><path class="cls-1" d="M48.83,28.22a1.51,1.51,0,0,0-.28-.15L33.71,22.14a1.49,1.49,0,0,0-1.1,0L17.77,28.07a1.51,1.51,0,0,0-.28.15,1.49,1.49,0,0,0-.65,1.23V47.26a1.49,1.49,0,0,0,.93,1.38l14.84,5.93h0a1.33,1.33,0,0,0,1,0h.05l14.84-5.93a1.49,1.49,0,0,0,.93-1.38V29.45A1.49,1.49,0,0,0,48.83,28.22ZM33.16,25.11,44,29.45,33.16,33.79,22.32,29.45ZM19.81,31.64l11.87,4.75V51L19.81,46.25ZM46.52,46.25,34.65,51V36.39l11.87-4.75Z"/><path class="cls-1" d="M60.76,32.72a1.49,1.49,0,0,0-2.08.29h0L54.23,39a1.5,1.5,0,0,0,0,1.78l4.45,5.93a1.48,1.48,0,0,0,2.38-1.77h0l-3.79-5,3.79-5.05a1.47,1.47,0,0,0-.3-2.07Z"/><path class="cls-1" d="M75.9,33a1.49,1.49,0,0,0-2.08-.29,1.47,1.47,0,0,0-.3,2.07l3.79,5.05-3.79,5a1.49,1.49,0,0,0,2.38,1.79h0l4.45-5.93a1.5,1.5,0,0,0,0-1.78Z"/><path class="cls-1" d="M70.92,32.58a1.48,1.48,0,0,0-2,.66h0L63,45.11a1.49,1.49,0,0,0,2.66,1.33l5.94-11.87a1.48,1.48,0,0,0-.67-2Z"/></svg>