<svg id="Layer_1" data-name="Layer 1" xmlns="http://www.w3.org/2000/svg" viewBox="0 0 96 96"><defs><style>.cls-1{fill:#082865;}</style></defs><title>techstackicons</title><path class="cls-1" d="M91,65.83H84.41L73.1,47.45a29.66,29.66,0,1,0-50.2,0L11.59,65.83H5a3,3,0,0,0-3,3V86.59a3,3,0,0,0,3,3h8.9V91H12.42a1.49,1.49,0,0,0,0,3H27.24a1.49,1.49,0,1,0,0-3H25.76V89.55h8.9a3,3,0,0,0,3-3V79.17H58.38v7.42a3,3,0,0,0,3,3h8.9V91H68.76a1.49,1.49,0,1,0,0,3H83.58a1.49,1.49,0,0,0,0-3H82.1V89.55H91a3,3,0,0,0,3-3V68.8A3,3,0,0,0,91,65.83Zm0,16.31H61.34V68.8H91ZM48,5A26.69,26.69,0,1,1,21.31,31.73,26.69,26.69,0,0,1,48,5ZM5,68.8H34.66V82.14H5ZM22.8,91H16.87V89.55H22.8ZM5,86.59V85.1H34.66v1.49ZM37.62,76.21V68.8a3,3,0,0,0-3-3H15.07l9.69-15.74a29.57,29.57,0,0,0,41.51,5,29.22,29.22,0,0,0,5-5l9.69,15.74H61.34a3,3,0,0,0-3,3v7.41ZM79.13,91H73.2V89.55h5.93ZM61.34,86.59V85.1H91v1.49Z"/><path class="cls-1" d="M68.15,18.68l-.34-.19L48.53,11.08a1.49,1.49,0,0,0-1.06,0L28.19,18.49l-.34.19a1.51,1.51,0,0,0-.61,1.19V43.59A1.49,1.49,0,0,0,28.29,45l19.25,5.92h0a1.44,1.44,0,0,0,.87,0h0L67.7,45a1.49,1.49,0,0,0,1.06-1.42V19.87a1.51,1.51,0,0,0-.61-1.19ZM48,14.05l14.74,5.67L48,24.25,33.26,19.72ZM30.21,21.88l16.31,5V47.51l-16.31-5ZM65.79,42.5l-16.31,5V26.9l16.31-5Z"/></svg>