<svg id="Layer_1" data-name="Layer 1" xmlns="http://www.w3.org/2000/svg" viewBox="0 0 96 96"><defs><style>.cls-1{fill:#082865;}</style></defs><title>techstackicons</title><path class="cls-1" d="M87.19,7H8.81A1.81,1.81,0,0,0,7,8.81V87.19A1.81,1.81,0,0,0,8.81,89H87.19A1.81,1.81,0,0,0,89,87.19V8.81A1.81,1.81,0,0,0,87.19,7ZM41.58,85.39H26.75V79.53l.33-.12a6.42,6.42,0,0,0,4.28-6v-2.8H37v2.8a6.42,6.42,0,0,0,4.28,6l.33.12Zm-8-39.2A2.19,2.19,0,0,1,31.36,44V38.28H37V44a2.19,2.19,0,0,1-2.18,2.18ZM63.42,56.9a1.82,1.82,0,0,0-1.09,1.66V85.39H56.72V58.56a1.81,1.81,0,0,0-1.08-1.66,9.72,9.72,0,0,1-3.4-15.32l.87-1V48a1.8,1.8,0,0,0,1,1.61l4.61,2.3a1.8,1.8,0,0,0,1.63,0L65,49.6a1.78,1.78,0,0,0,1-1.6V40.58l.88,1a9.74,9.74,0,0,1-3.4,15.32Zm22,28.49H65.94V59.68l.25-.15a13.33,13.33,0,0,0-1.31-23.75,1.8,1.8,0,0,0-2.39.9,1.89,1.89,0,0,0-.16.74V47l-2.8,1.4L56.72,47V37.42a1.79,1.79,0,0,0-1.81-1.8,1.69,1.69,0,0,0-.73.16,13.33,13.33,0,0,0-1.32,23.75l.25.15V85.39H45.19V78a1.81,1.81,0,0,0-1.8-1.8,2.83,2.83,0,0,1-2-.87,2.65,2.65,0,0,1-.81-2V70.56h.5a1.81,1.81,0,0,0,0-3.62H36V49.67l.37-.1A5.81,5.81,0,0,0,40.58,44V36.47a1.81,1.81,0,0,0-1.8-1.8H29.56a1.81,1.81,0,0,0-1.81,1.8V44A5.82,5.82,0,0,0,32,49.57l.36.1V66.94H27.25a1.81,1.81,0,1,0,0,3.62h.5v2.8a2.81,2.81,0,0,1-2.81,2.81,1.81,1.81,0,0,0-1.8,1.8v7.42H10.61V29.06H41.08a1.79,1.79,0,0,0,1.29-.53L51,19.83H85.39Zm0-69.17H50.31a1.88,1.88,0,0,0-1.29.53l-8.67,8.69H10.61V10.61H85.39Z"/></svg>