<svg id="Layer_1" data-name="Layer 1" xmlns="http://www.w3.org/2000/svg" viewBox="0 0 96 96"><defs><style>.cls-1{fill:#082865;}</style></defs><title>techstackicons</title><g id="Distributed-5"><path class="cls-1" d="M43.55,80.64A4.45,4.45,0,1,0,48,76.19,4.46,4.46,0,0,0,43.55,80.64Zm5.93,0A1.48,1.48,0,1,1,48,79.16,1.49,1.49,0,0,1,49.48,80.64Z"/><path class="cls-1" d="M48,85.22a4.58,4.58,0,1,1,4.58-4.58A4.59,4.59,0,0,1,48,85.22Zm0-8.9a4.33,4.33,0,1,0,4.33,4.32A4.33,4.33,0,0,0,48,76.32Zm0,5.93a1.61,1.61,0,1,1,1.61-1.61A1.61,1.61,0,0,1,48,82.25Zm0-3a1.36,1.36,0,1,0,1.36,1.35A1.35,1.35,0,0,0,48,79.29Z"/><path class="cls-1" d="M10.9,80.64a4.45,4.45,0,1,0,4.45-4.45A4.46,4.46,0,0,0,10.9,80.64Zm5.94,0a1.49,1.49,0,1,1-3,0,1.49,1.49,0,0,1,3,0Z"/><path class="cls-1" d="M15.35,85.22a4.58,4.58,0,1,1,4.58-4.58A4.58,4.58,0,0,1,15.35,85.22Zm0-8.9a4.33,4.33,0,1,0,4.33,4.32A4.33,4.33,0,0,0,15.35,76.32Zm0,5.93A1.61,1.61,0,1,1,17,80.64,1.62,1.62,0,0,1,15.35,82.25Zm0-3a1.36,1.36,0,1,0,1.36,1.35A1.35,1.35,0,0,0,15.35,79.29Z"/><path class="cls-1" d="M92.52,67.29H82.13V59.87h1.49a1.49,1.49,0,0,0,1.48-1.49V52.45A1.49,1.49,0,0,0,83.62,51H77.68a1.49,1.49,0,0,0-1.48,1.49v1.48H52.45V52.45A1.49,1.49,0,0,0,51,51H49.48V41.67l18.25-5.61a1.49,1.49,0,0,0,1-1.42V10.9a1.51,1.51,0,0,0-.61-1.19,2,2,0,0,0-.35-.19L48.53,2.1a1.49,1.49,0,0,0-1.06,0L28.18,9.52a2,2,0,0,0-.35.19,1.51,1.51,0,0,0-.61,1.19V34.64a1.49,1.49,0,0,0,1.05,1.42l18.25,5.61V51H45a1.49,1.49,0,0,0-1.48,1.49v1.48H19.8V52.45A1.49,1.49,0,0,0,18.32,51H12.38a1.49,1.49,0,0,0-1.48,1.49v5.93a1.49,1.49,0,0,0,1.48,1.49h1.49v7.42H3.48A1.48,1.48,0,0,0,2,68.77V92.52A1.48,1.48,0,0,0,3.48,94H27.22a1.49,1.49,0,0,0,1.49-1.48V68.77a1.49,1.49,0,0,0-1.49-1.48H16.84V59.87h1.48a1.49,1.49,0,0,0,1.48-1.49V56.9H43.55v1.48A1.49,1.49,0,0,0,45,59.87h1.49v7.42H36.13a1.49,1.49,0,0,0-1.49,1.48V92.52A1.49,1.49,0,0,0,36.13,94H59.87a1.49,1.49,0,0,0,1.49-1.48V68.77a1.49,1.49,0,0,0-1.49-1.48H49.48V59.87H51a1.49,1.49,0,0,0,1.48-1.49V56.9H76.2v1.48a1.49,1.49,0,0,0,1.48,1.49h1.48v7.42H68.78a1.49,1.49,0,0,0-1.49,1.48V92.52A1.49,1.49,0,0,0,68.78,94H92.52A1.48,1.48,0,0,0,94,92.52V68.77A1.48,1.48,0,0,0,92.52,67.29ZM65.81,33.54l-16.33,5V17.93l16.33-5ZM48,5.07l14.75,5.68L48,15.28,33.25,10.75ZM30.19,12.91l16.33,5V38.57l-16.33-5ZM25.74,91H5V70.26H25.74ZM16.84,56.9h-3v-3h3ZM58.39,91H37.61V70.26H58.39ZM49.48,56.9h-3v-3h3Zm29.68-3h3v3h-3ZM91,91H70.26V70.26H91Z"/><path class="cls-1" d="M92.52,94.13H68.78a1.62,1.62,0,0,1-1.61-1.61V68.77a1.62,1.62,0,0,1,1.61-1.61H79V60H77.68a1.61,1.61,0,0,1-1.61-1.61V57H52.58v1.35A1.62,1.62,0,0,1,51,60H49.61v7.17H59.87a1.62,1.62,0,0,1,1.61,1.61V92.52a1.62,1.62,0,0,1-1.61,1.61H36.13a1.62,1.62,0,0,1-1.61-1.61V68.77a1.62,1.62,0,0,1,1.61-1.61H46.39V60H45a1.62,1.62,0,0,1-1.61-1.61V57H19.93v1.35A1.61,1.61,0,0,1,18.32,60H17v7.17H27.22a1.62,1.62,0,0,1,1.61,1.61V92.52a1.62,1.62,0,0,1-1.61,1.61H3.48a1.62,1.62,0,0,1-1.61-1.61V68.77a1.62,1.62,0,0,1,1.61-1.61H13.74V60H12.38a1.61,1.61,0,0,1-1.6-1.61V52.45a1.61,1.61,0,0,1,1.6-1.61h5.94a1.61,1.61,0,0,1,1.61,1.61v1.36H43.42V52.45A1.62,1.62,0,0,1,45,50.84h1.36V41.76L28.24,36.18a1.61,1.61,0,0,1-1.14-1.54V10.9a1.62,1.62,0,0,1,.65-1.29,3.47,3.47,0,0,1,.37-.21L47.42,2a1.65,1.65,0,0,1,1.16,0L67.87,9.4a2.22,2.22,0,0,1,.37.21,1.61,1.61,0,0,1,.66,1.29V34.64a1.61,1.61,0,0,1-1.14,1.54L49.61,41.76v9.08H51a1.62,1.62,0,0,1,1.61,1.61v1.36H76.07V52.45a1.61,1.61,0,0,1,1.61-1.61h5.94a1.61,1.61,0,0,1,1.6,1.61v5.93A1.61,1.61,0,0,1,83.62,60H82.26v7.17H92.52a1.62,1.62,0,0,1,1.61,1.61V92.52A1.62,1.62,0,0,1,92.52,94.13ZM68.78,67.41a1.36,1.36,0,0,0-1.36,1.36V92.52a1.36,1.36,0,0,0,1.36,1.36H92.52a1.36,1.36,0,0,0,1.36-1.36V68.77a1.36,1.36,0,0,0-1.36-1.36H82V59.74h1.61A1.36,1.36,0,0,0,85,58.38V52.45a1.36,1.36,0,0,0-1.35-1.36H77.68a1.36,1.36,0,0,0-1.36,1.36v1.61h-24V52.45A1.36,1.36,0,0,0,51,51.09H49.36V41.58l.09,0,18.24-5.61a1.35,1.35,0,0,0,1-1.3V10.9a1.36,1.36,0,0,0-.55-1.09,2.57,2.57,0,0,0-.33-.18L48.49,2.21a1.5,1.5,0,0,0-1,0L28.22,9.63a2.07,2.07,0,0,0-.32.19,1.33,1.33,0,0,0-.55,1.08V34.64a1.35,1.35,0,0,0,1,1.3l18.33,5.64v9.51H45a1.36,1.36,0,0,0-1.36,1.36v1.61h-24V52.45a1.36,1.36,0,0,0-1.36-1.36H12.38A1.36,1.36,0,0,0,11,52.45v5.93a1.36,1.36,0,0,0,1.35,1.36H14v7.67H3.48a1.36,1.36,0,0,0-1.36,1.36V92.52a1.36,1.36,0,0,0,1.36,1.36H27.22a1.36,1.36,0,0,0,1.36-1.36V68.77a1.36,1.36,0,0,0-1.36-1.36H16.71V59.74h1.61a1.36,1.36,0,0,0,1.36-1.36v-1.6h24v1.6A1.36,1.36,0,0,0,45,59.74h1.61v7.67H36.13a1.36,1.36,0,0,0-1.36,1.36V92.52a1.36,1.36,0,0,0,1.36,1.36H59.87a1.36,1.36,0,0,0,1.36-1.36V68.77a1.36,1.36,0,0,0-1.36-1.36H49.36V59.74H51a1.36,1.36,0,0,0,1.36-1.36v-1.6h24v1.6a1.36,1.36,0,0,0,1.36,1.36h1.61v7.67ZM91.16,91.16h-21v-21h21Zm-20.78-.25H90.91V70.38H70.38Zm-11.87.25h-21v-21h21Zm-20.77-.25H58.26V70.38H37.74Zm-11.87.25h-21v-21h21ZM5.09,90.91H25.62V70.38H5.09ZM82.26,57H79V53.81h3.22Zm-3-.25H82V54.06H79.29ZM49.61,57H46.39V53.81h3.22Zm-3-.25h2.72V54.06H46.64ZM17,57H13.74V53.81H17Zm-3-.25h2.72V54.06H14Zm35.37-18V17.84l.09,0,16.48-5.07v20.9l-.09,0ZM49.61,18V38.4l16.07-4.95V13.08Zm-3,20.72-16.57-5.1V12.74l16.57,5.1ZM30.32,33.45,46.39,38.4V18L30.32,13.08ZM48,15.41,32.87,10.76,48,4.93l0,0,15.09,5.81ZM33.63,10.74,48,15.15l14.37-4.41L48,5.2Z"/><path class="cls-1" d="M76.2,80.64a4.45,4.45,0,1,0,4.45-4.45A4.46,4.46,0,0,0,76.2,80.64Zm5.93,0a1.49,1.49,0,1,1-1.48-1.48A1.49,1.49,0,0,1,82.13,80.64Z"/><path class="cls-1" d="M80.65,85.22a4.58,4.58,0,1,1,4.57-4.58A4.58,4.58,0,0,1,80.65,85.22Zm0-8.9A4.33,4.33,0,1,0,85,80.64,4.33,4.33,0,0,0,80.65,76.32Zm0,5.93a1.61,1.61,0,1,1,1.61-1.61A1.61,1.61,0,0,1,80.65,82.25Zm0-3A1.36,1.36,0,1,0,82,80.64,1.35,1.35,0,0,0,80.65,79.29Z"/></g></svg>