<svg xmlns="http://www.w3.org/2000/svg" width="264" height="264" viewBox="0 0 264 264">
  <g id="travel_" data-name="travel " transform="translate(-12112 -7627)">
    <g id="Group_1479" data-name="Group 1479" transform="translate(14 20)">
      <path id="Path_3463" data-name="Path 3463" d="M6.067,44A4.066,4.066,0,0,0,2,48.067v65.066A4.065,4.065,0,0,0,6.067,117.2h146.4a4.065,4.065,0,0,0,4.067-4.067V48.067ZM148.4,109.066Z" transform="translate(12106 7743.797)" fill="none" stroke="#010920" stroke-width="6"/>
      <path id="Path_3464" data-name="Path 3464" d="M113.133,56.4h-12.2V36.067A4.065,4.065,0,0,0,96.866,32H64.333a4.066,4.066,0,0,0-4.067,4.067V56.4h-12.2A4.066,4.066,0,0,0,44,60.466v73.2a4.065,4.065,0,0,0,4.067,4.067h4.067v12.2A4.065,4.065,0,0,0,56.2,154H72.466a4.066,4.066,0,0,0,4.067-4.067v-12.2h8.133v12.2A4.065,4.065,0,0,0,88.733,154H105a4.065,4.065,0,0,0,4.067-4.067v-12.2h4.067a4.065,4.065,0,0,0,4.067-4.067C117.2,58.218,115.378,56.4,113.133,56.4ZM68.4,40.133Z" transform="translate(12234.795 7707.001)" fill="none" stroke="#010920" stroke-width="6"/>
      <path id="Path_3465" data-name="Path 3465" d="M124.1,63.518l30.174-30.174a4.049,4.049,0,0,0,1.191-2.875V6.068A4.065,4.065,0,0,0,151.4,2H127a4.056,4.056,0,0,0-2.875,1.192L93.95,33.368,47.924,2.685a4.06,4.06,0,0,0-5.132.508l-12.2,12.2a4.062,4.062,0,0,0,0,5.75L68.631,59.183,32.406,102.651,19.018,95.957a4.07,4.07,0,0,0-4.693.765l-8.133,8.133a4.062,4.062,0,0,0,0,5.75l40.666,40.666a4.06,4.06,0,0,0,5.75,0l8.133-8.133a4.073,4.073,0,0,0,.765-4.693l-6.694-13.387L98.285,88.836l38.039,38.039a4.062,4.062,0,0,0,5.75,0l12.2-12.2a4.065,4.065,0,0,0,.508-5.132Z" transform="translate(12115.203 7615)" fill="none" stroke="#010920" stroke-width="6"/>
      <path id="Path_3466" data-name="Path 3466" d="M16.233,40.466a15.859,15.859,0,0,0,3.664-.427,19.346,19.346,0,0,0,12.6,4.494,19.346,19.346,0,0,0,12.6-4.494,15.859,15.859,0,0,0,3.664.427c7.849,0,14.233-5.474,14.233-12.2s-6.385-12.2-14.233-12.2a15.859,15.859,0,0,0-3.664.427A19.346,19.346,0,0,0,32.5,12a19.346,19.346,0,0,0-12.6,4.494,15.859,15.859,0,0,0-3.664-.427C8.385,16.067,2,21.54,2,28.266S8.385,40.466,16.233,40.466Z" transform="translate(12106 7645.672)" fill="none" stroke="#010920" stroke-width="6"/>
      <path id="Path_3467" data-name="Path 3467" d="M93.766,6.067a15.859,15.859,0,0,0-3.664.427,19.919,19.919,0,0,0-25.2,0,15.859,15.859,0,0,0-3.664-.427C53.385,6.067,47,11.54,47,18.267s6.385,12.2,14.233,12.2a15.859,15.859,0,0,0,3.664-.427,19.919,19.919,0,0,0,25.2,0,15.859,15.859,0,0,0,3.664.427c7.849,0,14.233-5.474,14.233-12.2S101.615,6.067,93.766,6.067Z" transform="translate(12243.998 7615.002)" fill="none" stroke="#010920" stroke-width="6"/>
      <path id="Path_3468" data-name="Path 3468" d="M58.9,42.039a19.919,19.919,0,0,0,25.2,0,15.859,15.859,0,0,0,3.664.427c7.849,0,14.233-5.474,14.233-12.2s-6.385-12.2-14.233-12.2a15.859,15.859,0,0,0-3.664.427,19.919,19.919,0,0,0-25.2,0,15.859,15.859,0,0,0-3.664-.427C47.385,18.067,41,23.54,41,30.266s6.385,12.2,14.233,12.2A15.859,15.859,0,0,0,58.9,42.039Z" transform="translate(12225.591 7651.798)" fill="none" stroke="#010920" stroke-width="6"/>
      <rect id="Rectangle_1382" data-name="Rectangle 1382" width="8.318" height="8.318" transform="translate(12205.05 7812.936)" fill="none" stroke="#010920" stroke-width="3"/>
      <rect id="Rectangle_1383" data-name="Rectangle 1383" width="8.318" height="10.167" transform="translate(12205.05 7829.578)" fill="none" stroke="#010920" stroke-width="3"/>
      <rect id="Rectangle_1384" data-name="Rectangle 1384" width="56.379" height="9.242" transform="translate(12129.261 7807.395)" fill="none" stroke="#010920" stroke-width="3"/>
      <rect id="Rectangle_1385" data-name="Rectangle 1385" width="64.697" height="10.167" transform="translate(12129.261 7829.578)" fill="none" stroke="#010920" stroke-width="3"/>
      <path id="Path_3469" data-name="Path 3469" d="M34.067,74.4H50.333A4.065,4.065,0,0,0,54.4,70.333V54.067A4.066,4.066,0,0,0,50.333,50H34.067A4.065,4.065,0,0,0,30,54.067V70.333A4.065,4.065,0,0,0,34.067,74.4Z" transform="translate(12191.862 7762.203)" fill="none" stroke="#010920" stroke-width="3"/>
    </g>
    <rect id="Rectangle_1386" data-name="Rectangle 1386" width="264" height="264" transform="translate(12112 7627)" fill="none"/>
  </g>
</svg>
