<svg xmlns="http://www.w3.org/2000/svg" width="264" height="264" viewBox="0 0 264 264">
  <g id="validator" transform="translate(-11438 -8021)">
    <g id="Group_1485" data-name="Group 1485" transform="translate(11436 8022)">
      <g id="Group_1484" data-name="Group 1484" transform="translate(7 9)">
        <path id="Path_3490" data-name="Path 3490" d="M256.083,9h-244A5.085,5.085,0,0,0,7,14.083V186.917A5.082,5.082,0,0,0,12.083,192H129v50.833H83.25a5.083,5.083,0,1,0,0,10.167H184.917a5.083,5.083,0,1,0,0-10.167h-45.75V192H256.083a5.079,5.079,0,0,0,5.083-5.083V14.083A5.082,5.082,0,0,0,256.083,9ZM251,181.833H17.167V19.167H251Z" transform="translate(-7 -9)" fill="#091127"/>
        <path id="Path_3491" data-name="Path 3491" d="M44.824,70.345a5.083,5.083,0,0,0,7.188-7.188L35.272,46.418,52.012,29.678a5.083,5.083,0,0,0-7.188-7.188L24.49,42.824a5.078,5.078,0,0,0,0,7.188Z" transform="translate(58.332 39.999)" fill="#091127"/>
        <path id="Path_3492" data-name="Path 3492" d="M36.49,70.345a5.081,5.081,0,0,0,7.188,0L64.012,50.012a5.078,5.078,0,0,0,0-7.188L43.678,22.49a5.083,5.083,0,0,0-7.188,7.188L53.23,46.418,36.49,63.157A5.078,5.078,0,0,0,36.49,70.345Z" transform="translate(107.332 39.999)" fill="#091127"/>
        <path id="Path_3493" data-name="Path 3493" d="M32.478,89.913a5.089,5.089,0,0,0,6.43-3.218l20.333-61A5.083,5.083,0,0,0,49.6,22.478l-20.333,61A5.081,5.081,0,0,0,32.478,89.913Z" transform="translate(82.833 31.827)" fill="#091127"/>
        <path id="Path_3494" data-name="Path 3494" d="M74.583,98.167A35.583,35.583,0,1,0,39,62.583,35.629,35.629,0,0,0,74.583,98.167Zm0-61A25.417,25.417,0,1,1,49.167,62.583,25.446,25.446,0,0,1,74.583,37.167Z" transform="translate(123.667 64.5)" fill="#091127"/>
        <path id="Path_3495" data-name="Path 3495" d="M54.661,60.014A5.075,5.075,0,0,0,58.255,61.5a4.922,4.922,0,0,0,.813-.066A5.09,5.09,0,0,0,62.8,58.692L72.966,38.359a5.084,5.084,0,1,0-9.094-4.55L56.857,47.834l-5.18-5.18a5.083,5.083,0,1,0-7.188,7.188Z" transform="translate(139.995 80.83)" fill="#091127"/>
      </g>
    </g>
    <rect id="Rectangle_1389" data-name="Rectangle 1389" width="264" height="264" transform="translate(11438 8021)" fill="none"/>
  </g>
</svg>
