<svg xmlns="http://www.w3.org/2000/svg" width="111" height="112" viewBox="0 0 111 112">
  <g id="cir3" transform="translate(-1484 -11181)">
    <path id="Path_236" data-name="Path 236" d="M7.176,12.9H9.389c5.569,0,11.977,1.221,11.977,8.239,0,5.035-4.2,8.468-9.078,8.468s-7.629-2.594-8.773-7.018L-6.25,25.178c2.365,9,9.688,12.663,18.538,12.663C21.9,37.841,30.52,32.2,30.52,21.9c0-6.637-3.662-12.129-10.527-13.121V8.624A12.21,12.21,0,0,0,29.223-3.582C29.223-13.118,21.213-18,11.906-18,3.972-18-3.046-14.415-5.411-6.4L4.277-3.811a8.439,8.439,0,0,1,8.086-5.95c4.5,0,7.7,2.975,7.7,7.095,0,6.561-5.264,7.323-10.527,7.323H7.176Z" transform="translate(1527.25 11227)" fill="#02284e"/>
    <g id="Ellipse_31" data-name="Ellipse 31" transform="translate(1484 11181)" fill="none" stroke="#02284e" stroke-width="4">
      <ellipse cx="55.5" cy="56" rx="55.5" ry="56" stroke="none"/>
      <ellipse cx="55.5" cy="56" rx="53.5" ry="54" fill="none"/>
    </g>
  </g>
</svg>
