<svg xmlns="http://www.w3.org/2000/svg" xmlns:xlink="http://www.w3.org/1999/xlink" width="120.999" height="110" viewBox="0 0 120.999 110">
  <defs>
    <clipPath id="clip-path">
      <rect width="120.999" height="110" fill="none"/>
    </clipPath>
  </defs>
  <g id="_24_grid_edit-shape" data-name="24 / grid / edit-shape" clip-path="url(#clip-path)">
    <path id="icon" d="M104.5,110A16.532,16.532,0,0,1,88.938,99H32.061A16.5,16.5,0,1,1,11,77.939V32.061A16.5,16.5,0,1,1,32.061,11H88.938A16.5,16.5,0,1,1,110,32.061V77.939A16.5,16.5,0,0,1,104.5,110Zm0-22a5.5,5.5,0,1,0,5.5,5.5A5.506,5.506,0,0,0,104.5,88Zm-88,0A5.5,5.5,0,1,0,22,93.5,5.506,5.506,0,0,0,16.5,88ZM32.062,22A16.434,16.434,0,0,1,22,32.061V77.939A16.666,16.666,0,0,1,32.061,88H88.938A16.672,16.672,0,0,1,99,77.939V32.061A16.665,16.665,0,0,1,88.938,22H32.062ZM104.5,11a5.5,5.5,0,1,0,5.5,5.5A5.506,5.506,0,0,0,104.5,11Zm-88,0A5.5,5.5,0,1,0,22,16.5,5.506,5.506,0,0,0,16.5,11Z" transform="translate(0 0)" fill="#082865"/>
  </g>
</svg>
