<svg id="blockchain-client" xmlns="http://www.w3.org/2000/svg" width="48" height="48" viewBox="0 0 48 48">
  <path id="Path_3021" data-name="Path 3021" d="M34.4,0h-24A2.267,2.267,0,0,0,8,2.4V16.8a2.267,2.267,0,0,0,2.4,2.4H20v2.4A2.267,2.267,0,0,0,22.4,24a2.267,2.267,0,0,0,2.4-2.4V19.2h9.6a2.267,2.267,0,0,0,2.4-2.4V2.4A2.267,2.267,0,0,0,34.4,0ZM32,14.4H12.8V4.8H32Z" transform="translate(11.2)" fill="#082865"/>
  <path id="Path_3022" data-name="Path 3022" d="M26.4,10H2.4A2.267,2.267,0,0,0,0,12.4V26.8a2.267,2.267,0,0,0,2.4,2.4H12v2.4A2.267,2.267,0,0,0,14.4,34a2.267,2.267,0,0,0,2.4-2.4V29.2h9.6a2.267,2.267,0,0,0,2.4-2.4V12.4A2.267,2.267,0,0,0,26.4,10ZM24,24.4H4.8V14.8H24Z" transform="translate(0 14)" fill="#082865"/>
  <path id="Path_3023" data-name="Path 3023" d="M4.4,18.8a2.267,2.267,0,0,0,2.4-2.4V6.8h4.8A2.267,2.267,0,0,0,14,4.4,2.267,2.267,0,0,0,11.6,2H4.4A2.267,2.267,0,0,0,2,4.4v12A2.267,2.267,0,0,0,4.4,18.8Z" transform="translate(2.8 2.8)" fill="#082865"/>
  <path id="Path_3024" data-name="Path 3024" d="M25,9a2.267,2.267,0,0,0-2.4,2.4V21H15.4A2.267,2.267,0,0,0,13,23.4a2.267,2.267,0,0,0,2.4,2.4H25a2.267,2.267,0,0,0,2.4-2.4v-12A2.267,2.267,0,0,0,25,9Z" transform="translate(18.2 12.6)" fill="#082865"/>
</svg>
