<svg id="consensus-engine" xmlns="http://www.w3.org/2000/svg" width="48" height="48" viewBox="0 0 48 48">
  <path id="Path_3025" data-name="Path 3025" d="M-24.488,146.209v-1.965l1.373,1.4a1.153,1.153,0,0,0,.793.324,1.1,1.1,0,0,0,.793-.324l3.159-3.159a1.153,1.153,0,0,0,.324-.793,1.1,1.1,0,0,0-.324-.793l-1.384-1.384h1.965a1.12,1.12,0,0,0,1.116-1.116V133.93a1.12,1.12,0,0,0-1.116-1.116h-1.965l1.4-1.373a1.153,1.153,0,0,0,.324-.793,1.1,1.1,0,0,0-.324-.793l-3.159-3.159a1.153,1.153,0,0,0-.793-.324,1.1,1.1,0,0,0-.793.324l-1.384,1.384v-1.965A1.12,1.12,0,0,0-25.6,125H-30.07a1.12,1.12,0,0,0-1.116,1.116v1.965l-1.384-1.4a1.153,1.153,0,0,0-.793-.324,1.1,1.1,0,0,0-.793.324l-3.159,3.159a1.153,1.153,0,0,0-.324.793,1.1,1.1,0,0,0,.324.793l1.4,1.384h-1.965A1.12,1.12,0,0,0-39,133.93V138.4a1.12,1.12,0,0,0,1.116,1.116h1.965l-1.4,1.373a1.153,1.153,0,0,0-.324.793,1.1,1.1,0,0,0,.324.793l3.159,3.159a1.153,1.153,0,0,0,.793.324,1.1,1.1,0,0,0,.793-.324l1.384-1.384v1.965a1.12,1.12,0,0,0,1.116,1.116H-25.6A1.12,1.12,0,0,0-24.488,146.209Zm-2.233-3.717v2.6h-2.255V142.47a1.119,1.119,0,0,0-.692-1.027l-.659-.268a1.123,1.123,0,0,0-1.217.246l-1.842,1.842-1.574-1.574,1.842-1.842a1.123,1.123,0,0,0,.246-1.217l-.268-.659a1.091,1.091,0,0,0-1.027-.692h-2.6v-2.233h2.623a1.119,1.119,0,0,0,1.027-.692l.268-.659a1.118,1.118,0,0,0-.246-1.217l-1.842-1.842,1.574-1.574,1.842,1.82a1.123,1.123,0,0,0,1.217.246l.659-.268a1.091,1.091,0,0,0,.692-1.027v-2.6h2.233v2.623a1.119,1.119,0,0,0,.692,1.027l.659.268a1.119,1.119,0,0,0,1.217-.246l1.864-1.842,1.574,1.574-1.842,1.842A1.123,1.123,0,0,0-22.8,133.7l.268.659a1.091,1.091,0,0,0,1.027.692h2.6v2.233H-21.53a1.119,1.119,0,0,0-1.027.692l-.268.659a1.118,1.118,0,0,0,.246,1.217l1.842,1.864-1.574,1.574-1.842-1.842a1.123,1.123,0,0,0-1.217-.246l-.659.268A1.091,1.091,0,0,0-26.721,142.492Z" transform="translate(39 -125)" fill="#082865"/>
  <path id="Path_3026" data-name="Path 3026" d="M29.93,189.465a4.465,4.465,0,1,0-4.465,4.465A4.464,4.464,0,0,0,29.93,189.465ZM25.465,191.7a2.233,2.233,0,1,1,2.233-2.233A2.239,2.239,0,0,1,25.465,191.7Z" transform="translate(-14.302 -178.302)" fill="#082865"/>
  <path id="Path_3027" data-name="Path 3027" d="M212.209,362.814h-1.965l1.4-1.384a1.112,1.112,0,0,0,0-1.574l-3.159-3.159a1.153,1.153,0,0,0-.793-.324,1.105,1.105,0,0,0-.793.324l-1.384,1.384v-1.965A1.12,1.12,0,0,0,204.4,355H199.93a1.12,1.12,0,0,0-1.116,1.116v1.954l-1.384-1.384a1.112,1.112,0,0,0-1.574,0l-3.159,3.159a1.153,1.153,0,0,0-.324.793,1.1,1.1,0,0,0,.324.793l1.384,1.384h-1.965A1.12,1.12,0,0,0,191,363.93V368.4a1.12,1.12,0,0,0,1.116,1.116h1.953l-1.384,1.384a1.112,1.112,0,0,0,0,1.574l3.159,3.159a1.153,1.153,0,0,0,.793.324,1.1,1.1,0,0,0,.793-.324l1.384-1.384v1.965a1.12,1.12,0,0,0,1.116,1.116H204.4a1.12,1.12,0,0,0,1.116-1.116v-1.965l1.384,1.384a1.112,1.112,0,0,0,1.574,0l3.159-3.159a1.112,1.112,0,0,0,0-1.574l-1.384-1.384h1.965a1.12,1.12,0,0,0,1.116-1.116V363.93A1.12,1.12,0,0,0,212.209,362.814Zm-1.116,4.454h-2.6a1.128,1.128,0,0,0-1.038.7l-.268.647a1.116,1.116,0,0,0,.246,1.228l1.82,1.842-1.574,1.574-1.831-1.831a1.071,1.071,0,0,0-.793-.335,1.111,1.111,0,0,0-.424.089l-.647.268a1.116,1.116,0,0,0-.7,1.038v2.6h-2.233v-2.612a1.128,1.128,0,0,0-.7-1.038l-.659-.268a1.119,1.119,0,0,0-1.217.246l-1.842,1.842-1.574-1.574,1.831-1.831a1.116,1.116,0,0,0,.246-1.228l-.268-.659a1.091,1.091,0,0,0-1.027-.692h-2.6v-2.233h2.623a1.127,1.127,0,0,0,1.038-.7l.268-.659a1.118,1.118,0,0,0-.246-1.217l-1.842-1.842,1.574-1.574,1.831,1.831a1.071,1.071,0,0,0,.793.335,1.111,1.111,0,0,0,.424-.089l.659-.268a1.091,1.091,0,0,0,.692-1.027v-2.6h2.233v2.623a1.119,1.119,0,0,0,.692,1.027l.659.268a1.119,1.119,0,0,0,1.217-.246l1.853-1.853,1.574,1.574-1.831,1.831a1.137,1.137,0,0,0-.246,1.228l.268.659a1.091,1.091,0,0,0,1.027.692h2.6Z" transform="translate(-165.326 -329.326)" fill="#082865"/>
  <path id="Path_3028" data-name="Path 3028" d="M255.465,415a4.465,4.465,0,1,0,4.465,4.465A4.464,4.464,0,0,0,255.465,415Zm0,6.7a2.233,2.233,0,1,1,2.233-2.233A2.239,2.239,0,0,1,255.465,421.7Z" transform="translate(-218.628 -382.628)" fill="#082865"/>
  <path id="Path_3029" data-name="Path 3029" d="M192.163,217.233v10.046a1.116,1.116,0,0,0,2.233,0V216.116A1.12,1.12,0,0,0,193.279,215H182.116a1.116,1.116,0,0,0,0,2.233Z" transform="translate(-156.442 -204.953)" fill="#082865" stroke="#082865" stroke-width="1"/>
  <path id="Path_3030" data-name="Path 3030" d="M63.279,356.163H53.233V346.116a1.116,1.116,0,0,0-2.233,0v11.163a1.12,1.12,0,0,0,1.116,1.116H63.279a1.116,1.116,0,0,0,0-2.233Z" transform="translate(-40.953 -320.442)" fill="#082865" stroke="#082865" stroke-width="1"/>
</svg>
