<svg xmlns="http://www.w3.org/2000/svg" width="86.999" height="87" viewBox="0 0 86.999 87">
  <g id="consensus-mechanism" transform="translate(-0.859 -0.851)">
    <path id="Path_3040" data-name="Path 3040" d="M3.3,54.247h9.582a33.08,33.08,0,0,0,2.225,5.359L8.327,66.388a2.44,2.44,0,0,0,0,3.451L18.87,80.383a2.515,2.515,0,0,0,3.452,0L29.1,73.6a32.939,32.939,0,0,0,5.362,2.225v9.582a2.44,2.44,0,0,0,2.442,2.44h14.91a2.44,2.44,0,0,0,2.441-2.44V75.829A32.8,32.8,0,0,0,59.616,73.6l6.779,6.779a2.442,2.442,0,0,0,3.451,0L80.391,69.839a2.438,2.438,0,0,0,0-3.45L73.61,59.607a32.886,32.886,0,0,0,2.225-5.359h9.582a2.441,2.441,0,0,0,2.441-2.442V36.894a2.44,2.44,0,0,0-2.441-2.44H75.835A33.008,33.008,0,0,0,73.61,29.1l6.781-6.781a2.441,2.441,0,0,0,0-3.452L69.846,8.319a2.442,2.442,0,0,0-3.451,0L59.616,15.1a33.017,33.017,0,0,0-5.362-2.225V3.291A2.44,2.44,0,0,0,51.813.851H36.9a2.44,2.44,0,0,0-2.442,2.44v9.582A32.85,32.85,0,0,0,29.1,15.1L22.321,8.319a2.44,2.44,0,0,0-3.451,0L8.327,18.863a2.44,2.44,0,0,0,0,3.451L15.106,29.1a33.059,33.059,0,0,0-2.225,5.359H3.3a2.44,2.44,0,0,0-2.441,2.44V51.806A2.44,2.44,0,0,0,3.3,54.247ZM5.74,39.336h8.984a2.443,2.443,0,0,0,2.367-1.843,28.113,28.113,0,0,1,3.14-7.563,2.437,2.437,0,0,0-.368-2.978L13.5,20.59,20.6,13.5l6.36,6.36a2.436,2.436,0,0,0,2.98.368A27.926,27.926,0,0,1,37.5,17.085a2.44,2.44,0,0,0,1.843-2.368V5.731h10.03v8.985a2.445,2.445,0,0,0,1.843,2.368,27.921,27.921,0,0,1,7.562,3.139,2.435,2.435,0,0,0,2.98-.368l6.361-6.36,7.1,7.094-6.362,6.362a2.442,2.442,0,0,0-.368,2.98,27.954,27.954,0,0,1,3.139,7.562,2.443,2.443,0,0,0,2.368,1.843h8.986v10.03H73.991a2.443,2.443,0,0,0-2.368,1.843,28.015,28.015,0,0,1-3.138,7.561,2.439,2.439,0,0,0,.367,2.98l6.362,6.362-7.1,7.094-6.361-6.36a2.436,2.436,0,0,0-2.981-.366,28,28,0,0,1-7.562,3.139,2.439,2.439,0,0,0-1.841,2.366v8.985H39.342V73.984A2.44,2.44,0,0,0,37.5,71.618a27.978,27.978,0,0,1-7.562-3.139,2.436,2.436,0,0,0-2.981.366l-6.36,6.36L13.5,68.111l6.36-6.362a2.439,2.439,0,0,0,.368-2.978,28.109,28.109,0,0,1-3.14-7.562,2.439,2.439,0,0,0-2.367-1.843H5.74Z" fill="#082865"/>
    <path id="Path_3041" data-name="Path 3041" d="M39.337,56.151A2.442,2.442,0,0,0,41.1,56.9c.04,0,.081,0,.121,0a2.447,2.447,0,0,0,1.8-.931L57.393,37.638a2.44,2.44,0,0,0-3.84-3.012L40.914,50.746l-4.075-4.253a2.441,2.441,0,0,0-3.523,3.379Z" transform="translate(-0.916 -0.947)" fill="#082865"/>
  </g>
</svg>
