<svg xmlns="http://www.w3.org/2000/svg" width="88.414" height="87" viewBox="0 0 88.414 87">
  <g id="cross-functional" transform="translate(-15028.293 6105)">
    <g id="Group_1156" data-name="Group 1156" transform="translate(0 -1)">
      <path id="Path_3013" data-name="Path 3013" d="M90,31.544,78.756,20.3l-4.275,4.275,3.959,3.959H68.05c-14.283-.009-16.309,3.94-22.3,15.649-.595,1.152-1.227,2.407-1.933,3.717s-1.357,2.621-1.952,3.791c-5.724,11.151-6.328,12.36-16.913,12.36H14.56l3.959-3.959-4.275-4.275L3,67.108,14.244,78.353l4.275-4.275L14.56,70.119h10.4c14.283,0,16.309-3.94,22.3-15.649.595-1.162,1.227-2.407,1.933-3.717s1.357-2.621,1.952-3.791c5.752-11.226,6.31-12.4,16.9-12.4H78.44l-3.959,3.959L78.756,42.8Z" transform="translate(15026 -6110.3)" fill="#082865" stroke="#082865" stroke-width="1"/>
      <path id="Path_3014" data-name="Path 3014" d="M52.952,51.028l-.725-1.422c-.7-1.347-1.338-2.593-1.933-3.717L49.55,44.43,48.8,45.889c-.595,1.152-1.227,2.407-1.933,3.717L46.14,51l.734,1.394c.7,1.347,1.338,2.593,1.933,3.717l.743,1.459.743-1.459c.595-1.162,1.227-2.407,1.933-3.717Z" transform="translate(15022.949 -6112.006)" fill="#082865" stroke="#082865" stroke-width="1"/>
      <path id="Path_3015" data-name="Path 3015" d="M18.519,38.524,14.56,34.565h10.4c10.594,0,11.151,1.171,16.913,12.369l.158.362.121-.223c.7-1.338,1.338-2.583,1.924-3.717l1.357-2.63C40.673,31.7,37.7,28.543,24.931,28.543H14.56l3.959-3.959L14.244,20.31,3,31.545,14.244,42.789Z" transform="translate(15026 -6110.3)" fill="#082865" stroke="#082865" stroke-width="1"/>
      <path id="Path_3016" data-name="Path 3016" d="M77.871,62.493l3.959,3.959H71.44c-10.594,0-11.151-1.171-16.913-12.36l-.186-.362-.121.251c-.7,1.3-1.366,2.546-1.924,3.717l-1.357,2.63c4.758,9,7.732,12.164,20.5,12.164H81.83l-3.959,3.959,4.275,4.275L93.39,69.481,82.145,58.237Z" transform="translate(15022.61 -6112.664)" fill="#082865" stroke="#082865" stroke-width="1"/>
    </g>
    <rect id="Rectangle_870" data-name="Rectangle 870" width="87" height="87" transform="translate(15029 -6105)" fill="none"/>
  </g>
</svg>
