<svg xmlns="http://www.w3.org/2000/svg" xmlns:xlink="http://www.w3.org/1999/xlink" width="88.437" height="87" viewBox="0 0 88.437 87">
  <defs>
    <clipPath id="clip-path">
      <rect width="88.437" height="87" fill="none"/>
    </clipPath>
  </defs>
  <g id="digital-wallet" clip-path="url(#clip-path)">
    <path id="icon" d="M8.843,87A8.844,8.844,0,0,1,0,78.157H.119A8.776,8.776,0,0,1,0,76.716V24.005a8.878,8.878,0,0,1,6.415-8.5L59.476.342a8.849,8.849,0,0,1,11.274,8.5V61.554a8.886,8.886,0,0,1-6.415,8.5l-28.349,8.1H79.594V42.782H70.751V33.939h8.843V25.092H70.751V16.249h8.843a8.844,8.844,0,0,1,8.843,8.843V78.157A8.844,8.844,0,0,1,79.594,87Zm0-62.995V76.716L61.908,61.554V8.847Zm35.375,9.933A4.421,4.421,0,1,1,48.64,38.36,4.425,4.425,0,0,1,44.218,33.939Z" fill="#082865"/>
  </g>
</svg>
