<svg xmlns="http://www.w3.org/2000/svg" width="82.378" height="83.095" viewBox="0 0 82.378 83.095">
  <g id="eos-smart-contracts" transform="translate(-15134.854 6654.722)">
    <path id="Union_3" data-name="Union 3" d="M0,35.5H71L35.5,71Zm0,0L35.5,0,71,35.5Z" transform="translate(15141 -6650)" fill="none"/>
    <g id="Group_1117" data-name="Group 1117" transform="translate(15160.893 -6625.174)">
      <path id="Path" d="M10.855,14.186,8.347,16.694,0,8.347,8.347,0l2.508,2.508L5.016,8.347Z" transform="translate(0 1.773)" fill="#082865"/>
      <path id="Path-2" data-name="Path" d="M0,2.508,2.508,0l8.347,8.347L2.508,16.694,0,14.186,5.839,8.347Z" transform="translate(18.987 1.773)" fill="#082865"/>
      <path id="Path-3" data-name="Path" d="M3.5,21.862,0,21.279,3.547,0l3.5.583Z" transform="translate(11.398)" fill="#082865"/>
    </g>
    <path id="Path_2996" data-name="Path 2996" d="M15176.571-6650l-35.709,34.188,35.709,37.544,35.4-36Z" transform="translate(-0.362 0.887)" fill="none" stroke="#082865" stroke-linejoin="round" stroke-width="8"/>
  </g>
</svg>
