<svg xmlns="http://www.w3.org/2000/svg" xmlns:xlink="http://www.w3.org/1999/xlink" width="106.242" height="110" viewBox="0 0 106.242 110">
  <defs>
    <clipPath id="clip-path">
      <rect width="106.242" height="110" fill="none"/>
    </clipPath>
  </defs>
  <g id="fast-processing" clip-path="url(#clip-path)">
    <path id="icon" d="M21.247,110A15.937,15.937,0,1,1,36.278,88.749h46.06a13.279,13.279,0,1,0,0-26.558H23.9a23.9,23.9,0,1,1,0-47.809H40.3l-6.87-6.87L40.939,0,60.632,19.693,40.939,39.385l-7.511-7.511L40.3,25H23.9a13.281,13.281,0,1,0,0,26.563H82.337a23.9,23.9,0,1,1,0,47.809H36.278A15.961,15.961,0,0,1,21.247,110Zm0-21.251a5.314,5.314,0,1,0,5.316,5.316A5.32,5.32,0,0,0,21.247,88.749ZM85,35.628a15.935,15.935,0,1,1,15.935-15.935A15.955,15.955,0,0,1,85,35.628Zm0-21.247a5.312,5.312,0,1,0,5.312,5.312A5.318,5.318,0,0,0,85,14.381Z" transform="translate(0 0)" fill="#082865"/>
  </g>
</svg>
