<svg xmlns="http://www.w3.org/2000/svg" width="88.168" height="63.64" viewBox="0 0 88.168 63.64">
  <g id="faster" transform="translate(-2.442 -7.5)">
    <path id="Path_3012" data-name="Path 3012" d="M40.964,54.46l12.262,9.189-3.882,5.177L35.723,58.6,30,45.272,18.381,52.228,12.3,70.508,6.151,68.47,13.01,47.925l14.43-8.639L26.5,37.119H10.325L3.11,22.4,8.9,19.518l5.565,11.13H43.585l7.377,14.721-5.791,2.88-5.6-11.13H33.555ZM15.7,17.706A9.706,9.706,0,1,1,25.4,27.412,9.706,9.706,0,0,1,15.7,17.706Zm6.471,0A3.235,3.235,0,1,0,25.4,14.471,3.235,3.235,0,0,0,22.167,17.706Zm61.473,6.471H48.05v6.471H83.639ZM51.285,56.531H83.639V50.06H51.285Zm6.471-19.412v6.471H90.11V37.119Z" transform="translate(0 0)" fill="#082865" stroke="#082865" stroke-width="1"/>
  </g>
</svg>
