<svg xmlns="http://www.w3.org/2000/svg" xmlns:xlink="http://www.w3.org/1999/xlink" width="90.06" height="110" viewBox="0 0 90.06 110">
  <defs>
    <clipPath id="clip-path">
      <rect width="90.06" height="110" fill="none"/>
    </clipPath>
  </defs>
  <g id="_24_security_faster-settle" data-name="24 / security /faster-settle" clip-path="url(#clip-path)">
    <path id="icon" d="M11.25,89.979C3.785,83.346,0,76.623,0,70V20c0-3.839,1.512-4.752,5.549-7.2C6.755,12.074,8.253,11.16,10,10c.149-.1,17.442-10,35-10C57.525,0,70.606,3.74,80,10c1.746,1.161,3.245,2.075,4.451,2.8C88.49,15.246,90,16.16,90,20c.1,1.085.05,23.873.018,38.953v.036C90.011,64.023,90,68.1,90,70c0,6.638-3.785,13.365-11.25,20S59.932,103.362,45,110C30.07,103.349,18.716,96.617,11.25,89.979Zm4.3-71.659c-1.265.842-3.555,2.259-5.225,3.294l-.324.2V70c0,8.024,12.758,18.6,35.006,29.008,11.52-5.382,20.421-10.71,26.442-15.845C77.127,78.333,80,73.9,80,70c0-1.152,0-3.083.009-6.228,0-.819,0-2.052,0-3.848V59.9l0-.158c0-1.5,0-3.384.009-5.733.009-2.993.014-5.58.018-8.042V45.55c.018-10.958.013-20.655,0-23.7l-1.112-.693c-1.521-.941-3.4-2.115-4.482-2.835C66.637,13.109,55.626,10,45,10,33.854,10,19.9,15.417,15.548,18.32Zm5.918,35.218,7.07-7.074L40,57.93,61.467,36.464l7.07,7.074L40,72.073Z" fill="#082865"/>
  </g>
</svg>
