<svg xmlns="http://www.w3.org/2000/svg" xmlns:xlink="http://www.w3.org/1999/xlink" width="71.229" height="87" viewBox="0 0 71.229 87">
  <defs>
    <clipPath id="clip-path">
      <rect width="71.229" height="87" fill="none"/>
    </clipPath>
  </defs>
  <g id="fraud_reduction" data-name="fraud reduction" clip-path="url(#clip-path)">
    <path id="icon" d="M35.592,87h0C23.782,81.741,14.8,76.414,8.9,71.166S0,60.6,0,55.366V15.817c0-3.034,1.195-3.758,4.387-5.692.954-.578,2.142-1.3,3.521-2.217C8.027,7.829,21.7,0,35.592,0c9.9,0,20.253,2.956,27.683,7.908,1.379.92,2.567,1.639,3.521,2.217,3.193,1.934,4.387,2.657,4.387,5.692.077.859.04,18.883.015,30.809v.026c-.008,3.985-.015,7.206-.015,8.714,0,5.248-2.994,10.57-8.9,15.817S47.4,81.751,35.593,87Zm0-79.092c-8.816,0-19.851,4.284-23.295,6.581-1,.667-2.811,1.788-4.132,2.607l-.256.159V55.366C7.908,61.713,18,70.075,35.6,78.309c9.113-4.256,16.151-8.472,20.915-12.531,4.489-3.824,6.765-7.327,6.765-10.411,0-.911,0-2.438.007-4.926,0-.649,0-1.625.005-3.045v-.144c0-1.189.006-2.678.009-4.535.007-2.368.01-4.413.014-6.36v-.331c.014-8.668.011-16.338,0-18.746l-.879-.547c-1.2-.747-2.691-1.672-3.545-2.244C52.7,10.369,43.995,7.908,35.592,7.908Z" transform="translate(0 0)" fill="#082865"/>
  </g>
</svg>
