<svg xmlns="http://www.w3.org/2000/svg" width="96" height="96" viewBox="0 0 96 96">
  <g id="identity-amid" transform="translate(-939 -382)">
    <g id="Group_2" data-name="Group 2" transform="translate(11 -89)">
      <circle id="Ellipse_1" data-name="Ellipse 1" cx="1.359" cy="1.359" r="1.359" transform="translate(991.453 492)" fill="#082865"/>
      <path id="Path_11" data-name="Path 11" d="M93.9,41.359A1.359,1.359,0,0,0,92.539,40H48.359a1.359,1.359,0,1,0,0,2.719h44.18A1.359,1.359,0,0,0,93.9,41.359Z" transform="translate(917.945 462.875)" fill="#082865"/>
      <path id="Path_12" data-name="Path 12" d="M26.888,69.915,28.73,71.54l.15.116a2.277,2.277,0,0,0,2.474,0l1.971-1.74a2.134,2.134,0,0,0,.8-2.236l-1.611-6.172a9.257,9.257,0,0,1-4.989-.048L26.086,67.7a2.209,2.209,0,0,0,.8,2.216Zm3.106-7.184L31.354,68l-1.264,1.135-1.3-1.189Z" transform="translate(924.661 456.001)" fill="#082865"/>
      <path id="Path_13" data-name="Path 13" d="M12,70.132v1.461a1.359,1.359,0,0,0,2.719,0V70.132c0-4.948,2.841-9.019,6.838-10.324A9.516,9.516,0,0,1,18.926,58,13.414,13.414,0,0,0,12,70.132Z" transform="translate(929.156 457.109)" fill="#082865"/>
      <path id="Path_14" data-name="Path 14" d="M46.137,72.943A1.359,1.359,0,0,0,47.5,71.584V70.123A13.47,13.47,0,0,0,40.57,57.97,9.515,9.515,0,0,1,37.94,59.8c4,1.305,6.838,5.37,6.838,10.324v1.461A1.359,1.359,0,0,0,46.137,72.943Z" transform="translate(920.847 457.119)" fill="#082865"/>
      <path id="Path_15" data-name="Path 15" d="M28.8,51.594A6.8,6.8,0,1,0,22,44.8,6.8,6.8,0,0,0,28.8,51.594Zm0-10.875A4.078,4.078,0,1,1,24.719,44.8,4.078,4.078,0,0,1,28.8,40.719Z" transform="translate(925.953 463.516)" fill="#082865"/>
      <path id="Path_16" data-name="Path 16" d="M86.115,55H63.359a1.359,1.359,0,1,0,0,2.719H84.43A9.516,9.516,0,0,1,86.115,55Z" transform="translate(913.141 458.07)" fill="#082865"/>
      <path id="Path_17" data-name="Path 17" d="M109.728,24H95.359a1.359,1.359,0,1,0,0,2.719h14.369a4.7,4.7,0,0,1,4.663,4.717v22.47a5.4,5.4,0,0,1,2.719.734v-23.2A7.415,7.415,0,0,0,109.728,24Z" transform="translate(902.891 468)" fill="#082865"/>
      <path id="Path_18" data-name="Path 18" d="M7.381,75.656a4.7,4.7,0,0,1-4.663-4.717v-.72H58.453V67.5H2.719V31.436a4.7,4.7,0,0,1,4.663-4.717H54.375a1.359,1.359,0,1,0,0-2.719H7.381A7.415,7.415,0,0,0,0,31.436v39.5a7.415,7.415,0,0,0,7.381,7.436H59.187a5.4,5.4,0,0,1-.734-2.719Z" transform="translate(933 468)" fill="#082865"/>
      <path id="Path_19" data-name="Path 19" d="M113.109,66.234h-2.719v-5.37A7.067,7.067,0,0,0,103.138,54h-.455a7.065,7.065,0,0,0-7.245,6.865v5.37H92.719A2.719,2.719,0,0,0,90,68.953V85.266a2.719,2.719,0,0,0,2.719,2.719h20.391a2.719,2.719,0,0,0,2.719-2.719V68.953A2.719,2.719,0,0,0,113.109,66.234Zm-14.953-5.37a4.357,4.357,0,0,1,4.534-4.146h.455a4.357,4.357,0,0,1,4.527,4.146v5.37H98.156Zm4.758,18.515a1.356,1.356,0,1,0,0-.007Zm1.359,5.893V81.867a4.078,4.078,0,1,0-2.719,0v3.4H92.719V68.953h20.391V85.266Z" transform="translate(904.172 458.391)" fill="#082865"/>
      <path id="Path_20" data-name="Path 20" d="M62,64.359a1.359,1.359,0,0,0,1.359,1.359H83.75V63.748A4.6,4.6,0,0,1,83.791,63H63.359A1.359,1.359,0,0,0,62,64.359Z" transform="translate(913.141 455.508)" fill="#082865"/>
      <path id="Path_21" data-name="Path 21" d="M62,72.359a1.359,1.359,0,0,0,1.359,1.359h15A5.438,5.438,0,0,1,79.516,71H63.359A1.359,1.359,0,0,0,62,72.359Z" transform="translate(913.141 452.945)" fill="#082865"/>
    </g>
    <rect id="Rectangle_5" data-name="Rectangle 5" width="96" height="96" transform="translate(939 382)" fill="none"/>
  </g>
</svg>
