<svg xmlns="http://www.w3.org/2000/svg" xmlns:xlink="http://www.w3.org/1999/xlink" width="91.995" height="87" viewBox="0 0 91.995 87">
  <defs>
    <clipPath id="clip-path">
      <rect width="91.995" height="87" fill="none"/>
    </clipPath>
  </defs>
  <g id="_24_music_shuffle" data-name="24 / music / shuffle" clip-path="url(#clip-path)">
    <path id="icon" d="M66.411,79.936l6.457-6.461H69.945c-9.658-.09-15.827-2.909-21.106-9.456a82.863,82.863,0,0,0,5.571-9.384c4.2,6.551,8.35,8.781,15.58,8.849h2.878l-6.457-6.461,7.064-7.064L92,68.48,73.475,87ZM0,73.475V63.484H9.914c15.054-.234,21.3-6.061,28.718-22.082.36-.773.742-1.61,1.488-3.246,8.057-17.581,14.613-24.492,29.824-24.631h2.923L66.411,7.064,73.475,0,92,18.52l-18.52,18.52-7.064-7.064,6.457-6.461H69.99C59.9,23.61,55.8,27.922,49.2,42.32c-.742,1.623-1.133,2.482-1.5,3.282C38.849,64.73,29.793,73.169,9.991,73.475ZM9.914,23.516H0V13.525H9.991c11.942.184,19.973,3.327,26.412,9.986-1.677,2.864-3.3,6.052-4.946,9.573C26.25,26.389,20.094,23.673,9.914,23.516Z" fill="#082865"/>
  </g>
</svg>
