<svg xmlns="http://www.w3.org/2000/svg" width="55.386" height="89" viewBox="0 0 55.386 89">
  <g id="mobile-app" transform="translate(-15228 6710)">
    <g id="Group_1157" data-name="Group 1157" transform="translate(15206 -7667.362)">
      <path id="Path_3031" data-name="Path 3031" d="M31.9,6A8.922,8.922,0,0,0,23,14.9V84.1A8.922,8.922,0,0,0,31.9,93H59.579a1.977,1.977,0,1,0,0-3.955H31.9A4.89,4.89,0,0,1,26.955,84.1v-6.92H72.432V84.1a4.89,4.89,0,0,1-4.943,4.943,1.977,1.977,0,1,0,0,3.955,8.922,8.922,0,0,0,8.9-8.9V14.9a8.922,8.922,0,0,0-8.9-8.9Zm0,3.955H67.489A4.89,4.89,0,0,1,72.432,14.9v.989H26.955V14.9A4.89,4.89,0,0,1,31.9,9.955Zm-4.943,9.886H72.432V73.227H26.955Zm22.677,8.9a2,2,0,0,0-.927.278L34.864,36.926a1.964,1.964,0,0,0-.989,1.7V54.443a1.964,1.964,0,0,0,.989,1.7L48.7,64.051a2.006,2.006,0,0,0,1.977,0l13.841-7.909a1.964,1.964,0,0,0,.989-1.7V38.625a1.964,1.964,0,0,0-.989-1.7L50.682,29.017a2,2,0,0,0-1.05-.278ZM49.693,33l9.825,5.623-9.825,5.623-9.825-5.623ZM37.83,42.023l9.886,5.654V58.954L37.83,53.3Zm23.727,0V53.3L51.67,58.954V47.677ZM49.693,80.148a2.966,2.966,0,1,0,2.966,2.966A2.966,2.966,0,0,0,49.693,80.148Z" transform="translate(0 952.362)" fill="#082865" stroke="#082865" stroke-width="2"/>
    </g>
  </g>
</svg>
