<svg xmlns="http://www.w3.org/2000/svg" width="49.002" height="49.014" viewBox="0 0 49.002 49.014">
  <g id="multiple_blockchain_transition" data-name="multiple blockchain transition" transform="translate(-15393.5 6411.514)">
    <path id="Path_3032" data-name="Path 3032" d="M10.4,46.941,7.2,45.073a.8.8,0,0,0-1.2.69v4.59a.8.8,0,0,0,.4.69l3.2,1.867a.8.8,0,0,0,1.2-.69V47.633a.8.8,0,0,0-.4-.692ZM9.2,50.833,7.6,49.9V47.157l1.6.934Z" transform="translate(15391.2 -6421.591)" fill="#082865"/>
    <path id="Path_3033" data-name="Path 3033" d="M56.4,45.073a.8.8,0,0,0-.8,0L52.4,46.94a.8.8,0,0,0-.4.69v4.591a.8.8,0,0,0,1.2.69l3.2-1.867a.8.8,0,0,0,.4-.691V45.764a.8.8,0,0,0-.4-.691ZM55.2,49.9l-1.6.938V48.091l1.6-.934Z" transform="translate(15382.002 -6421.591)" fill="#082865"/>
    <path id="Path_3034" data-name="Path 3034" d="M49.94,31.309a.74.74,0,0,0-.045-.107.72.72,0,0,0-.047-.063.88.88,0,0,0-.08-.1c-.014-.014-.031-.023-.046-.036a.733.733,0,0,0-.118-.091L40,25.31a.8.8,0,0,0-.806,0l-1.846,1.077-2.739-4.48L36,21.092a.8.8,0,0,0,.4-.691V8.4a.782.782,0,0,0-.028-.208.64.64,0,0,0-.034-.084A.74.74,0,0,0,36.294,8a.72.72,0,0,0-.047-.063.879.879,0,0,0-.08-.1c-.014-.014-.031-.023-.046-.036A.733.733,0,0,0,36,7.709l-9.6-5.6a.8.8,0,0,0-.806,0L16,7.709a.762.762,0,0,0-.121.094c-.014.012-.03.021-.042.034a.787.787,0,0,0-.08.1c-.014.021-.033.038-.046.061a.783.783,0,0,0-.049.117.648.648,0,0,0-.03.074A.792.792,0,0,0,15.6,8.4v12a.8.8,0,0,0,.4.691l1.391.812-2.739,4.48L12.8,25.31a.8.8,0,0,0-.806,0l-9.6,5.6A.762.762,0,0,0,2.273,31c-.014.012-.03.021-.042.034a.786.786,0,0,0-.08.1c-.014.021-.033.038-.046.061a.783.783,0,0,0-.049.117.648.648,0,0,0-.03.074A.792.792,0,0,0,2,31.6v12a.8.8,0,0,0,.4.691l9.6,5.6h0a.75.75,0,0,0,.126.052c.022.008.043.021.066.027a.8.8,0,0,0,.413,0c.022-.006.043-.019.066-.027a.75.75,0,0,0,.126-.052h0l9.6-5.6a.8.8,0,0,0,.4-.691V41.2h6.4v2.4a.8.8,0,0,0,.4.691l9.6,5.6h0a.749.749,0,0,0,.126.052c.022.008.043.021.066.027a.8.8,0,0,0,.413,0c.022-.006.043-.019.066-.027A.75.75,0,0,0,40,49.893h0l9.6-5.6A.8.8,0,0,0,50,43.6v-12a.782.782,0,0,0-.028-.208.64.64,0,0,0-.034-.084ZM39.6,26.927,47.614,31.6,39.6,36.275,31.589,31.6l5.212-3.04.64,1.052,1.366-.834-.626-1.024Zm-5.823-6.388L33,19.266l-1.366.834.76,1.244L26.8,24.608V14.46l8-4.667V19.941ZM26,3.726,34.013,8.4,26,13.074,17.989,8.4ZM17.2,19.941V9.794l8,4.667V24.608l-5.595-3.263.76-1.244L19,19.266l-.777,1.272Zm-4.8,6.985,1.414.826-.626,1.024,1.366.834.64-1.052L20.413,31.6,12.4,36.275,4.388,31.6ZM3.6,32.995l8,4.667V47.809l-8-4.667ZM21.2,43.142l-8,4.667V37.661l8-4.667V39.6H18.8v1.6h2.4ZM22.8,39.6v-8a.782.782,0,0,0-.028-.208.64.64,0,0,0-.034-.084.74.74,0,0,0-.045-.107.72.72,0,0,0-.047-.063.88.88,0,0,0-.08-.1c-.014-.014-.031-.023-.046-.036a.733.733,0,0,0-.118-.091l-6.37-3.717,2.739-4.48L25.6,26.692h0a.751.751,0,0,0,.126.052c.022.008.043.021.066.027a.8.8,0,0,0,.413,0c.022-.006.043-.019.066-.027a.75.75,0,0,0,.126-.052h0l6.826-3.982,2.739,4.48L29.6,30.91A.762.762,0,0,0,29.48,31c-.014.012-.03.021-.042.034a.786.786,0,0,0-.08.1c-.014.021-.033.038-.046.061a.783.783,0,0,0-.049.117.648.648,0,0,0-.03.074.792.792,0,0,0-.032.209v8Zm8,1.6h2.4V39.6H30.8V32.995l8,4.667V47.809l-8-4.667Zm9.6,6.607V37.661l8-4.667V43.142Z" transform="translate(15392 -6413)" fill="#082865" stroke="#082865" stroke-width="1"/>
    <path id="Path_3035" data-name="Path 3035" d="M27.336,10.017l3.252,1.9a.8.8,0,0,0,.806,0l3.249-1.9a.8.8,0,0,0,0-1.382l-3.255-1.9a.8.8,0,0,0-.806,0l-3.246,1.9a.8.8,0,0,0,0,1.382Zm3.652-1.661,1.662.97-1.662.97-1.662-.97Z" transform="translate(15387.013 -6413.926)" fill="#082865"/>
    <rect id="Rectangle_871" data-name="Rectangle 871" width="1.6" height="1.499" transform="translate(15422.119 -6395.382) rotate(-31.432)" fill="#082865" stroke="#082865" stroke-width="1"/>
    <rect id="Rectangle_872" data-name="Rectangle 872" width="1.6" height="1.534" transform="translate(15430.096 -6382.286) rotate(-31.416)" fill="#082865" stroke="#082865" stroke-width="1"/>
    <rect id="Rectangle_873" data-name="Rectangle 873" width="1.499" height="1.6" transform="translate(15411.737 -6394.938) rotate(-58.561)" fill="#082865" stroke="#082865" stroke-width="1"/>
    <rect id="Rectangle_874" data-name="Rectangle 874" width="1.534" height="1.6" transform="translate(15403.717 -6381.815) rotate(-58.576)" fill="#082865" stroke="#082865" stroke-width="1"/>
    <rect id="Rectangle_875" data-name="Rectangle 875" width="1.6" height="1.6" transform="translate(15426.802 -6373.398)" fill="#082865" stroke="#082865" stroke-width="1"/>
    <rect id="Rectangle_876" data-name="Rectangle 876" width="1.6" height="1.6" transform="translate(15407.601 -6373.398)" fill="#082865" stroke="#082865" stroke-width="1"/>
    <path id="Path_3036" data-name="Path 3036" d="M7.346,28.765l1.578.264a18.366,18.366,0,0,1,6.646-11.3l-1-1.249A19.961,19.961,0,0,0,7.346,28.765Z" transform="translate(15390.931 -6415.896)" fill="#082865" stroke="#082865" stroke-width="1"/>
    <path id="Path_3037" data-name="Path 3037" d="M47.375,16.483l-1,1.249a18.366,18.366,0,0,1,6.646,11.3l1.578-.264a19.961,19.961,0,0,0-7.223-12.282Z" transform="translate(15383.126 -6415.896)" fill="#082865" stroke="#082865" stroke-width="1"/>
    <path id="Path_3038" data-name="Path 3038" d="M25.294,58.035l-.458,1.533a20.123,20.123,0,0,0,11.565-.03l-.467-1.531A18.592,18.592,0,0,1,25.294,58.035Z" transform="translate(15387.434 -6424.199)" fill="#082865" stroke="#082865" stroke-width="1"/>
  </g>
</svg>
