<svg xmlns="http://www.w3.org/2000/svg" width="96" height="96" viewBox="0 0 96 96">
  <g id="peer-transmission" transform="translate(-788 -382)">
    <path id="Path_5" data-name="Path 5" d="M273.3,208.249a8.833,8.833,0,1,0-10.5,8.671v12.871A6.215,6.215,0,0,1,256.595,236H231.47V216.92a8.833,8.833,0,1,0-3.333,0V236H196.8V216.92a8.833,8.833,0,1,0-3.333,0v41.492a8.833,8.833,0,1,0,3.333,0V239.333h31.333v19.079a8.833,8.833,0,1,0,3.333,0V239.333h25.125a9.553,9.553,0,0,0,9.542-9.542V216.92A8.845,8.845,0,0,0,273.3,208.249Zm-49,0a5.5,5.5,0,1,1,7.167,5.24v-5.24a1.667,1.667,0,1,0-3.333,0v5.24a5.509,5.509,0,0,1-3.833-5.24Zm-34.666,0a5.5,5.5,0,1,1,7.167,5.24v-5.24a1.667,1.667,0,0,0-3.333,0v5.24a5.509,5.509,0,0,1-3.834-5.24Zm11,58.833a5.5,5.5,0,1,1-7.167-5.24v5.24a1.667,1.667,0,0,0,3.333,0v-5.24A5.509,5.509,0,0,1,200.637,267.082Zm34.666,0a5.5,5.5,0,1,1-7.167-5.24v5.24a1.667,1.667,0,1,0,3.333,0v-5.24a5.509,5.509,0,0,1,3.833,5.24Zm30.833-53.593v-5.24a1.667,1.667,0,1,0-3.333,0v5.24a5.5,5.5,0,1,1,3.333,0Z" transform="translate(606.697 194.588)" fill="#082865"/>
    <rect id="Rectangle_4" data-name="Rectangle 4" width="96" height="96" transform="translate(788 382)" fill="none"/>
  </g>
</svg>
