<svg xmlns="http://www.w3.org/2000/svg" width="90.619" height="96" viewBox="0 0 90.619 96">
  <g id="pharmaceutical-delivery-symbol-with-drugs" transform="translate(-3.366)">
    <path id="Path_2678" data-name="Path 2678" d="M18.684,71.342a15.157,15.157,0,0,0,9.509-3.407,19.723,19.723,0,0,0,26.6-1.488,19.828,19.828,0,0,0-20.8-32.665V15.313a15.313,15.313,0,0,0-30.626,0V56.034A15.331,15.331,0,0,0,18.684,71.342ZM8.2,56.03V37.407H27.745c-.444.383-.923.7-1.34,1.117a19.894,19.894,0,0,0-1.587,25.953A10.337,10.337,0,0,1,18.684,66.5,10.474,10.474,0,0,1,8.2,56.03ZM51.34,63.046a15.474,15.474,0,0,1-19.408,1.687L52.71,43.613A15.04,15.04,0,0,1,51.34,63.046ZM49.271,40.218l-20.8,21.136A15.031,15.031,0,0,1,40.6,37.417,14.876,14.876,0,0,1,49.271,40.218ZM18.684,4.834a10.482,10.482,0,0,1,10.47,10.474V32.569H8.2V15.308A10.483,10.483,0,0,1,18.684,4.834Zm75.3,40.149A2.416,2.416,0,0,1,91.566,47.4H74.632L60.912,78.769a2.424,2.424,0,0,1-2.22,1.455H6.9a2.419,2.419,0,0,1,0-4.838H57.114l13.72-31.371a2.426,2.426,0,0,1,2.221-1.45H91.565A2.415,2.415,0,0,1,93.985,44.983Zm-68.876,44.1a6.923,6.923,0,1,1-6.917-6.926A6.92,6.92,0,0,1,25.109,89.079Zm24.615,0A6.927,6.927,0,1,1,42.8,82.152,6.92,6.92,0,0,1,49.725,89.079Z" fill="#082865"/>
  </g>
</svg>
