<svg xmlns="http://www.w3.org/2000/svg" xmlns:xlink="http://www.w3.org/1999/xlink" width="69.602" height="87" viewBox="0 0 69.602 87">
  <defs>
    <clipPath id="clip-path">
      <rect width="69.602" height="87" fill="none"/>
    </clipPath>
  </defs>
  <g id="privacy" clip-path="url(#clip-path)">
    <path id="icon" d="M8.7,87C3.9,87,0,83.422,0,79.025V42.776c0-4.4,3.9-7.975,8.7-7.975h4.35V21.752a21.75,21.75,0,1,1,43.5,0V34.8H60.9c4.8,0,8.7,3.578,8.7,7.975V79.025c0,4.4-3.9,7.975-8.7,7.975Zm0-8.7H60.9V43.5H8.7ZM47.85,34.8V21.752a13.049,13.049,0,1,0-26.1,0V34.8Zm-17.4,26.1a4.35,4.35,0,1,1,4.35,4.35A4.351,4.351,0,0,1,30.451,60.9Z" fill="#082865"/>
  </g>
</svg>
