<svg xmlns="http://www.w3.org/2000/svg" xmlns:xlink="http://www.w3.org/1999/xlink" width="71.184" height="87" viewBox="0 0 71.184 87">
  <defs>
    <clipPath id="clip-path">
      <rect width="71.183" height="87" fill="none"/>
    </clipPath>
  </defs>
  <g id="proof" transform="translate(0)" clip-path="url(#clip-path)">
    <path id="icon" d="M63.275,87H7.908A7.917,7.917,0,0,1,0,79.092V19.775a7.919,7.919,0,0,1,7.908-7.912h3.954a7.921,7.921,0,0,1,7.912-7.908h3.936A18.566,18.566,0,0,1,35.592,0a18.564,18.564,0,0,1,11.88,3.954h3.936a7.919,7.919,0,0,1,7.912,7.908h3.954a7.919,7.919,0,0,1,7.908,7.912V79.092A7.917,7.917,0,0,1,63.275,87ZM7.908,19.775V79.092H63.275V19.775H58.26a7.94,7.94,0,0,1-6.851,3.954H19.775a7.938,7.938,0,0,1-6.851-3.954Zm11.866-7.912v3.954H51.408V11.863H44.062L42.881,10.5c-1.368-1.574-4.229-2.591-7.289-2.591S29.67,8.925,28.3,10.5l-1.182,1.363H19.775ZM31.637,64.912l0,0L16.977,50.252l5.591-5.591,9.069,9.065L48.615,36.748l5.591,5.595L31.64,64.909Z" transform="translate(0 0)" fill="#082865"/>
  </g>
</svg>
