<svg xmlns="http://www.w3.org/2000/svg" xmlns:xlink="http://www.w3.org/1999/xlink" width="90.06" height="110" viewBox="0 0 90.06 110">
  <defs>
    <clipPath id="clip-path">
      <rect width="90.06" height="110" fill="none"/>
    </clipPath>
  </defs>
  <g id="security" clip-path="url(#clip-path)">
    <path id="icon" d="M11.25,89.979C3.785,83.346,0,76.627,0,70V20c0-3.839,1.508-4.752,5.544-7.191C6.791,12.051,8.271,11.147,10,10c.149-.1,17.442-10,35-10C57.52,0,70.6,3.74,80,10c1.728,1.148,3.2,2.048,4.451,2.8C88.49,15.246,90,16.16,90,20c.1,1.067.05,23.373.018,38.134v.855l-.009,3.839C90.006,66.061,90,68.608,90,70c0,6.638-3.785,13.365-11.25,20S59.941,103.358,45,110C30.061,103.344,18.707,96.608,11.25,89.979Zm4.3-71.659c-1.215.81-3.416,2.174-5.022,3.168l-.2.126-.324.2V70c0,8.028,12.758,18.6,35.006,29.008C56.539,93.62,65.44,88.292,71.448,83.166,77.122,78.337,80,73.9,80,70c0-1.152,0-3.083.009-6.228v-1.2c0-.7,0-1.575,0-2.646V59.9l0-.158c0-1.17,0-2.574,0-4.244V55.36l0-1.35c.009-2.795.014-5.238.018-7.556v-.9c.018-10.818.013-20.547,0-23.7l-1.112-.693c-2.1-1.3-3.609-2.255-4.482-2.835C66.637,13.109,55.63,10,45,10,33.854,10,19.9,15.417,15.548,18.32ZM30,80A10.013,10.013,0,0,1,20,70V50A10.013,10.013,0,0,1,30,40V30a15,15,0,1,1,30,0V40A10.013,10.013,0,0,1,70,50V70A10.013,10.013,0,0,1,60,80Zm0-10H60V50H30ZM50,40V30a5,5,0,1,0-10,0V40ZM40,60a5,5,0,1,1,5,5A5,5,0,0,1,40,60Z" fill="#082865"/>
  </g>
</svg>
