<svg xmlns="http://www.w3.org/2000/svg" width="90.78" height="96" viewBox="0 0 90.78 96">
  <g id="prawn" transform="translate(-21.594 -18.651)">
    <path id="Path_2677" data-name="Path 2677" d="M112.374,70.611c0-16.992-12.04-29.805-28-29.805-.072,0-.139.016-.209.021H41.474c-2.644-1.152-4.376-2.743-5.129-4.747-1.445-3.847.856-8.284.9-8.367a2.7,2.7,0,0,0-4.752-2.563,17.967,17.967,0,0,0-1.755,10.82C26.07,30.334,27.089,21.8,27.1,21.7a2.7,2.7,0,0,0-5.352-.705c-.061.458-1.417,11.3,5.15,18.8a19.638,19.638,0,0,0,11.792,6.3A23.324,23.324,0,0,0,60.8,66.789a2.661,2.661,0,0,0,.837.146c10.871,0,17.9,2.579,20.9,7.664,3.66,6.213.724,15-1.111,19.266-2.6-3.579-8.646-7.737-22.757-7.737a2.7,2.7,0,0,0-2.7,2.7c0,6.085,4.8,9.842,8.787,11.917a14.357,14.357,0,0,0-5.618,11.207,2.7,2.7,0,0,0,2.7,2.7c12.461,0,20.474-7.139,21.445-14.274A29.814,29.814,0,0,0,112.374,70.611Zm-47.3,38.436c1.62-4.24,6.39-6.207,6.624-6.3a2.7,2.7,0,0,0-.294-5.12c-.084-.022-6.9-1.961-9.249-6,14.573.841,15.763,6.924,15.835,7.431C77.915,102.794,73.357,107.959,65.072,109.047Zm41.807-40.753a2.681,2.681,0,0,0-.444.905A12.294,12.294,0,0,1,90,77.425a2.628,2.628,0,0,0-.775-.17,17.531,17.531,0,0,0-2.015-5.364A20.093,20.093,0,0,0,102.63,55.864,25.592,25.592,0,0,1,106.879,68.294ZM44.21,46.532a2.674,2.674,0,0,0,1.133-.306H79.526a17.887,17.887,0,0,1-35.316.306Zm30.3,16.518A23.31,23.31,0,0,0,84.967,46.22a21.718,21.718,0,0,1,12.5,4.25A14.732,14.732,0,0,1,83.327,66.964a2.715,2.715,0,0,0-.456.061A23.941,23.941,0,0,0,74.515,63.049ZM86.97,94.6A37.753,37.753,0,0,0,89.632,83a17.581,17.581,0,0,0,15.3-2.67A24.444,24.444,0,0,1,86.97,94.6Z" transform="translate(0 0)" fill="#082865"/>
    <circle id="Ellipse_156" data-name="Ellipse 156" cx="3.623" cy="3.623" r="3.623" transform="translate(58.076 48.793)" fill="#082865"/>
  </g>
</svg>
