<svg xmlns="http://www.w3.org/2000/svg" xmlns:xlink="http://www.w3.org/1999/xlink" width="39.273" height="48" viewBox="0 0 39.273 48">
  <defs>
    <clipPath id="clip-path">
      <rect width="39.273" height="48" fill="none"/>
    </clipPath>
  </defs>
  <g id="smart-contracts" clip-path="url(#clip-path)">
    <path id="icon" d="M4.363,48A4.369,4.369,0,0,1,0,43.637V4.363A4.369,4.369,0,0,1,4.363,0H27.087L39.273,12.187v31.45A4.369,4.369,0,0,1,34.91,48Zm0-4.363H34.91V17.455H26.182a4.364,4.364,0,0,1-4.363-4.363V4.363H4.363ZM26.182,13.092h7.825L26.182,5.267ZM20.275,35.548l5-5-5-5,3.087-3.085,8.088,8.088-8.088,8.088ZM7.823,26.182l8.088-8.088L19,21.18l-5,5,5,5L15.912,34.27Z" fill="#082865"/>
  </g>
</svg>
