<svg xmlns="http://www.w3.org/2000/svg" xmlns:xlink="http://www.w3.org/1999/xlink" width="923.959" height="610" viewBox="0 0 923.959 610">
  <defs>
    <linearGradient id="linear-gradient" x1="-0.232" y1="0.5" x2="0.769" y2="0.5" gradientUnits="objectBoundingBox">
      <stop offset="0" stop-color="gray" stop-opacity="0.251"/>
      <stop offset="0.54" stop-color="gray" stop-opacity="0.122"/>
      <stop offset="1" stop-color="gray" stop-opacity="0.102"/>
    </linearGradient>
    <linearGradient id="linear-gradient-2" x1="-3.46" y1="0.929" x2="-3.46" y2="-0.082" xlink:href="#linear-gradient"/>
  </defs>
  <g id="music" transform="translate(-17416 3879)">
    <circle id="Ellipse_206" data-name="Ellipse 206" cx="18.182" cy="18.182" r="18.182" transform="translate(18226.271 -3585.257)" fill="#00127f" opacity="0.1"/>
    <circle id="Ellipse_207" data-name="Ellipse 207" cx="30.471" cy="30.471" r="30.471" transform="translate(18279.018 -3678.611)" fill="#00127f" opacity="0.1"/>
    <circle id="Ellipse_208" data-name="Ellipse 208" cx="18.182" cy="18.182" r="18.182" transform="translate(17780.549 -3873.835)" fill="#00127f" opacity="0.1"/>
    <circle id="Ellipse_209" data-name="Ellipse 209" cx="18.182" cy="18.182" r="18.182" transform="translate(17989.105 -3852.938)" fill="#00127f" opacity="0.1"/>
    <circle id="Ellipse_210" data-name="Ellipse 210" cx="30.471" cy="30.471" r="30.471" transform="translate(17416 -3635.263)" fill="#00127f" opacity="0.1"/>
    <path id="Path_2997" data-name="Path 2997" d="M872.34,473.328a4.968,4.968,0,0,0,1.118,2.908,16.524,16.524,0,0,0,4.472,3.8v4.556s13.449,11.238,16.215,15.483c2.665,4.052,5.388,8.179,9.179,11.2a8.28,8.28,0,0,0,3.421,1.816h.227a3.554,3.554,0,0,1-1.311.841,3.11,3.11,0,0,0,3.665,2.631,6.126,6.126,0,0,0,1.816-.908l5.329-3.446a15.27,15.27,0,0,0,2.48-1.858c.992-1,1.681-2.253,2.656-3.278,1.681-1.748,4.068-2.791,5.237-4.892.731-1.311.841-2.866,1.311-4.3.294-.941.723-1.832,1.009-2.774a10.017,10.017,0,0,0,.345-1.732c.185.16.378.319.58.471.412-.269,1.2.437,1.017.891s-.63.782-.782,1.252c-.336,1.076.992,1.875,1.547,2.858s.269,2.244.328,3.362.572,2.463.731,3.715c.387,2.925-1.059,6.01,0,8.776a2.766,2.766,0,0,0-2.732,2.127,8.052,8.052,0,0,0,.109,3.741,5.144,5.144,0,0,0-2.522,4.7,1.152,1.152,0,0,1-.118.841,1.194,1.194,0,0,1-.479.277,4.741,4.741,0,0,0-2.925,4.4,2.185,2.185,0,0,1-.084.933,2.212,2.212,0,0,1-.689.706,5.481,5.481,0,0,0-2.042,4.287,3.11,3.11,0,0,0,1.446,2.807h.059a15.131,15.131,0,0,0-5.043,9.574,39.3,39.3,0,0,0,.656,9.91h.3v.244a4.415,4.415,0,0,0,.479,1.429,20.475,20.475,0,0,1,1.807,7.364,6.525,6.525,0,0,0,.252,1.858,9.363,9.363,0,0,0,.95,1.631c1.118,1.824,1.379,4.026,1.757,6.136a48.531,48.531,0,0,0,2.144,8.044c1.286,3.564,3.018,7.212,2.429,10.927a10.925,10.925,0,0,0-.336,2.7,7.9,7.9,0,0,0,1.059,2.833,26.264,26.264,0,0,1,1.177,2.623,2.119,2.119,0,0,0,.521,1.421c.1.277.185.563.269.841s.143.445.21.672a8.643,8.643,0,0,1,.261,1.143l-.051.883v.841a2.093,2.093,0,0,1-.4.748,3,3,0,0,1-.219.244l-.2.227a1.514,1.514,0,0,0-.227.328h0a1.572,1.572,0,0,0-.067.967,1.533,1.533,0,0,0,.084.378c.21.908.437,1.816.664,2.715.067.277.143.546.21.841.185.706.37,1.421.563,2.127v.092l.126.471.479,1.732c.1.345.2.681.294,1.025l.37,1.253q.429,1.463.883,2.925c3,9.9,6.22,19.745,8.2,29.9a3.218,3.218,0,0,0,1.2,1.8,6.928,6.928,0,0,0,2.093,1.126c.193,1.488.672,3.3.731,4.2.185,2.934.319,6.061-.748,8.734a.706.706,0,0,0-.639.2,26.076,26.076,0,0,0-1.925,2.043l-3.942,4.2a6.52,6.52,0,0,0-.891,1.084,3.791,3.791,0,0,0-.378,3.1,4.2,4.2,0,0,0,2.026,2.4,3.359,3.359,0,0,1,.639.361,3.772,3.772,0,0,0,.4.336,1.531,1.531,0,0,0,.841.16,30.019,30.019,0,0,0,6.615-1.126A5.3,5.3,0,0,0,951.3,683.9a5.11,5.11,0,0,0,.933-1.816l.79-2.185a24.894,24.894,0,0,0,1.2-4.077,8.4,8.4,0,0,0-.21-4.2.841.841,0,0,0-.2.345c.193-1.219.378-2.446.572-3.673.059-.361.109-.731.16-1.11.252,3.27-.227,6.565-.076,9.843a11.5,11.5,0,0,0-.328,1.841c.219,3.009,1.471,6.3,3.9,8.086a3.991,3.991,0,0,0,1.337.7,4.721,4.721,0,0,0,1.379,0,17.569,17.569,0,0,0,5.245-.992,6.448,6.448,0,0,0,3.774-3.581,8.406,8.406,0,0,0,.378-2.589,9.946,9.946,0,0,0-.244-2.732,20.832,20.832,0,0,0-1.379-3.186,30.4,30.4,0,0,1-1.563-4.69l-.731-2.665c-.2-.757-.412-1.513-.672-2.253a3.775,3.775,0,0,0-.933-1.774c-.3-.235-.5-.252-.639-.118v-.286a30.155,30.155,0,0,0,.193-3.119c-.2-1.681-1.538-3.051-2.4-4.547a8.881,8.881,0,0,1-.958-2.4c-.05-.185-.084-.361-.118-.555a1.957,1.957,0,0,1,.479-.311l1.5.841c-1.32-9.919-.622-20.317-4.472-29.546-1.681-4.018-4.917-8.2-4.556-12.533a3.531,3.531,0,0,1,.4-5.632c.647-.353,1.446-.521,1.891-1.118a3.049,3.049,0,0,0,.429-1.084,171.961,171.961,0,0,1,8.3-24.923c.748-1.774,1.521-3.53,2.3-5.287l2.606-5.926,3.177-7.212c1.076-2.429,2.16-5.2,1.143-7.649-.4-.967-1.118-1.883-1.017-2.917a18.312,18.312,0,0,1,.622-1.925,4.793,4.793,0,0,0-.16-2.093c-.21-.908-.446-1.816-.689-2.715a15.134,15.134,0,0,1,2.026.387c.4-.681-.244-1.471-.639-2.16a7.306,7.306,0,0,1-.731-3l-.841-8.481a15.048,15.048,0,0,1-.067-3.53c.168-1.244.647-2.429.891-3.673.462-2.379,0-4.833.151-7.263a32.556,32.556,0,0,1,1.109-6.321c.076-.311.143-.614.219-.925a5.047,5.047,0,0,0,1.219.21h1.042a3.362,3.362,0,0,0,.462-.118h.1a5.061,5.061,0,0,0,.5-.193c-.2-.429-.387-.841-.563-1.294-.076-.177-.143-.353-.21-.53s-.193-.5-.277-.748-.168-.462-.244-.689-.126-.387-.185-.58-.16-.53-.235-.841-.151-.555-.227-.841l.126-.261a7.377,7.377,0,0,0,1.387.95c1.681,2.9,3.2,5.884,4.606,8.893a2.828,2.828,0,0,0,.429-1.084,5.2,5.2,0,0,0,.6.765,8.91,8.91,0,0,0,1.958,1.437,5.044,5.044,0,0,0,2.32.841,4.329,4.329,0,0,0,2.967-1.286c2.446-2.143,3.665-5.329,4.8-8.406a63.285,63.285,0,0,0,3.614-12.382c.689-4.564.4-9.305,1.681-13.735-1.168-2.32-1.908-4.884-3.219-7.128a31.879,31.879,0,0,1-2.219-4.161,14.375,14.375,0,0,1-.4-9.616,1.32,1.32,0,0,0-1.538.084,3.219,3.219,0,0,0-.925,1.345,11.928,11.928,0,0,0-.916,5.649,2.253,2.253,0,0,1-.16,1.379,1.731,1.731,0,0,1-1.5.63,12.893,12.893,0,0,1-3.463-.63,32.175,32.175,0,0,0-9.65-.942,7.655,7.655,0,0,0-.841-.841l-.361-.294-.37-.286-.185-.151a4.186,4.186,0,0,1-.353-.311,2.329,2.329,0,0,1-.841-1.471,1.919,1.919,0,0,1,0-.219,1.636,1.636,0,0,1,0-.2,2.836,2.836,0,0,1,.193-.588,3.952,3.952,0,0,1,.185-.378l.093-.193c0-.059.059-.126.092-.185a5.547,5.547,0,0,0,.269-.706,5.168,5.168,0,0,0,.177-.731,5.493,5.493,0,0,0,.076-.748q0-.378,0-.756v-.378a7.642,7.642,0,0,0-.311-1.5,8.3,8.3,0,0,0-.4-1.076,11.9,11.9,0,0,0-.714-1.328,20.339,20.339,0,0,0-1.8-2.446l-.5-.58-.5-.572a19.959,19.959,0,0,1-1.463-1.79,6.962,6.962,0,0,1-.841-1.5c-.067-.177-.126-.353-.177-.538a5.473,5.473,0,0,1-.151-1.042v-.345a12.991,12.991,0,0,1,.067-1.4c.067-.656.16-1.32.252-1.992.059-.445.126-.891.185-1.337a4.49,4.49,0,0,1,.084-.664c.05-.445.1-.891.135-1.337a12.809,12.809,0,0,0-.219-3.892,7.369,7.369,0,0,0-.4-1.244,7.9,7.9,0,0,0-.841-1.513,10.927,10.927,0,0,0-4.674-3.64,21.518,21.518,0,0,0-4.279-1.37c-.588-.126-1.168-.235-1.748-.328-8.742-1.4-18.022,1.252-23.536,8.406a32.613,32.613,0,0,0-6.363,12.466,17.8,17.8,0,0,0,2.009,13.592c1.084,1.681,2.522,3.093,3.472,4.825.79,1.412,1.261,3,2.11,4.379a10.338,10.338,0,0,0,4.665,3.926l-.37.336a11.33,11.33,0,0,0-2.614.05c-.891.151-1.757.5-2.656.605-1.109.143-2.244-.076-3.362.067-2.068.269-3.766,1.681-5.338,3.068-1.841,1.605-3.816,3.48-3.959,5.884v.067l-1.236,1.681a6.63,6.63,0,0,0-.773,1.219c-.5,1.168-.219,2.522-.488,3.766a8.053,8.053,0,0,1-.975,2.244,50.484,50.484,0,0,1-4.2,6.271,10.625,10.625,0,0,1-2.614,2.589,4.707,4.707,0,0,1-2.723.773,17.454,17.454,0,0,1-3.984-2.665,25.692,25.692,0,0,1-3.522-4.379c-2-2.883,4.2,5.741,2.2,2.85L884.31,466.141a24.379,24.379,0,0,1-.706-4.253c0-.546-.227-1.269-.782-1.286a.95.95,0,0,0-.63.3,3.648,3.648,0,0,0-1.168,3.11,4.312,4.312,0,0,0-2.749.488,1.572,1.572,0,0,0-.345,2.236v.227a1.194,1.194,0,0,0-.63,1.261,4.27,4.27,0,0,0-2.95.143c-.883.5-1.219,1.95-.361,2.522a2.581,2.581,0,0,0-1.647,2.438Zm112.368,4.287a13.887,13.887,0,0,0,1.572.4,25.086,25.086,0,0,1,4.875,1.681,2.674,2.674,0,0,1,1.269.95,2.825,2.825,0,0,1-.151,2.387l-2.219,5.993c-.353.941-.7,1.883-1.135,2.782-.168.361-.361.723-.555,1.076q-.1-.3-.2-.58a49.2,49.2,0,0,1-1.6-5.581c-.37-1.631-.681-3.278-.942-4.926a24.067,24.067,0,0,0-.933-4.186Zm-2.32-4.7.168.118a1.892,1.892,0,0,1,.58.4.9.9,0,0,1,0,.841Zm-4.01-5.775,2.656.387a3.488,3.488,0,0,1,1.79.614,1.2,1.2,0,0,1,.244,1.681,4,4,0,0,1-.588.4,1.681,1.681,0,0,0-.63,1.74,18.842,18.842,0,0,0-1.521-2.362,11.69,11.69,0,0,0-1.774-1.816C978.5,467.57,978.446,467.351,978.379,467.141ZM952.85,658.229a9.505,9.505,0,0,0,.983,0,9.439,9.439,0,0,0-.16,2.387Z" transform="translate(17234.563 -4019.767)" fill="url(#linear-gradient)"/>
    <path id="Path_2998" data-name="Path 2998" d="M966.542,426.151c4.615.74,9.742,2.522,11.507,6.842,1.328,3.27.3,6.943,0,10.457a7.935,7.935,0,0,0,.1,2.782,9.759,9.759,0,0,0,2.438,3.825,20.377,20.377,0,0,1,3.514,4.917,7.162,7.162,0,0,1,.235,5.884,4.279,4.279,0,0,0-.58,1.547c-.059,1.2,1.194,1.959,2.118,2.723,3.463,2.866,3.312,8.086,3.362,12.609a63.65,63.65,0,0,0,6.018,26.6,8.128,8.128,0,0,1-9.1-1.185,30.626,30.626,0,0,0,2.068,5.951c-2.934,1.421-6.464-.916-7.927-3.816s-1.681-6.287-2.69-9.364-2.934-5.792-3.774-8.893a8.547,8.547,0,0,0-1.051-2.976,7.566,7.566,0,0,0-1.849-1.572,17.988,17.988,0,0,1-6.514-8.843A34.653,34.653,0,0,1,953.5,474.9c-3.682-.328-7.389-1.992-9.314-5.119-.841-1.379-1.32-2.967-2.11-4.379-.967-1.732-2.4-3.152-3.48-4.817a17.783,17.783,0,0,1-2-13.575,32.367,32.367,0,0,1,6.363-12.449C948.528,427.4,957.808,424.748,966.542,426.151Z" transform="translate(17224.402 -4020.108)" fill="#3a3768"/>
    <path id="Path_2999" data-name="Path 2999" d="M966.542,426.151c4.615.74,9.742,2.522,11.507,6.842,1.328,3.27.3,6.943,0,10.457a7.935,7.935,0,0,0,.1,2.782,9.759,9.759,0,0,0,2.438,3.825,20.377,20.377,0,0,1,3.514,4.917,7.162,7.162,0,0,1,.235,5.884,4.279,4.279,0,0,0-.58,1.547c-.059,1.2,1.194,1.959,2.118,2.723,3.463,2.866,3.312,8.086,3.362,12.609a63.65,63.65,0,0,0,6.018,26.6,8.128,8.128,0,0,1-9.1-1.185,30.626,30.626,0,0,0,2.068,5.951c-2.934,1.421-6.464-.916-7.927-3.816s-1.681-6.287-2.69-9.364-2.934-5.792-3.774-8.893a8.547,8.547,0,0,0-1.051-2.976,7.566,7.566,0,0,0-1.849-1.572,17.988,17.988,0,0,1-6.514-8.843A34.653,34.653,0,0,1,953.5,474.9c-3.682-.328-7.389-1.992-9.314-5.119-.841-1.379-1.32-2.967-2.11-4.379-.967-1.732-2.4-3.152-3.48-4.817a17.783,17.783,0,0,1-2-13.575,32.367,32.367,0,0,1,6.363-12.449C948.528,427.4,957.808,424.748,966.542,426.151Z" transform="translate(17224.402 -4020.108)" fill="#3f3d56"/>
    <path id="Path_3000" data-name="Path 3000" d="M1004.321,493.347c.261,1.681.572,3.3.95,4.934a47.2,47.2,0,0,0,1.589,5.565,5.347,5.347,0,0,1,.5,2.522,4.713,4.713,0,0,1-.614,1.53c-2.11,3.741-4.951,7.355-5.195,11.642a6.264,6.264,0,0,1-.572,3.1q-2.446-5.245-5.388-10.238c-2.051-3.48-4.329-6.994-4.917-10.995a20.845,20.845,0,0,1,.067-5.649,12.3,12.3,0,0,1,2.034-5.943c1.387-1.816,5.212-4.564,7.683-4C1003.354,486.522,1003.951,491,1004.321,493.347Z" transform="translate(17215.723 -4029.666)" fill="#f86d70"/>
    <path id="Path_3001" data-name="Path 3001" d="M911.176,510.944a25.046,25.046,0,0,1-7.758-4.337,25.31,25.31,0,0,1-3.522-4.371l-6.481-9.364c-1.538-2.228-3.119-4.564-3.446-7.246a23.847,23.847,0,0,1-6.481-14.71c0-.555-.218-1.269-.773-1.286a.975.975,0,0,0-.639.3,3.657,3.657,0,0,0-1.16,3.11,4.313,4.313,0,0,0-2.749.479c-.773.555-.975,1.925-.143,2.387a1.185,1.185,0,0,0-.841,1.337,4.2,4.2,0,0,0-2.95.143c-.841.5-1.219,1.942-.361,2.522a2.522,2.522,0,0,0-1.681,2.463,4.942,4.942,0,0,0,1.118,2.9c2.522,3.362,6.893,4.69,9.776,7.7a22.328,22.328,0,0,1,2.522,3.362l8.364,12.726c2.656,4.043,5.388,8.162,9.179,11.171a8.3,8.3,0,0,0,3.413,1.816,3.774,3.774,0,0,0,3.589-.992,5.858,5.858,0,0,0,1.051-3.581C911.4,515.332,911.033,513.1,911.176,510.944Z" transform="translate(17234.586 -4027.098)" fill="#a1616a"/>
    <path id="Path_3002" data-name="Path 3002" d="M951.606,727.629a7.272,7.272,0,0,0-.891,1.084,3.791,3.791,0,0,0-.378,3.1,4.2,4.2,0,0,0,2.026,2.4,3.967,3.967,0,0,1,.639.37,3.772,3.772,0,0,0,.4.336,1.529,1.529,0,0,0,.841.16,30.6,30.6,0,0,0,6.615-1.126,5.3,5.3,0,0,0,2.732-1.286,5.436,5.436,0,0,0,.933-1.807l.782-2.185a25.659,25.659,0,0,0,1.21-4.068,8.471,8.471,0,0,0-.219-4.2,1.371,1.371,0,0,0-.294.841,9.3,9.3,0,0,1-1.681,4.077,4.158,4.158,0,0,1-.656.841,4.279,4.279,0,0,1-1.967.841,24.172,24.172,0,0,1-4.2.538,1.311,1.311,0,0,1-.572-.067,1,1,0,0,1-.479-.6,2.522,2.522,0,0,1,0-1.681c.378-1.059,1.421-1.757,1.925-2.774.37-.748-.143-1.572-.908-.941a23.3,23.3,0,0,0-1.925,2.043Z" transform="translate(17222.156 -4067.076)" fill="#3f3d56"/>
    <path id="Path_3003" data-name="Path 3003" d="M959.588,709.489c.227,3.522.378,7.321-1.547,10.272-.689,1.068-1.622,1.958-2.412,2.959a3.472,3.472,0,0,0-.841,1.782,2.727,2.727,0,0,0,2.37,2.631,7.843,7.843,0,0,0,3.808-.547,9.171,9.171,0,0,0,3.236-1.521c1.681-1.421,2.118-3.783,2.454-5.951l.782-5.043a15.9,15.9,0,0,0,.286-3.673,16.355,16.355,0,0,0-.983-3.959l-1.294-3.783a1.782,1.782,0,0,0-.572-.941,1.681,1.681,0,0,0-.983-.177c-1.236.059-4.354.513-4.951,1.816C958.395,704.53,959.5,708.161,959.588,709.489Z" transform="translate(17221.42 -4064.067)" fill="#ee8e9e"/>
    <path id="Path_3004" data-name="Path 3004" d="M959.588,709.489c.227,3.522.378,7.321-1.547,10.272-.689,1.068-1.622,1.958-2.412,2.959a3.472,3.472,0,0,0-.841,1.782,2.727,2.727,0,0,0,2.37,2.631,7.843,7.843,0,0,0,3.808-.547,9.171,9.171,0,0,0,3.236-1.521c1.681-1.421,2.118-3.783,2.454-5.951l.782-5.043a15.9,15.9,0,0,0,.286-3.673,16.355,16.355,0,0,0-.983-3.959l-1.294-3.783a1.782,1.782,0,0,0-.572-.941,1.681,1.681,0,0,0-.983-.177c-1.236.059-4.354.513-4.951,1.816C958.395,704.53,959.5,708.161,959.588,709.489Z" transform="translate(17221.42 -4064.067)" opacity="0.05"/>
    <path id="Path_3005" data-name="Path 3005" d="M927.549,585.178a.313.313,0,0,0,0,.092,4.2,4.2,0,0,0,.471,1.429,20.663,20.663,0,0,1,1.816,7.355,6.225,6.225,0,0,0,.244,1.858,9.921,9.921,0,0,0,.95,1.631c1.118,1.824,1.379,4.018,1.757,6.128a48.434,48.434,0,0,0,2.143,8.036c1.286,3.556,3.018,7.2,2.429,10.927a10.935,10.935,0,0,0-.336,2.69,7.766,7.766,0,0,0,1.051,2.833,26.294,26.294,0,0,1,1.185,2.623c.345.891.714,1.942,1,2.925.345,1.21.58,2.639-.219,3.606a4.1,4.1,0,0,0-.647.79,2.1,2.1,0,0,0,0,1.362q.681,2.875,1.463,5.741c.4,1.5.841,2.984,1.269,4.472,3.245,10.877,6.91,21.645,9.087,32.782.311,1.605,2.362,2.757,3.959,3.1a5.161,5.161,0,0,0,4.547-1.219,2.8,2.8,0,0,0,.319-.311c1.681-1.8,1.908-4.556,1.79-7.044-.563-11.465-6.338-21.956-9.087-33.1a63.743,63.743,0,0,1-1.782-12.281c-.647-13.844-.9-28.47,3.009-41.76.841-2.766,1.774-5.884.311-8.406a8.2,8.2,0,0,0-4.321-3.161,27.823,27.823,0,0,0-21.594.555,6.729,6.729,0,0,0,0,.841,8.515,8.515,0,0,1-.437,3.816,4.682,4.682,0,0,0-.378,1.69Z" transform="translate(17225.762 -4044.114)" fill="#3f3d56"/>
    <path id="Path_3006" data-name="Path 3006" d="M981.626,714.452l.731,2.665a29.772,29.772,0,0,0,1.555,4.69,20.432,20.432,0,0,1,1.387,3.177,10.275,10.275,0,0,1,.235,2.732,8.348,8.348,0,0,1-.378,2.581,6.447,6.447,0,0,1-3.774,3.581,17.825,17.825,0,0,1-5.237.984,4.2,4.2,0,0,1-1.379,0,3.843,3.843,0,0,1-1.337-.7c-2.429-1.782-3.682-5.043-3.9-8.078a9.932,9.932,0,0,1,.412-2.059c.185-.252,2.026.782,1.236,1.681-1.16,1.286,2.244.622,3.976.513a15.97,15.97,0,0,0,2.253-.37l2.8-.6c.916-.2,1.975-.513,2.295-1.4s-.387-1.925-.933-2.774c-1.471-2.261-1.841-5.043-2.185-7.708-.067-.53-.723-3.934.63-2.875a3.782,3.782,0,0,1,.942,1.774C981.214,712.948,981.416,713.7,981.626,714.452Z" transform="translate(17219.068 -4065.466)" fill="#3f3d56"/>
    <path id="Path_3007" data-name="Path 3007" d="M942.278,647.238c.841-.967.563-2.4.219-3.6-.134-.454-.269-.9-.42-1.345l11-3.715c0,.983.084,1.967.126,2.95a63.928,63.928,0,0,0,1.782,12.289c2.749,11.138,8.523,21.628,9.087,33.085.126,2.639-.151,5.59-2.1,7.372a5.2,5.2,0,0,1-4.556,1.211c-1.589-.345-3.648-1.5-3.959-3.1-2.177-11.138-5.884-21.905-9.087-32.782q-1.513-5.043-2.732-10.221a2.135,2.135,0,0,1,0-1.353A4.1,4.1,0,0,1,942.278,647.238Z" transform="translate(17223.531 -4054.032)" opacity="0.05"/>
    <path id="Path_3008" data-name="Path 3008" d="M977.056,700c.841,1.5,2.194,2.824,2.4,4.539a25.981,25.981,0,0,1-.193,3.119,9.78,9.78,0,0,0,.462,2.522q1.6,5.8,3.7,11.449a3.135,3.135,0,0,1,.294,1.555A2.74,2.74,0,0,1,981.889,725c-2.614,1.118-5.573,1.042-8.406.925a4.4,4.4,0,0,1-2.37-.555c-1.017-.7-1.269-2.076-1.336-3.3-.193-3.573.412-7.162,0-10.717-.134-1.294-.412-2.572-.614-3.85a11.289,11.289,0,0,1,.168-5.38,12.311,12.311,0,0,1,2.009-3.362,10.524,10.524,0,0,1,2.8-2.791c.336-.2,1.286-.841,1.622-.429.177.193.1.714.126.958a9.551,9.551,0,0,0,.193,1.11A9.121,9.121,0,0,0,977.056,700Z" transform="translate(17219.166 -4063.091)" fill="#ee8e9e"/>
    <path id="Path_3009" data-name="Path 3009" d="M949.25,589.639a3.043,3.043,0,0,1,.21,2.522c-.37,1.521-.975,2.976-1.471,4.464a62.1,62.1,0,0,0-1.9,8.112c-.462,2.48-1.437,5.237-1.034,7.733a55.1,55.1,0,0,0-5.884,18.333c-.227,1.639,3.421,3.766,3.362,5.422-.134,3.3-2.765,3.556-.841,6.187.092.134-.731,3.076-.622,3.2.79.95,1.79,1.681,2.639,2.6a19.863,19.863,0,0,1,2.782,4.077c5.043,9.061,12.264,19.333,10.028,29.42a1.8,1.8,0,0,0,.958,1.816,4.95,4.95,0,0,0,2.118.488h.353c1.681-1.8,1.908-4.556,1.79-7.044-.563-11.465-6.338-21.956-9.087-33.1a63.753,63.753,0,0,1-1.782-12.281c-.647-13.844-.9-28.47,3.009-41.76.841-2.766,1.774-5.884.311-8.406a8.2,8.2,0,0,0-4.321-3.161,27.823,27.823,0,0,0-21.594.555,6.718,6.718,0,0,0,0,.841,8.515,8.515,0,0,1-.437,3.816,4.684,4.684,0,0,0-.429,1.681s-.2-2.228-.2-2.194c4.5.647,9.188,3.581,13.685,4.2a31.257,31.257,0,0,1,6.859,1.513A2.975,2.975,0,0,1,949.25,589.639Z" transform="translate(17225.814 -4044.11)" opacity="0.05"/>
    <path id="Path_3010" data-name="Path 3010" d="M980.216,562.219c.605,1.925,1.143,3.867,1.6,5.825a4.758,4.758,0,0,1,.16,2.085,18.312,18.312,0,0,0-.622,1.925c-.1,1.034.614,1.942,1.017,2.908,1.017,2.454-.067,5.22-1.135,7.649l-3.186,7.2-2.606,5.884c-.773,1.757-1.547,3.514-2.295,5.287a171.912,171.912,0,0,0-8.3,24.889,3.051,3.051,0,0,1-.429,1.084c-.446.588-1.244.757-1.891,1.118a3.522,3.522,0,0,0-.387,5.624c-.37,4.329,2.875,8.507,4.548,12.516,3.841,9.246,3.144,19.6,4.472,29.5l-1.5-.841c-1.437.656-1.387,2.69-2.152,4.06-1.16,2.068-3.993,2.362-6.355,2.2a4.958,4.958,0,0,1-2.127-.488,1.791,1.791,0,0,1-.95-1.816c2.228-10.087-5.043-20.384-10.036-29.42a19.586,19.586,0,0,0-2.782-4.068c-.841-.9-1.841-1.681-2.639-2.606-2.211-2.656-2.522-6.405-2.345-9.86a55.243,55.243,0,0,1,6.279-23.284c-.4-2.522.58-5.254,1.042-7.733a60.731,60.731,0,0,1,1.891-8.112c.5-1.488,1.1-2.942,1.471-4.463a3.043,3.043,0,0,0-.2-2.522,2.959,2.959,0,0,0-1.421-.916,31.63,31.63,0,0,0-6.859-1.513l-15.45-2.219a39.294,39.294,0,0,1-.656-9.9A15.223,15.223,0,0,1,937.3,559.479a2.3,2.3,0,0,1,2.009.126,80.553,80.553,0,0,1,40.911,2.614Z" transform="translate(17225.967 -4041.202)" fill="#3f3d56"/>
    <path id="Path_3011" data-name="Path 3011" d="M969.557,462.19a7.566,7.566,0,0,0,.673,4.421,6.908,6.908,0,0,0,1.757,1.942,13.02,13.02,0,0,0,5.094,2.522c1.093.277,2.32.462,3.043,1.337,1.084,1.311.361,3.287-.563,4.716-1.6,2.522-3.825,4.749-6.674,5.523-2.278.622-4.716.244-7.044.647-1.681.294-3.278.992-4.943,1.387a14.584,14.584,0,0,1-13.449-3.741c2.471-1.9,5.043-3.926,6.33-6.775a9.633,9.633,0,0,0,.479-6.472c-.6-2.11-1.933-4.2-1.513-6.321s2.522-3.631,4.632-4.363a29.706,29.706,0,0,1,5.825-1.177c1.084-.151,8-1.681,8.406-.925.244.429-1.194,2.95-1.37,3.505A13.49,13.49,0,0,0,969.557,462.19Z" transform="translate(17222.588 -4024.718)" fill="#a1616a"/>
    <path id="Path_3012" data-name="Path 3012" d="M969.557,462.19a7.566,7.566,0,0,0,.673,4.421,6.908,6.908,0,0,0,1.757,1.942,13.02,13.02,0,0,0,5.094,2.522c1.093.277,2.32.462,3.043,1.337,1.084,1.311.361,3.287-.563,4.716-1.6,2.522-3.825,4.749-6.674,5.523-2.278.622-4.716.244-7.044.647-1.681.294-3.278.992-4.943,1.387a14.584,14.584,0,0,1-13.449-3.741c2.471-1.9,5.043-3.926,6.33-6.775a9.633,9.633,0,0,0,.479-6.472c-.6-2.11-1.933-4.2-1.513-6.321s2.522-3.631,4.632-4.363a29.706,29.706,0,0,1,5.825-1.177c1.084-.151,8-1.681,8.406-.925.244.429-1.194,2.95-1.37,3.505A13.49,13.49,0,0,0,969.557,462.19Z" transform="translate(17222.588 -4024.718)" opacity="0.05"/>
    <circle id="Ellipse_211" data-name="Ellipse 211" cx="14.029" cy="14.029" r="14.029" transform="translate(18169.416 -3585.543)" fill="#a1616a"/>
    <path id="Path_3013" data-name="Path 3013" d="M965.408,479.611l-9.507,1.6a35.618,35.618,0,0,1-7.111.714,20.339,20.339,0,0,0-3.917,0c-.9.151-1.757.5-2.665.605-1.11.143-2.236-.067-3.362.076-2.068.261-3.766,1.681-5.338,3.06-1.841,1.6-3.816,3.472-3.951,5.884a1.682,1.682,0,0,0,.109.841,2.462,2.462,0,0,0,.706.74c1.748,1.429,2.732,3.572,3.976,5.464a21.106,21.106,0,0,0,4.724,5.094c.42-.269,1.211.437,1.026.891s-.63.782-.782,1.252c-.336,1.076.992,1.866,1.538,2.858s.277,2.236.336,3.362.563,2.463.731,3.724c.378,2.917-1.059,5.993,0,8.759a2.749,2.749,0,0,0-2.732,2.127,8.028,8.028,0,0,0,.109,3.732,5.136,5.136,0,0,0-2.522,4.69.841.841,0,0,1-.605,1.118,4.732,4.732,0,0,0-2.917,4.4,2.161,2.161,0,0,1-.084.933,2.052,2.052,0,0,1-.689.706,5.48,5.48,0,0,0-2.043,4.287,3.144,3.144,0,0,0,1.446,2.807,26.158,26.158,0,0,0,6.388,1.9,57.411,57.411,0,0,0,6.187,1.093,55.474,55.474,0,0,0,5.792.177l12.726-.05c3.572,0,7.153,0,10.726-.269,3.362-.219,6.725-.639,9.961.235.4-.681-.244-1.471-.639-2.16a7.237,7.237,0,0,1-.731-2.992l-.8-8.481a14.9,14.9,0,0,1-.067-3.514c.177-1.252.647-2.438.891-3.673.462-2.379,0-4.833.151-7.254a32.367,32.367,0,0,1,1.11-6.313l2.522-10.381a40.083,40.083,0,0,1,1.244-5.2q2.9-7.481,6.094-14.828a1.53,1.53,0,0,0-.109-1.311l-2.1-3.774a24.09,24.09,0,0,0-1.925-3.068,12.145,12.145,0,0,0-7.1-4.363,12.558,12.558,0,0,0-8.254,1.227c-.983.521-1.891,1.168-2.892,1.681A11.829,11.829,0,0,1,965.408,479.611Z" transform="translate(17225.443 -4027.933)" fill="#f86d70"/>
    <path id="Path_3014" data-name="Path 3014" d="M928.839,491.5l-3.312,4.421a5.633,5.633,0,0,0-.773,1.219c-.5,1.16-.227,2.522-.5,3.749a7.819,7.819,0,0,1-.967,2.244,51.769,51.769,0,0,1-4.2,6.271,11.24,11.24,0,0,1-2.614,2.589,4.337,4.337,0,0,1-3.531.622,2.211,2.211,0,0,1,1.16,1.051,12.828,12.828,0,0,1,.841,8.2,8.406,8.406,0,0,1-.925,2.69,4.035,4.035,0,0,1-2.11,1.824,3.11,3.11,0,0,0,3.665,2.631,6.13,6.13,0,0,0,1.816-.908l5.321-3.446a14.14,14.14,0,0,0,2.48-1.858c.992-.992,1.681-2.244,2.656-3.27,1.681-1.74,4.068-2.782,5.237-4.884.731-1.311.841-2.866,1.3-4.3.294-.933.731-1.824,1.009-2.766a12.357,12.357,0,0,0-1.093-8.86C932.933,495.989,930.806,493.82,928.839,491.5Z" transform="translate(17228.254 -4030.584)" fill="#f86d70"/>
    <path id="Path_3015" data-name="Path 3015" d="M946.622,440.662a18.391,18.391,0,0,1,4.934-5.136c2.614-1.959,5.632-3.581,8.9-3.766a9.464,9.464,0,0,1,4,.656c.067-3.968,1.051-6.6,3.522-6.2,4.615.74,9.742,2.522,11.507,6.842,1.328,3.27.3,6.943,0,10.457a7.935,7.935,0,0,0,.1,2.782,9.759,9.759,0,0,0,2.438,3.825,20.378,20.378,0,0,1,3.514,4.917,7.162,7.162,0,0,1,.235,5.884,4.28,4.28,0,0,0-.58,1.547c-.059,1.2,1.194,1.959,2.118,2.724,3.463,2.866,3.312,8.086,3.362,12.609a63.649,63.649,0,0,0,6.018,26.6,8.128,8.128,0,0,1-9.1-1.185,30.625,30.625,0,0,0,2.068,5.951c-2.934,1.421-6.464-.916-7.927-3.816s-1.681-6.287-2.69-9.364-2.934-5.792-3.774-8.893a8.547,8.547,0,0,0-1.051-2.976,7.566,7.566,0,0,0-1.849-1.572c-3.018-2.169,1.429-18.594.252-22.116-1.757.378-4.985-8.095-6.825-16.711a8.7,8.7,0,0,1-3.993.4,4.811,4.811,0,0,0-1.429-.1,3.8,3.8,0,0,0-1.244.5,30.689,30.689,0,0,1-4.245,2.185c-3.043,1.135-6.4.984-9.633.841a9.549,9.549,0,0,1,1.362-6.884Z" transform="translate(17222.963 -4020.17)" fill="#3a3768"/>
    <path id="Path_3016" data-name="Path 3016" d="M946.622,440.662a18.391,18.391,0,0,1,4.934-5.136c2.614-1.959,5.632-3.581,8.9-3.766a9.464,9.464,0,0,1,4,.656c.067-3.968,1.051-6.6,3.522-6.2,4.615.74,9.742,2.522,11.507,6.842,1.328,3.27.3,6.943,0,10.457a7.935,7.935,0,0,0,.1,2.782,9.759,9.759,0,0,0,2.438,3.825,20.378,20.378,0,0,1,3.514,4.917,7.162,7.162,0,0,1,.235,5.884,4.28,4.28,0,0,0-.58,1.547c-.059,1.2,1.194,1.959,2.118,2.724,3.463,2.866,3.312,8.086,3.362,12.609a63.649,63.649,0,0,0,6.018,26.6,8.128,8.128,0,0,1-9.1-1.185,30.625,30.625,0,0,0,2.068,5.951c-2.934,1.421-6.464-.916-7.927-3.816s-1.681-6.287-2.69-9.364-2.934-5.792-3.774-8.893a8.547,8.547,0,0,0-1.051-2.976,7.566,7.566,0,0,0-1.849-1.572c-3.018-2.169,1.429-18.594.252-22.116-1.757.378-4.985-8.095-6.825-16.711a8.7,8.7,0,0,1-3.993.4,4.811,4.811,0,0,0-1.429-.1,3.8,3.8,0,0,0-1.244.5,30.689,30.689,0,0,1-4.245,2.185c-3.043,1.135-6.4.984-9.633.841a9.549,9.549,0,0,1,1.362-6.884Z" transform="translate(17222.963 -4020.17)" fill="#3f3d56"/>
    <path id="Path_3017" data-name="Path 3017" d="M999.077,504.364a63.782,63.782,0,0,1-6.018-26.6c0-4.5.126-9.717-3.362-12.609-.925-.765-2.177-1.521-2.127-2.723a4.3,4.3,0,0,1,.589-1.547,7.2,7.2,0,0,0-.236-5.884,20.378,20.378,0,0,0-3.514-4.917,9.777,9.777,0,0,1-2.446-3.825,8.353,8.353,0,0,1-.1-2.782c.345-3.514,1.379-7.187,0-10.457-1.681-4.2-6.565-5.985-11.062-6.767a2.522,2.522,0,0,1,1.21-.076c4.615.74,9.742,2.522,11.508,6.842,1.328,3.27.3,6.943,0,10.457a7.935,7.935,0,0,0,.1,2.782,9.758,9.758,0,0,0,2.438,3.825,20.378,20.378,0,0,1,3.514,4.917,7.161,7.161,0,0,1,.235,5.884,4.278,4.278,0,0,0-.58,1.547c-.059,1.2,1.194,1.959,2.118,2.723,3.463,2.866,3.312,8.086,3.362,12.609a63.648,63.648,0,0,0,6.018,26.6,7.859,7.859,0,0,1-4.455.841A7.608,7.608,0,0,0,999.077,504.364Z" transform="translate(17218.865 -4020.165)"/>
    <path id="Path_3018" data-name="Path 3018" d="M995.7,523.741a30.075,30.075,0,0,1-2.068-5.951,7.676,7.676,0,0,0,1.992,1.32,31.278,31.278,0,0,0,1.681,4.632,4.4,4.4,0,0,1-2.715.345,4.274,4.274,0,0,0,1.109-.345Z" transform="translate(17215.227 -4034.775)"/>
    <path id="Path_3019" data-name="Path 3019" d="M965.663,433.478a9.681,9.681,0,0,0-2.673-.63h.319a9.4,9.4,0,0,1,2.37.177C965.671,433.159,965.663,433.31,965.663,433.478Z" transform="translate(17220.111 -4021.231)"/>
    <path id="Path_3020" data-name="Path 3020" d="M953.774,450.087a30.782,30.782,0,0,0,4.253-2.186,3.733,3.733,0,0,1,1.244-.5,4.59,4.59,0,0,1,1.311.076,5.263,5.263,0,0,0-.908.429,30.689,30.689,0,0,1-4.245,2.185,19.149,19.149,0,0,1-7.12.925A16.871,16.871,0,0,0,953.774,450.087Z" transform="translate(17222.451 -4023.55)"/>
    <path id="Path_3021" data-name="Path 3021" d="M967.419,447l.076.378a8.237,8.237,0,0,1-2.085.059,9.248,9.248,0,0,0,2.009-.437Z" transform="translate(17219.725 -4023.49)"/>
    <path id="Path_3022" data-name="Path 3022" d="M1000.751,514.861a5.127,5.127,0,0,0,1.379,4.1,9.131,9.131,0,0,0,1.95,1.437,5.3,5.3,0,0,0,2.32.841,4.38,4.38,0,0,0,2.967-1.294c2.446-2.143,3.665-5.321,4.791-8.364a62.752,62.752,0,0,0,3.623-12.365c.689-4.564.4-9.3,1.681-13.727-1.16-2.32-1.9-4.875-3.219-7.111a33.512,33.512,0,0,1-2.219-4.161,14.374,14.374,0,0,1-.4-9.6,1.3,1.3,0,0,0-1.53.076,3.218,3.218,0,0,0-.925,1.345,11.912,11.912,0,0,0-.916,5.64,2.245,2.245,0,0,1-.16,1.379,1.731,1.731,0,0,1-1.5.63,13.279,13.279,0,0,1-3.463-.622,32.1,32.1,0,0,0-10.667-.883,5.044,5.044,0,0,0-2.085.5,1.934,1.934,0,0,0-1.068,1.74l8.523,1.252a3.523,3.523,0,0,1,1.8.614,1.219,1.219,0,0,1,.244,1.681,3.36,3.36,0,0,1-.588.387,1.757,1.757,0,0,0,.067,2.807,1.8,1.8,0,0,1,.58.4c.353.471-.109,1.084-.261,1.681a2.085,2.085,0,0,0,1.026,2.127,7.5,7.5,0,0,0,2.379.8,25.067,25.067,0,0,1,4.875,1.681,2.673,2.673,0,0,1,1.269.95,2.85,2.85,0,0,1-.151,2.387l-2.219,5.985c-.353.941-.7,1.874-1.135,2.782-.563,1.168-1.261,2.27-1.841,3.438a34.322,34.322,0,0,0-1.387,3.362C1003.365,509.8,1001.138,511.624,1000.751,514.861Z" transform="translate(17215.594 -4026.265)" fill="#a1616a"/>
    <path id="Path_3023" data-name="Path 3023" d="M545.9,249.17V531.107a93.388,93.388,0,0,0-29.109-4.489c-41.92,0-75.963,29.664-75.963,71.583s34.043,71.256,75.963,71.256,76.173-30.866,76.173-75.652V398.019H814.037V531.107a93.347,93.347,0,0,0-29.109-4.489c-41.919,0-75.963,29.664-75.963,71.583s34.043,71.256,75.963,71.256S861.1,638.592,861.1,593.806V249.17ZM814.046,354.242H592.974v-58H814.046Z" transform="translate(17303.355 -3991.951)" fill="#000f6a"/>
    <path id="Path_3024" data-name="Path 3024" d="M279.471,212.17V401.384A71.575,71.575,0,1,0,315.28,463.25V283.871h71.785v-71.7Z" transform="translate(17346.193 -3986.052)" fill="#000f6a"/>
    <path id="Path_3028" data-name="Path 3028" d="M379.184,212.17V272.1H307.4V451.482A71.676,71.676,0,0,1,191.24,507.708,71.684,71.684,0,0,0,319.167,463.25V283.871h71.785v-71.7Z" transform="translate(17343.146 -3986.052)" opacity="0.1"/>
    <path id="Path_3029" data-name="Path 3029" d="M173.87,228.676l.244,1.832,7.943,1.126s.647-.488,1.681-1.152a24.69,24.69,0,0,1,7.733-3.6c4.161-.841,17.392-6.767,13.13-7.153s-3.825.5-3.825.5-4.7-4.615-9.549-.4c-3.682,3.2-11.768,6.649-15.458,8.12C174.593,228.415,173.87,228.676,173.87,228.676Z" transform="translate(17345.916 -3986.99)" fill="#efb7b9"/>
    <path id="Path_3030" data-name="Path 3030" d="M209.394,205.44a13.449,13.449,0,0,1,3.808-.975,4.632,4.632,0,0,1,3.623,1.21c.513.53.841,1.21,1.345,1.748,2.421,2.589,7.12.656,10.036,2.665,1.79,1.244,2.345,3.589,2.984,5.682s1.8,4.388,3.934,4.833a11.666,11.666,0,0,0,3.1-.118,3.051,3.051,0,0,1,2.791,1.026c.992,1.5-.378,4.018,1.059,5.094,1.286.95,3.614-.378,4.514.941a1.967,1.967,0,0,1-.311,2.185,15.189,15.189,0,0,0-1.463,1.832,2.774,2.774,0,0,0,2.732,4.052c.908-.092,1.874-.605,2.665-.16a1.883,1.883,0,0,1,.841,1.488,3.909,3.909,0,0,1-3.514,4.11c-1.547.1-2.967-.74-4.346-1.446s-3-1.3-4.43-.714a6.842,6.842,0,0,0-1.782,1.252,19.51,19.51,0,0,1-5.481,3.245c-1.748.689-3.783,1.1-5.464.244-1.891-.967-2.866-3.32-4.867-4.035s-4.287.622-6.2,1.757-4.48,2.085-6.212.689c-1.866-1.5-1.294-4.522-2.429-6.632a6.514,6.514,0,0,0-1.824-2.009c-1.278-.983-2.732-1.723-4.018-2.69a6.725,6.725,0,0,1-2.74-3.85c-.378-1.908.53-3.816,1.563-5.464s2.236-3.261,2.572-5.17c.252-1.429,0-2.917.328-4.329a5.338,5.338,0,0,1,3.463-3.657c.941-.319,1.11-.235,1.589-1.068a3.362,3.362,0,0,1,2.135-1.74Z" transform="translate(17342.123 -3984.82)" fill="#3f3d56"/>
    <path id="Path_3031" data-name="Path 3031" d="M249.5,225.44a7.153,7.153,0,0,1,.151,2.522,6.817,6.817,0,0,1-.151-2.522Z" transform="translate(17333.867 -3988.168)"/>
    <path id="Path_3032" data-name="Path 3032" d="M253.7,236.114a2.748,2.748,0,0,0-.286.925,2.841,2.841,0,0,1,.1-2.354,14.953,14.953,0,0,1,1.463-1.824,3.1,3.1,0,0,0,.42-.841l.067.076a1.967,1.967,0,0,1-.3,2.177,15.029,15.029,0,0,0-1.463,1.841Z" transform="translate(17333.268 -3989.217)"/>
    <path id="Path_3033" data-name="Path 3033" d="M200.317,233.56c1.286.975,2.732,1.681,4.01,2.7a6.405,6.405,0,0,1,1.824,2.009c1.135,2.11.563,5.128,2.429,6.632,1.732,1.4,4.3.454,6.22-.689s4.1-2.522,6.2-1.757,2.976,3.068,4.875,4.035c1.681.841,3.707.437,5.464-.244A19.586,19.586,0,0,0,236.807,243a7.229,7.229,0,0,1,1.782-1.261c1.437-.58,3.06,0,4.438.723s2.8,1.547,4.337,1.446a3.951,3.951,0,0,0,3.488-3.455,2.521,2.521,0,0,1,.185.74,3.9,3.9,0,0,1-3.488,4.136c-1.538.1-2.967-.74-4.337-1.437s-3-1.3-4.438-.723a7.423,7.423,0,0,0-1.782,1.252,19.611,19.611,0,0,1-5.472,3.253c-1.748.681-3.791,1.093-5.464.244-1.9-.967-2.866-3.32-4.875-4.035s-4.287.614-6.2,1.757-4.489,2.085-6.22.681c-1.866-1.5-1.294-4.514-2.429-6.632a6.473,6.473,0,0,0-1.824-2c-1.269-.983-2.723-1.723-4.01-2.7a6.725,6.725,0,0,1-2.749-3.85,4.547,4.547,0,0,1-.084-1.009,7.027,7.027,0,0,0,2.648,3.43Z" transform="translate(17342.121 -3988.916)"/>
    <path id="Path_3034" data-name="Path 3034" d="M204.323,286.13l-2.883.614s2.841,4.674,7.221,1.605S204.323,286.13,204.323,286.13Z" transform="translate(17341.52 -3997.826)" fill="#4c4981"/>
    <path id="Path_3035" data-name="Path 3035" d="M204.323,286.13l-2.883.614s2.841,4.674,7.221,1.605S204.323,286.13,204.323,286.13Z" transform="translate(17341.52 -3997.826)" opacity="0.1"/>
    <path id="Path_3036" data-name="Path 3036" d="M279.32,336.633s4,2.068,7.725,4.463c2.673,1.681,5.2,3.589,6.027,4.993,1.984,3.362,11.625,7.01,11.625,7.01l9.566,7.279c2.253.748,4.447,3.488,5.346,4.716.269.37.429.605.429.605l3.833-.5,2.017-2.623s.513-5.783-3.472-5.716a5.481,5.481,0,0,1-2.244-.58c-4.287-1.891-10.28-7.859-10.28-7.859S299.7,335.7,296.653,335.279a5.044,5.044,0,0,1-.958-.244c-3.1-1.084-7.565-5.086-7.565-5.086Z" transform="translate(17329.104 -4004.829)" fill="#efb7b9"/>
    <path id="Path_3037" data-name="Path 3037" d="M232.272,378.856c1.017,6.111,5.649,17.795,7.136,20.233,1.849,3.018,2.816,9.061,2.816,9.061l.546,4.2a4.875,4.875,0,0,0,.605,1.631,8.891,8.891,0,0,0,.538.841l7.674-2.362s-.446-1.765-1.118-3.791-1.681-4.573-2.639-5.514c-1.874-1.841-2.152-8.339-2.152-8.339s-1.563-12.491-2.043-14.063a21.687,21.687,0,0,1-.841-4.606c-.076-.841-.126-1.8-.134-2.883a58.918,58.918,0,0,0-1.21-9.246l-8.952,1.622-.235,10.011a6.674,6.674,0,0,0,.008,3.2Z" transform="translate(17336.637 -4010.261)" fill="#efb7b9"/>
    <path id="Path_3038" data-name="Path 3038" d="M327.25,370.089c.269.37.429.605.429.605l3.833-.5,2.017-2.623s.513-5.783-3.472-5.716a5.48,5.48,0,0,1-2.244-.58c-.328,1.732,1.614,3.169,1.614,3.169s.841.588.614,3.3C329.915,369.6,328.276,370,327.25,370.089Z" transform="translate(17321.463 -4009.824)" opacity="0.1"/>
    <path id="Path_3039" data-name="Path 3039" d="M326.75,368.969c.252.933,2.673,2.3,4.354,3.161.841.42,1.471.714,1.6.782.387.193,2.421-2.068,2.7-3.892s5.128-7.5,5.128-7.5a20.342,20.342,0,0,0,1.8-7.1c.185-2.48-.841-2.681-2.059-2.118a8.145,8.145,0,0,0-2.3,1.807,6.153,6.153,0,0,1-2.984,1.547,14.6,14.6,0,0,0-4.3,1.832c-1.177.757-2.32,1.681-2.522,2.522-.445,1.79,1.589,3.3,1.589,3.3s.841.588.614,3.3S326.725,368.885,326.75,368.969Z" transform="translate(17321.543 -4008.351)" fill="#444053"/>
    <path id="Path_3040" data-name="Path 3040" d="M331.93,372.13c.841.42,1.471.714,1.6.782.387.193,2.421-2.068,2.7-3.892s5.128-7.5,5.128-7.5a20.342,20.342,0,0,0,1.8-7.1c.185-2.48-.841-2.681-2.059-2.118-.2,1.967-.7,5.792-1.681,7.784C338.184,362.455,333.266,370.07,331.93,372.13Z" transform="translate(17320.717 -4008.351)" opacity="0.1"/>
    <path id="Path_3041" data-name="Path 3041" d="M245.54,422.282l-.076.143a8.888,8.888,0,0,0,.538.841l7.674-2.362s-.446-1.765-1.118-3.791c-3.034-.841-7.389,4.464-7.389,4.464Z" transform="translate(17334.549 -4018.711)" opacity="0.1"/>
    <path id="Path_3042" data-name="Path 3042" d="M244.958,428.067s6.405,2.244,9.246,1.9c2.194-.261,2.286-1.278,2.135-3.362-.05-.672-.118-1.446-.16-2.337-.143-3.7-1.631-4.447-1.631-4.447-2.438-6.388-9.456,2.186-9.456,2.186l.361.706a7.734,7.734,0,0,0-.715,3.488,10.189,10.189,0,0,0,.219,1.866Z" transform="translate(17334.617 -4018.78)" fill="#444053"/>
    <path id="Path_3043" data-name="Path 3043" d="M244.959,429.726s6.405,2.244,9.246,1.9c2.194-.261,2.286-1.278,2.135-3.362a6.783,6.783,0,0,1-5.22,1.5,20.535,20.535,0,0,1-6.38-1.9,10.189,10.189,0,0,0,.219,1.866Z" transform="translate(17334.617 -4020.438)" opacity="0.1"/>
    <path id="Path_3044" data-name="Path 3044" d="M207.23,243.1l2.522,10.927.513,2.253,4.632.588,4.774.605,5.195-1.883s1.446-4.943.252-8.65a5.481,5.481,0,0,0-2.4-3.169,5.339,5.339,0,0,1-1-.773,4.388,4.388,0,0,1-.841-1.2,4.968,4.968,0,0,1-.445-1.74c-.261-2.95,1.605-6.178,1.605-6.178s-11.012-3.757-10.154-1.328c.563,1.572-.992,4.312-2.152,6.044-.63.933-1.143,1.58-1.143,1.58Z" transform="translate(17340.598 -3989.172)" fill="#efb7b9"/>
    <circle id="Ellipse_212" data-name="Ellipse 212" cx="9.566" cy="9.566" r="9.566" transform="translate(17548.197 -3769.41)" opacity="0.1"/>
    <circle id="Ellipse_213" data-name="Ellipse 213" cx="9.566" cy="9.566" r="9.566" transform="translate(17548.156 -3769.763)" fill="#efb7b9"/>
    <path id="Path_3045" data-name="Path 3045" d="M207.848,281.376a23.412,23.412,0,0,0,2.522,5.43l13.357,3.278,9.541-9.986v-.067c-.294-.933-3.934-12.71-1.3-15.609,2.757-3.018,1.681-11.533,1.681-11.533s-4.766-5.481-5.733-6.809-7.153-2.37-7.153-2.37c.311.42.6.841.841,1.2a11.768,11.768,0,0,1,1.521,3.228,4.825,4.825,0,0,1-.126,3.505,3.851,3.851,0,0,0-.328.9c-1.042,4.564-5.8,3.925-7.691,3.472-.488-.118-.79-.219-.79-.219l-4.548.143-2.858.092s1.3,22.511.992,24.3a2.874,2.874,0,0,0,.076,1.042Z" transform="translate(17340.668 -3991.081)" fill="#f86d70"/>
    <path id="Path_3046" data-name="Path 3046" d="M206.859,259.5l8.28-1.084h-.151c-.488-.118-.782-.219-.782-.219l-4.556.143-2.85.092S206.817,258.805,206.859,259.5Z" transform="translate(17340.666 -3993.391)" fill="#925978"/>
    <path id="Path_3047" data-name="Path 3047" d="M167.52,209.314l3.589.874,5.657-.74,1.471-1.538Z" transform="translate(17389.293 -3912.15)" fill="#925978"/>
    <path id="Path_3048" data-name="Path 3048" d="M174.63,211.263l1.622.4.664-.7Z" transform="translate(17388.16 -3912.637)" fill="#925978"/>
    <path id="Path_3049" data-name="Path 3049" d="M207.851,280.766c2.135.219,4.1.328,4.1.328l11-.412V269.191a16.3,16.3,0,0,0-4.438-2.925c-1.917-.664-4.2-2.7-3.749-8.061a7.685,7.685,0,0,1,.092-.958,12.341,12.341,0,0,0,.1-1.807,9.667,9.667,0,0,0-3.051-7.078,1.458,1.458,0,0,0-.16-.143l-1.79-8.339a1.785,1.785,0,0,0-.361.05c-.63.933-1.143,1.58-1.143,1.58l-1.32,2.892,2.522,10.927-2.858.092s1.3,22.511.992,24.3A2.875,2.875,0,0,0,207.851,280.766Z" transform="translate(17340.666 -3990.47)" opacity="0.1"/>
    <path id="Path_3050" data-name="Path 3050" d="M209.414,281.174l11-.4v-11.5a16.4,16.4,0,0,0-4.43-2.925c-2.026-.706-4.438-2.925-3.657-9.019a9.978,9.978,0,0,0-2.925-8.935l-.168-.143-1.79-8.339a3.875,3.875,0,0,0-2.833,1.622,7.1,7.1,0,0,1-.664.975,1.681,1.681,0,0,1-2.211.656c-1.16-.513-6.153-2.623-7.271-.555s-1.328,14.382-1.328,14.382a9.406,9.406,0,0,1,3.236,5.321c.765,3.522,2.043,3.606,2.043,3.606L199.8,276s1.252,2.194.319,3.4" transform="translate(17342.844 -3990.475)" fill="#444053"/>
    <path id="Path_3051" data-name="Path 3051" d="M206,242.515l1.874,5.615,3.581.311-.168-.143-1.79-8.339a3.875,3.875,0,0,0-2.833,1.622A7.106,7.106,0,0,1,206,242.515Z" transform="translate(17340.793 -3990.483)" fill="#444053"/>
    <path id="Path_3052" data-name="Path 3052" d="M173.87,230.556l.244,1.832,7.943,1.126s.647-.488,1.681-1.152c-.841-.193-4.791-1.051-6.859-1.681-.765-.235-1.269-.437-1.286-.572s.05-.16.177-.261C174.593,230.3,173.87,230.556,173.87,230.556Z" transform="translate(17345.916 -3988.871)" opacity="0.1"/>
    <path id="Path_3053" data-name="Path 3053" d="M162.381,241.937s9,6.834,14.584,7.935c0,0,7.851,2.32,10.927,5.043l3.362-12.962-2.059-1.421s-2.463,1.521-4.581,1.017-4.463-.841-4.463-.841a34.517,34.517,0,0,0-5.708-1.563c-1.513-.126-.9-2.093.614-3.135a3.287,3.287,0,0,1,.63-.353,1.95,1.95,0,0,0,2.522.572,5.757,5.757,0,0,0,1.479-1.379h0a19.191,19.191,0,0,0,1.681-2.522s-4.7-1.009-7.036-1.732c-.765-.235-1.269-.437-1.286-.572-.067-.538,4.2-2.236,4.2-2.236s-3.648-1.765-5.128-.479c0,0,.958.714.185,1.421s-10.087,7.876-10.087,7.876S157.623,238.869,162.381,241.937Z" transform="translate(17348.092 -3988.391)" fill="#444053"/>
    <path id="Path_3054" data-name="Path 3054" d="M172,236.094l4.985.714a3.287,3.287,0,0,1,.63-.353,1.95,1.95,0,0,0,2.522.572,5.757,5.757,0,0,0,1.479-1.379h0a19.7,19.7,0,0,0,1.362-2.127s-4.7-1.009-7.036-1.732Z" transform="translate(17346.213 -3989.18)" opacity="0.1"/>
    <path id="Path_3055" data-name="Path 3055" d="M172.34,235.612l5.3.765a1.95,1.95,0,0,0,2.522.572c1.521-.841,3.161-3.917,3.161-3.917s-4.7-1.009-7.036-1.732Z" transform="translate(17346.16 -3989.102)" fill="#444053"/>
    <path id="Path_3056" data-name="Path 3056" d="M288.154,330l-8.834,6.683s4,2.068,7.725,4.463c3.253-2.2,6.321-4.2,8.65-6.061C292.593,333.959,288.154,330,288.154,330Z" transform="translate(17329.104 -4004.837)" opacity="0.1"/>
    <path id="Path_3057" data-name="Path 3057" d="M232.272,378.856a29.934,29.934,0,0,0,6.472-1.547s1.631-.353,4.052-1.16c-.076-.841-.126-1.8-.134-2.883a58.914,58.914,0,0,0-1.21-9.246l-8.952,1.622-.235,10.011a6.674,6.674,0,0,0,.008,3.2Z" transform="translate(17336.637 -4010.261)" opacity="0.1"/>
    <path id="Path_3058" data-name="Path 3058" d="M212.318,325.535c1.8,2.665,6.725,14,6.725,14a48.2,48.2,0,0,0,3.749,5.775c1.959,2.463,3.312,8,4.8,12.432s-.437,3.6-.227,5.884,8.624-.672,8.624-.672,17.19-3.783,22.443-14.29,26.234-20.023,30.479-25.932-1.2-3.472-.992-6.674a9.057,9.057,0,0,0-2.211-5.884s-7.918-2.236-9.2-3.791-7.607-5.447-7.607-5.447-5.96-2.581-6.725-3.48-7.826-3.69-9.986-4.2-4.279-3.614-4.279-3.614-1.337.177-3.312-1.74-10.263-3.564-10.263-3.564c-14.147,10.423-23.923,8.969-23.923,8.969l-.227,1.967C202.66,305.067,210.519,322.87,212.318,325.535Z" transform="translate(17340.637 -3997.556)" fill="#444053"/>
    <path id="Path_3059" data-name="Path 3059" d="M210.79,295.259s12.23,4.026,24.158-10.869c-14.155,10.373-23.931,8.918-23.931,8.918Z" transform="translate(17340.029 -3997.566)" opacity="0.1"/>
    <path id="Path_3060" data-name="Path 3060" d="M235.83,305.59s16.425,23.713,17.442,24.578S236.7,305.3,235.83,305.59Z" transform="translate(17336.037 -4000.945)" opacity="0.1"/>
    <path id="Path_3061" data-name="Path 3061" d="M226.8,303.43s11.373,17.652,11.146,20.039C237.946,323.469,226.968,306.5,226.8,303.43Z" transform="translate(17337.477 -4000.601)" opacity="0.1"/>
    <path id="Path_3062" data-name="Path 3062" d="M218.719,309.2s2.1,9.877-1.059,15.475Z" transform="translate(17338.934 -4001.521)" opacity="0.1"/>
    <path id="Path_3063" data-name="Path 3063" d="M213.513,309.88s-.135,8.549-1.093,10.305Z" transform="translate(17339.77 -4001.63)" opacity="0.1"/>
    <path id="Path_3064" data-name="Path 3064" d="M196.46,213.7l15.105,5.918-5.531.723Z" transform="translate(17384.68 -3913.073)" opacity="0.1"/>
    <path id="Path_3065" data-name="Path 3065" d="M210.887,221.032c.757.5,1.387,1.3,2.286,1.421a3.6,3.6,0,0,0,1.858-.454,6.832,6.832,0,0,1,4.766-.647c2.219.731,3.438,3.287,5.649,4.043a4.026,4.026,0,0,0,2.118.118,4.1,4.1,0,0,0,1.194-.488,3.841,3.841,0,0,0,1.681-2.387,4.943,4.943,0,0,0-1.681-4.657,10.314,10.314,0,0,0-4.7-2.135c-4.438-.983-9.053-.656-13.584-.311a1.975,1.975,0,0,0-1.059.277c-.689.513-1.866,3.093-1.622,3.968C208.13,220.915,210.761,220.074,210.887,221.032Z" transform="translate(17340.512 -3986.534)" opacity="0.1"/>
    <path id="Path_3066" data-name="Path 3066" d="M210.837,220.612c.757.5,1.379,1.3,2.286,1.421a3.555,3.555,0,0,0,1.849-.462,6.838,6.838,0,0,1,4.766-.647c2.219.74,3.438,3.3,5.649,4.043a3.951,3.951,0,0,0,2.118.118,3.867,3.867,0,0,0,1.194-.479,3.934,3.934,0,0,0,1.732-2.387,4.968,4.968,0,0,0-1.723-4.665,10.347,10.347,0,0,0-4.7-2.127c-4.438-.992-9.045-.656-13.584-.319a2,2,0,0,0-1.059.286c-.681.5-1.866,3.093-1.622,3.968C208.08,220.528,210.711,219.637,210.837,220.612Z" transform="translate(17340.52 -3986.466)" fill="#3f3d56"/>
    <path id="Path_3067" data-name="Path 3067" d="M281,228.064l1.446,5.842,1.874-1.135,10.188-6.145s7.716-.286,8.313-6.489-8.574-.059-9.061.412-1.6,1.3-1.6,1.3l-9.482,5.3Z" transform="translate(17328.836 -3986.883)" fill="#efb7b9"/>
    <path id="Path_3068" data-name="Path 3068" d="M281,229.915l1.446,5.842,1.874-1.135c-.412-2.639-1.059-5.043-1.681-5.632Z" transform="translate(17328.836 -3988.734)" opacity="0.1"/>
    <path id="Path_3069" data-name="Path 3069" d="M221.18,270.14l2.076,12.188,12.289-2.547c-.294-.933-3.934-12.71-1.3-15.609,2.757-3.018,1.681-11.533,1.681-11.533s-4.766-5.481-5.733-6.809-7.153-2.37-7.153-2.37a4.968,4.968,0,0,1-.445-1.74,6.994,6.994,0,0,0-.471,1.3c0,2.219.9,3.749,3.278,4.867.21.1.429.193.664.286.37.151.782.294,1.219.429l.2.059c3.959,1.177,4.816,3.547,4.816,3.547a9.07,9.07,0,0,1,1.8,6.388C233.713,262.339,221.18,270.14,221.18,270.14Z" transform="translate(17338.373 -3990.763)" opacity="0.1"/>
    <path id="Path_3070" data-name="Path 3070" d="M222,268l2.076,12.18,13.895-2.892s-.42-4.6-1.387-6.464-.773-9.154-.773-9.154c5.884-6.338,2.791-11.491,2.791-11.491s17.291-2.808,17.585-3.362,6.061-3.631,6.061-3.631,6.262-1.605,7.111-2.522a7.564,7.564,0,0,1,1.025-.933,2.7,2.7,0,0,1,.336-.219l.462,3.993h.21a5.691,5.691,0,0,0,2.723-1.076c1.429-1.093-.378-13.071-1.765-13.491a1.6,1.6,0,0,0-.8,0,9.027,9.027,0,0,0-2.984,1.614l-.244.193-.084.076s-7.826,3.068-9.389,4.48-13.735,3.2-13.735,3.2-5.455,1.294-6.161.513-9.036-2.059-9.734-.841-2.631,1-2.631,1c-1.37-1.58-2.32-.967-2.9-.059a6.346,6.346,0,0,0-.74,1.757c0,2.421,1.068,4.01,3.942,5.153.437.168.908.336,1.421.488,3.968,1.177,4.816,3.547,4.816,3.547a9.053,9.053,0,0,1,1.807,6.388C234.558,260.2,222,268,222,268Z" transform="translate(17338.242 -3988.718)" fill="#444053"/>
    <path id="Path_3071" data-name="Path 3071" d="M280.391,229a1.294,1.294,0,0,1,.445.05c1.387.42,3.186,12.407,1.757,13.5a5.632,5.632,0,0,1-2.429,1.051h-.21l-.462-3.993a2.7,2.7,0,0,0-.336.219v-.168a10.373,10.373,0,0,0-1.975-8.868Z" transform="translate(17329.445 -3988.735)" opacity="0.1"/>
    <path id="Path_3072" data-name="Path 3072" d="M279.518,239.573l.462,3.993a5.59,5.59,0,0,0,2.967-1.135c1.429-1.093-.378-13.071-1.765-13.491-1.093-.336-3.018,1.026-3.783,1.605a10.39,10.39,0,0,1,2.118,9.028Z" transform="translate(17329.41 -3988.717)" fill="#444053"/>
    <path id="Path_3073" data-name="Path 3073" d="M227.112,247.94l1.992-1.866-5.195-5.043a6.346,6.346,0,0,0-.74,1.757C223.187,245.208,224.238,246.8,227.112,247.94Z" transform="translate(17338.057 -3990.653)" fill="#444053"/>
    <path id="Path_3074" data-name="Path 3074" d="M210.747,220.666c.757.5,1.379,1.3,2.286,1.421a3.556,3.556,0,0,0,1.849-.462,6.838,6.838,0,0,1,4.766-.647c2.219.74,3.438,3.3,5.649,4.043a3.951,3.951,0,0,0,2.118.118,3.807,3.807,0,0,0,3.018-3.934,3.984,3.984,0,0,1,0,1.782,3.9,3.9,0,0,1-1.732,2.387,3.783,3.783,0,0,1-1.194.479,3.917,3.917,0,0,1-2.11-.118c-2.219-.748-3.438-3.3-5.657-4.043a6.884,6.884,0,0,0-4.766.647,3.556,3.556,0,0,1-1.849.462c-.9-.118-1.53-.925-2.286-1.421-.126-.975-2.757-.084-3.085-1.252a1.4,1.4,0,0,1,0-.538C208.276,220.489,210.621,219.75,210.747,220.666Z" transform="translate(17340.518 -3987.235)" opacity="0.1"/>
    <path id="Path_3075" data-name="Path 3075" d="M220.6,253.6s-1.1,3.093.3,4.136c0,0-1.538-4.094-2.429-4" transform="translate(17338.805 -3992.657)" opacity="0.1"/>
    <path id="Path_3076" data-name="Path 3076" d="M301.723,217.76s-7.1,6.145-1.967,7.136S301.723,217.76,301.723,217.76Z" transform="translate(17326.143 -3986.943)" fill="#efb7b9"/>
    <path id="Path_3077" data-name="Path 3077" d="M809.913,420.25H588.842v195.8c0,44.769-34.253,75.652-76.173,75.652A84.167,84.167,0,0,1,483.4,686.57a81.99,81.99,0,0,0,40.2,10.179c41.919,0,76.173-30.866,76.173-75.652v-195.8H809.913Z" transform="translate(17296.568 -4019.225)"/>
    <path id="Path_3078" data-name="Path 3078" d="M558.42,270.048h10.927V217.083H779.508V212.04H558.42Z" transform="translate(17326.975 -3912.809)"/>
    <path id="Path_3079" data-name="Path 3079" d="M907.832,249.17V588.763c0,44.769-34.253,75.652-76.173,75.652a84.166,84.166,0,0,1-29.269-5.136,81.989,81.989,0,0,0,40.2,10.179c41.92,0,76.173-30.866,76.173-75.652V249.17Z" transform="translate(17245.715 -3991.951)"/>
    <path id="Path_3138" data-name="Path 3138" d="M497.9,550.638c.9-3.27,1.488-6.145,1.488-6.145a12.861,12.861,0,0,1,1.681-6.229l.042-.9h0l.252-6.632a22.328,22.328,0,0,0-1.538-3.539c-1.118-2.127.378-9.725.378-9.725s4.842-10.6,4.026-17.467,10.255-29.992,10.255-29.992a29.739,29.739,0,0,0-.7-6.725,5.723,5.723,0,0,1-.076-1.412v-.118c.328-4.5,4.2-12.81,4.2-12.81l.143-16.105s-1.908-9.583,2.295-22.183c1.463-4.4,2.429-7.918,3.06-10.642.076-.311.143-.605.2-.891-7.565-1.463-13.382-2.656-13.382-2.656s5.136-18.35,8.254-21.477,5.884-13.231,5.884-13.231,2.059-13.021-.311-16.938-2.438-10.566-2.438-10.566-5.581-4.388-6.229-6.271a30.7,30.7,0,0,1-1.6-8.3c.084-2.2.841-4.144.681-5.3s1.891-5.5,1.009-7.616a5.884,5.884,0,0,1-.3-2.026s0,0,0-.059a28.16,28.16,0,0,1,.714-5.413,15.331,15.331,0,0,1,5.8-2.816l.143-.5.37-1.286c.2-.126.4-.227.58-.319v-.471l.126-1.883-.74-4.262c-1.479-7.414,8.406-8.137,8.406-8.137a5.161,5.161,0,0,1,2.875-2.328c2-.622-.1,11.07-1.051,11.768-.714.538-3,4.144-4.1,5.884h0l-.185.294a4.106,4.106,0,0,1,.437.488l-.471,2.522-.076.387a10.617,10.617,0,0,1,1.463,2.732,5.694,5.694,0,0,0-1.6,4.119,13,13,0,0,1-.79,5.043c.109-.109,1.429-1.429,2.673-1.051s4.732,1.572,4.732,1.572,2.614.572,2.354,1.135,1.681,3.194,1.681,3.194l7.363-6.321c.076-.2.16-.4.227-.605a16.544,16.544,0,0,0,.731-2.908,16.108,16.108,0,0,1-2.236-.841,4.858,4.858,0,0,1-1.908-1.328,7.567,7.567,0,0,1-1.017-3.093,43.631,43.631,0,0,0-2.4-5.951,19.073,19.073,0,0,1-1.009-10.566,6.943,6.943,0,0,1,1.21-3.034c1.21-1.547,3.362-2.11,4.9-3.312s2.631-3.11,4.438-3.993a8.478,8.478,0,0,1,5.388-.252,28.831,28.831,0,0,1,9.885,4.026c1.009.647,2.11,1.4,3.3,1.227a4.447,4.447,0,0,0,2.522-1.681v-.092l.076-.092a12.483,12.483,0,0,1,.9,5.338,3.548,3.548,0,0,1-.067.841v.294a1.2,1.2,0,0,0,0,.244h0a1.453,1.453,0,0,0,0,.378,2.715,2.715,0,0,0,.622.983,5.04,5.04,0,0,1,.546.841.972.972,0,0,0-.084-.294,4.2,4.2,0,0,1,.647,2.261,2.253,2.253,0,0,1-.588,1.572,7.3,7.3,0,0,1-1.194.883,13.449,13.449,0,0,1-6.994,13.777c-.084.193-.177.4-.261.6a16.9,16.9,0,0,0-1.58,7.666,1.643,1.643,0,0,0,.067.563,3.665,3.665,0,0,1,.235.3h0s11.667.563,14.517-1.824,6.725,6.355,6.725,6.355,4.161.967,5.043.193,5.75.1,5.75.1a10.532,10.532,0,0,1,7.4-2.379,21.611,21.611,0,0,1,5.472-2.774h.134a6.043,6.043,0,0,1,2.639-.235s5.926-4.522,7.7-7,10.087-11.634,10.154-11.667l.042-.462.143-1.37a5.113,5.113,0,0,0,.714.092c.05-.135.109-.294.185-.471a25.025,25.025,0,0,1,1.841-3.825s.067-1.74-.429-2.194.479-6.8.479-6.8,5.632-11.894,9.927-2.69c0,0,8.532,6.187.916,12.71,0,0-2.984,1.3-3.446,2.412-.3.723-1.379,2.732-2.093,4.06-.126.219-.235.42-.328.6l.084.076-.151,1.126-.067.437c1.362.841,2.27,1.681,2.017,2.244a12.912,12.912,0,0,0-.958,3.093S626,314.933,624.468,320.329c0,0-27.9,15.13-36.91,15.971l1.244,8.162s.286,4.884.1,6.615.706,9.658.706,9.658,1.11,11.634,2.362,13.306.748,8.607.748,8.607a58.087,58.087,0,0,0,1.421,9.91c1.143,4.455,0,9.86,0,9.86s4.144,10.6-6.464,3.11c0,0-5.338-.538-11.482-.983v.622c0,.79,0,1.681-.067,2.522-.143,5.977-.429,14.206-.933,20.418-.908,10.978-5.094,32.614-5.094,32.614l-.42,10.927a14.239,14.239,0,0,1,.193,3.135,20.309,20.309,0,0,1-3.362,10.835l-1.286,7.22s-2.152,4.724-2.3,7.565a3.6,3.6,0,0,0,.059.7,5.111,5.111,0,0,1,.05,1.126c0,3.312-2.312,11.163-2.312,11.163s-.429,7.985-1.681,8.406c-1.034.361,1.194,4.657,1.858,5.884a2.206,2.206,0,0,0,.05-.227l.143.252a5.657,5.657,0,0,1,.294,2.034,2.908,2.908,0,0,1-1.437,2.757c-2.328,1.294-3.589,2.412-1.681,2.942.731.21,1.513.286,2.093.53,0-.092.076-.185.109-.269a1.278,1.278,0,0,1,.731,1.437,5.884,5.884,0,0,1-.841,2.681,28.7,28.7,0,0,1-3.463,5.775l-.916-.134a4.485,4.485,0,0,0,.5,1.009,3.892,3.892,0,0,0,1.3,1.253,4.2,4.2,0,0,0,1.614.622,4.615,4.615,0,0,1,3.362,1.782c1.126,1.58,1.8,3.715-.63,5.472l-8.666,2.623s-14.794,1.345-13.886-1.925,1.5-6.145,1.5-6.145a13.061,13.061,0,0,1,1.463-5.75,6.053,6.053,0,0,1,.555-.841l-.521-.084s-.79-7.33-2.177-8.776c-.319-.336-.387-.588-.294-.773-.134-.4.244-.622.731-.731a1.259,1.259,0,0,0,.092.286,7.654,7.654,0,0,1,1.437-.1s.63-3.8-.841-5.254a1.471,1.471,0,0,1-.261-1.143,6.236,6.236,0,0,1,.227-1.555l.05.092a56.317,56.317,0,0,1,3.774-8.843s.261-3.472-.647-4.892.841-18.871.841-18.871,0-8.465,1.194-12.365-.992-8.616-.992-8.616v-.252a.183.183,0,0,0,0-.059l.193-1.328v.084c.328-2.228.941-6.262,1.345-8.128.58-2.639.479-15.4.479-15.4l-1.95-5.531-4.2,9.246-4.522,12.3a10.684,10.684,0,0,0-2.27,5.237v.4a6.922,6.922,0,0,1,0,.841,7.431,7.431,0,0,1-1.412,4.413s-1.3,5.884-3.034,7.3-1.841,4.329-1.841,4.329-2.37,8.49-3.362,9.961c-.841,1.236-1.034,4.724-1.068,5.792h0v.311s-.4,3.051-.488,5.632v.849a9.34,9.34,0,0,0,.168,2.093s0,.076,0,.118v-.429a21.752,21.752,0,0,1,.412,5.363c-.067,3.077-.672,6.725-2.623,8.776-3.362,3.581-5.388,3.043-5.388,3.043s1.379,4.69,3.253,5.691a.839.839,0,0,1,.2.134.462.462,0,0,1,.059-.269,2.261,2.261,0,0,1,.5,1.748,12.337,12.337,0,0,1-2.639,6.775,3.791,3.791,0,0,1-1.681.883l.294.2c.235.134.445.244.647.336a3.079,3.079,0,0,0,.967.286,4.564,4.564,0,0,1,3.362,1.782c1.135,1.58,1.807,3.715-.622,5.472l-8.675,2.623S496.995,553.908,497.9,550.638Z" transform="translate(17294.264 -3995.646)" fill="url(#linear-gradient-2)"/>
    <path id="Path_3139" data-name="Path 3139" d="M561.965,609.375l8.406-2.631c2.354-1.765,1.681-3.892.614-5.481a4.388,4.388,0,0,0-3.211-1.774,3.975,3.975,0,0,1-1.563-.622,3.741,3.741,0,0,1-1.261-1.252,6.111,6.111,0,0,1-.841-3.236s-8.994-3.009-11.583-.445a6.848,6.848,0,0,0-1.16,1.572,13.45,13.45,0,0,0-1.387,5.817s-.572,2.866-1.446,6.145S561.965,609.375,561.965,609.375Z" transform="translate(17286.191 -4046.75)" fill="#2d293d"/>
    <path id="Path_3140" data-name="Path 3140" d="M513.929,602.673l8.406-2.631c2.354-1.765,1.681-3.892.614-5.472a4.354,4.354,0,0,0-3.219-1.773,3.288,3.288,0,0,1-.933-.294,4.2,4.2,0,0,1-.622-.336c-2.278-1.362-2.135-4.447-2.135-4.447s-8.986-3.009-11.575-.445a6.638,6.638,0,0,0-.916,1.151,13.139,13.139,0,0,0-1.631,6.237s-.58,2.875-1.454,6.145S513.929,602.673,513.929,602.673Z" transform="translate(17293.855 -4045.688)" fill="#2d293d"/>
    <path id="Path_3141" data-name="Path 3141" d="M553.07,593.933a6.851,6.851,0,0,0-1.16,1.572h0l13.567,2.1a6.111,6.111,0,0,1-.841-3.236S555.659,591.37,553.07,593.933Z" transform="translate(17285.646 -4046.75)" opacity="0.1"/>
    <path id="Path_3142" data-name="Path 3142" d="M504.161,588.383l-.1,2.522c1.984,3.581,12.264,3.211,15.307,1.572a4.2,4.2,0,0,1-.622-.336c-2.27-1.336-2.127-4.421-2.127-4.421s-8.986-3.009-11.575-.445A6.642,6.642,0,0,0,504.161,588.383Z" transform="translate(17293.275 -4045.688)" opacity="0.1"/>
    <path id="Path_3143" data-name="Path 3143" d="M502.676,550.1a22.369,22.369,0,0,1,1.488,3.539l-.353,9.145c2.169,3.909,14.29,3.1,15.971,1.076s3.648-7.4,1.832-8.406-3.144-5.691-3.144-5.691,1.95.538,5.22-3.043,2.656-11.844,2.152-13.836.336-8.565.336-8.565.059-4.64,1.042-6.1,3.287-9.969,3.287-9.969.109-2.892,1.79-4.337,2.942-7.3,2.942-7.3a7.565,7.565,0,0,0,1.353-4.934c-.235-2.908,2.2-5.943,2.2-5.943l4.413-12.356,4.068-9.246,1.841,5.59s.084,12.76-.479,15.408-1.53,9.683-1.53,9.683,2.135,4.716.941,8.616-1.168,12.356-1.168,12.356-1.681,17.45-.841,18.871.622,4.892.622,4.892-5.144,10.011-3.69,11.457.841,5.254.841,5.254-3.236-.126-1.9,1.32,2.16,8.734,2.16,8.734l13.937,2.16a29.255,29.255,0,0,0,3.362-5.783c2.017-4.2-.193-3.841-2.043-4.371s-.622-1.681,1.631-2.95,1.1-4.48,1.1-4.48-3.144-5.808-1.967-6.229,1.605-8.406,1.605-8.406,2.673-9.406,2.194-11.978,2.185-8.616,2.185-8.616l1.093-7.263a20.047,20.047,0,0,0,3.077-13.676l.437-11.23s4.077-21.645,4.968-32.631c.563-7.027.841-16.652.983-22.654.076-3.362.1-5.6.1-5.6l-49.821-7.136a40.787,40.787,0,0,1-1.194,7.4c-.614,2.732-1.555,6.254-2.976,10.65-4.085,12.609-2.244,22.183-2.244,22.183l-.16,16.105s-4.816,10.6-4.035,14.34a30.573,30.573,0,0,1,.672,6.725s-10.751,23.124-9.969,29.992-3.917,17.476-3.917,17.476S501.6,547.968,502.676,550.1Z" transform="translate(17293.559 -4018.462)" fill="#3f3d56"/>
    <path id="Path_3144" data-name="Path 3144" d="M536.67,504.684l-15.13-2.614S529.811,511.2,536.67,504.684Z" transform="translate(17290.488 -4032.269)" opacity="0.05"/>
    <path id="Path_3145" data-name="Path 3145" d="M524.621,484.47s-.731,5.363,2.522,7.515C527.109,491.985,521.242,490.8,524.621,484.47Z" transform="translate(17290.164 -4029.463)" opacity="0.1"/>
    <path id="Path_3146" data-name="Path 3146" d="M526.71,464.12s12.331,10.97,16.988,10.28S526.71,464.12,526.71,464.12Z" transform="translate(17289.664 -4026.219)" opacity="0.1"/>
    <path id="Path_3147" data-name="Path 3147" d="M561.77,511.89s9.583,2.572,9.717,6.464S561.77,511.89,561.77,511.89Z" transform="translate(17284.074 -4033.835)" opacity="0.1"/>
    <path id="Path_3148" data-name="Path 3148" d="M556.528,569.24s13.558,3.068,9.616,4.657a65.919,65.919,0,0,1-10.339,2.707S551.393,576.7,556.528,569.24Z" transform="translate(17285.307 -4042.978)" opacity="0.05"/>
    <path id="Path_3149" data-name="Path 3149" d="M571.152,577.823a2.69,2.69,0,0,0,1.32-1.933l.135.252s1.152,3.169-1.1,4.472l-.731.445c-.4-.092-.841-.168-1.252-.286C567.672,580.236,568.941,579.126,571.152,577.823Z" transform="translate(17282.98 -4044.038)"/>
    <path id="Path_3150" data-name="Path 3150" d="M550.681,575.827c-.361-.361-.311-1.252-.042-2.387a6.431,6.431,0,0,1,.647,3.362A2.73,2.73,0,0,0,550.681,575.827Z" transform="translate(17285.883 -4043.647)"/>
    <path id="Path_3151" data-name="Path 3151" d="M555.835,507.85a15.535,15.535,0,0,1,.757,4.287,17.411,17.411,0,0,0-.941-2.967S555.717,508.657,555.835,507.85Z" transform="translate(17285.051 -4033.191)"/>
    <path id="Path_3152" data-name="Path 3152" d="M518.914,498.939a5.413,5.413,0,0,1-.076-1.269c.134.841.227,1.681.286,2.387C519.065,499.687,518.973,499.318,518.914,498.939Z" transform="translate(17290.92 -4031.568)"/>
    <path id="Path_3153" data-name="Path 3153" d="M554.328,556.339a7.475,7.475,0,0,1-.252-2.589,8.7,8.7,0,0,1,.546,3.278,3.266,3.266,0,0,0-.294-.689Z" transform="translate(17285.305 -4040.508)"/>
    <path id="Path_3154" data-name="Path 3154" d="M549.855,582.68a45.077,45.077,0,0,1,1.328,7.17l13.937,2.16a29.251,29.251,0,0,0,3.362-5.783c.177-.37.319-.706.437-1.009.841.42,1.118,1.3-.084,3.8a29.2,29.2,0,0,1-3.362,5.792l-13.937-2.16s-.765-7.338-2.1-8.784C548.745,583.159,549.2,582.831,549.855,582.68Z" transform="translate(17286.096 -4045.121)"/>
    <path id="Path_3155" data-name="Path 3155" d="M572.5,537.225s-.42,7.985-1.6,8.406h0c-.53-1.345-.841-2.614-.345-2.8,1.177-.42,1.6-8.406,1.6-8.406s2.681-9.406,2.2-11.978,2.186-8.607,2.186-8.607l1.093-7.263a20.073,20.073,0,0,0,3.076-13.685l.429-11.23s4.085-21.645,4.968-32.623c.572-7.036.841-16.652.992-22.654,0-1.084.042-2.051.05-2.866l.4.059s0,2.236-.1,5.6c-.134,6-.42,15.626-.983,22.654-.891,10.986-4.968,32.631-4.968,32.631l-.437,11.23a20.047,20.047,0,0,1-3.077,13.676l-1.093,7.263s-2.665,6.044-2.186,8.616S572.5,537.225,572.5,537.225Z" transform="translate(17282.713 -4019.747)"/>
    <path id="Path_3156" data-name="Path 3156" d="M519.718,587.282a13.593,13.593,0,0,0,2.429-5.422c1.379,1.345-.462,6.3-2.076,8.212S506.277,592.905,504.1,589l.084-2.2C507.21,590.014,518.1,589.19,519.718,587.282Z" transform="translate(17293.27 -4044.99)"/>
    <path id="Path_3157" data-name="Path 3157" d="M502.328,571.914a23.44,23.44,0,0,1,1.488,3.539l-.067,1.622c-.235-.6-.58-1.4-1.068-2.362a6.918,6.918,0,0,1-.4-2.883Z" transform="translate(17293.561 -4043.391)"/>
    <path id="Path_3158" data-name="Path 3158" d="M522.154,571.679a21.9,21.9,0,0,1-1.034-2.8s1.95.538,5.212-3.043c2.387-2.606,2.707-7.691,2.522-11.037.5,1.992,1.118,10.247-2.152,13.836C524.55,570.981,522.986,571.553,522.154,571.679Z" transform="translate(17290.555 -4040.676)"/>
    <path id="Path_3159" data-name="Path 3159" d="M530.547,532.663a60.759,60.759,0,0,0-.5,6.851,10.793,10.793,0,0,0-.2-1.084c-.5-1.984.336-8.565.336-8.565s.067-4.632,1.051-6.1,3.278-9.961,3.278-9.961.109-2.9,1.79-4.337,2.95-7.313,2.95-7.313a7.624,7.624,0,0,0,1.345-4.934c-.235-2.908,2.2-5.943,2.2-5.943l4.421-12.356,4.06-9.246,1.874,5.523v1.765l-1.513-4.489-4.043,9.246-4.413,12.356s-2.438,3.034-2.2,5.943a7.565,7.565,0,0,1-1.353,4.934s-1.269,5.884-2.942,7.3-1.79,4.337-1.79,4.337-2.3,8.5-3.287,9.961S530.547,532.663,530.547,532.663Z" transform="translate(17289.189 -4027.104)"/>
    <path id="Path_3160" data-name="Path 3160" d="M528.862,288.748l.706,4.262-.118,1.883-.092,1.387,4.808.681.58-.983h0c1.076-1.774,3.287-5.38,3.984-5.884.925-.723,2.967-12.415,1.025-11.768a5.044,5.044,0,0,0-2.782,2.337S527.433,281.334,528.862,288.748Z" transform="translate(17289.344 -3996.595)" fill="#ffcdd3"/>
    <path id="Path_3161" data-name="Path 3161" d="M529.48,299.333l4.808.681.58-.983h0a4.245,4.245,0,0,0-5.3-1.084Z" transform="translate(17289.223 -3999.648)" opacity="0.1"/>
    <path id="Path_3162" data-name="Path 3162" d="M527.92,301.654l6.313,1.681.177-.941.454-2.522a4.388,4.388,0,0,0-6.136-1.084l-.361,1.294Z" transform="translate(17289.471 -3999.733)" fill="#dce6f2"/>
    <path id="Path_3163" data-name="Path 3163" d="M651.12,292.2l6.666,3.909.664-1.261c.7-1.328,1.74-3.362,2.034-4.06.445-1.11,3.362-2.421,3.362-2.421,7.38-6.531-.841-12.7-.841-12.7-4.144-9.2-9.616,2.7-9.616,2.7s-.933,6.346-.462,6.8.412,2.186.412,2.186a25.341,25.341,0,0,0-1.79,3.833A7.889,7.889,0,0,0,651.12,292.2Z" transform="translate(17269.83 -3995.619)" fill="#ffcdd3"/>
    <path id="Path_3164" data-name="Path 3164" d="M651.12,295.81l6.666,3.909.664-1.261c-.933-.841-4.2-3.732-5.346-3.648a7.976,7.976,0,0,1-1.614,0C651.246,295.406,651.12,295.81,651.12,295.81Z" transform="translate(17269.83 -3999.227)" opacity="0.1"/>
    <path id="Path_3165" data-name="Path 3165" d="M650.2,297.887l7.5,4.06.219-1.681.151-1.126s-4.287-3.968-5.6-3.875a6.9,6.9,0,0,1-1.992-.084l-.143,1.379Z" transform="translate(17269.977 -3999.286)" fill="#dce6f2"/>
    <path id="Path_3166" data-name="Path 3166" d="M549.65,320.152s33.177,5.043,27.025,2.774c-4.279-1.58-5.884-4.4-6.145-7.473a17.425,17.425,0,0,1,1.538-7.658,32.992,32.992,0,0,1,3.211-5.884s-24.931-15-20.325-2.059a20.476,20.476,0,0,1,1.21,6.094,17.041,17.041,0,0,1-.891,6.077,18.266,18.266,0,0,1-5.624,8.128Z" transform="translate(17286.008 -3999.192)" fill="#ffcdd3"/>
    <path id="Path_3167" data-name="Path 3167" d="M555.891,299.813a20.472,20.472,0,0,1,1.21,6.094c2.32,2.1,4.959,2.076,8.33,2.2,2.606.1,5.455.841,7.565-.328a32.993,32.993,0,0,1,3.211-5.884S551.251,286.877,555.891,299.813Z" transform="translate(17285.104 -3999.187)" opacity="0.1"/>
    <circle id="Ellipse_214" data-name="Ellipse 214" cx="13.785" cy="13.785" r="13.785" transform="translate(17837.666 -3717.749)" fill="#ffcdd3"/>
    <path id="Path_3168" data-name="Path 3168" d="M549.65,323.216s33.177,5.043,27.025,2.774c-4.279-1.58-5.884-4.4-6.145-7.473-1.589-1.858-4.875-3.287-6.985-4.06a10.011,10.011,0,0,0-6.035-.328,8.5,8.5,0,0,0-2.236.933A18.265,18.265,0,0,1,549.65,323.216Z" transform="translate(17286.008 -4002.257)" opacity="0.1"/>
    <path id="Path_3169" data-name="Path 3169" d="M527.92,302.017l6.313,1.681.177-.941a5.632,5.632,0,0,0-6.044-2.328Z" transform="translate(17289.471 -4000.096)" opacity="0.1"/>
    <path id="Path_3170" data-name="Path 3170" d="M650.2,298.148l7.5,4.06.219-1.681a56.438,56.438,0,0,0-7.565-3.707Z" transform="translate(17269.977 -3999.548)" opacity="0.1"/>
    <path id="Path_3171" data-name="Path 3171" d="M530.12,422.867c12.827,2.522,31.1,5.884,34.035,5.119,2.446-.647,10.171-.269,16.879.219.076-3.362.1-5.6.1-5.6l-49.821-7.136a40.8,40.8,0,0,1-1.194,7.4Z" transform="translate(17289.121 -4018.463)" opacity="0.1"/>
    <path id="Path_3172" data-name="Path 3172" d="M515,400.531s42.214,8.927,46.828,7.716,27.966,1.194,27.966,1.194c10.263,7.464,6.271-3.127,6.271-3.127a25.509,25.509,0,0,0,0-9.852,60.417,60.417,0,0,1-1.353-9.91s.5-6.935-.714-8.608-2.27-13.306-2.27-13.306-.841-7.918-.672-9.65-.092-6.615-.092-6.615l-1.194-8.162c8.725-.841,35.75-16.021,35.75-16.021,1.488-5.388,11.818-17.753,11.818-17.753a13.124,13.124,0,0,1,.925-3.093c.773-1.824-9.507-5.884-9.507-5.884s-8.128,9.2-9.843,11.676-7.464,7.019-7.464,7.019a5.674,5.674,0,0,0-2.522.235h-.134a20.635,20.635,0,0,0-5.3,2.782,10.087,10.087,0,0,0-7.162,2.387s-4.724-.841-5.565-.1-4.859-.185-4.859-.185-3.724-8.725-6.481-6.338-14.063,1.841-14.063,1.841c-1.421-2.059-5.043-3.64-7.3-4.463a10.011,10.011,0,0,0-6.035-.336,7.7,7.7,0,0,0-2.429,1.068l-7.111,6.447s-1.874-2.623-1.622-3.194-2.27-1.135-2.27-1.135-3.362-1.168-4.581-1.563-2.48.933-2.589,1.051a13.515,13.515,0,0,0,.773-5.043,5.81,5.81,0,0,1,1.547-4.11c-3.665-10.087-13.138-2.135-13.138-2.135s-1.252,5.4-.4,7.523-1.177,6.447-.992,7.616-.58,3.11-.664,5.312a31.547,31.547,0,0,0,1.538,8.288c.622,1.874,6.018,6.262,6.018,6.262s.092,6.615,2.379,10.532.277,16.938.277,16.938-2.707,10.087-5.733,13.231S515,400.531,515,400.531Z" transform="translate(17291.531 -3999.65)" fill="#3f3d56"/>
    <path id="Path_3173" data-name="Path 3173" d="M592.09,330.97s1.421-3.774,2.589-4.077a26.816,26.816,0,0,0,3.421-1.379l-.689-1.454s-4.4,1.025-5.144,2.278S592.09,330.97,592.09,330.97Z" transform="translate(17279.273 -4003.89)" opacity="0.1"/>
    <path id="Path_3174" data-name="Path 3174" d="M620.2,322.754c.193,1.16,10.457,2.606,10.457,2.606l-5.043-5.43h-.126A20.636,20.636,0,0,0,620.2,322.754Z" transform="translate(17274.76 -4003.232)" opacity="0.1"/>
    <path id="Path_3175" data-name="Path 3175" d="M581.746,369.6c.118-.126-27.251,31.824-46.786,12C534.994,381.6,566.809,387.176,581.746,369.6Z" transform="translate(17288.35 -4011.15)" opacity="0.1"/>
    <path id="Path_3176" data-name="Path 3176" d="M596,349.94a50.377,50.377,0,0,1-6.456,10.137,40.717,40.717,0,0,1-9.843,8.792S595.654,352.075,596,349.94Z" transform="translate(17281.217 -4008.016)" opacity="0.1"/>
    <path id="Path_3177" data-name="Path 3177" d="M604.122,328.58s-3.043,11.146-9.9,14.71Z" transform="translate(17278.902 -4004.611)" opacity="0.1"/>
    <path id="Path_3178" data-name="Path 3178" d="M608.956,330.119c.076-.21,1.975,8.986-9.2,13.6C599.76,343.72,604.484,342.316,608.956,330.119Z" transform="translate(17278.018 -4004.856)" opacity="0.1"/>
    <path id="Path_3179" data-name="Path 3179" d="M528.556,318c.177,0-5.556,3.362-7.136,4.943C521.42,322.956,525.27,317.652,528.556,318Z" transform="translate(17290.508 -4002.921)" opacity="0.1"/>
    <path id="Path_3180" data-name="Path 3180" d="M568.261,304.427a2.883,2.883,0,0,1-1.143,1.816,2.791,2.791,0,0,1-1.311.244c-4.2.1-8.591.118-12.415-1.681a4.691,4.691,0,0,1-1.841-1.328,7.7,7.7,0,0,1-.983-3.085,45.4,45.4,0,0,0-2.32-5.951,19.669,19.669,0,0,1-.958-10.516,7.12,7.12,0,0,1,1.168-3.043c1.177-1.547,3.228-2.11,4.749-3.32s2.522-3.11,4.3-3.993a7.69,7.69,0,0,1,5.212-.261,27.227,27.227,0,0,1,9.566,4.018c.975.647,2.043,1.4,3.2,1.227a4.455,4.455,0,0,0,2.446-1.74,12.668,12.668,0,0,1,.841,6.044,2.742,2.742,0,0,0,0,.908,2.824,2.824,0,0,0,.605.975c.992,1.244,1.563,3.177.5,4.346-.462.521-1.16.782-1.614,1.3-.841.933-.614,2.337-.639,3.581a1.841,1.841,0,0,1-.353,1.21,1.79,1.79,0,0,1-1.681.336,4.775,4.775,0,0,0-1.807-.244,3.068,3.068,0,0,0-1.622,1.152C570.052,298.8,569.195,301.485,568.261,304.427Z" transform="translate(17286.436 -3995.748)" fill="#3f3d56"/>
    <path id="Path_3181" data-name="Path 3181" d="M551.886,304.746a4.665,4.665,0,0,0,1.849,1.328c3.825,1.765,8.2,1.748,12.415,1.681a3.01,3.01,0,0,0,1.311-.244,2.883,2.883,0,0,0,1.143-1.824c.933-2.934,1.79-5.615,3.825-8.011a3.035,3.035,0,0,1,1.622-1.152,4.775,4.775,0,0,1,1.807.244,1.774,1.774,0,0,0,1.681-.345,1.841,1.841,0,0,0,.353-1.21c0-1.236-.177-2.639.63-3.572.454-.53,1.152-.79,1.622-1.3a2.7,2.7,0,0,0,.37-2.749c.689,1.194.958,2.707.059,3.69-.471.513-1.168.782-1.622,1.3-.841.933-.605,2.337-.63,3.581a1.84,1.84,0,0,1-.353,1.21,1.79,1.79,0,0,1-1.681.336,4.816,4.816,0,0,0-1.807-.244,3.035,3.035,0,0,0-1.622,1.152c-2.034,2.4-2.9,5.043-3.825,8.019a2.883,2.883,0,0,1-1.143,1.816,2.791,2.791,0,0,1-1.311.244c-4.2.1-8.591.118-12.415-1.681a4.665,4.665,0,0,1-1.849-1.328,3.748,3.748,0,0,1-.555-1.135Z" transform="translate(17285.67 -3998.076)"/>
    <path id="Path_3182" data-name="Path 3182" d="M584.569,284.071a1.992,1.992,0,0,1-.4-.714,2.519,2.519,0,0,1,0-.9,12.819,12.819,0,0,0-.454-5.043l.076-.084a12.769,12.769,0,0,1,.8,6.044,4.441,4.441,0,0,0-.025.7Z" transform="translate(17280.576 -3996.44)"/>
    <path id="Path_3183" data-name="Path 3183" d="M571.293,320.244s-17.307,1.614-18.753-1.034" transform="translate(17285.547 -4003.117)" opacity="0.1"/>
    <path id="Path_3184" data-name="Path 3184" d="M533.128,310.428s-9.566-.353-11.768,3.152" transform="translate(17290.518 -4001.715)" opacity="0.1"/>
    <path id="Path_3185" data-name="Path 3185" d="M565,187.694c-54.4-2.026-106.215-20.888-155.691-41.533s-98.49-43.5-151.547-54.436c-34.153-7.036-73.206-8.036-100.726,11.634-26.52,18.963-35.077,51.6-39.65,81.914-3.463,22.813-5.5,46.82,3.984,68.171,6.582,14.828,18.274,27.285,26.36,41.482,28.134,49.409,8.246,110.342-22.242,158.583-14.29,22.628-30.883,44.214-41.92,68.305s-16.164,51.7-6.531,76.274c9.566,24.377,32.371,42.651,57.075,55.478,50.174,26.134,109.275,33.623,166.947,37.826,127.616,9.381,255.922,5.321,383.882,1.252,47.35-1.5,94.918-3.034,141.5-10.927,25.873-4.371,52.578-11.306,71.356-28.042,23.847-21.241,29.756-57.218,13.777-83.856-26.8-44.685-100.869-55.789-119.622-103.744-10.305-26.394.277-55.8,15.265-80.275,32.135-52.519,86.016-98.591,88.849-158.625,1.95-41.188-23.948-82.511-63.993-102.021C790.1,104.7,731.9,107.276,700.946,141.126,669.071,176.119,613.03,189.493,565,187.694Z" transform="translate(17362.162 -3966.115)" fill="#a8adcc" opacity="0.1"/>
  </g>
</svg>
