<svg xmlns="http://www.w3.org/2000/svg" xmlns:xlink="http://www.w3.org/1999/xlink" width="723.688" height="610" viewBox="0 0 723.688 610">
  <defs>
    <linearGradient id="linear-gradient" x1="0.5" y1="1" x2="0.5" gradientUnits="objectBoundingBox">
      <stop offset="0" stop-color="gray" stop-opacity="0.251"/>
      <stop offset="0.54" stop-color="gray" stop-opacity="0.122"/>
      <stop offset="1" stop-color="gray" stop-opacity="0.102"/>
    </linearGradient>
    <linearGradient id="linear-gradient-2" x1="0.5" x2="0.5" xlink:href="#linear-gradient"/>
  </defs>
  <g id="retail" transform="translate(-77.15 -0.54)">
    <path id="Path_3186" data-name="Path 3186" d="M852.863,439.409c-.717.523-1.376,1.032-2.079,1.527a70.082,70.082,0,0,1-8.122,4.953c-14.753,7.778-32.939,11.577-50.652,14.158-39.728,5.792-80.287,6.918-120.674,8.022-109.126,3-218.517,5.986-327.378-.918-43.011-2.724-86.968-7.283-125.943-21.262q-8.38-3-16.43-6.609c-10.86-4.882-21.29-10.824-29.964-17.921-8.151-6.652-14.76-14.294-18.71-22.982-8.237-18.093-3.878-38.416,5.527-56.151A174.5,174.5,0,0,1,171.621,321.6c7.262-9.986,15.269-19.685,22.574-29.663,25.993-35.47,42.954-80.344,18.961-116.724-6.9-10.452-16.86-19.627-22.48-30.538-7.168-13.957-6.617-29.455-4.337-44.509q.444-2.867.939-5.677c3.893-22.323,11.219-46.373,33.807-60.308,23.462-14.48,56.782-13.749,85.9-8.6,45.283,8.086,87.054,24.918,129.269,40.115s86.38,29.083,132.775,30.574c40.968,1.319,88.753-8.552,115.943-34.208C711.379,37.143,761.021,35.243,796.8,50.3c24.559,10.33,42.882,28.939,50.609,49.871a65.1,65.1,0,0,1,3.362,12.989,59.915,59.915,0,0,1,.6,12.251c-.108,2.022-.315,4.021-.6,6-5.979,41.3-49.011,73.886-75.169,110.782-12.781,18.022-21.807,39.67-13.018,59.1,13.405,29.613,60.022,40.143,88.172,62.179a66.235,66.235,0,0,1,13.835,14.194C878.247,397.28,873.207,423.768,852.863,439.409Z" transform="translate(-71.408 -21.674)" fill="#001269" opacity="0.1"/>
    <ellipse id="Ellipse_215" data-name="Ellipse 215" cx="79.95" cy="10.409" rx="79.95" ry="10.409" transform="translate(213.332 589.722)" fill="#001269" opacity="0.1"/>
    <g id="browser" transform="translate(98.722 68.487)">
      <path id="Path_3223" data-name="Path 3223" d="M860.624,467.632V117H178.65V447.517c8.71,7.269,19.183,13.384,30.108,18.409q8.072,3.72,16.488,6.8H852.488Z" transform="translate(-178.65 -117)" fill="url(#linear-gradient)"/>
      <path id="Path_3224" data-name="Path 3224" d="M859.894,471.74V131H180.73V452.22c8.674,7.068,19.1,13.011,29.964,17.921q8.043,3.584,16.43,6.609H851.772Z" transform="translate(-179.239 -120.964)" fill="#fff"/>
      <rect id="Rectangle_847" data-name="Rectangle 847" width="679.157" height="18.022" transform="translate(1.498 0.996)" fill="#5a5773"/>
    </g>
    <g id="buttons" transform="translate(109.123 73.835)">
      <circle id="Ellipse_220" data-name="Ellipse 220" cx="4.66" cy="4.66" r="4.66" fill="#fff"/>
      <circle id="Ellipse_221" data-name="Ellipse 221" cx="4.66" cy="4.66" r="4.66" transform="translate(12.545)" fill="#fff"/>
      <circle id="Ellipse_222" data-name="Ellipse 222" cx="4.66" cy="4.66" r="4.66" transform="translate(25.09)" fill="#fff"/>
    </g>
    <g id="boxes" transform="translate(118.442 127.111)">
      <rect id="Rectangle_848" data-name="Rectangle 848" width="112.187" height="70.495" transform="translate(155.334)" fill="#001269"/>
      <rect id="Rectangle_849" data-name="Rectangle 849" width="112.187" height="70.495" fill="#5a5773" opacity="0.2"/>
      <rect id="Rectangle_850" data-name="Rectangle 850" width="112.187" height="70.495" transform="translate(310.668)" fill="#5a5773" opacity="0.2"/>
      <rect id="Rectangle_851" data-name="Rectangle 851" width="112.187" height="70.495" transform="translate(0 100.782)" fill="#5a5773" opacity="0.2"/>
      <rect id="Rectangle_852" data-name="Rectangle 852" width="112.187" height="70.495" transform="translate(155.334 100.782)" fill="#5a5773" opacity="0.2"/>
      <rect id="Rectangle_853" data-name="Rectangle 853" width="112.187" height="70.495" transform="translate(310.668 100.782)" fill="#5a5773" opacity="0.2"/>
      <rect id="Rectangle_854" data-name="Rectangle 854" width="112.187" height="70.495" transform="translate(0 201.556)" fill="#5a5773" opacity="0.2"/>
      <rect id="Rectangle_855" data-name="Rectangle 855" width="112.187" height="70.495" transform="translate(155.334 201.556)" fill="#5a5773" opacity="0.2"/>
      <rect id="Rectangle_856" data-name="Rectangle 856" width="112.187" height="70.495" transform="translate(310.668 201.556)" fill="#5a5773" opacity="0.2"/>
    </g>
    <g id="woman" transform="translate(247.719 144.715)">
      <path id="Path_3225" data-name="Path 3225" d="M504.687,382.379s-20.151-36.832-16.753-42.825a81.628,81.628,0,0,0,5.9-14.667s7.441-5.09,7.441-7.169,5.893-6.889,9-8.982,1.548-11.979,0-13.176-4.007-5.391-4.007-5.391,2.151-5.986,0-7.785.315-3.584,0-5.391a72.339,72.339,0,0,1,0-8.38c-2.516-3.5-5.3-5.133-7.928-5.735l-.229-.946-1.326-5.584s6.452-12.366-4.014-18.839a17.5,17.5,0,0,0-2.315-1.219,8.033,8.033,0,0,0-.057-.81,50.67,50.67,0,0,0-1.52-9.47c-.545-1.735-1.254-2.9-2.15-2.638a1.434,1.434,0,0,0-.588.337,6.539,6.539,0,0,0-1.111,1.312h0a.292.292,0,0,1-.05.079,22.482,22.482,0,0,0-2.466,6.846,39.509,39.509,0,0,0-.717,4.3h0a23.65,23.65,0,0,0-1.2,2.66c-1.269,3.29-2.753,8.989-.05,13.2,2.294,3.584,5.384,8.509,7.627,12.093l.072.115.136.222-.237.151v.552l.208,3.018,1.735,26.079a11.069,11.069,0,0,0-1.591-.337,14.46,14.46,0,0,0-2.315-.151c-1.513-5.943-5.663-11.47-6.452-17.677a16.4,16.4,0,0,1-.122-1.871c.065-3.907,1.039-7.828.961-11.728,0-.717,0-1.434-.072-2.151h0a5.758,5.758,0,0,0-.057-.595,17.627,17.627,0,0,0-9.584-13.355c-1.8-.9-3.749-1.491-5.5-2.473-4.043-2.265-6.631-6.351-10.3-9.154-2.731-2.086-6.81-3.2-9.857-2.151a45.52,45.52,0,0,0-4.8.989h0a43.264,43.264,0,0,0-10.975,4.559c-.466.28-.932.566-1.376.9a6.064,6.064,0,0,0-2.215,2.588,6.782,6.782,0,0,0-.344,2.789c0,.681,0,1.376.043,2.057-.2,11.47-12.559,20.344-13.577,31.541,0,.265-.043.53-.057.8v1.226h0v.9c.179,4.91,2.731,9.484,3.2,14.373.043.437.064.867.072,1.3A21.678,21.678,0,0,1,413.9,303.3a19.26,19.26,0,0,0-4.452,1.806c-3.756,2.416-10.538,6.588-13.011,14.566a21.336,21.336,0,0,0-.939,6.394A133.51,133.51,0,0,1,393.4,348.9a42.668,42.668,0,0,1-1.319,5.613,1.318,1.318,0,0,0-.043.552l-1.491,19.355-.265,3.405-.373,4.846s.108.294.265.789a22.789,22.789,0,0,1,.588,2.237,12.027,12.027,0,0,1,.194,5.018,3.455,3.455,0,0,1-1.047,1.842.775.775,0,0,0-.122.136c-.423.595-.8,2.366-1.133,4.932-.129,1-.251,2.151-.373,3.341-.717,7.634-1.161,19.061-1.434,28.509-.258,9.319-.351,16.681-.351,16.681a19.022,19.022,0,0,0,3.849,1.907c-.1.251-.208.509-.308.781a37.66,37.66,0,0,0-2.337,9.85c-.6,7.047,1.369,14.875,11.2,18.9a15.812,15.812,0,0,0,1.928.659c2.151.573,3.735.416,4.9-.3,0,.423.05.832.072,1.24.1,1.749.186,3.348.229,4.688.308,8.387,2.387,23.054,2.387,23.054s.717,5.993.093,7.785,0,8.982,0,8.982,2.151,3.584,0,5.391-2.789,10.753-2.15,11.979a.4.4,0,0,1,.036.136c.473,2.975-2.2,47.176-2.2,47.176s-2.53,6.767-4.545,13.792c-1.964,6.839-3.441,13.921-1.62,15.247.9.659,3,1.154,5.67,1.534,0,.294-.043.588-.072.889-.258,3.161-.667,6.566-1.254,7.427-.853,1.219-1.749,10.667-2.186,15.771l-.043.566a52.841,52.841,0,0,0-2.308,6.7s-6.86,17.2-4.538,21.67a3.667,3.667,0,0,0,.853,1.054h0a1.959,1.959,0,0,0,.222.2c3.3,2.645,11.584,3.2,14.588,3.319l-.115,4.258v.158h3.907v-.108c0-.538.086-3,.215-6.3,0-.588.043-1.2.072-1.835,0-.495.05-1,.072-1.513a26.524,26.524,0,0,0,1.7-9.57,41.987,41.987,0,0,1,1.505-11.1,30.827,30.827,0,0,1,1.986-5.412s1.219-6.452-.48-11.018a7.96,7.96,0,0,0-1.434-2.48c0-.15,0-.3,0-.459v-.975a41.347,41.347,0,0,1,.918-9.19,1,1,0,0,1,0-.143c.057-.251.122-.487.186-.717l.043-.158,1.269.043c3.892.108,6.753.108,6.753.108s3.1-15.871,2.8-22.753v-.932c-.108-6.839,1.878-16.136,1.878-16.136l2.5-24.265s-1.24-4.2,0-7.168c.767-1.849,2.351-5.283,3.455-7.649.516-1.1.925-1.957,1.1-2.33l.1-.2a4.637,4.637,0,0,1-1.1-.552h0c-1.011-.674-1.914-1.993,1.111-3.935,4.652-3,3.1-10.48,3.1-10.48a5.38,5.38,0,0,1,.244-5.09c1.613-2.394,0-11.376,0-11.376a37.618,37.618,0,0,0,3.183-7.491c1.154-3.584,4.072-21.111,5.448-29.563.452-2.774.717-4.566.717-4.566l.043.437.043.473h0l.387,3.993.05.53.717,7.548s1.434,19.842.538,27.62v.143a9.189,9.189,0,0,1-.523,2.358c-1.649,3.728-1.348,18.538-1.262,21.814v.659c0,.179-1.168,2.925-.875,5.061h0a3.247,3.247,0,0,0,.566,1.505,3.814,3.814,0,0,1,.552,2.33v.072a8.491,8.491,0,0,1-.086,1.032,19.691,19.691,0,0,1-1.09,4.057s-1.663,4.373-1.032,6.659h0a2.106,2.106,0,0,0,.409.81,1.916,1.916,0,0,1,.236.86.305.305,0,0,0,0,.079c.581,4.824-.918,26.122-1.806,37.778-.358,4.6-.616,7.7-.616,7.7l-2.459,25.448.244.172c.28.2.8.545,1.505.961v.057l-.107.767c-.351,2.451-.824,5.3-1.341,7.484-.043.165-.079.323-.122.473a6.858,6.858,0,0,0-2.631,1.054c-5.219,9.269-2.91,16.617,0,18.753.824.6,1.383,2.287,1.756,4.38l.717,9.24v1.061a2.752,2.752,0,0,0,.136.846l.222,2.8.3,3.9h2.38v-4.724h.129c3.756.129,9.814.287,12.452.079h.072a4.639,4.639,0,0,0,.717-.079,1.794,1.794,0,0,0,.416-.115c1.4-.674,4.882-10.552,1.742-12.8s-3.835-8.6-3.835-8.6c-.272-.832-.545-1.62-.824-2.373v-.487a39.425,39.425,0,0,1,.373-8.215,62.51,62.51,0,0,0,.817-9.814v-.91a12.249,12.249,0,0,0,1.6-.523l.115-.05a11.26,11.26,0,0,0,2.674-1.584l8.774-38.882.925-4.523,5.269-25.728s-1.857-8.982,0-10.473c.681-.545.867-2.867.824-5.556-.072-4.7-.824-10.616-.824-10.616s2.48-3.892,3.728-6.287,0-8.681,0-8.681l2.444-14.394s2.8-17.068,9.613-31.441c5.018-10.574,1.821-39.126-1.434-54.323-.086-.394-.172-.781-.258-1.154v-.057c1.534-.76,3.412-1.677,5.419-2.638l.76-.358c2.545-1.2,5.24-2.43,7.656-3.455l.158-.064a53.476,53.476,0,0,1,5.326-1.993,8.937,8.937,0,0,1,1.634-.337C517.712,405.132,504.687,382.379,504.687,382.379Zm-97,48.71h1.29c-.151.28-.294.566-.437.853-.086.172-.172.337-.251.509-.473.982-.91,1.986-1.269,2.968.143-1.061.323-2.215.523-3.448C407.6,431.7,407.647,431.376,407.69,431.089Zm-3.484,18.688a.53.53,0,0,0,0-.1l-.108-.337c-.079-.229-.151-.459-.222-.717q.667-.2,1.355-.452h.093v.237c-.036.337-.079.674-.122,1h0a.717.717,0,0,1,0,.129,6.975,6.975,0,0,1-.093.789c-.065.516-.129,1.018-.186,1.5-.136-.452-.272-.9-.416-1.333a3.4,3.4,0,0,1-.3-.717Z" transform="translate(-386.5 -223.338)" fill="url(#linear-gradient-2)"/>
      <path id="Path_3226" data-name="Path 3226" d="M533.358,268.055l-7.742,2.738-2.81-4.66c-2.15-3.584-5.133-8.487-7.333-12.05-3.885-6.265,1.2-15.814,1.2-15.814s.918-9.584,4.186-12.538,4.179,12.538,4.179,12.538c13.126,5.964,6.093,19.993,6.093,19.993l1.276,5.563Z" transform="translate(-422.604 -223.91)" fill="#efc4b7"/>
      <path id="Path_3227" data-name="Path 3227" d="M536.832,283.147l-7.742,2.738-2.81-4.66v-.409a13.482,13.482,0,0,1,9.613-1.9Z" transform="translate(-426.079 -239.002)" opacity="0.1"/>
      <path id="Path_3228" data-name="Path 3228" d="M523.56,314.9l3.878-3.283L525.5,282.066s10.036-6.867,17.462,3.878a75.405,75.405,0,0,0,0,8.358c.3,1.792-2.086,3.584,0,5.369s0,7.763,0,7.763,2.358,4.179,3.849,5.369,2.989,11.047,0,13.133-8.595,6.867-8.595,8.953-7.168,7.168-7.168,7.168l-6.294-8.323Z" transform="translate(-425.309 -239.355)" fill="#ff6484"/>
      <path id="Path_3229" data-name="Path 3229" d="M402.264,563.9c-14.466-6.136-11.255-21.125-8.531-28.674a39.053,39.053,0,0,1,1.914-4.473l8.115-4.925s1.656,4.222,3.427,9.885C411.3,548.891,416.021,569.744,402.264,563.9Z" transform="translate(-387.884 -308.989)" fill="#efc4b7"/>
      <path id="Path_3230" data-name="Path 3230" d="M426.819,768.2a24.372,24.372,0,0,0-2.151,6.036,43.588,43.588,0,0,0-.932,10.272c.057,2.387.258,3.95.258,3.95L407.88,799.539s.093-1.3.251-3.2c.416-5.075,1.283-14.495,2.1-15.713.566-.846.961-4.244,1.211-7.4s.351-5.921.351-5.921S431.185,760.034,426.819,768.2Z" transform="translate(-392.554 -376.518)" fill="#efb7b9"/>
      <path id="Path_3231" data-name="Path 3231" d="M481.153,780.245s0,3.082-.115,6.667a68.264,68.264,0,0,1-.781,9.785,40.278,40.278,0,0,0-.366,8.186c.108,3.584.366,6.81.366,6.81s-16.452-15.556-14.774-16.789c.452-.33.9-1.656,1.3-3.419.5-2.151.953-5.018,1.29-7.455.4-2.9.652-5.24.652-5.24Z" transform="translate(-408.83 -380.615)" fill="#efb7b9"/>
      <path id="Path_3232" data-name="Path 3232" d="M428.241,768.2a24.373,24.373,0,0,0-2.151,6.036,131.74,131.74,0,0,1-13.19-1.011c.244-3.082.351-5.921.351-5.921S432.606,760.034,428.241,768.2Z" transform="translate(-393.975 -376.518)" opacity="0.1"/>
      <path id="Path_3233" data-name="Path 3233" d="M482.225,780.251s0,3.082-.115,6.667c-5.133,1.312-10.409-1.312-12.961-2.867.4-2.9.652-5.24.652-5.24Z" transform="translate(-409.903 -380.621)" opacity="0.1"/>
      <path id="Path_3234" data-name="Path 3234" d="M497.543,542.828c-6.566,14.337-9.255,31.341-9.255,31.341L485.9,588.505s1.2,6.265,0,8.653-3.584,6.272-3.584,6.272,1.792,14.624,0,16.115,0,10.444,0,10.444L476.346,660.1l-8.358,38.8c-8.057,6.574-18.781-1.785-18.781-1.785l2.366-25.369s3.584-44.445,2.093-46.266.6-7.462.6-7.462,2.093-5.376.6-7.463.294-6.566.294-6.566-.595-18.208,1.2-22.387,0-30.029,0-30.029l-.717-8.05-.416-4.459-.036-.437s-.272,1.785-.717,4.552c-1.319,8.423-4.129,25.878-5.24,29.469a38.368,38.368,0,0,1-3.061,7.463s1.548,8.953,0,11.34a5.552,5.552,0,0,0-.237,5.075s1.491,7.462-2.989,10.444,0,4.48,0,4.48-3.283,7.169-4.473,10.144,0,7.168,0,7.168l-2.387,24.172s-2.093,10.143-1.792,17.011-2.688,22.681-2.688,22.681-22.982,0-26.523-2.688,5.914-28.91,5.914-28.91,2.688-45.964,2.086-47.154,0-10.15,2.093-11.935,0-5.376,0-5.376-.6-7.168,0-8.953-.093-7.763-.093-7.763-2-14.624-2.294-22.982S410.99,529.7,410.99,529.7s1.563-11.627,1.8-17.161a19.49,19.49,0,0,1,2.151-6.975,62.225,62.225,0,0,1,4.444-7.8s70.717-20.9,73.685-18.824c.788.552,1.936,4.3,3.068,9.728C499.292,503.831,502.374,532.29,497.543,542.828Z" transform="translate(-391.535 -295.671)" fill="#444053"/>
      <circle id="Ellipse_223" data-name="Ellipse 223" cx="20.595" cy="20.595" r="20.595" transform="translate(41.842 23.55)" fill="#a1616a"/>
      <path id="Path_3235" data-name="Path 3235" d="M500.345,488.684c-2.373,1.219-3.964,2.057-3.964,2.057s-33.427,15.821-42.932,14.925c-7.355-.717-26.129-.308-34.308-.108a62.221,62.221,0,0,1,4.444-7.8s70.724-20.9,73.692-18.817C498.065,479.509,499.212,483.244,500.345,488.684Z" transform="translate(-395.742 -295.671)" opacity="0.1"/>
      <path id="Path_3236" data-name="Path 3236" d="M437.679,328.721s-19.075,3.011-23.577,5.964-13.419,8.66-13.419,20.9-2.086,24.774-3.283,28.351,18.8,32.531,18.8,32.531l-7.168,43.878s28.674-.9,38.222,0,42.961-14.925,42.961-14.925,19.7-10.444,23.878-10.753-8.358-22.982-8.358-22.982-19.4-36.7-16.122-42.674a82.473,82.473,0,0,0,5.692-14.624l-3.584-30.437s-5.369-1.792-9.85,1.491-19.7,1.491-19.7,1.491Z" transform="translate(-389.572 -251.687)" fill="#ff6484"/>
      <path id="Path_3237" data-name="Path 3237" d="M403.369,399.074l-7.484,2.086-2.072,28.086s2.688,7.462,0,9.85-3.283,53.427-3.283,53.427,8.66,6.265,18.8,1.491c0,0-1.491-5.67,2.989-26.265s4.473-31.04,4.473-31.04,0-25.67,2.093-29.85,0-14.624,0-14.624-4.179-5.67-3.885-7.756S403.369,399.074,403.369,399.074Z" transform="translate(-387.641 -268.914)" opacity="0.1"/>
      <path id="Path_3238" data-name="Path 3238" d="M408.115,535.745a19.061,19.061,0,0,1-13.455-.487,39.053,39.053,0,0,1,1.914-4.473l8.115-4.925S406.373,530.082,408.115,535.745Z" transform="translate(-388.811 -308.997)" opacity="0.1"/>
      <path id="Path_3239" data-name="Path 3239" d="M402.742,399.063l-7.462,2.086-2.086,28.086s2.688,7.462,0,9.85-3.283,53.427-3.283,53.427,8.667,6.258,18.8,1.462c0,0-1.491-5.67,2.982-26.265s4.48-31.04,4.48-31.04,0-25.67,2.086-29.85,0-14.624,0-14.624-4.179-5.67-3.878-7.756S402.742,399.063,402.742,399.063Z" transform="translate(-387.466 -268.903)" fill="#ff6484"/>
      <path id="Path_3240" data-name="Path 3240" d="M508.386,411.15s-3.878,33.427-15.226,39.7C493.16,450.849,518.529,443.688,508.386,411.15Z" transform="translate(-416.701 -276.517)" opacity="0.1"/>
      <path id="Path_3241" data-name="Path 3241" d="M434.88,415.32s14.022,6.86,10.753,11.634S434.88,415.32,434.88,415.32Z" transform="translate(-400.199 -277.698)" opacity="0.1"/>
      <path id="Path_3242" data-name="Path 3242" d="M434.88,434.47s8.953,9.255,7.168,12.538S434.88,434.47,434.88,434.47Z" transform="translate(-400.199 -283.12)" opacity="0.1"/>
      <path id="Path_3243" data-name="Path 3243" d="M535.63,327.47s3.513,5.964,3.85,9.85S535.63,327.47,535.63,327.47Z" transform="translate(-428.726 -252.823)" opacity="0.1"/>
      <path id="Path_3244" data-name="Path 3244" d="M535.63,315.967s1.764-1.5,6.265,0S535.63,315.967,535.63,315.967Z" transform="translate(-428.726 -249.377)" opacity="0.1"/>
      <path id="Path_3245" data-name="Path 3245" d="M501.317,557.06a41.506,41.506,0,0,1-21.828-2.8l-3.763,9.634-.416-4.459c.616-3.742,1.814-7.749,4.179-8.76C479.489,550.68,487.776,557.282,501.317,557.06Z" transform="translate(-411.647 -316.025)" opacity="0.1"/>
      <path id="Path_3246" data-name="Path 3246" d="M426.18,577.07s18.359,3.807,23.505,3.133Z" transform="translate(-397.736 -323.498)" opacity="0.1"/>
      <path id="Path_3247" data-name="Path 3247" d="M428.84,583.768s7.835-.337,11.749,1.233Z" transform="translate(-398.489 -325.385)" opacity="0.1"/>
      <path id="Path_3248" data-name="Path 3248" d="M430.09,588.31a70.234,70.234,0,0,0,10.853,1.434Z" transform="translate(-398.843 -326.68)" opacity="0.1"/>
      <path id="Path_3249" data-name="Path 3249" d="M429.46,644.757c.337-.222,15.67-3.807,17.577-1.233Z" transform="translate(-398.664 -342.052)" opacity="0.1"/>
      <path id="Path_3250" data-name="Path 3250" d="M429.46,651.894s13.319-1.57,13.656,0S429.46,651.894,429.46,651.894Z" transform="translate(-398.664 -344.487)" opacity="0.1"/>
      <path id="Path_3251" data-name="Path 3251" d="M429.46,657.178s14.215-2.939,15.893-2.222S429.46,657.178,429.46,657.178Z" transform="translate(-398.664 -345.519)" opacity="0.1"/>
      <path id="Path_3252" data-name="Path 3252" d="M424.035,795.638,407.92,806.721s.093-1.3.251-3.2a43.443,43.443,0,0,1,8.251-13.47c3.634-.946,5.928-.072,7.355,1.642C423.834,794.068,424.035,795.638,424.035,795.638Z" transform="translate(-392.565 -383.692)" opacity="0.1"/>
      <path id="Path_3253" data-name="Path 3253" d="M422.9,805.769a39.994,39.994,0,0,0-3.362,16.488,25.57,25.57,0,0,1-3.412,13.269,13.066,13.066,0,0,1-1.133,1.62s-11.2-.093-15.118-3.34a3.878,3.878,0,0,1-1.054-1.29c-2.244-4.473,4.366-21.6,4.366-21.6,3.469-13.2,10.516-20.258,10.516-20.258C426.25,787.411,422.9,805.769,422.9,805.769Z" transform="translate(-389.856 -383.866)" fill="#444053"/>
      <path id="Path_3254" data-name="Path 3254" d="M416.721,843.674a13.065,13.065,0,0,1-1.133,1.62s-11.2-.093-15.118-3.34c1.928-6.38,8.079-25.685,10.961-22.4C414.14,822.635,416.026,837.467,416.721,843.674Z" transform="translate(-390.456 -392.051)" opacity="0.1"/>
      <path id="Path_3255" data-name="Path 3255" d="M420.691,820.747l-.781,28.918h3.756s.609-25.369,2.287-28.918S420.691,820.747,420.691,820.747Z" transform="translate(-395.96 -392.048)" fill="#444053"/>
      <path id="Path_3256" data-name="Path 3256" d="M480.257,816.668s-16.452-15.555-14.774-16.789c.452-.33.9-1.656,1.3-3.419,3.161-.552,8.6.767,13.1,13.4C480,813.442,480.257,816.668,480.257,816.668Z" transform="translate(-408.83 -385.589)" opacity="0.1"/>
      <path id="Path_3257" data-name="Path 3257" d="M481.053,834.2a1.661,1.661,0,0,1-.394.115c-1.935.337-9.068.143-13.061,0a2.824,2.824,0,0,1-2.731-2.817c0-1.075,0-2.387-.086-3.785-.186-4.416-.717-9.67-2.3-10.853-2.8-2.15-5.018-9.448,0-18.688,0,0,9.62-7.348,16.559,14.738,0,0,.674,6.3,3.692,8.538S482.4,833.557,481.053,834.2Z" transform="translate(-407.167 -385.769)" fill="#444053"/>
      <path id="Path_3258" data-name="Path 3258" d="M482.728,841.657c-1.936.337-9.068.143-13.061,0a2.824,2.824,0,0,1-2.731-2.817c0-1.075,0-2.387-.086-3.785,1.211-5.348,2.953-10.853,5.2-12.108C472.061,822.94,478.85,822.173,482.728,841.657Z" transform="translate(-409.251 -393.116)" opacity="0.1"/>
      <path id="Path_3259" data-name="Path 3259" d="M423.46,799.77l1.806,24.065h2.294V797.72Z" transform="translate(-366.929 -370.591)" fill="#444053"/>
      <path id="Path_3260" data-name="Path 3260" d="M457.046,239.118a41.162,41.162,0,0,0-18.366,5.9,7.632,7.632,0,0,0-3.462,3.477,11.525,11.525,0,0,0-.28,4.3c.194,12.344-13.57,21.685-13.14,34.022.172,4.9,2.631,9.455,3.082,14.337.753,8.143-4.065,15.635-8.681,22.38a18.537,18.537,0,0,0,13.083-4.337,99.2,99.2,0,0,1,1.828,50h6.6a5.019,5.019,0,0,1,1.928.237,4.846,4.846,0,0,1,1.527,1.14c6.172,6.143,10.308,15.226,7.95,23.613l14.05-5.269a41.734,41.734,0,0,0,9.7-4.624c2.925-2.079,5.376-5.1,5.993-8.638.38-2.151.258-4.717,2.029-5.964a11.036,11.036,0,0,1,2.767-1.025c3.857-1.362,5.563-5.821,6.351-9.835a56.63,56.63,0,0,0,.9-14.961c-.624-8.387-3.1-16.9-1.061-25.09,1.154-4.6,3.72-8.875,3.928-13.62.337-7.821-5.778-14.559-6.688-22.337-.638-5.419,1.319-10.9.681-16.323a17.534,17.534,0,0,0-9.226-13.312c-1.728-.889-3.584-1.484-5.29-2.466-3.893-2.258-6.38-6.323-9.914-9.118s-9.419-3.849-12.079-.215Z" transform="translate(-394.91 -227.791)" opacity="0.1"/>
      <path id="Path_3261" data-name="Path 3261" d="M457.046,237.863a41.162,41.162,0,0,0-18.366,5.9,7.632,7.632,0,0,0-3.462,3.477,11.525,11.525,0,0,0-.28,4.3c.194,12.344-13.57,21.685-13.14,34.029.172,4.889,2.631,9.448,3.082,14.337.753,8.143-4.065,15.635-8.681,22.387a18.639,18.639,0,0,0,13.083-4.337,99.169,99.169,0,0,1,1.828,49.986h6.6a5.018,5.018,0,0,1,1.928.244,4.718,4.718,0,0,1,1.527,1.133c6.172,6.151,10.308,15.226,7.95,23.613l14.05-5.269a41.735,41.735,0,0,0,9.7-4.624c2.925-2.079,5.376-5.1,5.993-8.638.38-2.15.258-4.717,2.029-5.964a11.041,11.041,0,0,1,2.767-1.025c3.857-1.362,5.563-5.821,6.351-9.835a56.634,56.634,0,0,0,.918-14.975c-.624-8.387-3.1-16.9-1.061-25.09,1.154-4.6,3.72-8.875,3.928-13.62.337-7.821-5.778-14.559-6.688-22.337-.638-5.419,1.319-10.9.681-16.323a17.548,17.548,0,0,0-9.226-13.312c-1.728-.889-3.584-1.484-5.29-2.459-3.893-2.265-6.38-6.33-9.914-9.125s-9.419-3.849-12.079-.215Z" transform="translate(-394.91 -227.431)" fill="#010920"/>
      <g id="Group_1112" data-name="Group 1112" transform="translate(21.29 21.127)" opacity="0.1">
        <path id="Path_3262" data-name="Path 3262" d="M442.3,252.81a7.958,7.958,0,0,0-.043.832C442.281,253.369,442.3,253.09,442.3,252.81Z" transform="translate(-423.579 -252.81)"/>
        <path id="Path_3263" data-name="Path 3263" d="M514.976,288.338c.258-3.8,1.1-7.613.789-11.4C515.528,280.739,514.682,284.553,514.976,288.338Z" transform="translate(-444.151 -259.642)"/>
        <path id="Path_3264" data-name="Path 3264" d="M427.089,314.039c-.416-4.444-2.487-8.6-2.975-13.039a16.33,16.33,0,0,0-.108,2.452c.172,4.839,2.574,9.362,3.061,14.179A19.346,19.346,0,0,0,427.089,314.039Z" transform="translate(-418.408 -266.455)"/>
        <path id="Path_3265" data-name="Path 3265" d="M518.691,338.919a30.735,30.735,0,0,0-.717,8.9,26.989,26.989,0,0,1,.717-5.168c1.154-4.6,3.72-8.875,3.928-13.62a14.777,14.777,0,0,0-.115-2.523C521.945,330.775,519.716,334.747,518.691,338.919Z" transform="translate(-444.999 -273.678)"/>
        <path id="Path_3266" data-name="Path 3266" d="M429.282,344.36a18.638,18.638,0,0,1-10.581,4.3c-.817,1.276-1.663,2.523-2.5,3.756a18.638,18.638,0,0,0,13.083-4.337,98.925,98.925,0,0,1,4.172,26.846A99.15,99.15,0,0,0,429.282,344.36Z" transform="translate(-416.2 -278.732)"/>
        <path id="Path_3267" data-name="Path 3267" d="M503.039,396.1c-.789,4.014-2.495,8.473-6.351,9.828a10.754,10.754,0,0,0-2.767,1.032c-1.771,1.247-1.649,3.828-2.029,5.964a13.828,13.828,0,0,1-5.993,8.6,43.1,43.1,0,0,1-9.7,4.631L462.8,431.175a18.5,18.5,0,0,1-.645,3.978l14.05-5.269a41.739,41.739,0,0,0,9.7-4.624c2.925-2.079,5.376-5.1,5.993-8.638.38-2.151.258-4.717,2.029-5.964a11.037,11.037,0,0,1,2.767-1.025c3.857-1.362,5.563-5.821,6.351-9.835a56.215,56.215,0,0,0,1.011-12.688A56.136,56.136,0,0,1,503.039,396.1Z" transform="translate(-429.211 -290.837)"/>
        <path id="Path_3268" data-name="Path 3268" d="M447.1,415.449a4.739,4.739,0,0,0-1.527-1.14,5.126,5.126,0,0,0-1.928-.244h-5.857c-.229,1.247-.473,2.495-.717,3.735h6.6a5.02,5.02,0,0,1,1.928.244,4.717,4.717,0,0,1,1.527,1.133c4.516,4.5,7.935,10.566,8.523,16.789C456.375,428.525,452.518,420.869,447.1,415.449Z" transform="translate(-422.109 -298.467)"/>
      </g>
      <path id="Path_3269" data-name="Path 3269" d="M405.37,449.687s5.333-2.237,6.523,0S405.37,449.687,405.37,449.687Z" transform="translate(-391.843 -287.147)" opacity="0.1"/>
      <path id="Path_3270" data-name="Path 3270" d="M408,455.037s5.333-2.237,6.53,0S408,455.037,408,455.037Z" transform="translate(-392.588 -288.662)" opacity="0.1"/>
    </g>
    <path id="Path_3274" data-name="Path 3274" d="M918.583,398.575a10.258,10.258,0,1,0,10.258,10.258A10.258,10.258,0,0,0,918.583,398.575ZM888.59,318.08v10.258h10.258l18.466,37.405-7.721,12.566a9.864,9.864,0,0,0-1.283,4.874c0,6.867,4.7,10.258,11.061,10.258H979.35v-9.864H920.626a1.212,1.212,0,0,1-1.283-1.283,6.449,6.449,0,0,1,.545-1.276l5.125-8.093h38.215a10.036,10.036,0,0,0,8.975-5.384l18.473-31.764a5.954,5.954,0,0,0,.516-2.566,4.932,4.932,0,0,0-5.133-4.875H910.138l-4.875-10.258Zm80.495,80.495a10.258,10.258,0,1,0,10.265,10.261A10.258,10.258,0,0,0,969.085,398.575Z" transform="translate(-280.949 -105.449)" fill="#001269"/>
    <path id="Path_3275" data-name="Path 3275" d="M931.326,332.812h-8.6v-8.6h-6.452v8.6h-8.6v6.452h8.6v8.6h6.452v-8.6h8.6Z" transform="translate(-256.315 -91.801)" fill="#fff"/>
  </g>
</svg>
