<svg xmlns="http://www.w3.org/2000/svg" xmlns:xlink="http://www.w3.org/1999/xlink" width="122.221" height="110" viewBox="0 0 122.221 110">
  <defs>
    <clipPath id="clip-path">
      <rect width="122.221" height="110" fill="none"/>
    </clipPath>
  </defs>
  <g id="_24_basic_case" data-name="24 / basic / case" clip-path="url(#clip-path)">
    <path id="icon" d="M110,110H12.221A12.235,12.235,0,0,1,0,97.779V30.558A12.238,12.238,0,0,1,12.221,18.332H36.668V12.221A12.235,12.235,0,0,1,48.889,0H73.331A12.238,12.238,0,0,1,85.558,12.221v6.111H110a12.238,12.238,0,0,1,12.221,12.226V97.779A12.235,12.235,0,0,1,110,110ZM12.221,73.331V97.779H110V73.331H67.221v6.111H55V73.331Zm0-42.773V61.111H110V30.558H12.221ZM48.889,12.221v6.111H73.331V12.221Z" transform="translate(0)" fill="#082865"/>
  </g>
</svg>
