<svg xmlns="http://www.w3.org/2000/svg" xmlns:xlink="http://www.w3.org/1999/xlink" width="670.338" height="615" viewBox="0 0 670.338 615">
  <defs>
    <linearGradient id="linear-gradient" x1="0.5" y1="1" x2="0.5" gradientUnits="objectBoundingBox">
      <stop offset="0" stop-color="gray" stop-opacity="0.251"/>
      <stop offset="0.54" stop-color="gray" stop-opacity="0.122"/>
      <stop offset="1" stop-color="gray" stop-opacity="0.102"/>
    </linearGradient>
  </defs>
  <g id="telecom" transform="translate(0 -0.023)">
    <path id="Path_2957" data-name="Path 2957" d="M551.656,155.462c-36.743-1.274-71.736-13.13-105.133-26.091S379.991,102.029,344.13,95.122c-23.068-4.42-49.443-5.049-68.029,7.313-17.88,11.9-23.666,32.445-26.767,51.507-2.3,14.343-3.714,29.437,2.694,42.859,4.443,9.324,12.34,17.159,17.8,26.091,19,31.064,5.571,69.372-15.018,99.707-9.654,14.227-20.858,27.8-28.309,42.974s-10.9,32.5-4.382,47.954c6.461,15.348,21.863,26.813,38.546,34.909,33.888,16.43,73.815,21.134,112.753,23.789,86.193,5.894,172.839,3.346,259.263.767,31.977-.952,64.1-1.911,95.563-6.853,17.473-2.747,35.515-7.106,48.2-17.65,16.115-13.36,20.09-35.975,9.3-52.727-18.1-28.094-68.137-35.077-80.791-65.228-6.96-16.6.192-35.085,10.306-50.471,21.709-33,58.091-61.99,60.01-99.761,1.32-25.915-16.177-51.876-43.219-64.146C703.7,103.3,664.386,104.922,643.474,126.2,621.941,148.164,584.093,156.59,551.656,155.462Z" transform="translate(-176.133 -59.264)" fill="#161b77" opacity="0.1"/>
    <ellipse id="Ellipse_205" data-name="Ellipse 205" cx="233.264" cy="31.555" rx="233.264" ry="31.555" transform="translate(69.28 551.912)" fill="#161b77" opacity="0.1"/>
    <path id="Path_2958" data-name="Path 2958" d="M566.016,210.13s-7.221-14.25-6.247-18.486-5.08-13.284-5.08-13.284l.391-15.01s-.836,1.535-5.2,2.878c-.368-.483-.767-.959-1.182-1.412a30.942,30.942,0,0,0-5.234-4.366l-7.674-16.56-7.421-11.365s-11.7-23.789-23.789-29.038l-1.9-3.722a.292.292,0,0,0,.115-.376L500.865,95.6a.3.3,0,0,0-.376-.138l-1.849-3.622a29.092,29.092,0,0,0-5.372-12.961c-.192-.269-.4-.514-.6-.767l3.008-.107c2.64-.1,5.587-.33,7.359-2.3a6.73,6.73,0,0,0,1.374-2.532,10.741,10.741,0,0,0,.445-2.248v-2.21a6.168,6.168,0,0,0-.13-.767.528.528,0,0,0-.061-.3,8.93,8.93,0,0,0-.238-.89,1.18,1.18,0,0,1-.054-.177c-.107-.307-.223-.614-.353-.913a.849.849,0,0,1-.054-.123c-.138-.3-.292-.591-.453-.875l-.046-.092h0a3.079,3.079,0,0,0-.192-.345c-2.08-3.269-5.732-5.18-9.209-6.907a106.42,106.42,0,0,0-9.976-4.6,53.717,53.717,0,0,0-39.137.553,15.493,15.493,0,0,0-3.484,1.857,18,18,0,0,0-3.8,4.466l-5.947,8.787a12.416,12.416,0,0,0-1.926,3.545c-1.113,4.175,2.379,8.357,1.988,12.662-.2,2.141-1.351,4.106-1.573,6.247-.284,2.763,1,5.425,2.248,7.919l8.51,16.883c-.453,2.218-.952,4.489-1.5,6.684h0c-3.921,4.052-5.241,6.262-5.6,7.459l-.115.061h0a6.908,6.908,0,0,0-1.965,1.918l-8.088,7.858s-14.059,3.653-16.982,8.28c0,0-22.062-.967-21.871,29.844,0,0-.975,11.557-1.535,13.1s0,17.136,0,17.136l-.261,31.586s-.844,16.752,0,22.722,1.819,28.693,1.819,28.693,5.272,22.147,3.323,30.043c-1.872,7.559,0,24.088,3.07,24.157.583,1.2,1.251,1.8,1.98,1.458a8.459,8.459,0,0,1,.975-.353v18.87s-3.8,26.437.46,31.463a102.882,102.882,0,0,0-6.983,12.685l-29.852-1.6-3.8,1.067h0l-3.484.975-2.11,48.553.844.061-.061,1.481,2,.146-2.778,48.9,41.324,3.4c-1.819,4.075-3.929,8.441-4.75,8.863-1.535.767-4.881-1.535-5.663-.583a6.355,6.355,0,0,1-5.855,1.535c-2.732-.583-4.489,2.5-4.489,2.5s.4.353,1,1.005c-4.436-.537-10.045,1.842-13.092,3.377-1.366.691-2.218,1.2-2.218,1.2H346.65l4.428,28.248,3.123,2.133.767,22.254s12.493,38.515,18.218,38.262a2.586,2.586,0,0,0,1.926-.967c3.07-3.545.944-15.724.944-15.724V584.118s4.681-2.057,4.159-3.6,7.551-18.417,8.272-19.952a.13.13,0,0,0,.061-.123c0-1.734,3.515-3.66,3.315-4.428s8.595-5.587,9.209-9.823,6.438-1.926,6.438-1.926l7.413-8.518c.223,10.383.645,17.65,1.374,19.492,3.515,8.863,4.881,22.73,4.881,22.73s-2.149,10.59,0,14.059c1.32,2.118,4.389,4.389,6.523,6.27-2.218,6.722-1.9,21.011-1.9,21.011v8.211l16.4,4.6s.514-4.105,1.3-4.105,11.2,7.958,11.2,7.958,40.088.514,50.233,0c3.837-.192,4.881-1.842,4.29-3.837-.975-3.323-6.446-7.628-11.311-7.958-7.812-.514-17.7-8.725-17.7-8.725s.767-1.8-3.384-4.366c-2.87-1.765-10.812-8.909-15.724-13.092.23-.315.468-.629.691-.967,0,0-6.638-9.209-5.264-13.291s-.591-9.976-.591-9.976-3.707-11.365-3.707-17.144c0-3.66-.552-24.48-.952-39.244l3.423.284.069-1.473,1.535.138,14.511,1.335-.445-15.509c6.991-3.07,12.808-5.917,15.217-7.735,8.2-6.139,15.225-6.546,15.225-6.546s16.591-8.856,19.131-12.516,2.3-30.235,2.3-30.235l-1.366-56.956v-.046s-1.166-27.534-3.515-33.5c-.859-2.21-2.985-9.577-5.31-17.988a13.9,13.9,0,0,1,4.006.169c.084,2.057.138,3.469.138,3.952,0,3.269,4.681,6.047,4.681,6.047l-3.315-73.669V223.007c10.222,3.254,34.939,4.267,34.939,4.267C570.306,226.338,566.016,210.13,566.016,210.13ZM469.6,146.836h-.054a51.116,51.116,0,0,1,1.42-5.717ZM402.516,399.515c6.055,1,13.046.706,13.575-.468.054-.115.123-.322.215-.591.192.338.376.683.568,1.036l-.591,11.112v.253l-19.952-1.074C397.727,403.835,400.367,400.934,402.516,399.515Zm66.51,56.066-.514-18c.89-3.315,1.688-6.323,2.371-8.9.307,2.141.568,4.113.767,5.932C473.538,451.689,470.752,455.02,469.026,455.58Zm56.787-269.8c-1.143.437-5.494-2.3-9.623-5.142,0-.522.038-1.036.061-1.535.583-11.749-18.548-19.062-24.4-20.413a21.035,21.035,0,0,1-4.113-1.535,95.919,95.919,0,0,1-9.086-5.134l.077-.223s-7.551-4.781-7.712-10.743a102.01,102.01,0,0,1,6.492-15.755c.146-.3.307-.614.46-.913a30.12,30.12,0,0,0,9.823-5.2c1.174,15.348,23.382,28.555,23.382,28.555l2.371,3.837.56.906c-1.2.706-1.773,1.274-1.366,1.6,1.688,1.351,5.771,8.994,7.459,12.225.46.875.767,1.42.767,1.42s3.63,9.876,5.709,18.141a1.535,1.535,0,0,0-.875-.092Z" transform="translate(-205.903 -49.28)" fill="url(#linear-gradient)"/>
    <path id="Path_2959" data-name="Path 2959" d="M576.991,162.763l-.261.345-.89,1.189-17.074,12.063-3.622-5.955-2.3-3.837s-34.034-20.413-19.4-40.088,36.259,24.94,36.259,24.94Z" transform="translate(-248.502 -66.067)" fill="#ffc5d3"/>
    <rect id="Rectangle_813" data-name="Rectangle 813" width="0.583" height="4.804" rx="0.292" transform="matrix(0.893, -0.45, 0.45, 0.893, 293.499, 48.63)" fill="#3a3768"/>
    <rect id="Rectangle_814" data-name="Rectangle 814" width="0.33" height="1.581" rx="0.165" transform="matrix(0.893, -0.45, 0.45, 0.893, 274.515, 53.974)" fill="#3a3768"/>
    <rect id="Rectangle_815" data-name="Rectangle 815" width="0.368" height="2.755" rx="0.184" transform="matrix(0.893, -0.45, 0.45, 0.893, 275.804, 56.561)" fill="#3a3768"/>
    <rect id="Rectangle_816" data-name="Rectangle 816" width="0.353" height="2.778" rx="0.176" transform="matrix(0.893, -0.45, 0.45, 0.893, 277.476, 59.879)" fill="#3a3768"/>
    <rect id="Rectangle_817" data-name="Rectangle 817" width="19.492" height="39.613" rx="2.24" transform="matrix(0.893, -0.45, 0.45, 0.893, 272.322, 49.22)" fill="#3a3768"/>
    <path id="Path_2960" data-name="Path 2960" d="M532.748,105.382a.691.691,0,0,0-.307.936l.061.13a.7.7,0,0,1-.307.944l-7.382,3.714a.691.691,0,0,1-.936-.307l-.069-.13a.7.7,0,0,0-.936-.315l-1.435.729a1.32,1.32,0,0,0-.591,1.788L536.531,144a1.343,1.343,0,0,0,1.8.591l12.877-6.484a1.343,1.343,0,0,0,.591-1.8L536.1,105.167a1.335,1.335,0,0,0-1.8-.591Z" transform="translate(-246.389 -62.104)" fill="#161b77"/>
    <rect id="Rectangle_818" data-name="Rectangle 818" width="2.724" height="0.553" rx="0.276" transform="matrix(0.893, -0.45, 0.45, 0.893, 279.885, 46.736)" fill="#e6e8ec"/>
    <circle id="Ellipse_206" data-name="Ellipse 206" cx="0.315" cy="0.315" r="0.315" transform="translate(282.76 45.097)" fill="#e6e8ec"/>
    <path id="Path_2961" data-name="Path 2961" d="M549.346,261.28l-4.8,128.707s16.115-5.372,18.609-1.343-2.686-64.461-2.686-64.461Z" transform="translate(-251.936 -98.588)" fill="#5f5570"/>
    <path id="Path_2962" data-name="Path 2962" d="M549.346,261.28l-4.8,128.707s16.115-5.372,18.609-1.343-2.686-64.461-2.686-64.461Z" transform="translate(-251.936 -98.588)" opacity="0.15"/>
    <path id="Path_2963" data-name="Path 2963" d="M528.225,801.568c-9.976.514-49.366,0-49.366,0s-10.237-7.927-11-7.927-1.274,4.09-1.274,4.09l-16.115-4.6v-8.18s-.514-23.29,4.343-24.3,26.352,0,26.352,0c.767-.253,15.348,13.56,19.438,16.115s3.323,4.351,3.323,4.351,9.723,8.18,17.4,8.695c4.781.322,10.16,4.6,11.119,7.927C533.021,799.734,531.985,801.377,528.225,801.568Z" transform="translate(-230.048 -214.64)" fill="#bc8487"/>
    <path id="Path_2964" data-name="Path 2964" d="M528.23,809.121c-9.976.514-49.366,0-49.366,0s-10.237-7.927-11-7.927-1.274,4.09-1.274,4.09l-16.115-4.6V792.66l15.087,5.464,12.025,7.16h54.861C533.026,807.286,531.99,808.929,528.23,809.121Z" transform="translate(-230.052 -222.192)" opacity="0.1"/>
    <path id="Path_2965" data-name="Path 2965" d="M493.43,795.712s12.278-11.764,20.489-8.441" transform="translate(-240.045 -220.801)" stroke="#000" stroke-miterlimit="10" stroke-width="1" opacity="0.1"/>
    <path id="Path_2966" data-name="Path 2966" d="M382.128,725.5c.514,1.535-4.09,3.584-4.09,3.584v20.205s2.087,12.132-.929,15.67a2.525,2.525,0,0,1-1.888.959c-5.625.253-17.9-38.116-17.9-38.116l-.767-22.17-3.07-2.126-4.351-28.14h7.935s.836-.514,2.179-1.2c3.837-1.957,11.872-5.372,16.238-2.118l14.834,33.42S381.621,723.963,382.128,725.5Z" transform="translate(-206.48 -193.822)" fill="#bc8487"/>
    <path id="Path_2967" data-name="Path 2967" d="M377.109,766.008a2.525,2.525,0,0,1-1.888.959c-5.625.253-17.9-38.116-17.9-38.116l-.767-22.17-3.07-2.126-4.351-28.14h7.935s.836-.514,2.179-1.2l1.911,28.831,1.021,24.81S371.814,755.863,377.109,766.008Z" transform="translate(-206.48 -194.872)" opacity="0.1"/>
    <path id="Path_2968" data-name="Path 2968" d="M526.1,573.888c-2.494,3.645-18.8,12.47-18.8,12.47s-6.906.384-14.964,6.523c-4.167,3.177-18.648,9.477-31.655,14.826-12.148,5-23.022,9.155-23.022,9.155l-12.524,14.58-9.539,11.1s-5.755-2.3-6.331,1.918-9.209,9.017-9.017,9.784-3.261,2.686-3.261,4.412-12.854-12.47-12.662-21.1-6.523-14.58-6.523-14.58,1.727-3.07,4.412-2.494a6.175,6.175,0,0,0,5.755-1.535c.767-.959,4.029,1.343,5.564.576s7.674-15.923,7.674-15.923l23.92-16.046L472.7,555.663l2.195-1.473s6.331,2.9,3.76-20.865c-.5-4.6-1.335-10.2-2.609-17.013C468.183,474.3,496.385,469.5,496.385,469.5l24.748,8.249,5.947,9.209V487l1.343,56.741S528.592,570.243,526.1,573.888Z" transform="translate(-213.149 -147.022)" fill="#433a59"/>
    <path id="Path_2969" data-name="Path 2969" d="M474.792,626.867s.077,2.724.192,6.96c-12.148,5-23.022,9.155-23.022,9.155l-12.524,14.58c-.207-12.086-.161-27.787,0-43.879l47.578-31.893C481.13,603.607,474.792,626.867,474.792,626.867Z" transform="translate(-227.454 -173.142)" opacity="0.1"/>
    <path id="Path_2970" data-name="Path 2970" d="M556.412,486.988v.046l-37.218.721s-6.523,25.516-7.482,30.887c-.238,1.32-1.681,6.96-3.722,14.711-.5-4.6-1.335-10.2-2.609-17.013-7.866-42.015,20.336-46.811,20.336-46.811l24.748,8.249Z" transform="translate(-242.503 -147.029)" opacity="0.1"/>
    <path id="Path_2971" data-name="Path 2971" d="M442.631,397.51l-4.8,92.087s-3.453,135.253,0,144.078,4.8,22.638,4.8,22.638-2.11,10.552,0,14,8.825,7.29,8.633,9.209,20.528,12.278,31.271-4.221c0,0-6.523-9.209-5.18-13.237s-.576-9.976-.576-9.976-3.645-11.319-3.645-17.1-1.343-54.1-1.343-54.1,20.911-76.739,21.871-82.111,7.482-30.887,7.482-30.887l39.521-.767s-1.151-27.434-3.453-33.381-13.621-49.5-13.621-49.5Z" transform="translate(-226.756 -127.192)" fill="#433a59"/>
    <path id="Path_2972" data-name="Path 2972" d="M194.278,469.89l-3.43.982-.138,3.392,102.846,1.328v-1.335Z" transform="translate(-44.361 -109.296)" fill="#7b728f"/>
    <path id="Path_2973" data-name="Path 2973" d="M503.456,143.311c-14.964,30.35-5.671,36.7-4.19,37.479-3.169-1.473-44.363-20.827-38.945-25.738,3.522-3.2,6.538-17.12,8.311-27.1C469.684,122,470.3,117.45,470.3,117.45l43.227,7.927A203.8,203.8,0,0,0,503.456,143.311Z" transform="translate(-232.23 -65.132)" fill="#ffc5d3"/>
    <path id="Path_2974" data-name="Path 2974" d="M584.447,175.383l-.89,1.189-17.105,12.063-3.622-5.955c5.272-3.07,21.08-8.441,21.08-8.441Z" transform="translate(-256.188 -78.342)" opacity="0.1"/>
    <path id="Path_2975" data-name="Path 2975" d="M599.941,203.3c-1.535,5.372-27.434,0-27.434,0l-2.686-4.221s-.269-.537-.721-1.412c-1.658-3.215-5.671-10.828-7.329-12.178-2.11-1.727,22.638-10.168,22.638-10.168l7.582,16.5a30.56,30.56,0,0,1,5.142,4.351C599.051,198.25,600.64,200.851,599.941,203.3Z" transform="translate(-255.913 -78.593)" fill="#e5e8ef"/>
    <path id="Path_2976" data-name="Path 2976" d="M555.55,215s15.348,12.109,17.65,11.235,39.521,24.257,39.521,24.257,4.221,16.115-13.237,17.074c0,0-37.027-1.535-38.561-6.907S555.55,215,555.55,215Z" transform="translate(-254.495 -87.823)" fill="#5f5570"/>
    <path id="Path_2977" data-name="Path 2977" d="M495.991,183.273,479.3,200.539l23.405,148.874,9.209-5.372s23.789,10.552,25.708.767,1.389-48.346,1.389-48.346L535.9,226.8s-10.935-24.365-10.935-25.132-15.77-12.662-15.77-12.662l-7.444-5.755Z" transform="translate(-236.759 -80.437)" opacity="0.1"/>
    <path id="Path_2978" data-name="Path 2978" d="M495.991,180.273,479.3,197.539l23.405,148.874,9.209-5.372s23.789,10.552,25.708.767,1.389-48.346,1.389-48.346L535.9,223.8s-10.935-24.365-10.935-25.132-15.77-12.662-15.77-12.662l-7.444-5.755Z" transform="translate(-236.759 -79.74)" fill="#e5e8ef"/>
    <path id="Path_2979" data-name="Path 2979" d="M500.9,182.534l-4.6,9.4,4.6,4.858s16.5,33.32,13.238,53.08l3.453,65.036,11.127,10.935,8.825-10.191-4.221-59.089s-11.319-48.729-23.214-63.885L506.66,179.25Z" transform="translate(-240.713 -79.507)" opacity="0.1"/>
    <path id="Path_2980" data-name="Path 2980" d="M500.9,180.534l-4.6,9.4,4.6,4.858s16.5,33.32,13.238,53.08l3.453,65.036,11.127,10.935,8.825-10.191-4.221-59.089s-11.319-48.729-23.214-63.885L506.66,177.25Z" transform="translate(-240.713 -79.042)" fill="#bc8487"/>
    <path id="Path_2981" data-name="Path 2981" d="M516.192,125.366c-4.19,6.753-7.49,12.7-10.068,17.934a29.506,29.506,0,0,1-8.365,1.2c-9.485,0-14.949-6.561-20.321-13.529-1.228-1.581-5.264-1.212-6.139-3.07,1.051-5.955,1.665-10.506,1.665-10.506Z" transform="translate(-234.898 -65.12)" opacity="0.1"/>
    <path id="Path_2982" data-name="Path 2982" d="M526.277,104.463A29.414,29.414,0,1,1,520.683,87.2,29.414,29.414,0,0,1,526.277,104.463Z" transform="translate(-234.001 -55.268)" fill="#ffc5d3"/>
    <path id="Path_2983" data-name="Path 2983" d="M486.129,187.275l-24.173-29.161s-2.233-.9,5.31-8.794c0,0,27.7,21.594,29.422,25.262S486.129,187.275,486.129,187.275Z" transform="translate(-232.652 -72.545)" opacity="0.1"/>
    <path id="Path_2984" data-name="Path 2984" d="M485.129,185.275l-24.173-29.161s-2.233-.9,5.31-8.794c0,0,27.7,21.594,29.422,25.262S485.129,185.275,485.129,185.275Z" transform="translate(-232.42 -72.08)" fill="#e5e8ef"/>
    <path id="Path_2985" data-name="Path 2985" d="M557.76,378.545s-4.6-2.763-4.6-6.024-2.3-49.3-2.3-49.3-3.377-27.48-6.906-49.32h0c-2.072-12.869-4.2-23.789-5.7-25.953l-.061-.092c-4.029-5.18-3.261-30.5-28.393-67.53.338.23,9,6.308,15.348,9.362a21.039,21.039,0,0,0,4.044,1.535c5.755,1.343,24.556,8.633,23.981,20.336s1.343,38.561,1.343,38.561v55.045Z" transform="translate(-243.851 -79.756)" fill="#5f5570"/>
    <path id="Path_2986" data-name="Path 2986" d="M602.19,209.619c-1.535,5.372-27.434,0-27.434,0L572.07,205.4s-.269-.537-.721-1.412a.514.514,0,0,1-.038-.092c15.049,1.051,23.436-.046,28.071-1.4C601.3,204.57,602.888,207.171,602.19,209.619Z" transform="translate(-258.161 -84.913)" opacity="0.1"/>
    <path id="Path_2987" data-name="Path 2987" d="M572.3,204.947s8.058,22.254,6.907,27.818S597.816,260.2,597.816,260.2l18.8-13.046s-7.1-14.2-6.139-18.417S605.49,215.5,605.49,215.5l.384-14.949S602.42,207.034,572.3,204.947Z" transform="translate(-258.391 -84.462)" fill="#5f5570"/>
    <path id="Path_2988" data-name="Path 2988" d="M520.771,87.312l-14.58.553a16.238,16.238,0,0,0-4.221.529c-5.211,1.6-7.613,7.144-7.8,12.125s-3.07,10.559-8.648,11a2.156,2.156,0,0,1-1.589-.353,2.625,2.625,0,0,1-.675-1.358,29.7,29.7,0,0,0-3.668-8.2c-2.3.414-4.006,2.6-4.6,4.888a27.5,27.5,0,0,0-.43,7.068,45.742,45.742,0,0,1-.867,8.971A29.413,29.413,0,1,1,520.8,87.31Z" transform="translate(-234.089 -55.376)" opacity="0.1"/>
    <path id="Path_2989" data-name="Path 2989" d="M498.3,82.266a16.237,16.237,0,0,1,4.221-.529l17.7-.66c2.594-.1,5.487-.33,7.229-2.256a6.76,6.76,0,0,0,1.351-2.525,10.9,10.9,0,0,0-1.143-8.925c-2.049-3.261-5.64-5.157-9.063-6.907a105.314,105.314,0,0,0-9.8-4.6,52.183,52.183,0,0,0-38.446.553,15.517,15.517,0,0,0-3.423,1.834A17.689,17.689,0,0,0,463.2,62.7l-5.825,8.779a12.086,12.086,0,0,0-1.834,3.545c-1.1,4.167,2.3,8.334,1.949,12.624-.2,2.133-1.328,4.09-1.535,6.224-.276,2.755.982,5.372,2.218,7.881l10.237,20.65a45.752,45.752,0,0,0,2.479-14.964c0-2.371-.2-4.781.43-7.068s2.3-4.474,4.6-4.888a29.6,29.6,0,0,1,3.676,8.2,2.593,2.593,0,0,0,.675,1.358,2.149,2.149,0,0,0,1.589.353c5.61-.437,8.441-5.963,8.648-11S493.092,83.869,498.3,82.266Z" transform="translate(-231.182 -50.015)" fill="#8f7080"/>
    <path id="Path_2990" data-name="Path 2990" d="M190.89,470.549l7.167-2.049,108.072,5.886-11.895,1.535Z" transform="translate(-44.403 -108.972)" fill="#7b728f"/>
    <path id="Path_2991" data-name="Path 2991" d="M190.89,470.549l7.167-2.049,108.072,5.886-11.895,1.535Z" transform="translate(-44.403 -108.972)" opacity="0.1"/>
    <path id="Path_2992" data-name="Path 2992" d="M339.052,579.768l-14.258-1.328-5-.46v-79.3l1.32-18.41.292-4.1h14.711Z" transform="translate(-74.386 -110.756)" fill="#7b728f"/>
    <path id="Path_2993" data-name="Path 2993" d="M335.153,577.726l-11.373-1.259-3.99-.437V500.841l1.051-17.45.23-3.891H332.8Z" transform="translate(-74.386 -111.531)" opacity="0.1"/>
    <path id="Path_2994" data-name="Path 2994" d="M401.42,515.519s7.1-15.57,10.076-16.054a45.8,45.8,0,0,1,8.441,0l-.483,4.512s-7.29.576-9.592,12.754Z" transform="translate(-218.643 -153.942)" fill="#7b728f"/>
    <path id="Path_2995" data-name="Path 2995" d="M401.42,515.519s7.1-15.57,10.076-16.054a45.8,45.8,0,0,1,8.441,0l-.483,4.512s-7.29.576-9.592,12.754Z" transform="translate(-218.643 -153.942)" opacity="0.1"/>
    <path id="Path_2996" data-name="Path 2996" d="M436.108,497.41s19.085,9.493,16.591,20.62l-10.36-.576s-4.988-16.591-8.917-17.458S436.108,497.41,436.108,497.41Z" transform="translate(-225.797 -153.514)" fill="#7b728f"/>
    <path id="Path_2997" data-name="Path 2997" d="M499.153,267.835v.56l-.384,63.9s-9.784,53.717-12.47,55.828-61.583-3.645-61.583-3.645L398.05,204.717c-.192-30.7,21.487-29.736,21.487-29.736,2.878-4.6,16.691-8.249,16.691-8.249l7.674-7.482.246-.345a6.822,6.822,0,0,1,1.934-1.911h0c1.581-.913,2.586.292,3.162,1.481a8.928,8.928,0,0,1,.6,1.742C480.928,183.015,499.153,267.835,499.153,267.835Z" transform="translate(-217.859 -74.255)" fill="#5f5570"/>
    <path id="Path_2998" data-name="Path 2998" d="M509.726,268.932v.56c-9.646-17.65-46.811-84.52-56.979-87.851l3.914-2.686s2.609-1.535-2.187-3.07c0,0-7.482.959-7.674-8.058L454.719,160l1.934-1.911h0l3.162,1.481a8.924,8.924,0,0,1,.6,1.742C491.5,184.112,509.726,268.932,509.726,268.932Z" transform="translate(-229.199 -74.585)" opacity="0.1"/>
    <path id="Path_2999" data-name="Path 2999" d="M510.726,267.932v.56c-9.646-17.65-46.811-84.52-56.979-87.851l3.914-2.686s2.609-1.535-2.187-3.07c0,0-7.482.959-7.674-8.058L455.719,159l1.934-1.911h0l3.162,1.481a8.928,8.928,0,0,1,.6,1.742C492.5,183.112,510.726,267.932,510.726,267.932Z" transform="translate(-229.431 -74.352)" fill="#433a59"/>
    <path id="Path_3000" data-name="Path 3000" d="M539.255,248.9l-.061-.092c-4.029-5.18-3.261-30.5-28.393-67.53.338.23,9,6.308,15.348,9.362l-1.773,5.848,3.837,2.049Z" transform="translate(-244.086 -79.979)" opacity="0.1"/>
    <path id="Path_3001" data-name="Path 3001" d="M538.255,247.9l-.061-.092c-4.029-5.18-3.261-30.5-28.393-67.53.338.23,9,6.308,15.348,9.362l-1.773,5.848,3.837,2.049Z" transform="translate(-243.853 -79.747)" fill="#433a59"/>
    <path id="Path_3002" data-name="Path 3002" d="M507.883,172.58l-1.573,6.646s1.151,6.653,8.05,7.229l1.113-3.169S508.029,178.512,507.883,172.58Z" transform="translate(-243.041 -77.956)" opacity="0.1"/>
    <path id="Path_3003" data-name="Path 3003" d="M507.883,171.58l-1.573,6.646s1.151,6.653,8.05,7.229l1.113-3.169S508.029,177.512,507.883,171.58Z" transform="translate(-243.041 -77.723)" fill="#e5e8ef"/>
    <path id="Path_3004" data-name="Path 3004" d="M329.306,477.57l-4.512,101.2-5-.46V499l1.32-18.41Z" transform="translate(-74.386 -111.082)" opacity="0.1"/>
    <path id="Path_3005" data-name="Path 3005" d="M191.3,516.653l-3.07,54.738,104.365,8.7,4.574-102.523Z" transform="translate(-43.784 -111.082)" fill="#7b728f"/>
    <path id="Path_3006" data-name="Path 3006" d="M189.23,521.516l2.041-48.346,106.9,4.911-5.088,51.108Z" transform="translate(-44.017 -110.059)" opacity="0.1"/>
    <path id="Path_3007" data-name="Path 3007" d="M188.23,519.516l2.041-48.346,106.9,4.911-5.088,51.108Z" transform="translate(-43.784 -109.593)" fill="#7b728f"/>
    <rect id="Rectangle_819" data-name="Rectangle 819" width="12.854" height="14.964" transform="translate(189.4 409.984)" fill="#c3bbc8"/>
    <path id="Path_3008" data-name="Path 3008" d="M411.5,455.78l-1.918,5.18s-4.029,28.393.959,31.847,19.76,3.645,20.528,1.918,6.139-21.3,6.139-21.3,4.8,14.389,7.29,13.237-5.755-28.5-5.755-28.5Z" transform="translate(-220.184 -143.831)" fill="#ffc5d3"/>
    <path id="Path_3009" data-name="Path 3009" d="M410.05,424.648v27.434s20.336,3.837,29.161-2.793c0,0-8.249-26.559-5.18-33.274S410.05,424.648,410.05,424.648Z" transform="translate(-220.65 -134.185)" opacity="0.1"/>
    <path id="Path_3010" data-name="Path 3010" d="M410.05,423.648v27.434s20.336,3.837,29.161-2.793c0,0-8.249-26.559-5.18-33.274S410.05,423.648,410.05,423.648Z" transform="translate(-220.65 -133.953)" fill="#e5e8ef"/>
    <path id="Path_3011" data-name="Path 3011" d="M404.766,214.045l-5.372,2.878s-.959,11.511-1.535,13.046,0,17.074,0,17.074l-.261,31.463s-.829,16.691,0,22.638,1.757,28.585,1.757,28.585,5.188,22.063,3.269,29.928.192,25.516,3.453,23.981,33.381-7.482,34.916-8.633.767-11.895,0-13.237-5.372-19.568-4.988-23.789-1.343-41.247-1.343-41.247,2.878-39.521,4.029-48.729-2.3-36.259-5.372-36.643S421.265,190.064,404.766,214.045Z" transform="translate(-217.668 -84.926)" opacity="0.1"/>
    <path id="Path_3012" data-name="Path 3012" d="M402.766,212.045l-5.372,2.878s-.959,11.511-1.535,13.046,0,17.074,0,17.074l-.261,31.463s-.829,16.691,0,22.638,1.757,28.585,1.757,28.585,5.188,22.062,3.269,29.928.192,25.516,3.453,23.981,33.381-7.482,34.916-8.633.767-11.895,0-13.237-5.372-19.568-4.988-23.789-1.343-41.247-1.343-41.247,2.878-39.521,4.029-48.729-2.3-36.259-5.372-36.643S419.265,188.064,402.766,212.045Z" transform="translate(-217.203 -84.461)" fill="#5f5570"/>
    <g id="Group_1101" data-name="Group 1101" transform="translate(225.229 17.686)" opacity="0.1">
      <path id="Path_3013" data-name="Path 3013" d="M475.1,104.77c-2.3.414-4.006,2.6-4.6,4.888a27.5,27.5,0,0,0-.43,7.068,45.745,45.745,0,0,1-2.471,14.964l-10.245-20.65c-.2-.407-.407-.829-.606-1.251a27.9,27.9,0,0,0,1.757,4.129l10.245,20.65a45.744,45.744,0,0,0,2.471-14.964,26.834,26.834,0,0,1,.43-7.068c.622-2.287,2.3-4.474,4.6-4.888a30.8,30.8,0,0,1,1.988,3.63A29.927,29.927,0,0,0,475.1,104.77Z" transform="translate(-456.74 -79.868)"/>
      <path id="Path_3014" data-name="Path 3014" d="M535.057,72.32a10.867,10.867,0,0,1-.184,5.717,6.775,6.775,0,0,1-1.358,2.525c-1.742,1.926-4.6,2.156-7.229,2.256l-17.7.66a16.291,16.291,0,0,0-4.228.529c-5.2,1.6-7.613,7.144-7.8,12.125s-3.07,10.559-8.648,11a2.156,2.156,0,0,1-1.589-.353h0c.177.5.345,1.005.491,1.535a2.532,2.532,0,0,0,.668,1.358,2.156,2.156,0,0,0,1.588.353c5.617-.437,8.441-5.963,8.648-11s2.6-10.521,7.8-12.125a16.292,16.292,0,0,1,4.228-.529l17.7-.66c2.594-.1,5.487-.33,7.229-2.256a6.777,6.777,0,0,0,1.358-2.525,10.9,10.9,0,0,0-.975-8.61Z" transform="translate(-463.621 -72.32)"/>
    </g>
    <path id="Path_3015" data-name="Path 3015" d="M512.28,481.479s6.646-3.453,9.209-3.261,25.577,29.46,25.577,29.46Z" transform="translate(-244.43 -149.048)" opacity="0.1"/>
    <path id="Path_3016" data-name="Path 3016" d="M419.864,224.35s-12.148,5.188-11.825,8.771S419.864,224.35,419.864,224.35Z" transform="translate(-220.181 -89.998)" opacity="0.1"/>
    <path id="Path_3017" data-name="Path 3017" d="M412.607,246.45s-12.746,16.3-9.93,16.844S412.607,246.45,412.607,246.45Z" transform="translate(-218.841 -95.138)" opacity="0.1"/>
    <path id="Path_3018" data-name="Path 3018" d="M468.82,278.28s1.166,36.451-8.18,41.055Z" transform="translate(-232.418 -102.542)" opacity="0.1"/>
    <path id="Path_3019" data-name="Path 3019" d="M408,403.829s8.994-5.111,11.058-4.09S408,403.829,408,403.829Z" transform="translate(-220.174 -130.764)" opacity="0.1"/>
    <path id="Path_3020" data-name="Path 3020" d="M410.05,413.973s5.679.407,8.372-.767S410.05,413.973,410.05,413.973Z" transform="translate(-220.65 -133.84)" opacity="0.1"/>
    <path id="Path_3021" data-name="Path 3021" d="M586.7,239.41s7.045,20.236,11.1,20.236" transform="translate(-261.741 -93.501)" opacity="0.1"/>
    <path id="Path_3022" data-name="Path 3022" d="M456.16,743.967s13.214-3.584,15.164,0S456.16,743.967,456.16,743.967Z" transform="translate(-231.376 -210.495)" opacity="0.1"/>
    <path id="Path_3023" data-name="Path 3023" d="M401.058,675.21s-3.292,5.042,1.059,6.577S401.058,675.21,401.058,675.21Z" transform="translate(-218.281 -194.872)" opacity="0.1"/>
    <path id="Path_3024" data-name="Path 3024" d="M515.8,583.53s9.976,8.886,14.688,9.147S515.8,583.53,515.8,583.53Z" transform="translate(-245.249 -173.546)" opacity="0.1"/>
    <path id="Path_3025" data-name="Path 3025" d="M1010.375,109.084s-64.607-3.921-56.994,41.355c0,0-1.535,8,5.74,11.641,0,0,.115-3.361,6.63-2.218a30.243,30.243,0,0,0,7.014.338,14.642,14.642,0,0,0,8.572-3.522h0s18.164-7.5,25.224-37.188c0,0,5.226-6.477,5.019-8.142l-10.9,4.658s3.73,7.866.767,14.4c0,0-.353-14.12-2.448-13.813-.43.069-5.671,2.724-5.671,2.724s6.415,13.706,1.573,23.659c0,0,1.842-16.883-3.568-22.669l-7.674,4.482s7.5,14.151,2.417,25.7c0,0,1.3-17.711-4.029-24.61l-6.953,5.425s7.037,13.951,2.747,23.528c0,0-.56-20.62-4.259-22.178,0,0-6.078,5.372-7.006,7.566,0,0,4.819,10.13,1.826,15.471,0,0-1.834-13.736-3.338-13.813,0,0-6.062,9.1-6.692,15.348,0,0,.261-9.285,5.226-16.215,0,0-5.863,1.005-9.285,4.812,0,0,.944-6.438,10.743-7,0,0,5-6.907,6.346-7.329,0,0-9.784-.813-15.716,1.811,0,0,5.226-6.07,17.512-3.307l6.906-5.6s-12.884-1.765-18.341.184c0,0,6.285-5.372,20.19-1.458l7.474-4.474s-10.981-2.364-17.52-1.535c0,0,6.907-3.722,19.707.315l5.372-2.4s-8.042-1.581-10.4-1.826-2.486-.906-2.486-.906a27.925,27.925,0,0,1,15.118,1.681S1010.575,109.767,1010.375,109.084Z" transform="translate(-346.889 -63.166)" fill="#161b77"/>
    <path id="Path_3026" data-name="Path 3026" d="M852.84,97.789s-29.161-1.757-25.754,18.7a4.991,4.991,0,0,0,2.594,5.257s.054-1.535,2.993-1.005a13.084,13.084,0,0,0,3.177.153,6.615,6.615,0,0,0,3.837-1.6h0s8.2-3.392,11.4-16.806c0,0,2.364-2.924,2.3-3.676l-4.942,2.1s1.681,3.553.361,6.507c0,0-.161-6.377-1.113-6.231-.192,0-2.555,1.236-2.555,1.236s2.893,6.193.706,10.69c0,0,.836-7.628-1.612-10.245l-3.461,2.026s3.384,6.392,1.09,11.611c0,0,.591-8-1.819-11.119l-3.139,2.456s3.177,6.3,1.236,10.628c0,0-.253-9.316-1.919-10.022,0,0-2.747,2.425-3.169,3.423,0,0,2.179,4.6.829,6.991,0,0-.829-6.208-1.535-6.239,0,0-2.74,4.113-3.023,6.907a14.887,14.887,0,0,1,2.363-7.321,8.227,8.227,0,0,0-4.2,2.172s.43-2.908,4.873-3.162c0,0,2.264-3.123,2.87-3.307,0,0-4.42-.376-7.106.813,0,0,2.364-2.74,7.912-1.535l3.07-2.532s-5.825-.767-8.288.084c0,0,2.839-2.425,9.117-.66l3.384-2.018s-4.965-1.067-7.919-.683c0,0,3.116-1.681,8.909.138l2.41-1.082s-3.63-.714-4.7-.829-1.12-.407-1.12-.407a12.669,12.669,0,0,1,6.83.767S852.932,98.111,852.84,97.789Z" transform="translate(-317.593 -60.55)" fill="#161b77"/>
    <ellipse id="Ellipse_207" data-name="Ellipse 207" cx="20.666" cy="3.492" rx="20.666" ry="3.492" transform="translate(629.007 551.245)" fill="#161b77" opacity="0.1"/>
    <ellipse id="Ellipse_208" data-name="Ellipse 208" cx="20.666" cy="3.492" rx="20.666" ry="3.492" transform="translate(0 499.269)" fill="#161b77" opacity="0.1"/>
    <ellipse id="Ellipse_209" data-name="Ellipse 209" cx="20.666" cy="3.492" rx="20.666" ry="3.492" transform="translate(614.626 483.615)" fill="#161b77" opacity="0.1"/>
    <ellipse id="Ellipse_210" data-name="Ellipse 210" cx="20.666" cy="3.492" rx="20.666" ry="3.492" transform="translate(79.931 518.001)" fill="#161b77" opacity="0.1"/>
    <ellipse id="Ellipse_211" data-name="Ellipse 211" cx="20.666" cy="3.492" rx="20.666" ry="3.492" transform="translate(522.508 521.002)" fill="#161b77" opacity="0.1"/>
    <ellipse id="Ellipse_212" data-name="Ellipse 212" cx="30.857" cy="5.218" rx="30.857" ry="5.218" transform="translate(573.586 586.936)" fill="#161b77"/>
    <path id="Path_3027" data-name="Path 3027" d="M958.87,805.49a8.962,8.962,0,0,0,2.939-4.436,3.958,3.958,0,0,0-2.057-4.52c-1.888-.721-3.906.583-5.433,1.9s-3.284,2.832-5.287,2.555a8.057,8.057,0,0,0,2.494-7.536,3.17,3.17,0,0,0-.7-1.535c-1.044-1.12-2.947-.637-4.2.246-3.99,2.809-5.1,8.226-5.126,13.107-.4-1.765-.061-3.6-.077-5.372s-.5-3.837-2.026-4.773a6.139,6.139,0,0,0-3.07-.729c-1.8-.061-3.791.115-5.011,1.427-1.535,1.627-1.128,4.366.192,6.139s3.338,2.916,5.2,4.159a11.426,11.426,0,0,1,3.707,3.538,2.939,2.939,0,0,1,.276.629h11.25a31.386,31.386,0,0,0,6.93-4.8Z" transform="translate(-341.674 -221.869)" fill="#161b77"/>
    <path id="Path_3028" data-name="Path 3028" d="M292.2,617s4.221,5.51-1.941,13.813-11.242,15.348-9.209,20.535c0,0,9.3-15.455,16.883-15.67S300.528,626.316,292.2,617Z" transform="translate(-190.538 -181.332)" fill="#161b77"/>
    <path id="Path_3029" data-name="Path 3029" d="M292.277,617a6.624,6.624,0,0,1,.859,1.727c7.382,8.671,11.319,16.767,4.221,16.975-6.607.184-14.534,12-16.437,14.987a7.091,7.091,0,0,0,.223.683s9.3-15.455,16.883-15.67S300.6,626.316,292.277,617Z" transform="translate(-190.613 -181.332)" opacity="0.1"/>
    <path id="Path_3030" data-name="Path 3030" d="M305.637,625.8c0,1.942-.215,3.515-.483,3.515s-.483-1.535-.483-3.515.269-1.028.537-1.028S305.637,623.858,305.637,625.8Z" transform="translate(-196.138 -183.086)" fill="#ffd037"/>
    <path id="Path_3031" data-name="Path 3031" d="M308.433,628.8c-1.7.929-3.192,1.489-3.315,1.259s1.143-1.182,2.847-2.11,1.036-.253,1.159,0S310.136,627.877,308.433,628.8Z" transform="translate(-196.24 -183.768)" fill="#ffd037"/>
    <path id="Path_3032" data-name="Path 3032" d="M263.838,617s-4.221,5.51,1.941,13.813,11.242,15.348,9.209,20.535c0,0-9.293-15.455-16.883-15.67S255.512,626.316,263.838,617Z" transform="translate(-184.436 -181.332)" fill="#161b77"/>
    <path id="Path_3033" data-name="Path 3033" d="M263.833,617a6.768,6.768,0,0,0-.867,1.727c-7.382,8.672-11.311,16.768-4.221,16.975,6.615.184,14.542,12,16.445,14.987a5.5,5.5,0,0,1-.23.683s-9.293-15.455-16.883-15.67S255.507,626.316,263.833,617Z" transform="translate(-184.431 -181.332)" opacity="0.1"/>
    <path id="Path_3034" data-name="Path 3034" d="M256.49,625.8c0,1.942.223,3.515.491,3.515s.483-1.535.483-3.515-.269-1.028-.537-1.028S256.49,623.858,256.49,625.8Z" transform="translate(-184.931 -183.086)" fill="#ffd037"/>
    <path id="Path_3035" data-name="Path 3035" d="M252.684,628.8c1.7.929,3.185,1.489,3.315,1.259s-1.151-1.182-2.855-2.11-1.028-.253-1.159,0S250.973,627.877,252.684,628.8Z" transform="translate(-183.803 -183.768)" fill="#ffd037"/>
    <path id="Path_3036" data-name="Path 3036" d="M258.24,658.95s11.787-.361,15.348-2.893,18.133-5.548,19.008-1.489,17.719,20.175,4.412,20.282-30.926-2.072-34.471-4.236S258.24,658.95,258.24,658.95Z" transform="translate(-185.338 -189.608)" fill="#a8a8a8"/>
    <path id="Path_3037" data-name="Path 3037" d="M297.239,675.364c-13.307.107-30.926-2.072-34.471-4.236-2.694-1.642-3.776-7.543-4.136-10.268h-.391s.767,9.508,4.29,11.664,21.165,4.343,34.471,4.236c3.837,0,5.165-1.4,5.1-3.423C301.559,674.573,300.093,675.341,297.239,675.364Z" transform="translate(-185.338 -191.534)" opacity="0.2"/>
  </g>
</svg>
