<svg xmlns="http://www.w3.org/2000/svg" width="96" height="96" viewBox="0 0 96 96">
  <g id="transparency" transform="translate(-1104 -382)">
    <path id="Path_22" data-name="Path 22" d="M6.9,80.413H5v-5.7H6.9Zm0-33.052H5v5.7H6.9Zm0-13.867H5v5.7H6.9Zm0,27.544H5v5.7H6.9ZM57.618,92h5.7V90.1h-5.7ZM16.777,92h5.7V90.1h-5.7Zm56.417-1.9H71.1V92h3.989V88.391h-1.9ZM6.9,88.391H5V92H8.989V90.1H6.9ZM5,25.515H6.9v-1.71h2.09v-1.9H5ZM30.454,92h5.7V90.1h-5.7Zm13.487,0h5.7V90.1h-5.7ZM92,6.9V75.094a1.8,1.8,0,0,1-1.9,1.9H75.094v3.8h-1.9v-3.8H21.906a1.8,1.8,0,0,1-1.9-1.9V23.806H16.777v-1.9h3.229V6.9a1.8,1.8,0,0,1,1.9-1.9H90.1A1.8,1.8,0,0,1,92,6.9ZM23.806,18.3l9.5-9.5h-9.5Zm0,13.107L46.41,8.8h-7.6L24,23.616V31.4Zm0,12.917L59.517,8.8h-7.6L23.806,36.723Zm0,13.107L72.434,8.8h-7.6L23.806,49.83Zm0,13.107L85.541,8.8h-7.6L23.806,62.747ZM88.2,63.7l-9.5,9.5h9.5Zm0-13.107-22.6,22.6h7.6L88.011,58.378V50.59Zm0-13.107L52.679,73.194h7.6L88.2,45.271Zm0-12.917L39.572,73.194h7.6L88.2,32.164v-7.6Zm0-13.107L26.465,73.194h7.6L88.011,19.247V11.459Z" transform="translate(1104 382)" fill="#082865"/>
    <rect id="Rectangle_6" data-name="Rectangle 6" width="96" height="96" transform="translate(1104 382)" fill="none"/>
  </g>
</svg>
