<svg xmlns="http://www.w3.org/2000/svg" xmlns:xlink="http://www.w3.org/1999/xlink" width="113.005" height="110" viewBox="0 0 113.005 110">
  <defs>
    <clipPath id="clip-path">
      <rect width="113.005" height="110" fill="none"/>
    </clipPath>
  </defs>
  <g id="transaction-free" clip-path="url(#clip-path)">
    <path id="icon" d="M104.235,110l-13.9-13.9h-81C4.188,96.094,0,91.485,0,85.817V24.178c0-5.2,3.532-9.584,8.22-10.2L1.5,7.263,8.77,0,111.5,102.733,104.244,110l0,0ZM10.272,85.817H80.061L44.1,49.864H10.272Zm0-46.23H33.831L18.418,24.178H10.272Zm92.46,39.994V49.864H73.016L62.739,39.587h39.994V24.178H47.33L37.058,13.906h66.608c5.159,0,9.338,4.6,9.338,10.272V85.817a11.188,11.188,0,0,1-.55,3.486Z" fill="#082865"/>
  </g>
</svg>
