<svg xmlns="http://www.w3.org/2000/svg" xmlns:xlink="http://www.w3.org/1999/xlink" width="107.075" height="110" viewBox="0 0 107.075 110">
  <defs>
    <clipPath id="clip-path">
      <rect width="107.075" height="110" fill="none"/>
    </clipPath>
  </defs>
  <g id="_24_security_trustless" data-name="24 / security / trustless" clip-path="url(#clip-path)">
    <path id="icon" d="M19.787,89.979C12.321,83.346,8.537,76.623,8.537,70V20a7.825,7.825,0,0,1,.351-2.574L0,8.537,7.07,1.463,107.075,101.468,100,108.537l-15.89-15.89C76.78,98.4,66.493,104.244,53.537,110,38.606,103.349,27.252,96.617,19.787,89.979ZM18.536,70c0,8.024,12.758,18.6,35.006,29.008,9.72-4.541,17.618-9.072,23.468-13.469L18.536,27.072Zm70-1.071c0-1.175,0-2.835.009-5.157,0-1.521.009-4.46.018-9.765.009-3.164.014-5.873.018-8.46.018-11.16.013-20.741,0-23.7-1.652-1.031-4.235-2.619-5.594-3.528C75.61,13.4,64.837,10,53.537,10c-6.395,0-13.923,1.841-19.953,3.978l-7.61-7.61C32.689,3.5,43.079,0,53.537,0c14.976,0,27.5,5,35,10s10,5,10,10c.131,1.458,0,42.5,0,50A19.085,19.085,0,0,1,97,77.392Z" fill="#082865"/>
  </g>
</svg>
