<svg xmlns="http://www.w3.org/2000/svg" width="96" height="96" viewBox="0 0 96 96">
  <g id="universal-distributed" transform="translate(-627 -382)">
    <path id="Path_4" data-name="Path 4" d="M83.789,59.424a36.476,36.476,0,0,0-.474-23.147,7.883,7.883,0,1,0-8.279-13.366,36.74,36.74,0,0,0-18.5-10.328,7.881,7.881,0,0,0-15.75,0,36.74,36.74,0,0,0-18.5,10.328A7.884,7.884,0,1,0,14,36.279a36.468,36.468,0,0,0-.475,23.147A7.887,7.887,0,0,0,21.384,73.1a36.737,36.737,0,0,0,19.4,11.322,7.88,7.88,0,0,0,15.749,0,36.73,36.73,0,0,0,19.4-11.322,7.885,7.885,0,0,0,7.854-13.671ZM83.209,48.5A34.44,34.44,0,0,1,81.718,58.5a7.806,7.806,0,0,0-8.9,3.682L55.893,51.675a7.826,7.826,0,0,0,0-6.349l17.7-10.992a7.86,7.86,0,0,0,6.061,2.884,7.986,7.986,0,0,0,1.571-.157A34.248,34.248,0,0,1,83.209,48.5ZM73.435,24.474A7.8,7.8,0,0,0,72.4,32.442l-17.708,11a7.823,7.823,0,0,0-4.911-2.734v-20A7.872,7.872,0,0,0,56.3,14.831,34.486,34.486,0,0,1,73.435,24.474ZM41.014,14.831A7.869,7.869,0,0,0,47.54,20.7v20a7.837,7.837,0,0,0-4.911,2.732l-17.7-10.995a7.792,7.792,0,0,0-1.044-7.968A34.5,34.5,0,0,1,41.014,14.831ZM14.108,48.5a34.321,34.321,0,0,1,1.986-11.437,8.045,8.045,0,0,0,1.574.157,7.851,7.851,0,0,0,6.063-2.887l17.7,10.989a7.816,7.816,0,0,0,0,6.358L24.5,62.19A7.811,7.811,0,0,0,15.6,58.5,34.438,34.438,0,0,1,14.108,48.5Zm9.065,23.25a7.6,7.6,0,0,0,2.16-7.443l17.3-10.744a7.822,7.822,0,0,0,4.912,2.733v20a7.876,7.876,0,0,0-6.528,5.872A34.5,34.5,0,0,1,23.173,71.748ZM56.3,82.168A7.87,7.87,0,0,0,49.778,76.3v-20a7.826,7.826,0,0,0,4.913-2.736L71.983,64.3a7.611,7.611,0,0,0,2.16,7.447A34.5,34.5,0,0,1,56.3,82.168Z" transform="translate(626.243 382)" fill="#082865"/>
    <rect id="Rectangle_3" data-name="Rectangle 3" width="96" height="96" transform="translate(627 382)" fill="none"/>
  </g>
</svg>
