<svg xmlns="http://www.w3.org/2000/svg" width="58.874" height="96" viewBox="0 0 58.874 96">
  <path id="Path_2679" data-name="Path 2679" d="M146.439,90h-15V59.713a29.218,29.218,0,0,0,17.479-7.986C160.226,40.8,160.988,12.82,150.3.99L149.4,0H107.468l-.894.99C95.89,12.82,96.658,40.8,107.966,51.727a29.188,29.188,0,0,0,17.473,7.986V90h-15a3,3,0,0,0,0,6h36a3,3,0,1,0,0-6ZM110.208,6h36.46c7.7,10.081,6.826,32.962-1.922,41.411-8.783,8.487-23.821,8.5-32.607,0C103.39,38.962,102.508,16.081,110.208,6Zm4.017,39.258c-4.371-4.225-6.486-12.905-6.246-21.258H148.9c.246,8.356-1.869,17.033-6.24,21.255C135.4,52.277,121.487,52.277,114.224,45.258Z" transform="translate(-99.003)" fill="#082865"/>
</svg>
