<svg xmlns="http://www.w3.org/2000/svg" xmlns:xlink="http://www.w3.org/1999/xlink" width="48" height="48" viewBox="0 0 48 48">
  <defs>
    <clipPath id="clip-path">
      <rect width="48" height="48" fill="none"/>
    </clipPath>
  </defs>
  <g id="dApps" transform="translate(-391 -3278)">
    <g id="_24_basic_layers" data-name="24 / basic / layers" transform="translate(391 3278)" clip-path="url(#clip-path)">
      <path id="icon" d="M24,48a5.787,5.787,0,0,1-2.776-.672L1.9,36.593a3.307,3.307,0,0,1,0-5.985L5.153,28.8,1.9,26.994a3.307,3.307,0,0,1,0-5.985L5.155,19.2,1.9,17.393A3.463,3.463,0,0,1,0,14.4a3.463,3.463,0,0,1,1.9-2.993L21.224.672a6.066,6.066,0,0,1,5.551,0L46.1,11.407A3.462,3.462,0,0,1,48,14.4a3.462,3.462,0,0,1-1.9,2.993L42.843,19.2,46.1,21.009a3.305,3.305,0,0,1,0,5.985L42.845,28.8,46.1,30.608a3.305,3.305,0,0,1,0,5.985L26.775,47.328A5.787,5.787,0,0,1,24,48ZM10.1,31.545h0L6.4,33.6l17.157,9.53a1.456,1.456,0,0,0,.89,0L41.6,33.6l-3.7-2.056L26.775,37.727a6.053,6.053,0,0,1-5.551,0L10.1,31.545Zm0-9.6h0L6.4,24l3.7,2.054L15.037,28.8l8.517,4.733a1.489,1.489,0,0,0,.89,0L32.961,28.8,37.9,26.054,41.6,24l-3.7-2.054L26.775,28.128a6.066,6.066,0,0,1-5.551,0L10.1,21.946ZM24,4.8a1.1,1.1,0,0,0-.445.068L6.4,14.4l17.157,9.53a1.467,1.467,0,0,0,.89,0L41.6,14.4,24.444,4.869A1.1,1.1,0,0,0,24,4.8Z" transform="translate(0 0)" fill="#082865"/>
    </g>
  </g>
</svg>
