<svg xmlns="http://www.w3.org/2000/svg" xmlns:xlink="http://www.w3.org/1999/xlink" width="43.2" height="48" viewBox="0 0 43.2 48">
  <defs>
    <clipPath id="clip-path">
      <rect width="43.2" height="48" fill="none"/>
    </clipPath>
  </defs>
  <g id="tokenbridge" transform="translate(-932 -3726)">
    <g id="_24_software_database" data-name="24 / software / database" transform="translate(932 3726)" clip-path="url(#clip-path)">
      <path id="icon" d="M0,38.4V9.6c0-2.84,2.2-5.27,6.357-7.029A40.658,40.658,0,0,1,21.6,0,40.65,40.65,0,0,1,36.843,2.57C41,4.329,43.2,6.759,43.2,9.6V38.4c0,5.944-9.75,9.6-21.6,9.6S0,44.345,0,38.4Zm4.8,0c0,2.009,7.443,4.8,16.8,4.8s16.8-2.791,16.8-4.8V30.29C34.428,32.413,28.355,33.6,21.6,33.6S8.773,32.413,4.8,30.29ZM4.8,24c0,2.009,7.443,4.8,16.8,4.8S38.4,26.009,38.4,24V15.89q-.726.386-1.557.738A40.6,40.6,0,0,1,21.6,19.2,40.6,40.6,0,0,1,6.357,16.628q-.831-.351-1.557-.738ZM9.69,6.446C6.674,7.392,4.8,8.6,4.8,9.6s1.875,2.21,4.89,3.154A41.138,41.138,0,0,0,21.6,14.4a41.112,41.112,0,0,0,11.908-1.648C36.526,11.809,38.4,10.6,38.4,9.6s-1.875-2.208-4.892-3.154A41.189,41.189,0,0,0,21.6,4.8,41.215,41.215,0,0,0,9.69,6.446Z" fill="#082865"/>
    </g>
  </g>
</svg>
