<svg xmlns="http://www.w3.org/2000/svg" xmlns:xlink="http://www.w3.org/1999/xlink" width="48" height="48" viewBox="0 0 48 48">
  <defs>
    <clipPath id="clip-path">
      <rect width="48" height="48" fill="none"/>
    </clipPath>
  </defs>
  <g id="tokendex" transform="translate(-1469 -3278)">
    <g id="_24_security_verified" data-name="24 / security / verified" transform="translate(1469 3278)" clip-path="url(#clip-path)">
      <path id="icon" d="M16.157,42.934a18.79,18.79,0,0,1-2.9.243A8.347,8.347,0,0,1,7.03,40.972C5.054,39,4.412,36.012,5.066,31.843,1.657,29.357,0,26.79,0,24s1.657-5.357,5.066-7.843C4.412,11.99,5.056,9,7.03,7.03a8.46,8.46,0,0,1,6.231-2.207,18.948,18.948,0,0,1,2.9.243C18.643,1.657,21.21,0,24,0s5.357,1.657,7.843,5.066a18.988,18.988,0,0,1,2.9-.243A8.465,8.465,0,0,1,40.972,7.03c1.973,1.973,2.616,4.958,1.962,9.127C46.343,18.643,48,21.21,48,24s-1.657,5.357-5.066,7.843c.654,4.169.012,7.156-1.962,9.129a8.463,8.463,0,0,1-6.229,2.205,19,19,0,0,1-2.9-.243C29.357,46.343,26.79,48,24,48S18.643,46.343,16.157,42.934Zm2.828-3.59C20.8,42.152,22.537,43.637,24,43.637s3.2-1.485,5.015-4.293a2.175,2.175,0,0,1,1.834-1,2.215,2.215,0,0,1,.456.047,16.869,16.869,0,0,0,3.44.422,4.361,4.361,0,0,0,3.14-.933c1.035-1.035,1.212-3.309.511-6.58a2.2,2.2,0,0,1,.948-2.29C42.152,27.2,43.637,25.463,43.637,24s-1.485-3.2-4.293-5.015A2.2,2.2,0,0,1,38.4,16.7c.7-3.271.524-5.547-.511-6.582a4.361,4.361,0,0,0-3.14-.933A16.869,16.869,0,0,0,31.3,9.6a2.124,2.124,0,0,1-.459.049,2.173,2.173,0,0,1-1.83-1C27.2,5.848,25.463,4.363,24,4.363s-3.2,1.485-5.015,4.293a2.167,2.167,0,0,1-1.828,1A2.124,2.124,0,0,1,16.7,9.6a16.869,16.869,0,0,0-3.44-.422,4.363,4.363,0,0,0-3.142.933C9.08,11.15,8.9,13.426,9.6,16.7a2.189,2.189,0,0,1-.948,2.288C5.848,20.8,4.363,22.537,4.363,24s1.485,3.2,4.293,5.015A2.195,2.195,0,0,1,9.6,31.3c-.7,3.271-.524,5.545.511,6.58a4.363,4.363,0,0,0,3.142.933A16.869,16.869,0,0,0,16.7,38.4a2.215,2.215,0,0,1,.456-.047A2.17,2.17,0,0,1,18.985,39.344ZM13.73,23.362l3.085-3.087,5,5,9.367-9.367L34.27,19,21.818,31.45Z" fill="#082865"/>
    </g>
  </g>
</svg>
